<svg width="55" height="55" viewBox="0 0 55 55" fill="none" xmlns="http://www.w3.org/2000/svg">
<circle cx="27.5" cy="27.5" r="27" stroke="url(#paint0_linear_1874_15978)"/>
<path d="M20.776 34V32.44C22.36 31.272 23.68 30.248 24.736 29.368C25.808 28.488 26.664 27.688 27.304 26.968C27.944 26.248 28.4 25.568 28.672 24.928C28.944 24.272 29.08 23.592 29.08 22.888C29.08 21.944 28.776 21.184 28.168 20.608C27.576 20.016 26.76 19.72 25.72 19.72C24.632 19.72 23.76 20.08 23.104 20.8C22.448 21.504 22.064 22.448 21.952 23.632L20.272 22.624C20.416 21.696 20.712 20.88 21.16 20.176C21.624 19.472 22.24 18.92 23.008 18.52C23.792 18.12 24.72 17.92 25.792 17.92C26.608 17.92 27.336 18.04 27.976 18.28C28.632 18.52 29.192 18.864 29.656 19.312C30.12 19.744 30.472 20.264 30.712 20.872C30.968 21.48 31.096 22.152 31.096 22.888C31.096 23.88 30.856 24.856 30.376 25.816C29.896 26.76 29.104 27.752 28 28.792C26.896 29.832 25.4 30.984 23.512 32.248V32.272C23.688 32.256 23.928 32.248 24.232 32.248C24.552 32.232 24.864 32.224 25.168 32.224C25.488 32.208 25.728 32.2 25.888 32.2H31.432V34H20.776Z" fill="#F4F4F6"/>
<defs>
<linearGradient id="paint0_linear_1874_15978" x1="27.5" y1="0" x2="27.5" y2="55" gradientUnits="userSpaceOnUse">
<stop stop-color="#00FFB3"/>
<stop offset="1" stop-color="#9500FF"/>
</linearGradient>
</defs>
</svg>
