<svg width="55" height="55" viewBox="0 0 55 55" fill="none" xmlns="http://www.w3.org/2000/svg">
<circle cx="27.5" cy="27.5" r="27" stroke="url(#paint0_linear_1874_15986)"/>
<path d="M26.96 34.24C25.552 34.24 24.304 33.912 23.216 33.256C22.144 32.584 21.416 31.664 21.032 30.496L22.952 29.512C23.144 30.104 23.408 30.624 23.744 31.072C24.08 31.504 24.52 31.84 25.064 32.08C25.624 32.32 26.32 32.44 27.152 32.44C27.856 32.44 28.448 32.312 28.928 32.056C29.408 31.8 29.776 31.456 30.032 31.024C30.288 30.576 30.416 30.064 30.416 29.488C30.416 28.912 30.304 28.432 30.08 28.048C29.872 27.664 29.536 27.384 29.072 27.208C28.608 27.016 28 26.92 27.248 26.92C27.072 26.92 26.88 26.928 26.672 26.944C26.464 26.944 26.248 26.96 26.024 26.992V25.072C26.168 25.088 26.304 25.096 26.432 25.096C26.576 25.096 26.704 25.096 26.816 25.096C27.984 25.096 28.816 24.872 29.312 24.424C29.808 23.96 30.056 23.24 30.056 22.264C30.056 21.432 29.8 20.8 29.288 20.368C28.776 19.936 28.048 19.72 27.104 19.72C26.096 19.72 25.328 19.944 24.8 20.392C24.272 20.824 23.856 21.416 23.552 22.168L21.728 21.304C21.984 20.632 22.368 20.04 22.88 19.528C23.392 19.016 24.008 18.616 24.728 18.328C25.464 18.04 26.272 17.896 27.152 17.896C28.256 17.896 29.168 18.088 29.888 18.472C30.608 18.84 31.144 19.336 31.496 19.96C31.864 20.584 32.048 21.272 32.048 22.024C32.048 22.6 31.968 23.12 31.808 23.584C31.648 24.032 31.424 24.424 31.136 24.76C30.864 25.096 30.552 25.368 30.2 25.576C29.848 25.768 29.472 25.896 29.072 25.96V26.008C29.6 26.024 30.064 26.128 30.464 26.32C30.88 26.512 31.232 26.768 31.52 27.088C31.808 27.408 32.024 27.776 32.168 28.192C32.328 28.592 32.408 29.016 32.408 29.464C32.408 30.392 32.176 31.216 31.712 31.936C31.264 32.656 30.632 33.224 29.816 33.64C29 34.04 28.048 34.24 26.96 34.24Z" fill="#F4F4F6"/>
<defs>
<linearGradient id="paint0_linear_1874_15986" x1="27.5" y1="0" x2="27.5" y2="55" gradientUnits="userSpaceOnUse">
<stop stop-color="#00FFB3"/>
<stop offset="1" stop-color="#9500FF"/>
</linearGradient>
</defs>
</svg>
