<svg xmlns="http://www.w3.org/2000/svg" width="941" height="175" viewBox="0 0 941 175" fill="none" style="&#10;    fill: black;&#10;">
<g clip-path="url(#clip0)">
<path d="M147.33 174.577C139.359 174.577 131.886 171.109 126.732 165.15C114.564 171.319 100.998 174.577 87.298 174.577C39.1653 174.577 0 135.411 0 87.298C0 39.1845 39.1653 0 87.298 0C135.411 0 174.558 39.2803 174.577 87.5471L172.737 87.5662L174.577 87.5471V87.5662V147.33C174.577 162.352 162.352 174.577 147.33 174.577ZM129.031 155.186L130.985 158.137C134.626 163.636 140.738 166.912 147.311 166.912C158.117 166.912 166.893 158.117 166.893 147.33V87.5854C166.893 43.5149 131.177 7.6836 87.2788 7.6836C43.3807 7.66444 7.66444 43.3807 7.66444 87.298C7.66444 131.215 43.3807 166.932 87.298 166.932C100.807 166.932 114.181 163.463 125.946 156.91L129.031 155.186Z" fill="white" style="&#10;    fill: black;&#10;"/>
<path fill-rule="evenodd" clip-rule="evenodd" d="M83.8678 154.668C121.06 156.105 152.388 127.057 153.787 89.8078C153.921 86.5888 153.825 83.4655 153.499 80.3423C153.633 84.117 152.618 88.0833 150.28 90.9192C145.011 97.2998 135.948 95.7669 134.453 89.1947C133.668 85.6116 135.2 81.262 138.266 79.2118C121.27 76.51 116.442 92.9119 107.551 101.63C97.9704 111.058 83.1205 107.647 80.5913 96.4567C79.1925 90.2486 81.7984 82.6991 87.0677 79.0202C78.2153 76.9699 71.4706 79.5758 65.2432 85.8223C59.3224 91.7048 55.0878 99.5225 47.9216 103.719C41.1769 107.723 31.8071 108.107 25.8097 102.454C21.3835 98.2962 19.2949 91.6282 19.1033 84.596C17.6854 121.884 46.6761 153.212 83.8678 154.668Z" fill="url(#paint0_linear)"/>
<path fill-rule="evenodd" clip-rule="evenodd" d="M80.3805 59.0353C114.449 58.8054 109.754 17.1683 79.959 20.0041C46.9061 23.1657 20.4254 50.4511 19.1225 84.6345C19.3141 91.6667 21.4027 98.3347 25.8289 102.493C31.8263 108.126 41.1961 107.762 47.9408 103.757C50.8724 102.071 53.2867 99.7526 55.5286 97.2234C49.0521 104.773 39.1458 101.132 38.5902 91.4367C38.0728 81.9711 43.2846 72.4097 50.7958 66.8147C58.9201 60.7023 69.5353 59.0736 80.3805 59.0353Z" fill="url(#paint1_linear)"/>
<path fill-rule="evenodd" clip-rule="evenodd" d="M123.397 36.7508C129.682 36.9808 134.568 42.2501 134.3 48.5541C134.07 54.8006 128.801 59.7058 122.573 59.4567C116.289 59.1693 111.441 53.9 111.69 47.6535C111.901 41.3495 117.151 36.5017 123.397 36.7508Z" fill="url(#paint2_linear)"/>
<path fill-rule="evenodd" clip-rule="evenodd" d="M140.336 58.3264C144.053 58.4605 146.946 61.5838 146.812 65.3202C146.678 69.0566 143.497 71.9882 139.78 71.8541C136.063 71.6625 133.17 68.5392 133.304 64.8028C133.457 61.0856 136.618 58.1923 140.336 58.3264Z" fill="url(#paint3_linear)"/>
</g>
<path d="M320.786 65.4222V144.821H310.715V131.174C306.434 136.38 301.617 140.296 296.266 142.924C290.963 145.551 285.149 146.864 278.824 146.864C267.586 146.864 257.977 142.802 249.998 134.677C242.068 126.504 238.103 116.579 238.103 104.903C238.103 93.4696 242.117 83.6907 250.144 75.566C258.172 67.4412 267.829 63.3788 279.116 63.3788C285.635 63.3788 291.522 64.7654 296.777 67.5385C302.079 70.3116 306.726 74.4713 310.715 80.0175V65.4222H320.786ZM279.919 73.2307C274.227 73.2307 268.972 74.6416 264.156 77.4634C259.339 80.2365 255.496 84.1529 252.626 89.2126C249.804 94.2724 248.393 99.624 248.393 105.268C248.393 110.862 249.828 116.214 252.698 121.322C255.569 126.431 259.412 130.42 264.229 133.291C269.094 136.112 274.3 137.523 279.846 137.523C285.441 137.523 290.744 136.112 295.755 133.291C300.766 130.469 304.609 126.65 307.285 121.833C310.01 117.017 311.372 111.592 311.372 105.559C311.372 96.3644 308.331 88.6775 302.25 82.4988C296.217 76.3201 288.773 73.2307 279.919 73.2307ZM343.809 34.7719H354.025V144.821H343.809V34.7719ZM453.82 81.9149L445.719 86.9503C438.714 77.658 429.154 73.0118 417.039 73.0118C407.358 73.0118 399.306 76.1254 392.884 82.3528C386.511 88.5802 383.324 96.1454 383.324 105.049C383.324 110.838 384.784 116.287 387.703 121.395C390.67 126.504 394.709 130.469 399.817 133.291C404.974 136.112 410.739 137.523 417.112 137.523C428.789 137.523 438.324 132.877 445.719 123.585L453.82 128.912C450.025 134.604 444.917 139.031 438.495 142.194C432.121 145.307 424.848 146.864 416.675 146.864C404.123 146.864 393.711 142.875 385.44 134.896C377.17 126.917 373.034 117.211 373.034 105.778C373.034 98.0915 374.956 90.9641 378.8 84.3962C382.692 77.7796 388.019 72.6226 394.781 68.9251C401.544 65.2276 409.109 63.3788 417.477 63.3788C422.732 63.3788 427.791 64.1816 432.656 65.7871C437.57 67.3926 441.73 69.4846 445.135 72.0631C448.541 74.6416 451.436 77.9255 453.82 81.9149ZM475.018 34.7719H485.235V79.6527C489.37 74.2037 493.919 70.1413 498.881 67.4655C503.844 64.7411 509.22 63.3788 515.009 63.3788C520.945 63.3788 526.199 64.887 530.772 67.9034C535.394 70.9198 538.8 74.9821 540.989 80.0905C543.178 85.1503 544.273 93.1047 544.273 103.954V144.821H534.056V106.946C534.056 97.7996 533.691 91.6938 532.962 88.6288C531.697 83.3745 529.386 79.4337 526.029 76.8066C522.721 74.1307 518.366 72.7928 512.966 72.7928C506.787 72.7928 501.241 74.8362 496.327 78.9229C491.462 83.0096 488.251 88.0693 486.694 94.1021C485.721 97.9942 485.235 105.195 485.235 115.703V144.821H475.018V34.7719ZM634.58 118.476L643.192 123.001C640.37 128.547 637.11 133.023 633.413 136.429C629.715 139.834 625.556 142.437 620.934 144.237C616.312 145.989 611.082 146.864 605.244 146.864C592.303 146.864 582.183 142.632 574.885 134.166C567.588 125.652 563.939 116.044 563.939 105.341C563.939 95.2697 567.028 86.2936 573.207 78.4121C581.04 68.3899 591.524 63.3788 604.66 63.3788C618.185 63.3788 628.986 68.5115 637.062 78.7769C642.803 86.026 645.722 95.0751 645.819 105.924H574.448C574.642 115.168 577.586 122.758 583.278 128.693C588.97 134.58 596 137.523 604.368 137.523C608.406 137.523 612.323 136.818 616.117 135.407C619.961 133.996 623.22 132.123 625.896 129.788C628.572 127.452 631.467 123.682 634.58 118.476ZM634.58 97.0941C633.218 91.6452 631.224 87.2909 628.596 84.0313C626.018 80.7716 622.588 78.1445 618.307 76.1498C614.025 74.1551 609.525 73.1577 604.806 73.1577C597.022 73.1577 590.332 75.6633 584.737 80.6743C580.651 84.3232 577.561 89.7964 575.469 97.0941H634.58ZM666.36 65.4222H676.504V79.1418C680.056 74.0821 683.705 70.3846 687.451 68.0493C692.608 64.9357 698.032 63.3788 703.725 63.3788C707.568 63.3788 711.217 64.1329 714.671 65.6411C718.125 67.1493 720.947 69.1683 723.136 71.6982C725.326 74.1794 727.223 77.7553 728.829 82.4258C732.234 76.1984 736.491 71.4793 741.6 68.2683C746.708 65.0086 752.206 63.3788 758.092 63.3788C763.59 63.3788 768.431 64.7654 772.615 67.5385C776.847 70.3116 779.985 74.1794 782.029 79.1418C784.072 84.1043 785.094 91.5479 785.094 101.473V144.821H774.658V101.473C774.658 92.9588 774.05 87.1206 772.834 83.9583C771.617 80.7473 769.525 78.1688 766.558 76.2228C763.639 74.2767 760.136 73.3037 756.049 73.3037C751.087 73.3037 746.538 74.7632 742.402 77.6823C738.316 80.6014 735.324 84.4935 733.426 89.3586C731.529 94.2237 730.58 102.348 730.58 113.733V144.821H720.436V104.173C720.436 94.5886 719.828 88.0937 718.612 84.6881C717.444 81.2338 715.377 78.485 712.409 76.4417C709.441 74.3497 705.914 73.3037 701.827 73.3037C697.108 73.3037 692.681 74.7389 688.545 77.6093C684.459 80.4311 681.418 84.2502 679.423 89.0667C677.477 93.8831 676.504 101.254 676.504 111.179V144.821H666.36V65.4222ZM811.765 32.7286C814.101 32.7286 816.095 33.5556 817.749 35.2098C819.404 36.8639 820.231 38.8586 820.231 41.1939C820.231 43.4805 819.404 45.4508 817.749 47.105C816.095 48.7591 814.101 49.5862 811.765 49.5862C809.479 49.5862 807.508 48.7591 805.854 47.105C804.2 45.4508 803.373 43.4805 803.373 41.1939C803.373 38.8586 804.2 36.8639 805.854 35.2098C807.508 33.5556 809.479 32.7286 811.765 32.7286ZM806.657 65.4222H816.947V144.821H806.657V65.4222ZM879.523 74.1064L872.955 80.8933C867.506 75.5903 862.179 72.9388 856.973 72.9388C853.665 72.9388 850.819 74.0334 848.435 76.2228C846.099 78.4121 844.932 80.9662 844.932 83.8853C844.932 86.4638 845.905 88.9207 847.851 91.256C849.797 93.6399 853.884 96.4373 860.111 99.6483C867.701 103.589 872.858 107.384 875.582 111.033C878.258 114.73 879.596 118.89 879.596 123.512C879.596 130.031 877.309 135.553 872.736 140.077C868.163 144.602 862.446 146.864 855.586 146.864C851.013 146.864 846.635 145.867 842.451 143.872C838.315 141.878 834.885 139.129 832.161 135.626L838.583 128.328C843.789 134.215 849.31 137.158 855.149 137.158C859.235 137.158 862.714 135.845 865.584 133.218C868.455 130.59 869.89 127.501 869.89 123.95C869.89 121.031 868.941 118.428 867.044 116.141C865.146 113.903 860.865 111.081 854.2 107.676C847.048 103.978 842.183 100.329 839.605 96.7292C837.026 93.1291 835.737 89.018 835.737 84.3962C835.737 78.3634 837.78 73.3523 841.867 69.3629C846.002 65.3735 851.208 63.3788 857.484 63.3788C864.782 63.3788 872.128 66.9547 879.523 74.1064ZM908.092 35.9395H918.382V65.4222H934.582V74.1794H918.382V144.821H908.092V74.1794H894.153V65.4222H908.092V35.9395Z" fill="white" style="&#10;    fill: black;&#10;"/>
<defs>
<linearGradient id="paint0_linear" x1="94.4158" y1="53.4909" x2="73.8504" y2="147.178" gradientUnits="userSpaceOnUse">
<stop stop-color="#521C89"/>
<stop offset="0.5164" stop-color="#8D1AF1"/>
<stop offset="1" stop-color="#FFA5F6"/>
</linearGradient>
<linearGradient id="paint1_linear" x1="51.8056" y1="102.026" x2="66.6583" y2="39.1865" gradientUnits="userSpaceOnUse">
<stop stop-color="#1837D8"/>
<stop offset="0.5074" stop-color="#00C1FF"/>
<stop offset="1" stop-color="#70E6FF"/>
</linearGradient>
<linearGradient id="paint2_linear" x1="107.137" y1="115.104" x2="121.99" y2="52.2648" gradientUnits="userSpaceOnUse">
<stop stop-color="#1837D8"/>
<stop offset="0.5074" stop-color="#00C1FF"/>
<stop offset="1" stop-color="#70E6FF"/>
</linearGradient>
<linearGradient id="paint3_linear" x1="127.118" y1="119.827" x2="141.97" y2="56.9876" gradientUnits="userSpaceOnUse">
<stop stop-color="#1837D8"/>
<stop offset="0.5074" stop-color="#00C1FF"/>
<stop offset="1" stop-color="#70E6FF"/>
</linearGradient>
<clipPath id="clip0">
<rect width="174.577" height="174.577" fill="white"/>
</clipPath>
</defs>
</svg>