<svg width="104" height="108" viewBox="0 0 104 108" fill="none" xmlns="http://www.w3.org/2000/svg">
<path d="M51.9919 107.563C51.7926 107.563 51.5932 107.511 51.4145 107.408L10.7493 83.9135C10.3918 83.7071 10.1719 83.3242 10.1719 82.9115V35.9256C10.1719 35.5129 10.3918 35.13 10.7493 34.9237L51.4145 11.4295C51.772 11.2232 52.2142 11.2232 52.5716 11.4295L93.2368 34.9237C93.2918 34.9558 93.3423 34.9902 93.3927 35.0314C93.8166 35.3776 93.8165 35.694 93.8165 36.4552V82.9138C93.8165 83.3265 93.5966 83.7094 93.2391 83.9158L52.5739 107.41C52.3952 107.513 52.1959 107.566 51.9965 107.566L51.9919 107.563ZM12.4837 82.2443L51.9919 105.069L91.5001 82.2443C91.5001 76.9388 91.5001 41.8731 91.5001 36.5951L51.9919 13.7705L12.4837 36.5951V82.2443Z" fill="white"/>
<path d="M51.9919 60.5752C51.7925 60.5752 51.5932 60.5225 51.4145 60.4193L28.4286 47.1395C28.0711 46.9332 27.8512 46.5502 27.8512 46.1375C27.8512 45.7248 28.0711 45.342 28.4286 45.1356L51.4122 31.8558C51.7696 31.6495 52.2119 31.6495 52.5693 31.8558L75.5552 45.1356C75.9126 45.342 76.1326 45.7248 76.1326 46.1375C76.1326 46.5502 75.9126 46.9332 75.5552 47.1395L52.5716 60.4193C52.3928 60.5225 52.1935 60.5752 51.9942 60.5752H51.9919ZM31.3201 46.1398L51.9919 58.083L72.6636 46.1398L51.9919 34.1967L31.3201 46.1398Z" fill="white"/>
<path d="M51.9919 87.1348C51.7925 87.1348 51.5932 87.0821 51.4145 86.9789L28.4286 73.6991C28.0711 73.4927 27.8512 73.1099 27.8512 72.6972V46.1399C27.8512 45.7272 28.0711 45.3443 28.4286 45.1379C28.786 44.9316 29.2282 44.9316 29.5857 45.1379L52.5716 58.4177C52.929 58.6241 53.149 59.007 53.149 59.4197V85.9769C53.149 86.3896 52.929 86.7726 52.5716 86.9789C52.3928 87.0821 52.1935 87.1348 51.9942 87.1348H51.9919ZM30.1631 72.0299L50.8348 83.973V60.0892L30.1631 48.1461V72.0299Z" fill="white"/>
<path d="M51.9918 87.1348C51.7925 87.1348 51.5932 87.0821 51.4144 86.9789C51.057 86.7726 50.837 86.3896 50.837 85.9769V59.4197C50.837 59.007 51.057 58.6241 51.4144 58.4177L74.4003 45.1379C74.7578 44.9316 75.2 44.9316 75.5574 45.1379C75.9149 45.3443 76.1348 45.7272 76.1348 46.1399V72.6972C76.1348 73.1099 75.9149 73.4927 75.5574 73.6991L52.5715 86.9789C52.3928 87.0821 52.1935 87.1348 51.9941 87.1348H51.9918ZM53.1489 60.0892V83.973L73.8207 72.0299V48.1461L53.1489 60.0892Z" fill="white"/>
<path d="M53.149 0H50.8348V32.8624H53.149V0Z" fill="white"/>
<path d="M4.15511 85.6993L0 88.0999L1.1571 90.1053L5.31221 87.7048L4.15511 85.6993Z" fill="white"/>
<path d="M28.4427 71.6639L19.3507 76.9166L20.5078 78.9221L29.5998 73.6693L28.4427 71.6639Z" fill="white"/>
<path d="M75.5592 71.7059L74.4021 73.7114L102.843 90.1426L104 88.1372L75.5592 71.7059Z" fill="white"/>
</svg>
