<svg width="20" height="17" viewBox="0 0 20 17" fill="none" xmlns="http://www.w3.org/2000/svg">
<path d="M13 6.59961L13.948 4.53561L16 3.59961L13.948 2.66361L13 0.599609L12.088 2.66361L10 3.59961L12.088 4.53561L13 6.59961Z" fill="#3B0065"/>
<path d="M2.80039 8.99922L3.28039 7.07922L5.20039 6.59922L3.28039 6.11922L2.80039 4.19922L2.32039 6.11922L0.400391 6.59922L2.32039 7.07922L2.80039 8.99922Z" fill="#3B0065"/>
<path d="M17.8004 4.19922C16.5164 4.19922 15.5924 5.54322 16.1804 6.76722L12.5684 10.3792C11.9444 10.0792 11.3804 10.2112 11.0204 10.3792L9.80839 9.16722C9.92839 8.93922 10.0004 8.67522 10.0004 8.39922C10.0004 7.40322 9.19639 6.59922 8.20039 6.59922C7.20439 6.59922 6.40039 7.40322 6.40039 8.39922C6.40039 8.67522 6.47239 8.93922 6.58039 9.16722L2.96839 12.7792C2.74039 12.6712 2.47639 12.5992 2.20039 12.5992C1.20439 12.5992 0.400391 13.4032 0.400391 14.3992C0.400391 15.3952 1.20439 16.1992 2.20039 16.1992C3.19639 16.1992 4.00039 15.3952 4.00039 14.3992C4.00039 14.1232 3.92839 13.8592 3.82039 13.6312L7.43239 10.0192C8.05639 10.3192 8.62039 10.1872 8.98039 10.0192L10.1924 11.2312C10.0724 11.4592 10.0004 11.7232 10.0004 11.9992C10.0004 12.9952 10.8044 13.7992 11.8004 13.7992C12.7964 13.7992 13.6004 12.9952 13.6004 11.9992C13.6004 11.7232 13.5284 11.4592 13.4204 11.2312L17.0324 7.61922C18.2684 8.21922 19.6004 7.27122 19.6004 5.99922C19.6004 5.00322 18.7964 4.19922 17.8004 4.19922Z" fill="#3B0065"/>
</svg>
