<svg width="51" height="55" viewBox="0 0 51 55" fill="none" xmlns="http://www.w3.org/2000/svg">
<path d="M31.6905 25.1126L35.8104 18.2829L46.9149 35.1809L46.9201 38.4236L46.8839 16.1085C46.8576 15.563 46.5611 15.064 46.0881 14.7697L26.0958 3.53432C25.6282 3.3098 25.0351 3.31218 24.5683 3.54129C24.5053 3.57225 24.4459 3.60575 24.3894 3.64232L24.3197 3.68519L4.91392 14.6721L4.83854 14.7054C4.74174 14.7489 4.6439 14.8042 4.55198 14.8685C4.18412 15.1264 3.9397 15.5075 3.86066 15.9351C3.84882 15.9999 3.84012 16.0659 3.83594 16.1324L3.8664 34.3171L14.2098 18.6542C15.512 16.5772 18.3494 15.9083 20.9832 15.9447L24.0746 16.0244L5.86029 44.5631L8.00738 45.7709L26.44 16.0534L34.5872 16.0244L16.2021 46.4919L23.8636 50.7972L24.779 51.3116C25.1662 51.4653 25.6226 51.473 26.0131 51.3354L46.2864 39.8569L42.4104 42.0513L31.6905 25.1126ZM33.2624 47.2308L25.5241 35.3651L30.2478 27.5338L40.4104 43.1835L33.2624 47.2308Z" fill="#2D374B"/>
<path d="M25.5254 35.3652L33.2637 47.2309L40.4119 43.1836L30.2492 27.5339L25.5254 35.3652Z" fill="#28A0F0"/>
<path d="M46.9211 38.4237L46.9158 35.1809L35.8113 18.283L31.6914 25.1127L42.4114 42.0513L46.2874 39.857C46.6676 39.5554 46.8976 39.1127 46.9218 38.6349L46.9211 38.4237Z" fill="#28A0F0"/>
<path d="M0.386894 41.4819L5.86038 44.5632L24.0747 16.0245L20.9833 15.9448C18.3495 15.9084 15.5123 16.5773 14.2099 18.6543L3.86649 34.3172L0.386719 39.5408V41.4819H0.386894Z" fill="white"/>
<path d="M34.5875 16.0244L26.4404 16.0533L8.00781 45.7709L14.4505 49.3951L16.2025 46.4919L34.5875 16.0244Z" fill="white"/>
<path d="M50.3535 15.9835C50.2854 14.3188 49.3629 12.7948 47.9178 11.9077L27.6634 0.527871C26.234 -0.175446 24.4481 -0.176297 23.0164 0.52736C22.8472 0.610704 3.31932 11.6757 3.31932 11.6757C3.04912 11.8022 2.78885 11.9531 2.5439 12.1242C1.25387 13.0275 0.467498 14.4311 0.386719 15.9733V39.5409L3.86649 34.3174L3.83602 16.1327C3.8402 16.0662 3.84873 16.0008 3.86074 15.9362C3.93926 15.5083 4.18386 15.1266 4.55207 14.8687C4.64399 14.8044 24.5052 3.57246 24.5684 3.5415C25.0353 3.31239 25.6285 3.31001 26.0959 3.53453L46.0882 14.7699C46.5612 15.0642 46.8577 15.5632 46.884 16.1087V38.6351C46.8598 39.1128 46.6666 39.5554 46.2863 39.8571L42.4103 42.0515L40.4105 43.1837L33.2623 47.231L26.013 51.3356C25.6225 51.4734 25.1661 51.4657 24.7789 51.3118L16.202 46.4921L14.45 49.3952L22.1577 53.7309C22.4126 53.8725 22.6398 53.998 22.8261 54.1004C23.1147 54.2586 23.3113 54.3642 23.3807 54.397C23.9286 54.6569 24.7167 54.8083 25.427 54.8083C26.0783 54.8083 26.7132 54.6914 27.3142 54.4615L48.3699 42.548C49.5784 41.6332 50.2894 40.2536 50.3535 38.7591V15.9835Z" fill="#96BEDC"/>
</svg>
