<svg width="30" height="33" viewBox="0 0 30 33" fill="none" xmlns="http://www.w3.org/2000/svg">
<path d="M18.2796 14.6637L20.6853 10.6757L27.1694 20.5428L27.1725 22.4363L27.1513 9.40602C27.136 9.08751 26.9628 8.79611 26.6866 8.62429L15.0127 2.06374C14.7397 1.93264 14.3934 1.93403 14.1208 2.06781C14.084 2.08588 14.0493 2.10545 14.0163 2.1268L13.9756 2.15183L2.64423 8.56728L2.60021 8.58675C2.54369 8.61217 2.48656 8.64445 2.43288 8.68199C2.21808 8.83256 2.07536 9.05513 2.02921 9.30482C2.02229 9.34266 2.01721 9.38119 2.01477 9.42003L2.03256 20.0384L8.07226 10.8925C8.83265 9.67974 10.4894 9.28913 12.0274 9.31038L13.8325 9.35696L3.19683 26.0212L4.45056 26.7265L15.2137 9.37384L19.971 9.35696L9.23562 27.1475L13.7093 29.6615L14.2438 29.9618C14.4699 30.0516 14.7364 30.056 14.9645 29.9757L26.8024 23.2732L24.5392 24.5545L18.2796 14.6637ZM19.1974 27.579L14.6789 20.6503L17.4371 16.0775L23.3713 25.2157L19.1974 27.579Z" fill="#2D374B"/>
<path d="M14.6785 20.6504L19.197 27.579L23.371 25.2157L17.4368 16.0776L14.6785 20.6504Z" fill="#28A0F0"/>
<path d="M27.1724 22.4363L27.1694 20.5428L20.6852 10.6758L18.2795 14.6638L24.5391 24.5546L26.8024 23.2733C27.0244 23.0972 27.1587 22.8387 27.1728 22.5597L27.1724 22.4363Z" fill="#28A0F0"/>
<path d="M0.000102376 24.222L3.19618 26.0212L13.8319 9.35697L12.0267 9.31039C10.4888 9.28913 8.8321 9.67975 8.07161 10.8925L2.03191 20.0384L0 23.0886V24.222H0.000102376Z" fill="white"/>
<path d="M19.9708 9.35693L15.2136 9.37382L4.45044 26.7265L8.21243 28.8427L9.2355 27.1475L19.9708 9.35693Z" fill="white"/>
<path d="M29.1768 9.33307C29.1371 8.36104 28.5984 7.47115 27.7545 6.95311L15.9276 0.308234C15.0929 -0.102446 14.0502 -0.102943 13.2141 0.307936C13.1153 0.356602 1.71264 6.81764 1.71264 6.81764C1.55487 6.89153 1.4029 6.97963 1.25987 7.07954C0.506593 7.60702 0.0474126 8.42659 0.000244141 9.32711V23.0887L2.03215 20.0386L2.01436 9.42017C2.0168 9.38134 2.02178 9.3432 2.02879 9.30546C2.07464 9.05557 2.21747 8.8327 2.43247 8.68214C2.48615 8.6446 14.0835 2.08603 14.1204 2.06795C14.393 1.93417 14.7394 1.93278 15.0123 2.06388L26.6862 8.62443C26.9624 8.79625 27.1355 9.08765 27.1509 9.40617V22.5598C27.1368 22.8387 27.0239 23.0972 26.8019 23.2734L24.5386 24.5547L23.3709 25.2158L19.1969 27.5791L14.9639 29.9758C14.7359 30.0563 14.4694 30.0518 14.2433 29.9619L9.2351 27.1476L8.21204 28.8428L12.7128 31.3745C12.8616 31.4572 12.9943 31.5305 13.103 31.5902C13.2716 31.6826 13.3863 31.7443 13.4269 31.7635C13.7468 31.9152 14.207 32.0036 14.6218 32.0036C15.0021 32.0036 15.3728 31.9354 15.7237 31.8011L28.0185 24.8446C28.7242 24.3104 29.1394 23.5049 29.1768 22.6322V9.33307Z" fill="#96BEDC"/>
</svg>
