<svg width="29" height="29" viewBox="0 0 29 29" fill="none" xmlns="http://www.w3.org/2000/svg">
<path fill-rule="evenodd" clip-rule="evenodd" d="M29 14.5C29 22.5082 22.5082 29 14.5 29C6.49187 29 0 22.5082 0 14.5C0 6.49187 6.49187 0 14.5 0C22.5082 0 29 6.49187 29 14.5ZM10.3911 20.2703H7.57707C6.98576 20.2703 6.69367 20.2703 6.51558 20.1563C6.32322 20.0316 6.20567 19.825 6.19142 19.597C6.18073 19.3869 6.32679 19.1304 6.61887 18.6174L13.5671 6.37025C13.8628 5.85018 14.0123 5.59015 14.2011 5.49397C14.4042 5.39068 14.6464 5.39068 14.8494 5.49397C15.0382 5.59015 15.1879 5.85018 15.4835 6.37025L16.9119 8.86371L16.9192 8.87643C17.2385 9.43436 17.4004 9.7173 17.4711 10.0142C17.5495 10.3384 17.5495 10.6804 17.4711 11.0045C17.3999 11.3037 17.2396 11.5887 16.9155 12.1551L13.2657 18.6068L13.2563 18.6233C12.9348 19.1858 12.772 19.4709 12.5462 19.686C12.3004 19.9212 12.0047 20.0921 11.6806 20.1884C11.3849 20.2703 11.0537 20.2703 10.3911 20.2703ZM17.4975 20.2703H21.5297C22.1246 20.2703 22.4238 20.2703 22.602 20.1529C22.7943 20.0281 22.9154 19.8179 22.9262 19.5901C22.9365 19.3868 22.7936 19.1402 22.5136 18.6571C22.504 18.6406 22.4943 18.6239 22.4845 18.6068L20.4647 15.1516L20.4417 15.1127C20.1579 14.6328 20.0146 14.3904 19.8306 14.2967C19.6277 14.1934 19.3889 14.1934 19.1859 14.2967C19.0007 14.3929 18.8511 14.6458 18.5554 15.1552L16.5429 18.6104L16.536 18.6223C16.2414 19.1309 16.0941 19.385 16.1047 19.5935C16.119 19.8216 16.2365 20.0316 16.4289 20.1563C16.6034 20.2703 16.9026 20.2703 17.4975 20.2703Z" fill="#E84142"/>
</svg>
