<svg width="50" height="50" viewBox="0 0 50 50" fill="none" xmlns="http://www.w3.org/2000/svg">
<path fill-rule="evenodd" clip-rule="evenodd" d="M49.9843 24.9834C49.9843 38.7723 38.799 49.9501 25.0009 49.9501C11.203 49.9501 0.0175781 38.7723 0.0175781 24.9834C0.0175781 11.1946 11.203 0.0166016 25.0009 0.0166016C38.799 0.0166016 49.9843 11.1946 49.9843 24.9834ZM17.9214 34.9189H13.0728C12.054 34.9189 11.5507 34.9189 11.2439 34.7227C10.9124 34.508 10.7099 34.1522 10.6853 33.7596C10.6669 33.3979 10.9186 32.9562 11.4218 32.073L23.3936 10.9852C23.903 10.0897 24.1607 9.64197 24.486 9.47637C24.8358 9.29852 25.2532 9.29852 25.603 9.47637C25.9283 9.64197 26.1861 10.0897 26.6955 10.9852L29.1566 15.2785L29.1692 15.3004C29.7194 16.2611 29.9984 16.7483 30.1202 17.2596C30.2552 17.8177 30.2552 18.4065 30.1202 18.9647C29.9974 19.4799 29.7213 19.9706 29.1628 20.9458L22.8743 32.0546L22.858 32.083C22.3042 33.0516 22.0235 33.5425 21.6345 33.9129C21.2111 34.3178 20.7016 34.612 20.1431 34.7779C19.6337 34.9189 19.063 34.9189 17.9214 34.9189ZM30.1656 34.9189H37.113C38.138 34.9189 38.6536 34.9189 38.9607 34.7167C39.292 34.502 39.5006 34.1399 39.5192 33.7477C39.5369 33.3976 39.2907 32.973 38.8083 32.1412C38.7917 32.1128 38.7751 32.084 38.7581 32.0547L35.2781 26.1054L35.2385 26.0384C34.7494 25.212 34.5026 24.7947 34.1856 24.6334C33.8359 24.4555 33.4244 24.4555 33.0748 24.6334C32.7556 24.7989 32.4978 25.2344 31.9884 26.1115L28.5208 32.0608L28.5089 32.0813C28.0013 32.957 27.7476 33.3946 27.7659 33.7536C27.7904 34.1463 27.993 34.508 28.3244 34.7227C28.6251 34.9189 29.1407 34.9189 30.1656 34.9189Z" fill="#E84142"/>
</svg>
