<svg width="58" height="63" viewBox="0 0 58 63" fill="none" xmlns="http://www.w3.org/2000/svg">
<g filter="url(#filter0_f_1538_16021)">
<path d="M35.3251 29.1126L39.4477 22.2829L50.5596 39.1809L50.5648 42.4236L50.5286 20.1085C50.5023 19.563 50.2056 19.064 49.7323 18.7697L29.7268 7.53432C29.2588 7.3098 28.6653 7.31218 28.1982 7.54129C28.1352 7.57225 28.0758 7.60575 28.0192 7.64232L27.9495 7.68519L8.53085 18.6721L8.45541 18.7054C8.35855 18.7489 8.26065 18.8042 8.16867 18.8685C7.80057 19.1264 7.55598 19.5075 7.47689 19.9351C7.46504 19.9999 7.45633 20.0659 7.45215 20.1324L7.48264 38.3171L17.8329 22.6542C19.1359 20.5772 21.9752 19.9083 24.6108 19.9447L27.7042 20.0244L9.47784 48.5631L11.6264 49.7709L30.0712 20.0534L38.2238 20.0244L19.8265 50.4919L27.4931 54.7972L28.409 55.3116C28.7965 55.4653 29.2533 55.473 29.644 55.3354L49.9307 43.8569L46.0521 46.0513L35.3251 29.1126ZM36.898 51.2308L29.1547 39.3651L33.8814 31.5338L44.0508 47.1835L36.898 51.2308Z" fill="#2D374B"/>
<path d="M29.1543 39.3652L36.8977 51.2309L44.0507 47.1836L33.8813 31.5339L29.1543 39.3652Z" fill="#28A0F0"/>
<path d="M50.5649 42.4237L50.5597 39.1809L39.4478 22.283L35.3252 29.1127L46.0522 46.0513L49.9308 43.857C50.3113 43.5554 50.5414 43.1127 50.5656 42.6349L50.5649 42.4237Z" fill="#28A0F0"/>
<path d="M4.00018 45.4818L9.47728 48.5631L27.7036 20.0244L24.6102 19.9446C21.9746 19.9082 19.1356 20.5772 17.8323 22.6541L7.48207 38.3171L4 43.5407V45.4818H4.00018Z" fill="white"/>
<path d="M38.2232 20.0244L30.0708 20.0533L11.626 49.7709L18.0729 53.3951L19.8261 50.4919L38.2232 20.0244Z" fill="white"/>
<path d="M53.9998 19.9835C53.9317 18.3188 53.0086 16.7948 51.5625 15.9077L31.2948 4.52787C29.8643 3.82455 28.0773 3.8237 26.6446 4.52736C26.4753 4.6107 6.93454 15.6757 6.93454 15.6757C6.66417 15.8022 6.40372 15.9531 6.15861 16.1242C4.86773 17.0275 4.08083 18.4311 4 19.9733V43.5409L7.48207 38.3174L7.45158 20.1327C7.45576 20.0662 7.4643 20.0008 7.47632 19.9362C7.55489 19.5083 7.79965 19.1266 8.1681 18.8687C8.26008 18.8044 28.1344 7.57246 28.1977 7.5415C28.6649 7.31239 29.2584 7.31001 29.7262 7.53453L49.7317 18.7699C50.205 19.0642 50.5017 19.5632 50.528 20.1087V42.6351C50.5038 43.1128 50.3104 43.5554 49.93 43.8571L46.0514 46.0515L44.0503 47.1837L36.8973 51.231L29.6433 55.3356C29.2525 55.4734 28.7957 55.4657 28.4083 55.3118L19.8258 50.4921L18.0725 53.3952L25.7854 57.7309C26.0405 57.8725 26.2678 57.998 26.4542 58.1004C26.743 58.2586 26.9397 58.3642 27.0092 58.397C27.5575 58.6569 28.3461 58.8083 29.0569 58.8083C29.7086 58.8083 30.3439 58.6914 30.9453 58.4615L52.0149 46.548C53.2242 45.6332 53.9357 44.2536 53.9998 42.7591V19.9835Z" fill="#96BEDC"/>
</g>
<defs>
<filter id="filter0_f_1538_16021" x="0" y="0" width="58" height="62.8082" filterUnits="userSpaceOnUse" color-interpolation-filters="sRGB">
<feFlood flood-opacity="0" result="BackgroundImageFix"/>
<feBlend mode="normal" in="SourceGraphic" in2="BackgroundImageFix" result="shape"/>
<feGaussianBlur stdDeviation="2" result="effect1_foregroundBlur_1538_16021"/>
</filter>
</defs>
</svg>
