<svg width="1076" height="445" viewBox="0 0 1076 445" fill="none" xmlns="http://www.w3.org/2000/svg">
<path fill-rule="evenodd" clip-rule="evenodd" d="M1076 99C1076 97.7286 1074.97 96.6977 1073.7 96.6977L917.3 96.6977C916.03 96.6977 915 97.7286 915 99C915 100.271 916.03 101.302 917.3 101.302L1073.7 101.302C1074.97 101.302 1076 100.271 1076 99ZM1053 82.8837C1053 81.6123 1051.97 80.5814 1050.7 80.5814L917.3 80.5814C916.03 80.5814 915 81.6123 915 82.8837C915 84.1552 916.03 85.1861 917.3 85.1861L1050.7 85.1861C1051.97 85.1861 1053 84.1552 1053 82.8837ZM1030 66.7674C1030 65.496 1028.97 64.4651 1027.7 64.4651L917.3 64.4651C916.03 64.4651 915 65.496 915 66.7674C915 68.0389 916.03 69.0698 917.3 69.0698L1027.7 69.0698C1028.97 69.0698 1030 68.0389 1030 66.7674ZM1007 50.6512C1007 49.3797 1005.97 48.3488 1004.7 48.3488L917.3 48.3488C916.03 48.3488 915 49.3797 915 50.6512C915 51.9226 916.03 52.9535 917.3 52.9535L1004.7 52.9535C1005.97 52.9535 1007 51.9226 1007 50.6512ZM984 34.5349C984 33.2634 982.97 32.2326 981.7 32.2326L917.3 32.2326C916.03 32.2326 915 33.2634 915 34.5349C915 35.8063 916.03 36.8372 917.3 36.8372L981.7 36.8372C982.97 36.8372 984 35.8063 984 34.5349ZM961 18.4186C961 17.1472 959.97 16.1163 958.7 16.1163L917.3 16.1163C916.03 16.1163 915 17.1472 915 18.4186C915 19.6901 916.03 20.7209 917.3 20.7209L958.7 20.7209C959.97 20.7209 961 19.6901 961 18.4186ZM935.7 0C936.97 0 938 1.03088 938 2.30233C938 3.57378 936.97 4.60465 935.7 4.60465L917.3 4.60465C916.03 4.60465 915 3.57378 915 2.30233C915 1.03088 916.03 0 917.3 0L935.7 0ZM935.7 198C936.97 198 938 196.969 938 195.698C938 194.426 936.97 193.395 935.7 193.395L917.3 193.395C916.03 193.395 915 194.426 915 195.698C915 196.969 916.03 198 917.3 198L935.7 198ZM958.7 181.884C959.97 181.884 961 180.853 961 179.581C961 178.31 959.97 177.279 958.7 177.279L917.3 177.279C916.03 177.279 915 178.31 915 179.581C915 180.853 916.03 181.884 917.3 181.884L958.7 181.884ZM981.7 165.767C982.97 165.767 984 164.737 984 163.465C984 162.194 982.97 161.163 981.7 161.163L917.3 161.163C916.03 161.163 915 162.194 915 163.465C915 164.737 916.03 165.767 917.3 165.767L981.7 165.767ZM1004.7 149.651C1005.97 149.651 1007 148.62 1007 147.349C1007 146.077 1005.97 145.047 1004.7 145.047L917.3 145.047C916.03 145.047 915 146.077 915 147.349C915 148.62 916.03 149.651 917.3 149.651L1004.7 149.651ZM1027.7 133.535C1028.97 133.535 1030 132.504 1030 131.233C1030 129.961 1028.97 128.93 1027.7 128.93L917.3 128.93C916.03 128.93 915 129.961 915 131.233C915 132.504 916.03 133.535 917.3 133.535L1027.7 133.535ZM1050.7 117.419C1051.97 117.419 1053 116.388 1053 115.116C1053 113.845 1051.97 112.814 1050.7 112.814L917.3 112.814C916.03 112.814 915 113.845 915 115.116C915 116.388 916.03 117.419 917.3 117.419L1050.7 117.419Z" fill="#00D696"/>
<path fill-rule="evenodd" clip-rule="evenodd" d="M0 346C0 347.271 1.02976 348.302 2.3 348.302H158.7C159.97 348.302 161 347.271 161 346C161 344.729 159.97 343.698 158.7 343.698H2.3C1.02976 343.698 0 344.729 0 346ZM23 362.116C23 363.388 24.0297 364.419 25.3 364.419H158.7C159.97 364.419 161 363.388 161 362.116C161 360.845 159.97 359.814 158.7 359.814H25.3C24.0297 359.814 23 360.845 23 362.116ZM46 378.233C46 379.504 47.0297 380.535 48.3 380.535H158.7C159.97 380.535 161 379.504 161 378.233C161 376.961 159.97 375.93 158.7 375.93H48.3C47.0297 375.93 46 376.961 46 378.233ZM69 394.349C69 395.62 70.0297 396.651 71.3 396.651H158.7C159.97 396.651 161 395.62 161 394.349C161 393.077 159.97 392.047 158.7 392.047H71.3C70.0297 392.047 69 393.077 69 394.349ZM92 410.465C92 411.737 93.0297 412.767 94.3 412.767H158.7C159.97 412.767 161 411.737 161 410.465C161 409.194 159.97 408.163 158.7 408.163H94.3C93.0297 408.163 92 409.194 92 410.465ZM115 426.581C115 427.853 116.03 428.884 117.3 428.884H158.7C159.97 428.884 161 427.853 161 426.581C161 425.31 159.97 424.279 158.7 424.279H117.3C116.03 424.279 115 425.31 115 426.581ZM140.3 445C139.03 445 138 443.969 138 442.698C138 441.426 139.03 440.395 140.3 440.395H158.7C159.97 440.395 161 441.426 161 442.698C161 443.969 159.97 445 158.7 445H140.3ZM140.3 247C139.03 247 138 248.031 138 249.302C138 250.574 139.03 251.605 140.3 251.605H158.7C159.97 251.605 161 250.574 161 249.302C161 248.031 159.97 247 158.7 247H140.3ZM117.3 263.116C116.03 263.116 115 264.147 115 265.419C115 266.69 116.03 267.721 117.3 267.721H158.7C159.97 267.721 161 266.69 161 265.419C161 264.147 159.97 263.116 158.7 263.116H117.3ZM94.3 279.233C93.0297 279.233 92 280.263 92 281.535C92 282.806 93.0297 283.837 94.3 283.837H158.7C159.97 283.837 161 282.806 161 281.535C161 280.263 159.97 279.233 158.7 279.233H94.3ZM71.3 295.349C70.0297 295.349 69 296.38 69 297.651C69 298.923 70.0297 299.953 71.3 299.953H158.7C159.97 299.953 161 298.923 161 297.651C161 296.38 159.97 295.349 158.7 295.349H71.3ZM48.3 311.465C47.0297 311.465 46 312.496 46 313.767C46 315.039 47.0297 316.07 48.3 316.07H158.7C159.97 316.07 161 315.039 161 313.767C161 312.496 159.97 311.465 158.7 311.465H48.3ZM25.3 327.581C24.0297 327.581 23 328.612 23 329.884C23 331.155 24.0297 332.186 25.3 332.186H158.7C159.97 332.186 161 331.155 161 329.884C161 328.612 159.97 327.581 158.7 327.581H25.3Z" fill="#00D696"/>
</svg>
