<svg width="29" height="29" viewBox="0 0 29 29" fill="none" xmlns="http://www.w3.org/2000/svg">
<path fill-rule="evenodd" clip-rule="evenodd" d="M14.5 0C22.5087 0 29 6.49131 29 14.5C29 22.5087 22.5087 29 14.5 29C6.49131 29 0 22.5087 0 14.5C0 6.49131 6.49131 0 14.5 0Z" fill="#F0B90B"/>
<path d="M7.96922 14.5L7.97967 18.3341L11.2375 20.2512V22.4959L6.07306 19.4669V13.3788L7.96922 14.5ZM7.96922 10.6659V12.9001L6.0719 11.7778V9.5435L7.96922 8.42114L9.87583 9.5435L7.96922 10.6659ZM12.5981 9.5435L14.4954 8.42114L16.402 9.5435L14.4954 10.6659L12.5981 9.5435Z" fill="white"/>
<path d="M9.34009 17.5394V15.2947L11.2374 16.4171V18.6513L9.34009 17.5394ZM12.5979 21.0552L14.4953 22.1776L16.4019 21.0552V23.2895L14.4953 24.4118L12.5979 23.2895V21.0552ZM19.1229 9.5435L21.0203 8.42114L22.9269 9.5435V11.7778L21.0203 12.9001V10.6659L19.1229 9.5435ZM21.0203 18.3341L21.0307 14.5L22.928 13.3776V19.4658L17.7636 22.4947V20.25L21.0203 18.3341Z" fill="white"/>
<path d="M19.6598 17.5394L17.7625 18.6513V16.4171L19.6598 15.2947V17.5394Z" fill="white"/>
<path d="M19.6597 11.4606L19.6702 13.7053L16.403 15.6224V19.4658L14.5057 20.5777L12.6084 19.4658V15.6224L9.34125 13.7053V11.4606L11.2467 10.3382L14.4941 12.2646L17.7612 10.3382L19.6679 11.4606H19.6597ZM9.34009 7.62762L14.4953 4.5882L19.6597 7.62762L17.7624 8.74997L14.4953 6.82361L11.2374 8.74997L9.34009 7.62762Z" fill="white"/>
</svg>
