<svg width="50" height="50" viewBox="0 0 50 50" fill="none" xmlns="http://www.w3.org/2000/svg">
<path fill-rule="evenodd" clip-rule="evenodd" d="M25 0C38.8081 0 50 11.1919 50 25C50 38.8081 38.8081 50 25 50C11.1919 50 0 38.8081 0 25C0 11.1919 11.1919 0 25 0Z" fill="#F0B90B"/>
<path d="M13.74 25.0001L13.758 31.6106L19.375 34.9159V38.7861L10.4708 33.5638V23.067L13.74 25.0001ZM13.74 18.3895V22.2416L10.4688 20.3065V16.4544L13.74 14.5193L17.0272 16.4544L13.74 18.3895ZM21.7208 16.4544L24.992 14.5193L28.2792 16.4544L24.992 18.3895L21.7208 16.4544Z" fill="white"/>
<path d="M16.1035 30.2404V26.3702L19.3747 28.3053V32.1575L16.1035 30.2404ZM21.7205 36.3021L24.9917 38.2372L28.279 36.3021V40.1543L24.9917 42.0894L21.7205 40.1543V36.3021ZM32.9705 16.4544L36.2417 14.5193L39.529 16.4544V20.3065L36.2417 22.2416V18.3895L32.9705 16.4544ZM36.2417 31.6106L36.2598 25.0001L39.531 23.065V33.5618L30.6268 38.7841V34.9139L36.2417 31.6106Z" fill="white"/>
<path d="M33.8962 30.2403L30.625 32.1574V28.3052L33.8962 26.3701V30.2403Z" fill="white"/>
<path d="M33.896 19.7596L33.914 23.6298L28.281 26.9351V33.5617L25.0098 35.4788L21.7385 33.5617V26.9351L16.1055 23.6298V19.7596L19.3908 17.8245L24.9897 21.1458L30.6227 17.8245L33.91 19.7596H33.896ZM16.1035 13.151L24.9917 7.91064L33.896 13.151L30.6248 15.0861L24.9917 11.7648L19.3747 15.0861L16.1035 13.151Z" fill="white"/>
</svg>
