<svg width="94" height="94" viewBox="0 0 94 94" fill="none" xmlns="http://www.w3.org/2000/svg">
<path d="M87.4031 39.5792C84.3387 39.5792 81.7784 41.6896 81.0408 44.5265H55.9211C55.7368 43.4348 55.3839 42.4 54.8723 41.46L72.0907 24.2416C72.7355 24.55 73.4487 24.7371 74.2102 24.7371C76.9382 24.7371 79.1575 22.5178 79.1575 19.7898C79.1575 17.0617 76.9382 14.8425 74.2102 14.8425C71.4821 14.8425 69.2629 17.0617 69.2629 19.7898C69.2629 20.5513 69.45 21.2645 69.7584 21.9097L52.8109 38.8569C51.4409 37.6134 49.7258 36.751 47.8244 36.4298V12.9587C50.6612 12.2212 52.7717 9.66134 52.7717 6.59646C52.7717 2.95934 49.8124 0 46.1752 0C42.5381 0 39.5788 2.95975 39.5788 6.59687C39.5788 9.66176 41.6892 12.2212 44.5261 12.9592V36.4302C43.0262 36.6833 41.6418 37.2708 40.4512 38.1197L24.2412 21.9097C24.5496 21.2645 24.7367 20.5513 24.7367 19.7898C24.7367 17.0617 22.5174 14.8425 19.7894 14.8425C17.0613 14.8425 14.842 17.0617 14.842 19.7898C14.842 22.5178 17.0613 24.7371 19.7894 24.7371C20.5509 24.7371 21.2641 24.55 21.9089 24.2416L38.1189 40.4512C37.2704 41.6422 36.6825 43.0267 36.4294 44.5265H12.9587C12.2212 41.6896 9.66093 39.5792 6.59646 39.5792C2.95934 39.5792 0 42.5385 0 46.1756C0 49.8128 2.95934 52.7721 6.59646 52.7721C9.66093 52.7721 12.2212 50.6617 12.9587 47.8248H36.4298C36.751 49.7262 37.6134 51.4413 38.8569 52.8117L21.9089 69.7588C21.2641 69.4504 20.5509 69.2633 19.7894 69.2633C17.0613 69.2633 14.842 71.4826 14.842 74.2106C14.842 76.9387 17.0613 79.158 19.7894 79.158C22.5174 79.158 24.7367 76.9387 24.7367 74.2106C24.7367 73.4491 24.5496 72.7359 24.2412 72.0907L41.4596 54.8723C42.3996 55.3839 43.4344 55.7368 44.5261 55.9211V81.0413C41.6892 81.7788 39.5788 84.3387 39.5788 87.4035C39.5788 91.0407 42.5381 94 46.1752 94C49.8124 94 52.7717 91.0407 52.7717 87.4035C52.7717 84.3387 50.6612 81.7792 47.8244 81.0413V55.9211C49.3242 55.668 50.7087 55.0805 51.8993 54.2316L69.7584 72.0903C69.45 72.7359 69.2629 73.4491 69.2629 74.2106C69.2629 76.9387 71.4821 79.158 74.2102 79.158C76.9382 79.158 79.1575 76.9387 79.1575 74.2106C79.1575 71.4826 76.9382 69.2633 74.2102 69.2633C73.4487 69.2633 72.7355 69.4504 72.0907 69.7588L54.2316 51.9001C55.08 50.7091 55.668 49.3246 55.9211 47.8248H81.0413C81.7788 50.6617 84.3391 52.7721 87.4035 52.7721C91.0407 52.7721 94 49.8128 94 46.1756C94 42.5385 91.0403 39.5792 87.4031 39.5792ZM74.2102 18.1407C75.1193 18.1407 75.8593 18.8807 75.8593 19.7898C75.8593 20.6989 75.1193 21.4389 74.2102 21.4389C73.3011 21.4389 72.5611 20.6989 72.5611 19.7898C72.5611 18.8807 73.3011 18.1407 74.2102 18.1407ZM19.7894 21.4389C18.8803 21.4389 18.1403 20.6989 18.1403 19.7898C18.1403 18.8807 18.8803 18.1407 19.7894 18.1407C20.6985 18.1407 21.4385 18.8807 21.4385 19.7898C21.4385 20.6989 20.6985 21.4389 19.7894 21.4389ZM6.59646 49.4739C4.77749 49.4739 3.29823 47.9946 3.29823 46.1756C3.29823 44.3567 4.77749 42.8774 6.59646 42.8774C8.41544 42.8774 9.89469 44.3567 9.89469 46.1756C9.89469 47.9946 8.41544 49.4739 6.59646 49.4739ZM19.7894 75.8597C18.8803 75.8597 18.1403 75.1197 18.1403 74.2106C18.1403 73.3015 18.8803 72.5615 19.7894 72.5615C20.6985 72.5615 21.4385 73.3015 21.4385 74.2106C21.4385 75.1197 20.6985 75.8597 19.7894 75.8597ZM42.877 6.59687C42.877 4.7779 44.3563 3.29864 46.1752 3.29864C47.9942 3.29864 49.4735 4.7779 49.4735 6.59687C49.4735 8.41585 47.9942 9.89511 46.1752 9.89511C44.3563 9.89511 42.877 8.41585 42.877 6.59687ZM49.4735 87.4035C49.4735 89.2225 47.9942 90.7018 46.1752 90.7018C44.3563 90.7018 42.877 89.2225 42.877 87.4035C42.877 85.5846 44.3563 84.1053 46.1752 84.1053C47.9942 84.1053 49.4735 85.5846 49.4735 87.4035ZM46.1752 52.7721C42.5381 52.7721 39.5788 49.8128 39.5788 46.1756C39.5788 44.6568 40.1156 43.2744 40.9809 42.158L42.1576 40.9813C43.2736 40.116 44.6568 39.5792 46.1752 39.5792C49.8124 39.5792 52.7717 42.5385 52.7717 46.1756C52.7717 49.8128 49.8124 52.7721 46.1752 52.7721ZM74.2102 72.5615C75.1193 72.5615 75.8593 73.3015 75.8593 74.2106C75.8593 75.1197 75.1193 75.8597 74.2102 75.8597C73.3011 75.8597 72.5611 75.1197 72.5611 74.2106C72.5611 73.3015 73.3011 72.5615 74.2102 72.5615ZM87.4031 49.4739C85.5842 49.4739 84.1049 47.9946 84.1049 46.1756C84.1049 44.3567 85.5842 42.8774 87.4031 42.8774C89.2221 42.8774 90.7014 44.3567 90.7014 46.1756C90.7014 47.9946 89.2221 49.4739 87.4031 49.4739Z" fill="white"/>
</svg>
