<svg width="414" height="153" viewBox="0 0 414 153" fill="none" xmlns="http://www.w3.org/2000/svg">
<path d="M114.629 5C62.9191 5 21 37.0116 21 76.5C21 115.988 62.9191 148 114.629 148H314.371C366.081 148 408 115.988 408 76.5C408 37.0116 366.081 5 314.371 5H114.629Z" fill="#F5468E" fill-opacity="0.32"/>
<path d="M202 75.8126L127.02 4H107L84.4229 10.4408L63 140.693L84.4229 146.591L105 148H127.02" fill="#FFEAF3"/>
<rect x="290.945" y="26.897" width="105.885" height="101.115" rx="50.5576" fill="white"/>
<path d="M342.413 7.63751C333.948 7.89293 326.171 9.49015 318.535 12.5381C306.698 17.2651 296.246 25.3261 288.55 35.6621C280.402 46.6008 275.647 59.5591 274.76 73.2086C274.652 74.908 274.628 75.7083 274.628 77.8402C274.628 79.9721 274.652 80.7724 274.76 82.4718C275.842 99.1388 282.705 114.726 294.26 126.755C300.759 133.518 308.596 138.933 317.153 142.574C324.275 145.601 331.813 147.396 339.563 147.91C341.246 148.019 342.039 148.043 344.15 148.043C346.261 148.043 347.054 148.019 348.737 147.91C355.876 147.437 362.837 145.877 369.461 143.262C381.447 138.535 391.983 130.446 399.75 120.018C405.598 112.165 409.742 103.191 411.904 93.7103C412.865 89.5044 413.395 85.5403 413.631 80.8712C413.685 79.778 413.685 75.9025 413.631 74.8093C413.493 72.0814 413.29 69.9223 412.95 67.5622C410.842 53.034 404.218 39.4967 394.04 28.9292C384.671 19.1995 372.833 12.4428 359.866 9.42203C355.738 8.46166 351.731 7.90995 347.219 7.68519C346.527 7.65113 343.114 7.61708 342.413 7.63751ZM344.841 26.7224C353.134 27.0562 360.905 29.2766 367.977 33.3395C369.39 34.15 370.591 34.9196 370.82 35.158C371.15 35.502 371.282 35.8766 371.258 36.4079C371.228 37.0584 371.096 37.2695 370.321 37.8961C367.049 40.5491 364.014 43.7265 361.491 47.1389C359.785 49.4445 358.426 51.6343 357.036 54.3145C356.777 54.8151 356.628 54.9854 356.325 55.142C356.035 55.2919 355.805 55.3361 355.431 55.3225L355.087 55.3123L354.214 54.8798C352.794 54.1782 351.758 53.7593 350.423 53.3507C343.489 51.2188 335.995 52.1655 329.857 55.9491C324.933 58.9869 321.203 63.5845 319.22 69.0674C317.203 74.6492 317.203 81.0313 319.22 86.613C319.635 87.7539 319.942 88.4657 320.515 89.5963C322.758 94.0236 326.329 97.7527 330.67 100.212C337.226 103.924 345.178 104.472 352.21 101.703C352.895 101.434 353.32 101.243 354.214 100.801L355.087 100.368L355.431 100.358C355.805 100.344 356.035 100.389 356.325 100.538C356.628 100.695 356.777 100.865 357.036 101.366C358.426 104.046 359.785 106.236 361.491 108.542C364.014 111.954 367.049 115.131 370.321 117.784C370.904 118.258 371.043 118.411 371.167 118.735C371.272 119.004 371.295 119.538 371.215 119.817C371.066 120.332 370.847 120.577 370.135 121.033C367.107 122.961 364.092 124.483 360.861 125.716C353.003 128.709 344.457 129.673 336.073 128.512C329.257 127.569 322.748 125.243 316.849 121.639C312.262 118.84 308.134 115.308 304.607 111.164C300.769 106.655 297.734 101.492 295.659 95.9409C293.508 90.1787 292.415 84.0895 292.415 77.8402C292.415 68.417 294.904 59.3581 299.696 51.3618C302.469 46.7302 305.966 42.5618 310.07 38.9995C314.536 35.124 319.648 32.059 325.146 29.9645C330.215 28.0336 335.55 26.9472 341.047 26.7258C342.029 26.6849 343.887 26.6849 344.841 26.7224ZM382.371 52.6798C384.415 54.0182 386.283 55.5984 387.939 57.3897C392.276 62.0724 395.008 68.0628 395.696 74.4006C395.848 75.7969 395.868 76.1817 395.868 77.9084C395.868 79.635 395.848 80.0198 395.696 81.4161C395.362 84.4879 394.532 87.5393 393.268 90.366C390.978 95.4641 387.298 99.8301 382.668 102.936C381.818 103.508 381.878 103.477 381.747 103.399C381.501 103.256 380.418 102.517 379.97 102.187C378.546 101.141 377.012 99.7654 375.771 98.427C371.434 93.7409 368.702 87.7539 368.014 81.4161C367.862 80.0198 367.842 79.635 367.842 77.9084C367.842 76.1817 367.862 75.7969 368.014 74.4006C368.614 68.8699 370.776 63.5845 374.23 59.1947C375.977 56.9708 378.216 54.8457 380.472 53.2655C381.103 52.8262 381.801 52.3699 381.848 52.3665C381.875 52.3665 382.111 52.5061 382.371 52.6798Z" fill="#DE1A60"/>
<path d="M295.652 148.044C309.315 148.044 320.391 136.669 320.391 122.636C320.391 108.604 309.315 97.228 295.652 97.228C281.989 97.228 270.912 108.604 270.912 122.636C270.912 136.669 281.989 148.044 295.652 148.044Z" fill="#3B0065"/>
<path d="M295.443 119.23L300.242 110.406H306.307L298.854 123.098L306.5 136H300.365L295.443 127.035L290.521 136H284.387L292.033 123.098L284.58 110.406H290.645L295.443 119.23Z" fill="white"/>
<path d="M286.884 76.5994L246.819 42.7354L258.839 76.5994L246.819 110.463" fill="#F5468E" fill-opacity="0.5"/>
<path d="M245 73.5L202 24L214.9 73.5L202 123" fill="#E21569"/>
<rect x="38.2502" y="22.895" width="111.944" height="104.419" rx="52.2097" fill="white"/>
<path d="M92.6637 3.00637C83.7142 3.27013 75.4921 4.91954 67.4197 8.06714C54.9047 12.9486 43.8551 21.273 35.7185 31.9467C27.1042 43.2429 22.0768 56.6246 21.1391 70.7202C21.025 72.4752 21 73.3016 21 75.5032C21 77.7047 21.025 78.5312 21.1391 80.2861C22.2836 97.4977 29.5395 113.594 41.755 126.016C48.6258 133.001 56.9121 138.592 65.9579 142.352C73.4883 145.478 81.4573 147.332 89.6509 147.863C91.4301 147.975 92.268 148 94.5 148C96.732 148 97.5699 147.975 99.3491 147.863C106.897 147.374 114.257 145.763 121.259 143.062C133.931 138.181 145.07 129.828 153.281 119.06C159.464 110.95 163.846 101.683 166.132 91.8918C167.148 87.5485 167.708 83.4548 167.957 78.6332C168.014 77.5043 168.014 73.5021 167.957 72.3732C167.811 69.5562 167.597 67.3265 167.237 64.8893C165.008 49.8863 158.006 35.9067 147.245 24.9938C137.34 14.9461 124.825 7.96867 111.115 4.84921C106.751 3.85745 102.515 3.28771 97.7446 3.0556C97.0137 3.02043 93.4054 2.98527 92.6637 3.00637ZM95.2309 22.7149C103.999 23.0596 112.214 25.3526 119.691 29.5482C121.184 30.3852 122.454 31.18 122.696 31.4262C123.046 31.7814 123.185 32.1683 123.16 32.7169C123.128 33.3886 122.989 33.6067 122.169 34.2538C118.71 36.9934 115.501 40.2747 112.834 43.7986C111.03 46.1795 109.593 48.4408 108.124 51.2086C107.849 51.7256 107.692 51.9014 107.372 52.0632C107.065 52.218 106.822 52.2637 106.427 52.2496L106.063 52.2391L105.14 51.7924C103.638 51.0679 102.544 50.6354 101.132 50.2133C93.8011 48.0118 85.8785 48.9895 79.3892 52.8967C74.1836 56.0338 70.2401 60.7816 68.1435 66.4437C66.0113 72.2079 66.0113 78.7985 68.1435 84.5626C68.5821 85.7408 68.9066 86.4758 69.5127 87.6434C71.8838 92.2154 75.6597 96.0663 80.2485 98.6055C87.1799 102.439 95.5875 103.005 103.022 100.146C103.745 99.8681 104.195 99.6711 105.14 99.2139L106.063 98.7673L106.427 98.7567C106.822 98.7427 107.065 98.7884 107.372 98.9431C107.692 99.1049 107.849 99.2808 108.124 99.7977C109.593 102.566 111.03 104.827 112.834 107.208C115.501 110.732 118.71 114.013 122.169 116.753C122.785 117.241 122.932 117.4 123.064 117.734C123.174 118.012 123.199 118.564 123.113 118.852C122.957 119.383 122.725 119.636 121.972 120.108C118.771 122.098 115.583 123.67 112.167 124.943C103.86 128.035 94.8245 129.03 85.9605 127.831C78.7546 126.857 71.8731 124.455 65.637 120.734C60.7878 117.843 56.4236 114.196 52.6941 109.916C48.6365 105.259 45.4275 99.9279 43.2347 94.1954C40.9599 88.2448 39.8046 81.9566 39.8046 75.5032C39.8046 65.772 42.436 56.4171 47.5026 48.1595C50.4335 43.3765 54.131 39.0719 58.4702 35.3932C63.191 31.391 68.5964 28.2259 74.4082 26.063C79.7672 24.0689 85.4079 22.947 91.2197 22.7184C92.2573 22.6762 94.2219 22.6762 95.2309 22.7149ZM134.908 49.5205C137.069 50.9027 139.044 52.5345 140.795 54.3844C145.38 59.2201 148.268 65.4062 148.996 71.9511C149.156 73.3931 149.178 73.7905 149.178 75.5735C149.178 77.3566 149.156 77.754 148.996 79.1959C148.643 82.3681 147.766 85.5192 146.428 88.4382C144.007 93.703 140.117 98.2116 135.222 101.419C134.323 102.01 134.388 101.978 134.249 101.897C133.988 101.75 132.844 100.986 132.37 100.645C130.865 99.5656 129.243 98.1448 127.93 96.7627C123.345 91.9235 120.457 85.7408 119.73 79.1959C119.569 77.754 119.548 77.3566 119.548 75.5735C119.548 73.7905 119.569 73.3931 119.73 71.9511C120.364 66.2397 122.65 60.7816 126.301 56.2483C128.148 53.9518 130.515 51.7573 132.901 50.1254C133.568 49.6717 134.306 49.2005 134.356 49.197C134.384 49.197 134.634 49.3412 134.908 49.5205Z" fill="#3B0065"/>
</svg>
