<svg width="180" height="56" viewBox="0 0 180 56" fill="none" xmlns="http://www.w3.org/2000/svg">
<g clip-path="url(#clip0_233_824)">
<path d="M77.4515 34.2022L79.9469 35.5572C79.3398 36.4059 78.5456 37.1037 77.6259 37.5965C76.697 38.106 75.6532 38.3692 74.5938 38.3612C73.3991 38.3724 72.2261 38.0419 71.2129 37.4087C70.2035 36.7749 69.3687 35.8986 68.7846 34.8596C68.1854 33.7863 67.8857 32.6012 67.8857 31.3043C67.8857 30.3205 68.0602 29.4037 68.409 28.554C68.7578 27.6954 69.2363 26.9441 69.8445 26.3001C70.4523 25.6538 71.1818 25.1341 71.9911 24.7707C72.8093 24.403 73.6969 24.2155 74.5938 24.2206C75.685 24.2206 76.6957 24.4755 77.6259 24.9853C78.5482 25.4803 79.3428 26.183 79.9469 27.038L77.4515 28.393C77.0941 27.9599 76.645 27.6117 76.1367 27.3734C75.6567 27.1368 75.129 27.0129 74.5938 27.0111C73.8604 27.0111 73.1941 27.2124 72.5948 27.6149C72.0045 28.0084 71.5349 28.5316 71.1861 29.1846C70.8439 29.8383 70.6687 30.5665 70.6763 31.3043C70.6763 32.0646 70.8507 32.7711 71.1995 33.4241C71.5483 34.068 72.0179 34.5868 72.6082 34.9803C73.1965 35.3706 73.8879 35.5761 74.5938 35.5706C75.1484 35.5706 75.6761 35.4454 76.1769 35.195C76.6778 34.9446 77.1026 34.6136 77.4515 34.2022ZM88.9256 38.3612C87.7309 38.3724 86.5579 38.0419 85.5447 37.4087C84.5353 36.7749 83.7005 35.8986 83.1164 34.8596C82.5172 33.7863 82.2175 32.6012 82.2175 31.3043C82.2175 30.3205 82.392 29.4037 82.7408 28.554C83.0896 27.6954 83.5681 26.9441 84.1763 26.3001C84.7841 25.6538 85.5136 25.1341 86.3229 24.7707C87.1411 24.403 88.0287 24.2155 88.9256 24.2206C90.1599 24.2206 91.2824 24.5381 92.2931 25.1731C93.3092 25.8045 94.1456 26.687 94.7214 27.7356C95.3296 28.8089 95.6337 29.9985 95.6337 31.3043C95.6337 32.2792 95.4593 33.1915 95.1105 34.0412C94.7714 34.8758 94.28 35.6401 93.6615 36.2951C93.0574 36.9362 92.3324 37.4514 91.5283 37.8111C90.7107 38.1805 89.8228 38.3682 88.9256 38.3612ZM88.9256 35.5706C89.6363 35.5801 90.3331 35.3743 90.9246 34.9803C91.5139 34.588 91.994 34.0525 92.3199 33.4241C92.6684 32.7722 92.8483 32.0435 92.8431 31.3043C92.8503 30.5547 92.6656 29.8158 92.3065 29.1577C91.9778 28.527 91.4928 27.9912 90.8978 27.6015C90.3151 27.2101 89.6275 27.0043 88.9256 27.0111C88.1922 27.0111 87.5259 27.2079 86.9266 27.6015C86.3363 27.995 85.8667 28.5182 85.5179 29.1711C85.1766 29.83 85.0016 30.5623 85.0081 31.3043C85.0081 32.1003 85.187 32.8203 85.5447 33.4643C85.9025 34.1083 86.3766 34.6226 86.9669 35.0072C87.5661 35.3828 88.219 35.5706 88.9256 35.5706ZM98.6132 24.5962H101.404V38.0124H98.6132V24.5962ZM100.022 22.3826C99.8264 22.3875 99.6319 22.3533 99.4499 22.2818C99.2678 22.2104 99.102 22.1032 98.962 21.9667C98.8214 21.8318 98.7106 21.6691 98.6367 21.4889C98.5627 21.3086 98.5273 21.1149 98.5327 20.9202C98.5327 20.5088 98.6758 20.1644 98.962 19.8872C99.2482 19.601 99.6015 19.4579 100.022 19.4579C100.433 19.4579 100.782 19.601 101.068 19.8872C101.355 20.1644 101.498 20.5088 101.498 20.9202C101.498 21.3406 101.355 21.6894 101.068 21.9667C100.931 22.1024 100.767 22.2091 100.587 22.2805C100.407 22.352 100.215 22.3867 100.022 22.3826ZM119.081 30.9823V38.0124H116.29V31.036C116.29 30.2757 116.129 29.587 115.807 28.9699C115.514 28.3664 115.065 27.8523 114.506 27.4807C113.958 27.1042 113.306 26.9073 112.641 26.9172C111.943 26.9172 111.331 27.1051 110.803 27.4807C110.272 27.8615 109.851 28.3751 109.582 28.9699C109.289 29.6188 109.142 30.3241 109.153 31.036V38.0124H106.362V24.5962H109.153V26.4074C109.589 25.7549 110.167 25.2092 110.843 24.8109C111.505 24.4174 112.252 24.2206 113.084 24.2206C114.291 24.2206 115.338 24.5292 116.223 25.1463C117.122 25.7689 117.843 26.6151 118.316 27.6015C118.817 28.6211 119.072 29.748 119.081 30.9823ZM127.27 38.2673C126.565 38.2228 125.869 38.0782 125.204 37.838C124.563 37.613 123.964 37.282 123.433 36.8586C122.949 36.46 122.563 35.955 122.306 35.3828L124.681 34.3632C124.797 34.6047 124.998 34.8417 125.284 35.0743C125.58 35.3068 125.924 35.4991 126.318 35.6511C126.711 35.7943 127.123 35.8658 127.552 35.8658C127.948 35.8695 128.342 35.8107 128.719 35.6914C129.061 35.5817 129.37 35.388 129.618 35.1279C129.847 34.8855 129.973 34.5628 129.967 34.229C129.967 33.8355 129.833 33.5314 129.564 33.3167C129.278 33.0789 128.944 32.9051 128.585 32.8069C128.193 32.691 127.799 32.5792 127.404 32.4715C126.573 32.2899 125.763 32.02 124.989 31.6666C124.265 31.3177 123.688 30.875 123.259 30.3384C122.829 29.7928 122.615 29.1264 122.615 28.3393C122.615 27.4807 122.843 26.7384 123.299 26.1123C123.772 25.4711 124.406 24.9665 125.137 24.6499C125.901 24.3092 126.729 24.1354 127.565 24.1401C128.639 24.1401 129.622 24.3682 130.517 24.8243C131.411 25.2805 132.095 25.9066 132.569 26.7026L130.356 28.0174C130.21 27.7347 130.004 27.4874 129.752 27.2929C129.478 27.0747 129.169 26.9026 128.84 26.7831C128.501 26.6492 128.143 26.5722 127.78 26.555C127.349 26.5339 126.918 26.5884 126.505 26.716C126.15 26.814 125.83 27.0092 125.58 27.2795C125.347 27.5388 125.231 27.8698 125.231 28.2723C125.231 28.6658 125.369 28.961 125.647 29.1577C125.924 29.3456 126.273 29.4976 126.693 29.6139C127.123 29.7302 127.561 29.8598 128.008 30.0029C128.804 30.2534 129.551 30.562 130.248 30.9287C130.946 31.2864 131.51 31.7292 131.939 32.2569C132.368 32.7846 132.574 33.4285 132.556 34.1888C132.569 34.9935 132.298 35.777 131.791 36.4025C131.29 37.0375 130.638 37.5205 129.833 37.8514C129.028 38.1823 128.173 38.321 127.27 38.2673ZM148.464 30.9957V38.0124H145.674V31.0494C145.674 30.2892 145.513 29.596 145.191 28.9699C144.904 28.3744 144.47 27.8619 143.93 27.4807C143.416 27.1183 142.801 26.9259 142.172 26.9307C141.474 26.9307 140.88 27.114 140.388 27.4807C139.896 27.8474 139.516 28.3438 139.247 28.9699C138.981 29.6305 138.849 30.3373 138.858 31.0494V38.0124H136.054V17.8882H138.845V26.1659C139.221 25.4415 139.712 24.9406 140.321 24.6633C140.938 24.3771 141.644 24.234 142.44 24.234C143.648 24.234 144.699 24.5426 145.593 25.1597C146.488 25.7769 147.185 26.5997 147.686 27.6283C148.187 28.6479 148.446 29.7704 148.464 30.9957ZM152.221 24.5962H155.011V38.0124H152.221V24.5962ZM153.629 22.3826C153.434 22.3875 153.239 22.3533 153.057 22.2818C152.875 22.2104 152.71 22.1032 152.57 21.9667C152.429 21.8318 152.318 21.6691 152.244 21.4889C152.17 21.3086 152.135 21.1149 152.14 20.9202C152.14 20.5088 152.283 20.1644 152.57 19.8872C152.856 19.601 153.209 19.4579 153.629 19.4579C154.041 19.4579 154.39 19.601 154.676 19.8872C154.962 20.1644 155.105 20.5088 155.105 20.9202C155.105 21.3406 154.962 21.6894 154.676 21.9667C154.538 22.1024 154.375 22.2091 154.195 22.2805C154.015 22.352 153.823 22.3867 153.629 22.3826ZM163.764 21.5508V24.5962H167.548V27.3868H163.764V38.0124H160.974V27.3868H159.377V24.5962H160.974V21.5508C160.974 20.8174 161.153 20.151 161.51 19.5518C161.868 18.9436 162.347 18.4606 162.946 18.1028C163.56 17.7434 164.26 17.5579 164.972 17.5662C165.508 17.5662 166.032 17.6735 166.541 17.8882C167.051 18.1028 167.507 18.4338 167.91 18.881L165.911 20.8531C165.813 20.6925 165.668 20.566 165.495 20.4909C165.334 20.4038 165.154 20.3577 164.972 20.3567C164.813 20.3548 164.655 20.3847 164.507 20.4446C164.36 20.5045 164.226 20.5932 164.113 20.7056C164 20.8152 163.911 20.9467 163.851 21.0921C163.791 21.2374 163.762 21.3935 163.764 21.5508ZM178.326 27.3868H175.509L175.496 38.0124H172.705L172.718 27.3868H170.585V24.5962H172.718L172.705 20.3836H175.496L175.509 24.5962H178.326V27.3868Z" fill="#373737"/>
<path d="M18.72 27.9503C18.72 31.2619 20.056 34.437 22.434 36.7793C24.8275 39.1272 28.0476 40.441 31.4005 40.4374V54.4852C31.4005 54.8329 31.2663 55.1672 31.0237 55.4221C30.7798 55.6766 30.4488 55.8296 30.0969 55.8503C29.527 55.8841 28.9562 55.9009 28.3852 55.9006C20.8565 55.9006 13.6353 52.9547 8.31242 47.7123C2.98956 42.4688 0 35.3605 0 27.947C0 20.5345 2.99292 13.4251 8.31801 8.18385C13.6398 2.94261 20.8621 0 28.3908 0C28.961 0 29.5334 0.0167702 30.1014 0.0503106C30.4547 0.0726708 30.7867 0.22472 31.0293 0.478509C31.2708 0.732298 31.4061 1.0677 31.405 1.4154V15.4632C29.7391 15.4632 28.0901 15.7852 26.5506 16.4135C25.0153 17.0382 23.6172 17.9573 22.4352 19.1191C21.2597 20.2747 20.325 21.6518 19.6848 23.1708C19.048 24.6838 18.7199 26.3088 18.72 27.9503ZM48.8605 44.1727C49.0338 43.9256 49.2048 43.6752 49.3714 43.4225C49.5335 43.1642 49.6174 42.8657 49.614 42.5616V13.3368C49.6173 13.0335 49.5331 12.7358 49.3714 12.4793C49.2048 12.2266 49.0338 11.9761 48.8605 11.7268C48.1886 10.7788 46.9342 11.3624 46.9342 12.6268V43.276C46.933 44.5394 48.1886 45.123 48.8605 44.1727ZM53.2196 21.4882V34.4292C53.2196 35.9955 54.8094 36.3242 55.1448 34.8328C56.1511 30.3048 56.1511 25.6137 55.1448 21.0846C54.8094 19.5786 53.2196 19.9129 53.2196 21.4893V21.4882ZM40.6453 5.09366V50.8103C40.6453 51.8165 41.4917 52.4806 42.2217 52.0446L42.7215 51.7371C42.9173 51.6005 43.0754 51.4167 43.1814 51.2027C43.2873 50.9887 43.3375 50.7515 43.3275 50.5129V5.39106C43.3373 5.15269 43.287 4.91568 43.1811 4.70191C43.0752 4.48814 42.9171 4.3045 42.7215 4.16795C42.5567 4.06194 42.3897 3.95943 42.2206 3.8605C41.4906 3.42447 40.6453 4.08857 40.6453 5.09478V5.09366ZM34.3588 1.9241V53.9788C34.3588 54.8206 34.9714 55.4668 35.6434 55.3282L36.1476 55.2164C36.6675 55.099 37.042 54.5299 37.042 53.8725V2.03031C37.042 1.3718 36.6686 0.802733 36.1476 0.685342C35.9799 0.645093 35.8122 0.609317 35.6434 0.57354C34.9714 0.434907 34.3588 1.07665 34.3588 1.9241Z" fill="#1452F5"/>
</g>
<defs>
<clipPath id="clip0_233_824">
<rect width="180" height="55.9006" fill="white"/>
</clipPath>
</defs>
</svg>
