<svg width="168" height="40" viewBox="0 0 168 40" fill="none" xmlns="http://www.w3.org/2000/svg">
<path fill-rule="evenodd" clip-rule="evenodd" d="M32 4H0V36H32V4ZM19.0025 29.6667H12.6766C10.5161 29.6667 8.9087 29.2346 7.85438 28.3704C6.81735 27.5062 6.29883 26.1753 6.29883 24.3778V16.3148C6.29883 14.5173 6.81735 13.1864 7.85438 12.3222C8.9087 11.4407 10.5161 11 12.6766 11H19.0025C19.3309 11 19.5643 11.0778 19.7025 11.2333C19.8581 11.3716 19.9359 11.6049 19.9359 11.9333V15.0704C19.9359 15.3988 19.8581 15.6407 19.7025 15.7963C19.5643 15.9346 19.3309 16.0037 19.0025 16.0037H13.7914C13.2556 16.0037 12.8581 16.116 12.5988 16.3407C12.3396 16.5481 12.2099 16.8679 12.2099 17.3V23.4704C12.2099 23.9025 12.3396 24.2222 12.5988 24.4296C12.8581 24.6198 13.2556 24.7148 13.7914 24.7148H19.0025C19.3309 24.7148 19.5643 24.7926 19.7025 24.9481C19.8581 25.0864 19.9359 25.3198 19.9359 25.6481V28.7333C19.9359 29.0617 19.8581 29.3037 19.7025 29.4593C19.5643 29.5975 19.3309 29.6667 19.0025 29.6667ZM25.907 24.2222H22.4667C22.2509 24.2222 22.092 24.1468 21.9898 23.9959C21.8989 23.8262 21.8535 23.5622 21.8535 23.204V17.4626C21.8535 17.1043 21.8989 16.8498 21.9898 16.6989C22.092 16.5292 22.2509 16.4444 22.4667 16.4444H25.907C26.1228 16.4444 26.2761 16.5292 26.3669 16.6989C26.4691 16.8498 26.5202 17.1043 26.5202 17.4626V23.204C26.5202 23.5622 26.4691 23.8262 26.3669 23.9959C26.2761 24.1468 26.1228 24.2222 25.907 24.2222Z" fill="white"/>
<path d="M50.8889 28H45.4667C43.6148 28 42.237 27.6296 41.3333 26.8889C40.4444 26.1482 40 25.0074 40 23.4667V16.5556C40 15.0148 40.4444 13.8741 41.3333 13.1333C42.237 12.3778 43.6148 12 45.4667 12H50.8889C51.1704 12 51.3704 12.0667 51.4889 12.2C51.6222 12.3185 51.6889 12.5185 51.6889 12.8V15.4889C51.6889 15.7704 51.6222 15.9778 51.4889 16.1111C51.3704 16.2296 51.1704 16.2889 50.8889 16.2889H46.4222C45.963 16.2889 45.6222 16.3852 45.4 16.5778C45.1778 16.7556 45.0667 17.0296 45.0667 17.4V22.6889C45.0667 23.0593 45.1778 23.3333 45.4 23.5111C45.6222 23.6741 45.963 23.7556 46.4222 23.7556H50.8889C51.1704 23.7556 51.3704 23.8222 51.4889 23.9556C51.6222 24.0741 51.6889 24.2741 51.6889 24.5556V27.2C51.6889 27.4815 51.6222 27.6889 51.4889 27.8222C51.3704 27.9407 51.1704 28 50.8889 28Z" fill="white"/>
<path d="M59.2207 16V18.8444H60.8873C61.2725 18.8444 61.5318 18.7481 61.6651 18.5556C61.7984 18.3481 61.8651 18.0963 61.8651 17.8V17.0444C61.8651 16.7481 61.7984 16.5037 61.6651 16.3111C61.5318 16.1037 61.2725 16 60.8873 16H59.2207ZM58.4207 28H54.9984C54.717 28 54.5095 27.9407 54.3762 27.8222C54.2577 27.6889 54.1984 27.4815 54.1984 27.2V12.8C54.1984 12.5185 54.2577 12.3185 54.3762 12.2C54.5095 12.0667 54.717 12 54.9984 12H62.3984C64.0577 12 65.1984 12.3481 65.8207 13.0444C66.4577 13.7259 66.7762 14.6148 66.7762 15.7111V16.7333C66.7762 17.3556 66.6799 17.8889 66.4873 18.3333C66.3095 18.763 65.991 19.0741 65.5318 19.2667C66.3318 19.3556 66.9762 19.6815 67.4651 20.2444C67.9688 20.8074 68.2207 21.5556 68.2207 22.4889V27.2C68.2207 27.4815 68.154 27.6889 68.0207 27.8222C67.9021 27.9407 67.7021 28 67.4207 28H63.9762C63.6947 28 63.4873 27.9407 63.354 27.8222C63.2355 27.6889 63.1762 27.4815 63.1762 27.2V23.8C63.1762 23.4741 63.1095 23.237 62.9762 23.0889C62.8577 22.9259 62.6429 22.8444 62.3318 22.8444H59.2207V27.2C59.2207 27.4815 59.154 27.6889 59.0207 27.8222C58.9021 27.9407 58.7021 28 58.4207 28Z" fill="white"/>
<path d="M81.8243 28H71.5132C71.2317 28 71.0243 27.9407 70.891 27.8222C70.7725 27.6889 70.7132 27.4815 70.7132 27.2V12.8C70.7132 12.5185 70.7725 12.3185 70.891 12.2C71.0243 12.0667 71.2317 12 71.5132 12H81.8243C82.1058 12 82.3058 12.0667 82.4243 12.2C82.5576 12.3185 82.6243 12.5185 82.6243 12.8V15.4C82.6243 15.6815 82.5576 15.8889 82.4243 16.0222C82.3058 16.1407 82.1058 16.2 81.8243 16.2H75.691V17.9111H80.0243C80.3058 17.9111 80.5058 17.9778 80.6243 18.1111C80.7576 18.2296 80.8243 18.4296 80.8243 18.7111V21.0889C80.8243 21.3704 80.7576 21.5778 80.6243 21.7111C80.5058 21.8296 80.3058 21.8889 80.0243 21.8889H75.691V23.8H81.8243C82.1058 23.8 82.3058 23.8667 82.4243 24C82.5576 24.1185 82.6243 24.3185 82.6243 24.6V27.2C82.6243 27.4815 82.5576 27.6889 82.4243 27.8222C82.3058 27.9407 82.1058 28 81.8243 28Z" fill="white"/>
<path d="M93.542 28H86.0531C85.7716 28 85.5642 27.9407 85.4309 27.8222C85.3124 27.6889 85.2531 27.4815 85.2531 27.2V12.8C85.2531 12.5185 85.3124 12.3185 85.4309 12.2C85.5642 12.0667 85.7716 12 86.0531 12H93.542C95.3939 12 96.7642 12.3704 97.6531 13.1111C98.5568 13.8519 99.0087 14.9926 99.0087 16.5333V23.4667C99.0087 25.0074 98.5568 26.1482 97.6531 26.8889C96.7642 27.6296 95.3939 28 93.542 28ZM90.2976 16.2444V23.8H92.942C93.2976 23.8 93.5568 23.7111 93.7198 23.5333C93.8976 23.3556 93.9865 23.0815 93.9865 22.7111V17.3111C93.9865 16.9407 93.8976 16.6741 93.7198 16.5111C93.5568 16.3333 93.2976 16.2444 92.942 16.2444H90.2976Z" fill="white"/>
<path d="M105.944 28H102.633C102.352 28 102.144 27.9407 102.011 27.8222C101.892 27.6889 101.833 27.4815 101.833 27.2V12.8C101.833 12.5185 101.892 12.3185 102.011 12.2C102.144 12.0667 102.352 12 102.633 12H106.211C106.448 12 106.64 12.0519 106.789 12.1556C106.952 12.2593 107.1 12.4296 107.233 12.6667L109.233 16.2889C109.307 16.4222 109.366 16.5185 109.411 16.5778C109.47 16.637 109.544 16.6667 109.633 16.6667H109.833C109.922 16.6667 109.989 16.637 110.033 16.5778C110.092 16.5185 110.159 16.4222 110.233 16.2889L112.211 12.6667C112.344 12.4296 112.485 12.2593 112.633 12.1556C112.796 12.0519 112.996 12 113.233 12H116.833C117.114 12 117.314 12.0667 117.433 12.2C117.566 12.3185 117.633 12.5185 117.633 12.8V27.2C117.633 27.4815 117.566 27.6889 117.433 27.8222C117.314 27.9407 117.114 28 116.833 28H113.411C113.129 28 112.922 27.9407 112.789 27.8222C112.67 27.6889 112.611 27.4815 112.611 27.2V19.3778L111.3 21.8C111.166 22.0519 111.003 22.237 110.811 22.3556C110.633 22.4593 110.403 22.5111 110.122 22.5111H109.233C108.951 22.5111 108.714 22.4593 108.522 22.3556C108.344 22.237 108.189 22.0519 108.055 21.8L106.744 19.3778V27.2C106.744 27.4815 106.677 27.6889 106.544 27.8222C106.426 27.9407 106.226 28 105.944 28Z" fill="white"/>
<path d="M126.491 16.6667L125.447 20.0444H128.936L127.891 16.6667C127.832 16.5333 127.766 16.437 127.691 16.3778C127.632 16.3185 127.558 16.2889 127.469 16.2889H126.914C126.825 16.2889 126.743 16.3185 126.669 16.3778C126.61 16.437 126.551 16.5333 126.491 16.6667ZM125.225 27.2C125.225 27.4815 125.158 27.6889 125.025 27.8222C124.906 27.9407 124.706 28 124.425 28H121.158C120.877 28 120.669 27.9407 120.536 27.8222C120.417 27.6889 120.358 27.4815 120.358 27.2V21.3333C120.358 20.8889 120.425 20.3778 120.558 19.8C120.706 19.2222 120.929 18.5481 121.225 17.7778L123.158 12.7333C123.247 12.4815 123.38 12.2963 123.558 12.1778C123.751 12.0593 123.995 12 124.291 12H130.269C130.551 12 130.78 12.0593 130.958 12.1778C131.151 12.2963 131.291 12.4815 131.38 12.7333L133.314 17.7778C133.61 18.5481 133.825 19.2222 133.958 19.8C134.106 20.3778 134.18 20.8889 134.18 21.3333V27.2C134.18 27.4815 134.114 27.6889 133.98 27.8222C133.862 27.9407 133.662 28 133.38 28H130.025C129.729 28 129.506 27.9407 129.358 27.8222C129.225 27.6889 129.158 27.4815 129.158 27.2V24.0889H125.225V27.2Z" fill="white"/>
<path d="M141.946 16V18.8444H143.613C143.998 18.8444 144.257 18.7481 144.391 18.5556C144.524 18.3481 144.591 18.0963 144.591 17.8V17.0444C144.591 16.7481 144.524 16.5037 144.391 16.3111C144.257 16.1037 143.998 16 143.613 16H141.946ZM141.146 28H137.724C137.443 28 137.235 27.9407 137.102 27.8222C136.983 27.6889 136.924 27.4815 136.924 27.2V12.8C136.924 12.5185 136.983 12.3185 137.102 12.2C137.235 12.0667 137.443 12 137.724 12H145.124C146.783 12 147.924 12.3481 148.546 13.0444C149.183 13.7259 149.502 14.6148 149.502 15.7111V16.7333C149.502 17.3556 149.406 17.8889 149.213 18.3333C149.035 18.763 148.717 19.0741 148.257 19.2667C149.057 19.3556 149.702 19.6815 150.191 20.2444C150.695 20.8074 150.946 21.5556 150.946 22.4889V27.2C150.946 27.4815 150.88 27.6889 150.746 27.8222C150.628 27.9407 150.428 28 150.146 28H146.702C146.42 28 146.213 27.9407 146.08 27.8222C145.961 27.6889 145.902 27.4815 145.902 27.2V23.8C145.902 23.4741 145.835 23.237 145.702 23.0889C145.583 22.9259 145.369 22.8444 145.057 22.8444H141.946V27.2C141.946 27.4815 141.88 27.6889 141.746 27.8222C141.628 27.9407 141.428 28 141.146 28Z" fill="white"/>
<path d="M157.683 28H154.239C153.957 28 153.75 27.9407 153.617 27.8222C153.498 27.6889 153.439 27.4815 153.439 27.2V12.8C153.439 12.5185 153.498 12.3185 153.617 12.2C153.75 12.0667 153.957 12 154.239 12H157.683C157.965 12 158.165 12.0667 158.283 12.2C158.417 12.3185 158.483 12.5185 158.483 12.8V17.9111H159.372L161.661 12.7333C161.765 12.4667 161.906 12.2815 162.083 12.1778C162.261 12.0593 162.491 12 162.772 12H166.194C166.446 12 166.617 12.0667 166.706 12.2C166.794 12.3185 166.787 12.4963 166.683 12.7333L164.417 17.9111C165.246 17.9556 165.906 18.2519 166.394 18.8C166.898 19.3333 167.15 20.0444 167.15 20.9333V27.2C167.15 27.4815 167.083 27.6889 166.95 27.8222C166.831 27.9407 166.631 28 166.35 28H162.928C162.646 28 162.439 27.9407 162.306 27.8222C162.187 27.6889 162.128 27.4815 162.128 27.2V22.8667C162.128 22.6296 162.069 22.4444 161.95 22.3111C161.831 22.1778 161.654 22.1111 161.417 22.1111H158.483V27.2C158.483 27.4815 158.417 27.6889 158.283 27.8222C158.165 27.9407 157.965 28 157.683 28Z" fill="white"/>
</svg>
