<svg width="128" height="40" viewBox="0 0 128 40" fill="none" xmlns="http://www.w3.org/2000/svg">
<path d="M11.7002 8.00106C10.2391 8.04471 8.89667 8.31772 7.57873 8.8387C5.53546 9.64666 3.73144 11.0245 2.40303 12.7912C0.996604 14.6609 0.175803 16.8758 0.022703 19.2089C0.0040749 19.4993 0 19.6361 0 20.0005C0 20.3649 0.0040749 20.5017 0.022703 20.7922C0.209566 23.641 1.3942 26.3053 3.38857 28.3613C4.51033 29.5173 5.8632 30.4429 7.34006 31.0651C8.56952 31.5826 9.87057 31.8894 11.2083 31.9773C11.4988 31.9959 11.6356 32 12 32C12.3644 32 12.5012 31.9959 12.7917 31.9773C14.0241 31.8964 15.2256 31.6298 16.3689 31.1827C18.4378 30.3748 20.2563 28.9923 21.597 27.2099C22.6064 25.8675 23.3218 24.3337 23.695 22.7131C23.8609 21.9942 23.9523 21.3167 23.993 20.5186C24.0023 20.3317 24.0023 19.6693 23.993 19.4825C23.9691 19.0162 23.9342 18.6471 23.8754 18.2437C23.5116 15.7605 22.3683 13.4466 20.6114 11.6404C18.9943 9.97729 16.951 8.8224 14.7127 8.30608C14.0002 8.14193 13.3086 8.04762 12.5297 8.0092C12.4104 8.00338 11.8213 7.99756 11.7002 8.00106ZM12.1193 11.2632C13.5508 11.3202 14.892 11.6997 16.1127 12.3942C16.3567 12.5327 16.5639 12.6643 16.6035 12.705C16.6605 12.7638 16.6832 12.8279 16.6791 12.9187C16.6739 13.0298 16.6512 13.0659 16.5173 13.173C15.9527 13.6265 15.4287 14.1696 14.9933 14.7529C14.6987 15.147 14.4642 15.5212 14.2243 15.9794C14.1795 16.0649 14.1539 16.094 14.1015 16.1208C14.0514 16.1464 14.0118 16.154 13.9472 16.1517L13.8878 16.1499L13.7371 16.076C13.492 15.9561 13.3133 15.8845 13.0828 15.8146C11.8859 15.4502 10.5924 15.6121 9.53294 16.2588C8.68303 16.778 8.0392 17.5638 7.69691 18.501C7.34879 19.4551 7.34879 20.546 7.69691 21.5C7.76851 21.695 7.82148 21.8167 7.92044 22.0099C8.30756 22.7667 8.92403 23.4041 9.67323 23.8244C10.8049 24.4589 12.1775 24.5526 13.3913 24.0793C13.5095 24.0333 13.5828 24.0007 13.7371 23.9251L13.8878 23.8511L13.9472 23.8494C14.0118 23.8471 14.0514 23.8546 14.1015 23.8802C14.1539 23.907 14.1795 23.9361 14.2243 24.0217C14.4642 24.4798 14.6987 24.8541 14.9933 25.2482C15.4287 25.8315 15.9527 26.3746 16.5173 26.828C16.618 26.9089 16.6419 26.9351 16.6634 26.9904C16.6815 27.0364 16.6856 27.1278 16.6716 27.1755C16.646 27.2634 16.6081 27.3053 16.4853 27.3833C15.9625 27.7128 15.4421 27.973 14.8844 28.1837C13.5281 28.6954 12.053 28.8601 10.6058 28.6616C9.42932 28.5004 8.30581 28.1028 7.28767 27.487C6.49597 27.0085 5.78345 26.4048 5.17454 25.6964C4.51208 24.9257 3.98816 24.0432 3.63015 23.0944C3.25876 22.1095 3.07015 21.0687 3.07015 20.0005C3.07015 18.3898 3.49976 16.8415 4.32696 15.4747C4.80547 14.683 5.40914 13.9705 6.11759 13.3616C6.88833 12.6992 7.77084 12.1753 8.7197 11.8173C9.59464 11.4873 10.5156 11.3016 11.4644 11.2637C11.6338 11.2568 11.9546 11.2568 12.1193 11.2632ZM18.5973 15.7C18.95 15.9287 19.2725 16.1988 19.5584 16.505C20.307 17.3054 20.7785 18.3293 20.8973 19.4126C20.9235 19.6513 20.9269 19.717 20.9269 20.0122C20.9269 20.3073 20.9235 20.3731 20.8973 20.6117C20.8396 21.1368 20.6964 21.6584 20.4781 22.1415C20.0829 23.0129 19.4478 23.7592 18.6485 24.29C18.5018 24.3878 18.5123 24.3826 18.4896 24.3692C18.4471 24.3448 18.2602 24.2184 18.1828 24.162C17.9371 23.9833 17.6723 23.7481 17.458 23.5193C16.7094 22.7184 16.2379 21.695 16.1191 20.6117C16.0929 20.3731 16.0895 20.3073 16.0895 20.0122C16.0895 19.717 16.0929 19.6513 16.1191 19.4126C16.2228 18.4673 16.5959 17.5638 17.192 16.8135C17.4935 16.4334 17.8801 16.0702 18.2695 15.8001C18.3784 15.725 18.4989 15.647 18.507 15.6464C18.5117 15.6464 18.5524 15.6703 18.5973 15.7Z" fill="#3B0065"/>
<path d="M36.118 13.9609C36.574 14.0929 37 14.2789 37.396 14.5189C37.804 14.7469 38.182 15.0169 38.53 15.3289C38.626 15.4249 38.674 15.5089 38.674 15.5809C38.686 15.6529 38.692 15.6889 38.692 15.6889C38.692 15.8209 38.644 15.9349 38.548 16.0309C38.32 16.2709 38.098 16.5109 37.882 16.7509C37.666 16.9909 37.45 17.2309 37.234 17.4709C37.126 17.5789 37.006 17.6329 36.874 17.6329C36.826 17.6329 36.778 17.6269 36.73 17.6149C36.658 17.5909 36.598 17.5609 36.55 17.5249C36.502 17.4889 36.454 17.4469 36.406 17.3989C35.77 16.8709 35.068 16.6069 34.3 16.6069C33.208 16.6069 32.314 17.0569 31.618 17.9569C31.294 18.3769 31.102 18.7609 31.042 19.1089C30.982 19.4449 30.952 19.7209 30.952 19.9369C30.952 20.2009 30.982 20.4769 31.042 20.7649C31.114 21.1129 31.246 21.4429 31.438 21.7549C31.63 22.0549 31.858 22.3249 32.122 22.5649C32.398 22.7929 32.704 22.9789 33.04 23.1229C33.376 23.2549 33.724 23.3269 34.084 23.3389C34.168 23.3389 34.252 23.3389 34.336 23.3389C34.456 23.3389 34.594 23.3329 34.75 23.3209C34.906 23.3089 35.086 23.2729 35.29 23.2129C35.77 23.0209 36.178 22.7749 36.514 22.4749C36.61 22.3789 36.724 22.3309 36.856 22.3309C37 22.3309 37.126 22.3849 37.234 22.4929L38.53 23.9149C38.638 24.0229 38.692 24.1429 38.692 24.2749C38.692 24.2749 38.686 24.3109 38.674 24.3829C38.674 24.4549 38.614 24.5449 38.494 24.6529C38.47 24.6649 38.44 24.6889 38.404 24.7249L38.188 24.8869C38.176 24.9109 38.164 24.9289 38.152 24.9409C38.14 24.9409 38.122 24.9529 38.098 24.9769C37.63 25.3609 37.12 25.6549 36.568 25.8589C36.028 26.0629 35.452 26.1949 34.84 26.2549C34.66 26.2669 34.474 26.2729 34.282 26.2729C34.102 26.2729 33.916 26.2669 33.724 26.2549C32.848 26.1709 32.044 25.9429 31.312 25.5709C30.592 25.1869 29.962 24.6469 29.422 23.9509C29.23 23.7109 29.05 23.4649 28.882 23.2129C28.726 22.9609 28.588 22.6909 28.468 22.4029C28.156 21.6229 28 20.8189 28 19.9909C28 19.7749 28.012 19.5529 28.036 19.3249C28.108 18.6049 28.3 17.9269 28.612 17.2909C28.924 16.6429 29.32 16.0729 29.8 15.5809C30.28 15.0769 30.838 14.6689 31.474 14.3569C32.11 14.0329 32.788 13.8289 33.508 13.7449C33.784 13.7209 34.054 13.7089 34.318 13.7089C34.486 13.7089 34.72 13.7209 35.02 13.7449C35.32 13.7569 35.686 13.8289 36.118 13.9609Z" fill="#3B0065"/>
<path d="M51.0902 25.5889C51.1622 25.6849 51.1982 25.7749 51.1982 25.8589C51.1982 25.9189 51.1862 25.9729 51.1622 26.0209C51.0902 26.2009 50.9342 26.2909 50.6942 26.2909H48.2822C48.0902 26.2909 47.9342 26.2129 47.8142 26.0569L45.4022 22.7809C45.3302 22.7089 45.2642 22.6729 45.2042 22.6729L42.5222 22.6909V25.7149C42.4982 25.7989 42.4742 25.8769 42.4502 25.9489C42.4382 26.0089 42.4142 26.0689 42.3782 26.1289C42.3542 26.1769 42.3122 26.2189 42.2522 26.2549C42.1922 26.2789 42.1022 26.2909 41.9822 26.2909H39.9302C39.5822 26.2909 39.4082 26.1049 39.4082 25.7329V14.2309C39.4082 14.0029 39.4502 13.8589 39.5342 13.7989C39.6182 13.7269 39.7682 13.6909 39.9842 13.6909H45.9962C46.8602 13.6909 47.6342 13.8949 48.3182 14.3029C49.0142 14.7109 49.5782 15.2929 50.0102 16.0489C50.2862 16.5529 50.4422 16.9849 50.4782 17.3449C50.5262 17.7049 50.5502 17.9749 50.5502 18.1549C50.5502 18.5029 50.5142 18.8569 50.4422 19.2169C50.3102 19.8049 50.0702 20.3269 49.7222 20.7829C49.3862 21.2389 48.9662 21.6349 48.4622 21.9709L51.0902 25.5889ZM42.5222 19.6669H46.0862C46.3862 19.6669 46.6382 19.5949 46.8422 19.4509C47.0462 19.2949 47.1962 19.1089 47.2922 18.8929C47.3882 18.6649 47.4362 18.4309 47.4362 18.1909C47.4362 18.1789 47.4302 18.1069 47.4182 17.9749C47.4182 17.8309 47.3582 17.6509 47.2382 17.4349C47.1302 17.2189 46.9742 17.0449 46.7702 16.9129C46.5662 16.7809 46.3322 16.7149 46.0682 16.7149H42.5222V19.6669Z" fill="#3B0065"/>
<path d="M55.0378 16.6429V18.5149H60.4378C60.8098 18.5149 60.9958 18.6949 60.9958 19.0549V20.9269C60.9958 21.2869 60.8098 21.4669 60.4378 21.4669H55.0378V23.3209H61.6978C62.0578 23.3209 62.2378 23.5009 62.2378 23.8609L62.2558 25.7689C62.2318 26.1169 62.0458 26.2909 61.6978 26.2909L52.4998 26.2729C52.3198 26.2729 52.1758 26.2369 52.0678 26.1649C51.9718 26.0809 51.9238 25.9369 51.9238 25.7329V14.2489C51.9238 13.8889 52.1038 13.7089 52.4638 13.7089H61.6978C62.0578 13.7089 62.2378 13.8769 62.2378 14.2129L62.2558 16.1029C62.2198 16.4629 62.0278 16.6429 61.6798 16.6429H55.0378Z" fill="#3B0065"/>
<path d="M62.9805 25.8049V14.1589C62.9805 13.9189 63.0165 13.7809 63.0885 13.7449C63.1605 13.7089 63.3165 13.6909 63.5565 13.6909H68.3265C69.2865 13.6909 70.1685 13.8649 70.9725 14.2129C71.7765 14.5489 72.4965 15.0829 73.1325 15.8149C73.3485 16.0549 73.5465 16.3189 73.7265 16.6069C73.9065 16.8829 74.0625 17.1769 74.1945 17.4889C74.5305 18.2689 74.6985 19.0789 74.6985 19.9189C74.6985 20.1829 74.6805 20.4469 74.6445 20.7109C74.5605 21.4789 74.3445 22.1989 73.9965 22.8709C73.6605 23.5429 73.2225 24.1309 72.6825 24.6349C72.1425 25.1269 71.5245 25.5169 70.8285 25.8049C70.1445 26.0929 69.4185 26.2489 68.6505 26.2729C68.0865 26.2849 67.5165 26.2909 66.9405 26.2909C66.6645 26.2909 66.2385 26.2909 65.6625 26.2909C65.0985 26.2789 64.3905 26.2729 63.5385 26.2729C63.4065 26.2729 63.2805 26.2369 63.1605 26.1649C63.0405 26.0809 62.9805 25.9609 62.9805 25.8049ZM66.0945 23.2489H68.4165C69.4845 23.2489 70.3425 22.8049 70.9905 21.9169C71.2665 21.5329 71.4345 21.1789 71.4945 20.8549C71.5545 20.5189 71.5845 20.2249 71.5845 19.9729C71.5845 19.7929 71.5725 19.6009 71.5485 19.3969C71.5125 19.0969 71.4285 18.8209 71.2965 18.5689C71.1765 18.3169 71.0205 18.0769 70.8285 17.8489C70.5165 17.4769 70.1625 17.1949 69.7665 17.0029C69.3705 16.7989 68.9385 16.6969 68.4705 16.6969H66.0945V23.2489Z" fill="#3B0065"/>
<path d="M75.4258 25.8049V14.1769C75.4498 14.0329 75.5158 13.9189 75.6238 13.8349C75.7318 13.7389 75.8518 13.6909 75.9838 13.6909H77.5318C77.6278 13.6909 77.7118 13.7089 77.7838 13.7449C77.8678 13.7809 77.9398 13.8469 77.9998 13.9429L82.2838 19.9189L86.5498 13.9429C86.6458 13.7749 86.7958 13.6909 86.9998 13.6909H88.5838C88.9318 13.6909 89.1058 13.8829 89.1058 14.2669V25.7329C89.1058 26.1049 88.9258 26.2909 88.5658 26.2909H86.5678C86.3518 26.2909 86.2078 26.2489 86.1358 26.1649C86.0638 26.0689 86.0278 25.9189 86.0278 25.7149V19.6669L83.3278 23.4289C83.1838 23.5969 83.0218 23.6809 82.8418 23.6809H81.7258C81.5338 23.6809 81.3658 23.5969 81.2218 23.4289L78.5578 19.6669L78.5398 19.6849V25.7329C78.5398 26.0809 78.3598 26.2669 77.9998 26.2909H75.9838C75.8398 26.2789 75.7078 26.2369 75.5878 26.1649C75.4798 26.0929 75.4258 25.9729 75.4258 25.8049Z" fill="#3B0065"/>
<path d="M102.332 26.2909C101.996 26.2909 101.714 26.2909 101.486 26.2909C101.27 26.3029 101.108 26.3089 101 26.3089C100.772 26.3089 100.544 26.3029 100.316 26.2909C100.184 26.2909 100.076 26.2669 99.9923 26.2189C99.9083 26.1589 99.8363 26.0569 99.7763 25.9129L98.9123 23.7709C98.9003 23.6989 98.8583 23.6629 98.7863 23.6629H93.9263C93.8543 23.6629 93.8123 23.6989 93.8003 23.7709L92.9183 25.9129C92.8703 26.0569 92.8043 26.1589 92.7203 26.2189C92.6483 26.2669 92.5463 26.2909 92.4143 26.2909H90.3443C90.1403 26.2909 90.0023 26.2309 89.9303 26.1109C89.8583 25.9909 89.8223 25.8889 89.8223 25.8049C89.8223 25.7089 89.8463 25.6189 89.8943 25.5349L94.4843 14.0509C94.5923 13.8109 94.7603 13.6909 94.9883 13.6909H97.7243C97.9763 13.6909 98.1443 13.8049 98.2283 14.0329L102.512 24.7429C102.584 24.9229 102.656 25.1029 102.728 25.2829C102.812 25.4629 102.86 25.6009 102.872 25.6969C102.884 25.7809 102.89 25.8349 102.89 25.8589C102.89 25.9789 102.854 26.0809 102.782 26.1649C102.722 26.2489 102.572 26.2909 102.332 26.2909ZM97.7063 20.7649L96.3563 17.3629L95.0063 20.7649H97.7063Z" fill="#3B0065"/>
<path d="M115.286 25.5889C115.358 25.6849 115.394 25.7749 115.394 25.8589C115.394 25.9189 115.382 25.9729 115.358 26.0209C115.286 26.2009 115.13 26.2909 114.89 26.2909H112.478C112.286 26.2909 112.13 26.2129 112.01 26.0569L109.598 22.7809C109.526 22.7089 109.46 22.6729 109.4 22.6729L106.718 22.6909V25.7149C106.694 25.7989 106.67 25.8769 106.646 25.9489C106.634 26.0089 106.61 26.0689 106.574 26.1289C106.55 26.1769 106.508 26.2189 106.448 26.2549C106.388 26.2789 106.298 26.2909 106.178 26.2909H104.126C103.778 26.2909 103.604 26.1049 103.604 25.7329V14.2309C103.604 14.0029 103.646 13.8589 103.73 13.7989C103.814 13.7269 103.964 13.6909 104.18 13.6909H110.192C111.056 13.6909 111.83 13.8949 112.514 14.3029C113.21 14.7109 113.774 15.2929 114.206 16.0489C114.482 16.5529 114.638 16.9849 114.674 17.3449C114.722 17.7049 114.746 17.9749 114.746 18.1549C114.746 18.5029 114.71 18.8569 114.638 19.2169C114.506 19.8049 114.266 20.3269 113.918 20.7829C113.582 21.2389 113.162 21.6349 112.658 21.9709L115.286 25.5889ZM106.718 19.6669H110.282C110.582 19.6669 110.834 19.5949 111.038 19.4509C111.242 19.2949 111.392 19.1089 111.488 18.8929C111.584 18.6649 111.632 18.4309 111.632 18.1909C111.632 18.1789 111.626 18.1069 111.614 17.9749C111.614 17.8309 111.554 17.6509 111.434 17.4349C111.326 17.2189 111.17 17.0449 110.966 16.9129C110.762 16.7809 110.528 16.7149 110.264 16.7149H106.718V19.6669Z" fill="#3B0065"/>
<path d="M116.119 25.8229V14.1769C116.119 14.0329 116.173 13.9189 116.281 13.8349C116.401 13.7389 116.527 13.6909 116.659 13.6909H118.693C119.053 13.6909 119.233 13.8769 119.233 14.2489V18.5329L119.251 18.5689L123.679 13.8709C123.787 13.7509 123.925 13.6909 124.093 13.6909H126.667C126.775 13.6909 126.871 13.7209 126.955 13.7809C127.039 13.8289 127.093 13.8889 127.117 13.9609C127.153 14.0329 127.171 14.1049 127.171 14.1769C127.171 14.2009 127.165 14.2489 127.153 14.3209C127.153 14.3809 127.117 14.4529 127.045 14.5369L122.329 19.5229L127.675 25.5529C127.747 25.6369 127.783 25.7209 127.783 25.8049C127.783 25.8889 127.729 25.9909 127.621 26.1109C127.525 26.2309 127.381 26.2909 127.189 26.2909H124.669C124.585 26.2909 124.501 26.2789 124.417 26.2549C124.345 26.2189 124.279 26.1589 124.219 26.0749L120.277 21.6649L119.287 22.7089C119.251 22.7569 119.233 22.8109 119.233 22.8709V25.7149C119.233 25.8829 119.185 26.0209 119.089 26.1289C118.993 26.2369 118.855 26.2909 118.675 26.2909H116.713C116.581 26.2909 116.449 26.2549 116.317 26.1829C116.185 26.1109 116.119 25.9909 116.119 25.8229Z" fill="#3B0065"/>
</svg>
