<svg width="32" height="20" viewBox="0 0 32 20" fill="none" xmlns="http://www.w3.org/2000/svg">
<path d="M29 -0.00012207C26.86 -0.00012207 25.32 2.23988 26.3 4.27988L20.28 10.2999C19.24 9.79988 18.3 10.0199 17.7 10.2999L15.68 8.27988C15.88 7.89988 16 7.45988 16 6.99988C16 5.33988 14.66 3.99988 13 3.99988C11.34 3.99988 10 5.33988 10 6.99988C10 7.45988 10.12 7.89988 10.3 8.27988L4.28 14.2999C3.9 14.1199 3.46 13.9999 3 13.9999C1.34 13.9999 0 15.3399 0 16.9999C0 18.6599 1.34 19.9999 3 19.9999C4.66 19.9999 6 18.6599 6 16.9999C6 16.5399 5.88 16.0999 5.7 15.7199L11.72 9.69988C12.76 10.1999 13.7 9.97988 14.3 9.69988L16.32 11.7199C16.12 12.0999 16 12.5399 16 12.9999C16 14.6599 17.34 15.9999 19 15.9999C20.66 15.9999 22 14.6599 22 12.9999C22 12.5399 21.88 12.0999 21.7 11.7199L27.72 5.69988C29.78 6.69988 32 5.11988 32 2.99988C32 1.33988 30.66 -0.00012207 29 -0.00012207Z" fill="white"/>
</svg>
