<svg width="171" height="132" viewBox="0 0 171 132" fill="none" xmlns="http://www.w3.org/2000/svg">
<path fill-rule="evenodd" clip-rule="evenodd" d="M92.2908 1.19974L87.1181 0.928647L84.3009 5.29216L81.7706 6.07789L81.7625 6.08516L81.7536 6.0428L76.8277 4.43386L72.9772 7.92248L74.0525 13.0201L74.0611 13.0229L74.0437 13.0385L73.0774 15.5132L68.4613 17.8808L68.1886 23.0856L72.5319 25.9227L73.2342 28.4849L73.2416 28.4932L71.6394 33.4504L75.1041 37.3224L80.1712 36.2372L80.1765 36.2207L82.6491 36.9298L82.6369 36.9488L84.987 41.5918L90.1597 41.8629L92.9823 37.491L92.9731 37.4728L95.546 37.0284L95.5491 37.0431L100.475 38.652L104.325 35.1634L103.259 30.1082L103.267 30.1009L104.271 27.5661L108.852 25.2167L109.124 20.0119L104.822 17.2012L104.823 17.1769L104.047 14.5956L104.061 14.5927L105.663 9.63548L102.199 5.76347L97.1315 6.84871L97.1241 6.84044L94.634 5.82903L92.2908 1.19974ZM96.1763 21.7324C95.9564 25.9282 92.3977 29.1525 88.2277 28.934C84.0576 28.7154 80.8554 25.1368 81.0753 20.941C81.2952 16.7451 84.8539 13.5209 89.024 13.7394C93.194 13.958 96.3962 17.5365 96.1763 21.7324Z" fill="#9367AB"/>
<path fill-rule="evenodd" clip-rule="evenodd" d="M103.02 90.9945L98.9552 90.7815L96.7415 94.2103L94.7532 94.8277L94.7468 94.8334L94.7398 94.8001L90.8691 93.5358L87.8434 96.2772L88.6884 100.283L88.6951 100.285L88.6815 100.297L87.9222 102.242L84.2949 104.102L84.0805 108.192L87.4935 110.422L88.0454 112.435L88.0512 112.441L86.7921 116.337L89.5147 119.379L93.4964 118.527L93.5006 118.514L95.4435 119.071L95.4339 119.086L97.2806 122.734L101.345 122.947L103.563 119.512L103.556 119.498L105.578 119.148L105.58 119.16L109.451 120.424L112.477 117.683L111.639 113.711L111.645 113.705L112.434 111.713L116.033 109.867L116.248 105.777L112.866 103.568L112.867 103.549L112.258 101.521L112.269 101.519L113.528 97.6232L110.805 94.5806L106.824 95.4334L106.818 95.4269L104.861 94.6322L103.02 90.9945ZM106.073 107.129C105.9 110.426 103.104 112.96 99.8271 112.788C96.5503 112.616 94.034 109.804 94.2068 106.507C94.3796 103.21 97.176 100.676 100.453 100.848C103.73 101.02 106.246 103.832 106.073 107.129Z" fill="#9367AB"/>
<path d="M3.2207 19.7364C3.2207 17.5119 5.02408 15.7085 7.24866 15.7085H75.7239C77.9485 15.7085 79.7518 17.5119 79.7518 19.7365V124.463C79.7518 126.688 77.9485 128.491 75.7239 128.491H7.24866C5.02408 128.491 3.2207 126.688 3.2207 124.463V19.7364Z" fill="#3E81AA"/>
<path fill-rule="evenodd" clip-rule="evenodd" d="M7.25032 12.4863H75.7256C79.7298 12.4863 82.9759 15.7324 82.9759 19.7366V124.463C82.9759 128.468 79.7298 131.714 75.7256 131.714H7.25032C3.24608 131.714 0 128.468 0 124.463V19.7366C0 15.7324 3.24608 12.4863 7.25032 12.4863ZM7.25032 15.7087C5.02574 15.7087 3.22236 17.5121 3.22236 19.7366V124.463C3.22236 126.688 5.02574 128.491 7.25032 128.491H75.7256C77.9501 128.491 79.7535 126.688 79.7535 124.463V19.7366C79.7535 17.5121 77.9502 15.7087 75.7256 15.7087H7.25032Z" fill="white"/>
<path d="M11.2754 11.6805C11.2754 9.45596 13.0788 7.65259 15.3033 7.65259H83.7786C86.0032 7.65259 87.8065 9.45596 87.8065 11.6805V116.407C87.8065 118.632 86.0032 120.435 83.7786 120.435H15.3033C13.0788 120.435 11.2754 118.632 11.2754 116.407V11.6805Z" fill="#3E81AA"/>
<path fill-rule="evenodd" clip-rule="evenodd" d="M15.305 4.43042H83.7803C87.7845 4.43042 91.0306 7.6765 91.0306 11.6807V116.408C91.0306 120.412 87.7845 123.658 83.7803 123.658H15.305C11.3008 123.658 8.05469 120.412 8.05469 116.408V11.6807C8.05469 7.67649 11.3008 4.43042 15.305 4.43042ZM15.305 7.65278C13.0804 7.65278 11.2771 9.45616 11.2771 11.6807V116.408C11.2771 118.632 13.0804 120.436 15.305 120.436H83.7803C86.0048 120.436 87.8082 118.632 87.8082 116.408V11.6807C87.8082 9.45616 86.0048 7.65278 83.7803 7.65278H15.305Z" fill="white"/>
<path fill-rule="evenodd" clip-rule="evenodd" d="M19.3359 21.7505C19.3359 20.6383 20.2376 19.7366 21.3499 19.7366C22.4622 19.7366 23.3639 20.6383 23.3639 21.7506V41.8903C23.3639 43.0026 22.4622 43.9043 21.3499 43.9043C20.2376 43.9043 19.3359 43.0026 19.3359 41.8903V21.7505ZM27.3918 21.7506C27.3918 20.6383 28.2935 19.7366 29.4058 19.7366C30.5181 19.7366 31.4198 20.6383 31.4198 21.7506V37.8624C31.4198 38.9747 30.5181 39.8764 29.4058 39.8764C28.2935 39.8764 27.3918 38.9747 27.3918 37.8624V21.7506ZM37.4617 19.7366C36.3494 19.7366 35.4478 20.6383 35.4478 21.7505V41.8903C35.4478 43.0026 36.3494 43.9043 37.4617 43.9043C38.574 43.9043 39.4757 43.0026 39.4757 41.8903V21.7506C39.4757 20.6383 38.574 19.7366 37.4617 19.7366ZM43.5037 21.7506C43.5037 20.6383 44.4054 19.7366 45.5176 19.7366C46.6299 19.7366 47.5316 20.6383 47.5316 21.7506V37.8624C47.5316 38.9747 46.6299 39.8764 45.5176 39.8764C44.4054 39.8764 43.5037 38.9747 43.5037 37.8624V21.7506ZM53.5736 19.7366C52.4613 19.7366 51.5596 20.6383 51.5596 21.7505V41.8903C51.5596 43.0026 52.4613 43.9043 53.5736 43.9043C54.6858 43.9043 55.5875 43.0026 55.5875 41.8903V21.7506C55.5875 20.6383 54.6858 19.7366 53.5736 19.7366ZM59.6155 21.7506C59.6155 20.6383 60.5172 19.7366 61.6295 19.7366C62.7418 19.7366 63.6434 20.6383 63.6434 21.7506V37.8624C63.6434 38.9747 62.7418 39.8764 61.6295 39.8764C60.5172 39.8764 59.6155 38.9747 59.6155 37.8624V21.7506ZM69.6854 19.7366C68.5731 19.7366 67.6714 20.6383 67.6714 21.7505V41.8903C67.6714 43.0026 68.5731 43.9043 69.6854 43.9043C70.7977 43.9043 71.6994 43.0026 71.6994 41.8903V21.7506C71.6994 20.6383 70.7977 19.7366 69.6854 19.7366ZM75.7273 21.7506C75.7273 20.6383 76.629 19.7366 77.7413 19.7366C78.8536 19.7366 79.7553 20.6383 79.7553 21.7506V37.8624C79.7553 38.9747 78.8536 39.8764 77.7413 39.8764C76.629 39.8764 75.7273 38.9747 75.7273 37.8624V21.7506ZM21.7527 51.9602C20.6404 51.9602 19.7387 52.8619 19.7387 53.9742V74.114C19.7387 75.2263 20.6404 76.1279 21.7527 76.1279C22.865 76.1279 23.7667 75.2263 23.7667 74.114V53.9742C23.7667 52.8619 22.865 51.9602 21.7527 51.9602ZM27.7946 53.9742C27.7946 52.8619 28.6963 51.9602 29.8086 51.9602C30.9209 51.9602 31.8226 52.8619 31.8226 53.9742V70.086C31.8226 71.1983 30.9209 72.1 29.8086 72.1C28.6963 72.1 27.7946 71.1983 27.7946 70.086V53.9742ZM37.8645 51.9602C36.7522 51.9602 35.8506 52.8619 35.8506 53.9742V74.114C35.8506 75.2263 36.7522 76.1279 37.8645 76.1279C38.9768 76.1279 39.8785 75.2263 39.8785 74.114V53.9742C39.8785 52.8619 38.9768 51.9602 37.8645 51.9602ZM19.7387 86.1978C19.7387 85.0855 20.6404 84.1839 21.7527 84.1839C22.865 84.1839 23.7667 85.0855 23.7667 86.1978V106.338C23.7667 107.45 22.865 108.352 21.7527 108.352C20.6404 108.352 19.7387 107.45 19.7387 106.338V86.1978ZM29.8086 84.1839C28.6963 84.1839 27.7946 85.0855 27.7946 86.1978V102.31C27.7946 103.422 28.6963 104.324 29.8086 104.324C30.9209 104.324 31.8226 103.422 31.8226 102.31V86.1978C31.8226 85.0855 30.9209 84.1839 29.8086 84.1839ZM35.8506 86.1978C35.8506 85.0855 36.7522 84.1839 37.8645 84.1839C38.9768 84.1839 39.8785 85.0855 39.8785 86.1978V106.338C39.8785 107.45 38.9768 108.352 37.8645 108.352C36.7522 108.352 35.8506 107.45 35.8506 106.338V86.1978ZM45.9204 84.1839C44.8082 84.1839 43.9065 85.0855 43.9065 86.1978V102.31C43.9065 103.422 44.8082 104.324 45.9204 104.324C47.0327 104.324 47.9344 103.422 47.9344 102.31V86.1978C47.9344 85.0855 47.0327 84.1839 45.9204 84.1839ZM51.9624 86.1978C51.9624 85.0855 52.8641 84.1839 53.9764 84.1839C55.0886 84.1839 55.9903 85.0855 55.9903 86.1978V106.338C55.9903 107.45 55.0886 108.352 53.9764 108.352C52.8641 108.352 51.9624 107.45 51.9624 106.338V86.1978ZM62.0323 84.1839C60.92 84.1839 60.0183 85.0855 60.0183 86.1978V102.31C60.0183 103.422 60.92 104.324 62.0323 104.324C63.1446 104.324 64.0462 103.422 64.0462 102.31V86.1978C64.0462 85.0855 63.1446 84.1839 62.0323 84.1839Z" fill="white"/>
<path fill-rule="evenodd" clip-rule="evenodd" d="M115.195 37.0571H108.278L104.826 43.0732L101.506 44.2979L101.496 44.3082L101.481 44.2523L94.7996 42.4509L89.9084 47.3724L91.6987 54.0954L91.7104 54.0986L91.6883 54.1207L90.5726 57.4885L84.582 60.9686V67.9287L90.5726 71.4087L91.6883 74.7766L91.6987 74.7871L89.9084 81.51L94.7997 86.4316L101.481 84.6302L101.487 84.6078L104.834 85.3807L104.819 85.4069L108.278 91.4345H115.195L118.654 85.4069L118.64 85.3833L122.04 84.6108L122.046 84.6302L128.727 86.4316L133.618 81.51L131.843 74.8429L131.853 74.8327L133.015 71.3821L138.959 67.9287V60.9686L133.025 57.5209V57.4885L131.81 54.1002L131.828 54.0954L133.618 47.3724L128.727 42.4509L122.046 44.2523L122.035 44.2418L118.644 43.067L115.195 37.0571ZM121.812 64.168C121.812 69.7789 117.291 74.3275 111.715 74.3275C106.139 74.3275 101.618 69.7789 101.618 64.168C101.618 58.557 106.139 54.0084 111.715 54.0084C117.291 54.0084 121.812 58.557 121.812 64.168Z" fill="#6F2F99"/>
<path d="M130.366 14.7288L119.864 25.2306C119.23 25.8647 118.202 25.8647 117.568 25.2306C116.934 24.5965 116.934 23.5685 117.568 22.9345L129.017 11.4853C129.772 10.7299 130.797 10.3055 131.865 10.3055L143.559 10.3055C144.447 10.3055 145.168 11.026 145.168 11.9148C145.168 12.802 144.45 13.5219 143.562 13.524L138.355 13.5366L133.204 13.5491C132.139 13.5516 131.119 13.9758 130.366 14.7288Z" fill="#E21569"/>
<path d="M135.999 107.178L125.497 96.6761C124.863 96.0421 123.835 96.0421 123.201 96.6761C122.566 97.3102 122.566 98.3382 123.201 98.9723L134.65 110.421C135.405 111.177 136.43 111.601 137.498 111.601L149.191 111.601C150.08 111.601 150.801 110.881 150.801 109.992C150.801 109.105 150.083 108.385 149.195 108.383L138.837 108.358C137.772 108.355 136.752 107.931 135.999 107.178Z" fill="#E21569"/>
<path d="M146.621 108.353H162.733V111.575H146.621V108.353Z" fill="#E21569"/>
<path d="M133.631 10.2886H162.531V13.5358H133.631V10.2886Z" fill="#E21569"/>
<path d="M147.598 60.6207C147.598 59.724 148.325 58.9971 149.221 58.9971H160.911C161.808 58.9971 162.535 59.724 162.535 60.6207C162.535 61.5174 161.808 62.2443 160.911 62.2443H149.221C148.325 62.2443 147.598 61.5174 147.598 60.6207Z" fill="#E21569"/>
<path fill-rule="evenodd" clip-rule="evenodd" d="M165.131 16.783C167.821 16.783 170.002 14.6023 170.002 11.9121C170.002 9.22203 167.821 7.04126 165.131 7.04126C162.441 7.04126 160.26 9.22203 160.26 11.9121C160.26 14.6023 162.441 16.783 165.131 16.783ZM165.131 13.5356C166.027 13.5356 166.754 12.8087 166.754 11.912C166.754 11.0153 166.027 10.2883 165.131 10.2883C164.234 10.2883 163.507 11.0153 163.507 11.912C163.507 12.8087 164.234 13.5356 165.131 13.5356Z" fill="#E21569"/>
<path fill-rule="evenodd" clip-rule="evenodd" d="M165.131 65.4915C167.821 65.4915 170.002 63.3108 170.002 60.6206C170.002 57.9305 167.821 55.7498 165.131 55.7498C162.441 55.7498 160.26 57.9305 160.26 60.6206C160.26 63.3108 162.441 65.4915 165.131 65.4915ZM165.131 62.2444C166.027 62.2444 166.754 61.5175 166.754 60.6208C166.754 59.7241 166.027 58.9971 165.131 58.9971C164.234 58.9971 163.507 59.7241 163.507 60.6208C163.507 61.5175 164.234 62.2444 165.131 62.2444Z" fill="#E21569"/>
<path fill-rule="evenodd" clip-rule="evenodd" d="M165.131 115.006C167.821 115.006 170.002 112.825 170.002 110.135C170.002 107.445 167.821 105.264 165.131 105.264C162.441 105.264 160.26 107.445 160.26 110.135C160.26 112.825 162.441 115.006 165.131 115.006ZM165.131 111.758C166.027 111.758 166.754 111.031 166.754 110.135C166.754 109.238 166.027 108.511 165.131 108.511C164.234 108.511 163.507 109.238 163.507 110.135C163.507 111.031 164.234 111.758 165.131 111.758Z" fill="#E21569"/>
</svg>
