<svg width="314" height="270" viewBox="0 0 314 314" fill="none" xmlns="http://www.w3.org/2000/svg">
<path d="M156.249 127.003C152.596 127.112 149.24 127.795 145.945 129.097C140.837 131.117 136.327 134.562 133.006 138.979C129.49 143.653 127.438 149.19 127.055 155.023C127.008 155.749 126.998 156.091 126.998 157.002C126.998 157.913 127.008 158.255 127.055 158.981C127.522 166.103 130.484 172.764 135.469 177.904C138.274 180.794 141.656 183.108 145.348 184.663C148.422 185.957 151.674 186.724 155.019 186.944C155.745 186.99 156.087 187.001 156.998 187.001C157.909 187.001 158.251 186.99 158.977 186.944C162.058 186.742 165.062 186.075 167.92 184.957C173.092 182.938 177.639 179.481 180.99 175.025C183.514 171.669 185.303 167.835 186.235 163.783C186.65 161.986 186.879 160.292 186.981 158.297C187.004 157.83 187.004 156.174 186.981 155.707C186.921 154.541 186.834 153.618 186.687 152.61C185.777 146.402 182.919 140.617 178.527 136.102C174.484 131.944 169.376 129.057 163.78 127.766C161.999 127.355 160.27 127.12 158.322 127.024C158.024 127.009 156.551 126.995 156.249 127.003ZM157.296 135.159C160.875 135.301 164.228 136.25 167.28 137.986C167.89 138.332 168.408 138.661 168.507 138.763C168.649 138.91 168.706 139.07 168.696 139.297C168.683 139.575 168.626 139.665 168.291 139.933C166.88 141.067 165.57 142.425 164.481 143.883C163.745 144.868 163.158 145.804 162.559 146.949C162.447 147.163 162.383 147.236 162.252 147.303C162.127 147.367 162.028 147.386 161.866 147.38L161.718 147.375L161.341 147.191C160.728 146.891 160.281 146.712 159.705 146.537C156.713 145.626 153.479 146.031 150.83 147.648C148.706 148.946 147.096 150.91 146.24 153.253C145.37 155.638 145.37 158.366 146.24 160.751C146.419 161.238 146.552 161.542 146.799 162.025C147.767 163.917 149.308 165.511 151.181 166.562C154.01 168.148 157.442 168.382 160.476 167.199C160.772 167.084 160.955 167.002 161.341 166.813L161.718 166.628L161.866 166.624C162.028 166.618 162.127 166.637 162.252 166.701C162.383 166.768 162.447 166.841 162.559 167.055C163.158 168.2 163.745 169.136 164.481 170.121C165.57 171.579 166.88 172.937 168.291 174.071C168.543 174.273 168.603 174.338 168.657 174.477C168.702 174.592 168.712 174.82 168.677 174.939C168.613 175.159 168.518 175.264 168.211 175.459C166.904 176.283 165.603 176.933 164.209 177.46C160.818 178.739 157.13 179.151 153.513 178.655C150.571 178.252 147.763 177.258 145.217 175.718C143.238 174.522 141.457 173.013 139.934 171.242C138.278 169.315 136.968 167.109 136.073 164.737C135.145 162.274 134.673 159.672 134.673 157.002C134.673 152.975 135.747 149.104 137.815 145.687C139.012 143.708 140.521 141.927 142.292 140.405C144.219 138.749 146.425 137.439 148.797 136.544C150.985 135.719 153.287 135.255 155.659 135.16C156.083 135.143 156.885 135.143 157.296 135.159ZM173.491 146.25C174.373 146.822 175.179 147.498 175.894 148.263C177.765 150.264 178.944 152.824 179.241 155.532C179.307 156.129 179.315 156.293 179.315 157.031C179.315 157.769 179.307 157.933 179.241 158.53C179.097 159.843 178.739 161.147 178.193 162.354C177.205 164.533 175.617 166.399 173.619 167.726C173.253 167.97 173.279 167.957 173.222 167.924C173.116 167.863 172.649 167.547 172.455 167.406C171.841 166.959 171.179 166.371 170.643 165.799C168.772 163.797 167.593 161.238 167.296 158.53C167.23 157.933 167.222 157.769 167.222 157.031C167.222 156.293 167.23 156.129 167.296 155.532C167.555 153.169 168.488 150.91 169.978 149.034C170.732 148.084 171.698 147.176 172.672 146.501C172.944 146.313 173.245 146.118 173.266 146.117C173.277 146.117 173.379 146.176 173.491 146.25Z" fill="#653781"/>
<path opacity="0.6" fill-rule="evenodd" clip-rule="evenodd" d="M127.433 79.697C126.954 78.5404 125.628 77.9912 124.471 78.4703C123.315 78.9493 122.765 80.2753 123.244 81.4318L138.858 119.126C139.337 120.283 140.663 120.832 141.819 120.353C142.976 119.874 143.525 118.548 143.046 117.391L127.433 79.697ZM175.141 194.874C174.662 193.717 173.336 193.168 172.179 193.647C171.022 194.126 170.473 195.452 170.952 196.609L186.566 234.303C187.045 235.46 188.371 236.009 189.527 235.53C190.684 235.051 191.233 233.725 190.754 232.568L175.141 194.874ZM193.646 141.82C193.167 140.664 193.717 139.338 194.873 138.859L232.567 123.245C233.724 122.766 235.05 123.315 235.529 124.472C236.008 125.628 235.459 126.954 234.302 127.433L196.608 143.047C195.451 143.526 194.126 142.977 193.646 141.82ZM121.219 174.274C120.74 173.117 119.414 172.568 118.258 173.047L80.5636 188.661C79.4071 189.14 78.8579 190.466 79.3369 191.622C79.816 192.779 81.1419 193.328 82.2985 192.849L119.993 177.235C121.149 176.756 121.699 175.43 121.219 174.274Z" fill="#005488"/>
<g opacity="0.7">
<path d="M82.7931 130.571C87.2568 132.42 89.3764 137.537 87.5275 142.001C85.6786 146.465 80.5613 148.584 76.0977 146.735C71.6341 144.886 69.5144 139.769 71.3633 135.305C73.2122 130.842 78.3295 128.722 82.7931 130.571Z" fill="#E21569"/>
<path d="M236.639 167.508C241.102 169.357 243.222 174.475 241.373 178.938C239.524 183.402 234.407 185.521 229.943 183.673C225.48 181.824 223.36 176.706 225.209 172.243C227.058 167.779 232.175 165.659 236.639 167.508Z" fill="#E21569"/>
<path d="M118.381 216.492C122.845 218.341 124.964 223.458 123.115 227.922C121.267 232.385 116.149 234.505 111.686 232.656C107.222 230.807 105.102 225.69 106.951 221.226C108.8 216.763 113.917 214.643 118.381 216.492Z" fill="#E21569"/>
<path d="M200.826 80.7489C205.29 82.5978 207.41 87.7151 205.561 92.1787C203.712 96.6423 198.595 98.762 194.131 96.9131C189.667 95.0642 187.548 89.9469 189.397 85.4833C191.245 81.0197 196.363 78.9 200.826 80.7489Z" fill="#E21569"/>
</g>
<path d="M130.675 54.2524C133.846 61.9061 130.211 70.6806 122.557 73.8509C114.904 77.0211 106.129 73.3866 102.959 65.7329C99.7887 58.0793 103.423 49.3048 111.077 46.1345C118.731 42.9643 127.505 46.5988 130.675 54.2524Z" fill="#E21569" fill-opacity="0.54"/>
<path d="M211.039 248.267C214.209 255.921 210.574 264.695 202.921 267.866C195.267 271.036 186.493 267.401 183.322 259.748C180.152 252.094 183.787 243.32 191.44 240.149C199.094 236.979 207.868 240.614 211.039 248.267Z" fill="#E21569" fill-opacity="0.54"/>
<path d="M73.8492 191.442C77.0195 199.096 73.3849 207.87 65.7313 211.04C58.0776 214.211 49.3031 210.576 46.1328 202.922C42.9626 195.269 46.5971 186.494 54.2508 183.324C61.9044 180.154 70.679 183.788 73.8492 191.442Z" fill="#E21569" fill-opacity="0.54"/>
<path d="M267.865 111.078C271.035 118.732 267.401 127.506 259.747 130.676C252.093 133.847 243.319 130.212 240.148 122.559C236.978 114.905 240.613 106.13 248.266 102.96C255.92 99.7898 264.695 103.424 267.865 111.078Z" fill="#E21569" fill-opacity="0.54"/>
<path opacity="0.6" d="M170.745 104.994L163.935 121.434C163.534 122.401 162.426 122.859 161.46 122.459C160.494 122.059 160.035 120.951 160.435 119.985L167.859 102.062C168.358 100.858 169.307 99.896 170.505 99.3815L183.102 93.9705C184.085 93.5484 185.222 94.0195 185.619 95.0128C186 95.9685 185.552 97.0542 184.607 97.4627L173.379 102.318C172.187 102.833 171.242 103.793 170.745 104.994Z" fill="#005488"/>
<path opacity="0.6" d="M109.638 130.304L126.079 137.114C127.045 137.514 128.153 137.055 128.554 136.089C128.954 135.123 128.495 134.015 127.529 133.614L109.606 126.191C108.402 125.692 107.05 125.683 105.84 126.166L93.1056 131.248C92.1123 131.644 91.6413 132.782 92.0633 133.764C92.4695 134.71 93.5541 135.16 94.5108 134.781L105.883 130.275C107.091 129.796 108.438 129.807 109.638 130.304Z" fill="#005488"/>
<path opacity="0.6" d="M203.516 184.113L187.075 177.303C186.109 176.903 185.001 177.362 184.601 178.328C184.2 179.295 184.659 180.403 185.626 180.803L203.548 188.227C204.752 188.725 206.104 188.734 207.315 188.251L220.049 183.17C221.042 182.773 221.513 181.636 221.091 180.653C220.685 179.708 219.6 179.257 218.644 179.636L207.271 184.142C206.063 184.621 204.716 184.611 203.516 184.113Z" fill="#005488"/>
<path opacity="0.6" d="M142.412 209.424L149.222 192.983C149.622 192.017 150.73 191.558 151.696 191.958C152.663 192.358 153.121 193.466 152.721 194.433L145.297 212.355C144.799 213.559 143.849 214.521 142.651 215.036L130.054 220.447C129.071 220.869 127.934 220.398 127.538 219.405C127.156 218.449 127.604 217.363 128.549 216.955L139.777 212.1C140.969 211.584 141.914 210.624 142.412 209.424Z" fill="#005488"/>
</svg>
