<svg width="54" height="54" viewBox="0 0 54 54" fill="none" xmlns="http://www.w3.org/2000/svg">
<path fill-rule="evenodd" clip-rule="evenodd" d="M9.22287 6.25918C9.22287 7.89556 7.8963 9.22214 6.25991 9.22214C4.62353 9.22214 3.29695 7.89556 3.29695 6.25918C3.29695 4.62279 4.62353 3.29621 6.25991 3.29621C7.8963 3.29621 9.22287 4.62279 9.22287 6.25918ZM8.43751 11.7722C7.76344 12.0387 7.02877 12.1851 6.25991 12.1851C2.98711 12.1851 0.333984 9.53198 0.333984 6.25918C0.333984 2.98638 2.98711 0.333252 6.25991 0.333252C9.53271 0.333252 12.1858 2.98638 12.1858 6.25918C12.1858 7.69088 11.6781 9.00398 10.8329 10.0283L12.3065 12.0545L12.7645 12.6843C13.4941 12.3633 14.3006 12.1851 15.1488 12.1851C16.3099 12.1851 17.393 12.519 18.3073 13.0961L18.5297 12.8667L20.0111 11.339L21.9422 9.34759C21.3919 8.44824 21.0747 7.39073 21.0747 6.25918C21.0747 2.98638 23.7278 0.333252 27.0007 0.333252C30.2735 0.333252 32.9266 2.98638 32.9266 6.25918C32.9266 9.53198 30.2735 12.1851 27.0007 12.1851C25.9342 12.1851 24.9336 11.9034 24.0692 11.4104L22.1383 13.4016L20.6568 14.9294L20.3419 15.2542C20.8089 16.1014 21.0747 17.0752 21.0747 18.111C21.0747 19.7578 20.4031 21.2476 19.3187 22.3215L20.8468 24.7473L22.4085 27.2267C22.9261 27.079 23.4727 26.9999 24.0377 26.9999C25.8213 26.9999 27.4209 27.7879 28.5072 29.0347L32.2641 27.1563L36.0199 25.2784C35.9346 24.8781 35.8895 24.4628 35.8895 24.037C35.8895 20.7642 38.5426 18.111 41.8155 18.111C42.0715 18.111 42.3236 18.1273 42.571 18.1588L42.6623 17.9312L43.403 16.0793L44.1438 14.2275L44.2347 13.9997C42.7678 12.921 41.8155 11.1828 41.8155 9.22214C41.8155 5.94934 44.4685 3.29621 47.7414 3.29621C51.0143 3.29621 53.6673 5.94934 53.6673 9.22214C53.6673 12.4949 51.0143 15.1481 47.7414 15.1481C47.4854 15.1481 47.2332 15.1318 46.9858 15.1003L46.8946 15.3279L46.1538 17.1798L45.4131 19.0316L45.3221 19.2594C46.7891 20.3381 47.7414 22.0763 47.7414 24.037C47.7414 25.8206 46.9535 27.4201 45.7064 28.5065L45.7701 28.6336L46.4999 30.0933C46.9002 30.0079 47.3156 29.9629 47.7414 29.9629C51.0143 29.9629 53.6673 32.6159 53.6673 35.8888C53.6673 39.1617 51.0143 41.8147 47.7414 41.8147C44.4685 41.8147 41.8155 39.1617 41.8155 35.8888C41.8155 34.1051 42.6033 32.5057 43.8501 31.4192L43.1201 29.9587L43.0569 29.8326C42.6567 29.918 42.2412 29.9629 41.8155 29.9629C40.0318 29.9629 38.4324 29.1749 37.3458 27.9281L33.5891 29.8065L29.8334 31.6844C29.9187 32.0847 29.9636 32.5001 29.9636 32.9258C29.9636 35.687 28.0751 38.0073 25.5191 38.6651V40.3333V42.0014C28.0751 42.6592 29.9636 44.9795 29.9636 47.7407C29.9636 51.0135 27.3105 53.6666 24.0377 53.6666C20.7649 53.6666 18.1118 51.0135 18.1118 47.7407C18.1118 44.9795 20.0003 42.6592 22.5562 42.0014V40.3333V38.6651C21.5302 38.4011 20.6117 37.869 19.8798 37.1484L17.3925 38.6405L14.9065 40.1321C15.0642 40.6657 15.1488 41.2301 15.1488 41.8147C15.1488 45.0876 12.4957 47.7407 9.22287 47.7407C5.95007 47.7407 3.29695 45.0876 3.29695 41.8147C3.29695 38.5418 5.95007 35.8888 9.22287 35.8888C10.8428 35.8888 12.311 36.5389 13.3807 37.5922L15.8681 36.1001L18.354 34.6082C18.1964 34.0749 18.1118 33.5104 18.1118 32.9258C18.1118 31.2864 18.7775 29.8024 19.8534 28.7296L18.3397 26.3266L16.7581 23.8158C16.2464 23.9599 15.7066 24.037 15.1488 24.037C11.876 24.037 9.22287 21.3838 9.22287 18.111C9.22287 16.7606 9.67461 15.5156 10.4352 14.519L9.91025 13.7972L8.43751 11.7722ZM27.0007 9.22214C28.637 9.22214 29.9636 7.89556 29.9636 6.25918C29.9636 4.62279 28.637 3.29621 27.0007 3.29621C25.3643 3.29621 24.0377 4.62279 24.0377 6.25918C24.0377 7.89556 25.3643 9.22214 27.0007 9.22214ZM18.1118 18.111C18.1118 19.7474 16.7852 21.074 15.1488 21.074C13.5124 21.074 12.1858 19.7474 12.1858 18.111C12.1858 16.4746 13.5124 15.1481 15.1488 15.1481C16.7852 15.1481 18.1118 16.4746 18.1118 18.111ZM9.22287 44.7777C10.8593 44.7777 12.1858 43.4512 12.1858 41.8147C12.1858 40.1783 10.8593 38.8518 9.22287 38.8518C7.58649 38.8518 6.25991 40.1783 6.25991 41.8147C6.25991 43.4512 7.58649 44.7777 9.22287 44.7777ZM27.0007 47.7407C27.0007 49.3771 25.6741 50.7036 24.0377 50.7036C22.4013 50.7036 21.0747 49.3771 21.0747 47.7407C21.0747 46.1042 22.4013 44.7777 24.0377 44.7777C25.6741 44.7777 27.0007 46.1042 27.0007 47.7407ZM24.0377 35.8888C25.6741 35.8888 27.0007 34.5623 27.0007 32.9258C27.0007 31.2894 25.6741 29.9629 24.0377 29.9629C22.4013 29.9629 21.0747 31.2894 21.0747 32.9258C21.0747 34.5623 22.4013 35.8888 24.0377 35.8888ZM44.7784 24.037C44.7784 25.6733 43.4519 26.9999 41.8155 26.9999C40.179 26.9999 38.8525 25.6733 38.8525 24.037C38.8525 22.4006 40.179 21.074 41.8155 21.074C43.4519 21.074 44.7784 22.4006 44.7784 24.037ZM47.7414 38.8518C49.3778 38.8518 50.7044 37.5252 50.7044 35.8888C50.7044 34.2524 49.3778 32.9258 47.7414 32.9258C46.1049 32.9258 44.7784 34.2524 44.7784 35.8888C44.7784 37.5252 46.1049 38.8518 47.7414 38.8518ZM50.7044 9.22214C50.7044 10.8585 49.3778 12.1851 47.7414 12.1851C46.1049 12.1851 44.7784 10.8585 44.7784 9.22214C44.7784 7.58576 46.1049 6.25918 47.7414 6.25918C49.3778 6.25918 50.7044 7.58576 50.7044 9.22214Z" fill="#3B0065"/>
</svg>
