<svg width="120" height="120" viewBox="0 0 120 120" fill="none" xmlns="http://www.w3.org/2000/svg">
<circle cx="60" cy="60" r="50" fill="#3B0065"/>
<circle cx="60" cy="60" r="60" fill="#3B0065" fill-opacity="0.1"/>
<path d="M61.14 76.1503H59.6411V86.0942H61.14V76.1503Z" fill="white"/>
<path d="M37.4989 71.9402H36V77.9428H37.4989V71.9402Z" fill="white"/>
<path d="M84.7811 71.9402H83.2822V77.9428H84.7811V71.9402Z" fill="white"/>
<path d="M37.4989 41.2606H36V47.2631H37.4989V41.2606Z" fill="white"/>
<path d="M84.7813 41.2605H83.2825V47.2631H84.7813V41.2605Z" fill="white"/>
<path d="M60.3892 95.4188C57.614 95.4188 55.3552 93.1586 55.3552 90.3815C55.3552 87.6045 57.614 85.3442 60.3892 85.3442C63.1644 85.3442 65.4231 87.6045 65.4231 90.3815C65.4231 93.1586 63.1644 95.4188 60.3892 95.4188ZM60.3892 86.8426C58.4391 86.8426 56.8526 88.4302 56.8526 90.3815C56.8526 92.3329 58.4391 93.9204 60.3892 93.9204C62.3392 93.9204 63.9257 92.3329 63.9257 90.3815C63.9257 88.4302 62.3392 86.8426 60.3892 86.8426Z" fill="white"/>
<path d="M46.2176 84.0286L45.158 82.9682L47.8189 80.3055V73.4253H49.3178V80.6159C49.3178 80.8149 49.2391 81.005 49.0981 81.1461L46.2176 84.0286Z" fill="white"/>
<path d="M42.659 91.5681C39.8823 91.5681 37.625 89.3079 37.625 86.5308C37.625 83.7538 39.8838 81.4935 42.659 81.4935C45.4342 81.4935 47.6929 83.7538 47.6929 86.5308C47.6929 89.3079 45.4342 91.5681 42.659 91.5681ZM42.659 82.9919C40.7089 82.9919 39.1225 84.5795 39.1225 86.5308C39.1225 88.4822 40.7089 90.0697 42.659 90.0697C44.6091 90.0697 46.1955 88.4822 46.1955 86.5308C46.1955 84.5795 44.6091 82.9919 42.659 82.9919Z" fill="white"/>
<path d="M74.5617 84.0285L71.6811 81.146C71.5401 81.0049 71.4614 80.8148 71.4614 80.6158V73.4252H72.9603V80.3055L75.6213 82.9682L74.5617 84.0285Z" fill="white"/>
<path d="M78.1206 91.5681C75.3439 91.5681 73.0867 89.3079 73.0867 86.5308C73.0867 83.7538 75.3454 81.4935 78.1206 81.4935C80.8958 81.4935 83.1545 83.7538 83.1545 86.5308C83.1545 89.3079 80.8958 91.5681 78.1206 91.5681ZM78.1206 82.9919C76.1705 82.9919 74.5841 84.5795 74.5841 86.5308C74.5841 88.4822 76.1705 90.0697 78.1206 90.0697C80.0707 90.0697 81.6571 88.4822 81.6571 86.5308C81.6571 84.5795 80.0707 82.9919 78.1206 82.9919Z" fill="white"/>
<path d="M78.3597 41.2427H75.2061V44.3984H78.3597V41.2427Z" fill="white"/>
<path d="M42.4186 44.3999H45.5723V41.2442H42.4186V44.3999Z" fill="white"/>
<path d="M48.57 60.6434C48.4409 60.6434 48.3118 60.6092 48.196 60.5424L36.3755 53.7126C36.1439 53.579 36.0015 53.331 36.0015 53.0637C36.0015 52.7964 36.1439 52.5484 36.3755 52.4147L48.196 45.5864C48.4275 45.4528 48.714 45.4528 48.9455 45.5864L60.7661 52.4162C60.9976 52.5498 61.14 52.7978 61.14 53.0652C61.14 53.3325 60.9976 53.5805 60.7661 53.7141L48.9455 60.5424C48.8297 60.6092 48.7006 60.6434 48.5715 60.6434H48.57ZM38.2484 53.0652L48.57 59.0291L58.8917 53.0652L48.57 47.1012L38.2484 53.0652Z" fill="white"/>
<path d="M48.5697 74.3014C48.4406 74.3014 48.3115 74.2672 48.1958 74.2004L36.3752 67.3706C36.1437 67.237 36.0012 66.989 36.0012 66.7217V53.0637C36.0012 52.7964 36.1437 52.5483 36.3752 52.4147C36.6067 52.281 36.8932 52.281 37.1247 52.4147L48.9453 59.2444C49.1768 59.3781 49.3192 59.6261 49.3192 59.8934V73.5514C49.3192 73.8187 49.1768 74.0667 48.9453 74.2004C48.8295 74.2672 48.7004 74.3014 48.5713 74.3014H48.5697ZM37.4987 66.2895L47.8203 72.2535V60.327L37.4987 54.3631V66.2895Z" fill="white"/>
<path d="M48.57 74.3014C48.4409 74.3014 48.3118 74.2672 48.196 74.2004C47.9645 74.0667 47.822 73.8187 47.822 73.5514V59.8934C47.822 59.6261 47.9645 59.3781 48.196 59.2444L60.0166 52.4147C60.2481 52.281 60.5345 52.281 60.7661 52.4147C60.9976 52.5483 61.14 52.7964 61.14 53.0637V66.7217C61.14 66.989 60.9976 67.237 60.7661 67.3706L48.9455 74.2004C48.8297 74.2672 48.7006 74.3014 48.5715 74.3014H48.57ZM49.3195 60.327V72.2535L59.6411 66.2895V54.3631L49.3195 60.327Z" fill="white"/>
<path d="M72.2096 60.6434C72.0805 60.6434 71.9514 60.6092 71.8357 60.5424L60.0151 53.7126C59.7836 53.579 59.6411 53.331 59.6411 53.0637C59.6411 52.7964 59.7836 52.5484 60.0151 52.4147L71.8357 45.5864C72.0672 45.4528 72.3536 45.4528 72.5852 45.5864L84.4057 52.4162C84.6372 52.5498 84.7797 52.7978 84.7797 53.0652C84.7797 53.3325 84.6372 53.5805 84.4057 53.7141L72.5852 60.5424C72.4694 60.6092 72.3403 60.6434 72.2112 60.6434H72.2096ZM61.888 53.0652L72.2096 59.0291L82.5314 53.0652L72.2096 47.1012L61.888 53.0652Z" fill="white"/>
<path d="M72.2099 74.3014C72.0808 74.3014 71.9517 74.2672 71.8359 74.2004L60.0153 67.3706C59.7838 67.237 59.6414 66.989 59.6414 66.7217V53.0637C59.6414 52.7964 59.7838 52.5483 60.0153 52.4147C60.2469 52.281 60.5333 52.281 60.7648 52.4147L72.5854 59.2444C72.8169 59.3781 72.9594 59.6261 72.9594 59.8934V73.5514C72.9594 73.8187 72.8169 74.0667 72.5854 74.2004C72.4696 74.2672 72.3405 74.3014 72.2114 74.3014H72.2099ZM61.1388 66.2895L71.4605 72.2535V60.327L61.1388 54.3631V66.2895Z" fill="white"/>
<path d="M72.2099 74.3014C72.0808 74.3014 71.9517 74.2672 71.8359 74.2004C71.6044 74.0667 71.4619 73.8187 71.4619 73.5514V59.8934C71.4619 59.6261 71.6044 59.3781 71.8359 59.2444L83.6565 52.4147C83.888 52.281 84.1744 52.281 84.406 52.4147C84.6375 52.5483 84.7799 52.7964 84.7799 53.0637V66.7217C84.7799 66.989 84.6375 67.237 84.406 67.3706L72.5854 74.2004C72.4696 74.2672 72.3405 74.3014 72.2114 74.3014H72.2099ZM72.9594 60.327V72.2535L83.281 66.2895V54.3631L72.9594 60.327Z" fill="white"/>
<path d="M60.3888 40.1572C60.2597 40.1572 60.1306 40.123 60.0149 40.0562L48.1943 33.2264C47.9628 33.0928 47.8203 32.8448 47.8203 32.5775C47.8203 32.3102 47.9628 32.0622 48.1943 31.9285L60.0149 25.1002C60.2464 24.9666 60.5328 24.9666 60.7644 25.1002L72.5849 31.93C72.8164 32.0636 72.9589 32.3116 72.9589 32.5789C72.9589 32.8463 72.8164 33.0943 72.5849 33.2279L60.7644 40.0562C60.6486 40.123 60.5195 40.1572 60.3904 40.1572H60.3888ZM50.0672 32.5789L60.3888 38.5429L70.7106 32.5789L60.3888 26.615L50.0672 32.5789Z" fill="white"/>
<path d="M60.3891 53.8152C60.26 53.8152 60.1309 53.781 60.0151 53.7142L48.1945 46.8844C47.963 46.7508 47.8206 46.5028 47.8206 46.2355V32.5775C47.8206 32.3101 47.963 32.0621 48.1945 31.9285C48.4261 31.7948 48.7125 31.7948 48.944 31.9285L60.7646 38.7582C60.9961 38.8919 61.1386 39.1399 61.1386 39.4072V53.0652C61.1386 53.3325 60.9961 53.5805 60.7646 53.7142C60.6488 53.781 60.5197 53.8152 60.3906 53.8152H60.3891ZM49.318 45.8033L59.6397 51.7673V39.8408L49.318 33.8769V45.8033Z" fill="white"/>
<path d="M60.3893 53.8152C60.2602 53.8152 60.1311 53.781 60.0153 53.7142C59.7838 53.5805 59.6414 53.3325 59.6414 53.0652V39.4072C59.6414 39.1399 59.7838 38.8919 60.0153 38.7582L71.8359 31.9285C72.0674 31.7948 72.3539 31.7948 72.5854 31.9285C72.8169 32.0621 72.9594 32.3101 72.9594 32.5775V46.2355C72.9594 46.5028 72.8169 46.7508 72.5854 46.8844L60.7648 53.7142C60.6491 53.781 60.52 53.8152 60.3909 53.8152H60.3893ZM61.1388 39.8408V51.7673L71.4605 45.8033V33.8769L61.1388 39.8408Z" fill="white"/>
</svg>
