<svg width="120" height="120" viewBox="0 0 120 120" fill="none" xmlns="http://www.w3.org/2000/svg">
<circle cx="60" cy="60" r="50" fill="#3B0065"/>
<circle cx="60" cy="60" r="60" fill="#3B0065" fill-opacity="0.1"/>
<path d="M54.9458 73.5028C54.8667 73.2825 54.7573 73.0881 54.6205 72.9211C54.4838 72.754 54.3227 72.6158 54.1399 72.5063C53.9571 72.3969 53.7614 72.322 53.5556 72.2831C53.7269 72.2039 53.8751 72.106 54.0003 71.9908C54.1255 71.8756 54.2306 71.746 54.314 71.6034C54.3975 71.4608 54.4594 71.3053 54.5026 71.1383C54.5443 70.9712 54.5644 70.7955 54.5644 70.6126C54.5644 70.3189 54.5198 70.051 54.4306 69.8105C54.3414 69.57 54.2061 69.3656 54.0247 69.1956C53.8434 69.0271 53.6146 68.8961 53.3354 68.8054C53.2332 68.7723 53.1138 68.7463 52.9886 68.7247V67.8564H52.2101V68.6686H51.882V67.8564H51.1034V68.6686H49.6355V69.4476H50.2515V75.6139H49.6355V76.393H51.1034V77.2052H51.882V76.393H52.2101V77.2052H52.9886V76.3743C53.1052 76.3628 53.216 76.3484 53.3182 76.3268C53.5283 76.2836 53.7254 76.2188 53.9053 76.1324C54.0866 76.0474 54.2478 75.9423 54.3918 75.8184C54.5342 75.6946 54.6565 75.5535 54.7558 75.3951C54.8551 75.2367 54.9314 75.0595 54.9861 74.8637C55.0393 74.6693 55.0667 74.4576 55.0667 74.2315C55.0667 73.9694 55.0264 73.7275 54.9472 73.5057L54.9458 73.5028ZM50.9797 69.3152H52.1841C52.5108 69.3152 52.7713 69.3468 52.9656 69.4102C53.1599 69.4736 53.3182 69.5643 53.4391 69.6824C53.5599 69.8005 53.6491 69.9416 53.7038 70.1057C53.76 70.2714 53.7873 70.4542 53.7873 70.6573C53.7873 70.8445 53.76 71.0245 53.7038 71.1973C53.6477 71.3701 53.5628 71.5228 53.4477 71.6538C53.3326 71.7848 53.1857 71.89 53.0059 71.9677C52.8274 72.0455 52.5929 72.0844 52.3022 72.0844H50.9782V69.3152H50.9797ZM54.1615 74.917C54.0766 75.0984 53.96 75.2496 53.8161 75.3706C53.6708 75.4915 53.5038 75.5837 53.3153 75.6456C53.1268 75.7075 52.908 75.7378 52.662 75.7378H50.9797V72.7238H52.3698C52.7123 72.7238 52.9987 72.7569 53.229 72.8246C53.4592 72.8922 53.6535 72.9916 53.8104 73.1227C53.9672 73.2537 54.0866 73.4164 54.1687 73.6123C54.2507 73.8067 54.291 74.0328 54.291 74.2862C54.291 74.5253 54.2478 74.7355 54.1629 74.9155L54.1615 74.917Z" fill="white"/>
<path d="M54.9166 90.9842H49.5156C49.1141 90.9842 48.7889 90.6588 48.7889 90.257V86.2954C47.4793 86.0434 46.1986 85.3162 45.5078 84.8712L42.6685 87.7124C42.5317 87.8492 42.3475 87.9255 42.1547 87.9255C41.9618 87.9255 41.7776 87.8492 41.6409 87.7124L37.0114 83.0798C36.7279 82.7961 36.7279 82.3353 37.0114 82.0516L39.8349 79.2262C39.406 78.5868 38.7527 77.4232 38.4505 75.927H34.4685C34.067 75.927 33.7417 75.6016 33.7417 75.1998V69.7953C33.7417 69.3935 34.067 69.0681 34.4685 69.0681H38.5469C38.626 68.1522 38.921 66.5984 39.9629 65.4823L37.1293 62.6469C36.8458 62.3632 36.8458 61.9024 37.1293 61.6187L41.284 57.4612C41.5675 57.1775 42.0281 57.1775 42.3116 57.4612L45.1451 60.2967C46.2604 59.2527 47.8132 58.9589 48.7285 58.8797V54.7986C48.7285 54.3968 49.0537 54.0714 49.4552 54.0714H54.8562C55.2577 54.0714 55.5829 54.3968 55.5829 54.7986V58.7832C57.0766 59.0856 58.2395 59.7394 58.8799 60.1685L61.7034 57.3431C61.8401 57.2063 62.0243 57.13 62.2171 57.13C62.41 57.13 62.5941 57.2063 62.7308 57.3431L67.3604 61.9758C67.6439 62.2595 67.6439 62.7203 67.3604 63.004L64.5571 65.8092C65.0406 66.4688 65.7673 67.6698 65.9746 69.1285H69.9048C70.3063 69.1285 70.6315 69.454 70.6315 69.8558V75.2603C70.6315 75.6621 70.3063 75.9875 69.9048 75.9875H65.8264C65.7472 76.9034 65.4522 78.4572 64.4103 79.5732L67.2439 82.4087C67.3806 82.5455 67.4569 82.7298 67.4569 82.9228C67.4569 83.1158 67.3806 83.3001 67.2439 83.4369L63.0892 87.5943C62.9525 87.7311 62.7683 87.8074 62.5754 87.8074C62.3826 87.8074 62.1984 87.7311 62.0617 87.5943L59.2281 84.7589C58.1128 85.8029 56.56 86.0967 55.6448 86.1759V90.257C55.6448 90.6588 55.3195 90.9842 54.918 90.9842H54.9166ZM50.2409 89.5298H54.1899V85.476C54.1899 85.2787 54.2704 85.0886 54.4129 84.9518C54.5554 84.815 54.7454 84.7416 54.9454 84.7502C54.9699 84.7502 57.5328 84.8237 58.5906 83.2828C58.7129 83.1042 58.9086 82.9905 59.1231 82.9703C59.3375 82.9502 59.5504 83.0279 59.703 83.1806L62.5726 86.052L65.6998 82.9228L62.8301 80.0513C62.6776 79.8987 62.6013 79.6856 62.62 79.471C62.6402 79.2564 62.7539 79.0606 62.9324 78.9382C64.4722 77.8783 64.4002 75.3136 64.3988 75.2876C64.3916 75.0904 64.465 74.8988 64.6017 74.7563C64.7384 74.6137 64.927 74.5331 65.1241 74.5331H69.1766V70.5815H65.3025C64.9053 70.5815 64.5816 70.2619 64.5758 69.8644C64.5499 67.893 63.0647 66.2686 63.0489 66.2528C62.7826 65.9662 62.7899 65.5198 63.0662 65.2433L65.8177 62.4899L62.2156 58.8854L59.4641 61.6388C59.195 61.9067 58.7662 61.924 58.4783 61.6763C58.4654 61.6647 56.9385 60.3889 54.7669 60.1239C54.4028 60.0792 54.128 59.7696 54.128 59.4024V55.5258H50.1791V59.5795C50.1791 59.7768 50.0985 59.9669 49.956 60.1037C49.8135 60.2405 49.6207 60.314 49.4236 60.3053C49.4005 60.3053 46.8361 60.2319 45.7783 61.7728C45.656 61.9513 45.4617 62.0651 45.2458 62.0852C45.03 62.1054 44.8184 62.0276 44.6659 61.875L41.7964 59.0035L38.6692 62.1328L41.5387 65.0042C41.6913 65.1569 41.7676 65.37 41.7489 65.5846C41.7287 65.7991 41.615 65.995 41.4366 66.1174C39.8967 67.1773 39.9687 69.742 39.9701 69.7679C39.9773 69.9652 39.9039 70.1567 39.7672 70.2993C39.6305 70.4419 39.442 70.5225 39.2448 70.5225H35.1938V74.474H39.0678C39.4348 74.474 39.7442 74.7476 39.7888 75.1134C40.0536 77.285 41.3286 78.8129 41.3416 78.8287C41.5862 79.1167 41.5689 79.5473 41.3027 79.8137L38.5526 82.5671L42.1547 86.1716L44.9062 83.4182C45.1609 83.1633 45.5653 83.133 45.8546 83.3491C45.8747 83.3635 47.8895 84.851 49.5488 84.9273C49.9373 84.9446 50.2424 85.2643 50.2424 85.6531V89.5298H50.2409Z" fill="white"/>
<path d="M52.1873 79.9101C50.2172 79.9101 48.3637 79.1425 46.9706 77.7471C45.5776 76.3532 44.8091 74.4984 44.8091 72.5269C44.8091 70.5555 45.5761 68.7007 46.9706 67.3068C48.3637 65.9128 50.2172 65.1438 52.1873 65.1438C54.1575 65.1438 56.011 65.9113 57.4041 67.3068C58.7971 68.7007 59.5656 70.5555 59.5656 72.5269C59.5656 74.4984 58.7985 76.3532 57.4041 77.7471C56.011 79.1411 54.1575 79.9101 52.1873 79.9101ZM52.1873 66.5983C50.6043 66.5983 49.1163 67.2146 47.9981 68.335C46.8785 69.4553 46.2626 70.9443 46.2626 72.5269C46.2626 74.1096 46.8785 75.6 47.9981 76.7189C49.1178 77.8393 50.6058 78.4556 52.1873 78.4556C53.7689 78.4556 55.2584 77.8393 56.3766 76.7189C57.4962 75.5986 58.1122 74.1096 58.1122 72.5269C58.1122 70.9443 57.4962 69.4539 56.3766 68.335C55.257 67.2146 53.7689 66.5983 52.1873 66.5983Z" fill="white"/>
<path d="M67.2439 58.326C66.936 58.326 66.6496 58.1273 66.5517 57.8177L65.6523 54.9649C64.6866 55.0499 63.6707 54.8497 63.0432 54.6884L61.6415 57.3828C61.5523 57.5541 61.3997 57.6823 61.2155 57.7399C61.0313 57.7975 60.8327 57.7802 60.6615 57.6909L56.0909 55.3105C55.9197 55.2212 55.7916 55.0686 55.734 54.8843C55.6765 54.6999 55.6937 54.5012 55.7829 54.3298L57.1745 51.6528C56.7054 51.2625 56.0218 50.5929 55.4778 49.6511L52.6098 50.5569C52.4256 50.6145 52.2269 50.5972 52.0557 50.5079C51.8844 50.4187 51.7564 50.266 51.6988 50.0817L50.4208 46.0265C50.2999 45.6435 50.513 45.2359 50.8958 45.115L53.8229 44.1904C53.6818 43.4791 53.5825 42.3601 54.0157 41.3406L51.3491 39.9524C51.1778 39.8631 51.0497 39.7104 50.9922 39.5261C50.9346 39.3418 50.9519 39.1431 51.0411 38.9717L53.1753 34.8675C53.2645 34.6962 53.417 34.568 53.6012 34.5104C53.7855 34.4528 53.9841 34.4701 54.1553 34.5594L56.8219 35.9476C57.4076 35.0072 58.3805 34.447 59.044 34.1533L58.12 31.2242C57.9991 30.8412 58.2121 30.4336 58.5949 30.3127L62.6475 29.0339C63.0303 28.9129 63.4375 29.1261 63.5583 29.5091L64.4635 32.3791C65.5472 32.2841 66.4869 32.4598 67.0755 32.6211L68.4672 29.944C68.6528 29.5883 69.0917 29.4501 69.4472 29.6344L74.0163 32.0148C74.3718 32.2006 74.5099 32.6398 74.3257 32.9955L72.9456 35.6481C73.4579 36.0412 74.1918 36.718 74.6754 37.6598L77.4975 36.7684C77.8803 36.6474 78.2875 36.8606 78.4084 37.2436L79.6863 41.2988C79.8072 41.6819 79.5942 42.0894 79.2114 42.2104L76.2843 43.1349C76.4253 43.8463 76.5247 44.9652 76.0915 45.9862L78.7581 47.3744C79.1136 47.5602 79.2517 47.9994 79.0675 48.3551L76.9333 52.4592C76.8441 52.6306 76.6915 52.7588 76.5073 52.8164C76.3231 52.874 76.1246 52.8567 75.9533 52.7674L73.2867 51.3792C72.7009 52.3195 71.7281 52.8797 71.0647 53.1735L71.9886 56.1026C72.0462 56.2869 72.0289 56.4856 71.9397 56.657C71.8505 56.8283 71.6979 56.9565 71.5137 57.0141L67.4612 58.2929C67.3892 58.3159 67.3144 58.326 67.2424 58.326H67.2439ZM66.156 53.4183C66.4654 53.4183 66.7503 53.6185 66.8482 53.9266L67.7188 56.6872L70.3869 55.8448L69.4745 52.9503C69.4155 52.7616 69.4357 52.5571 69.5292 52.3829C69.6242 52.2087 69.7853 52.0819 69.9767 52.0301C69.994 52.0258 71.8533 51.4929 72.2577 50.1695C72.321 49.9636 72.4721 49.7951 72.6722 49.7116C72.8708 49.6281 73.0967 49.6367 73.2881 49.7375L75.9836 51.1416L77.4471 48.3277L74.7517 46.9237C74.5603 46.8243 74.4236 46.6443 74.3775 46.4326C74.3314 46.2209 74.3818 46.0006 74.5142 45.8307C75.3662 44.7391 74.733 42.9102 74.7272 42.8915C74.661 42.7057 74.6739 42.4998 74.7617 42.3241C74.8495 42.1484 75.0049 42.0131 75.1935 41.954L78.0861 41.041L77.2442 38.3712L74.4854 39.2424C74.1055 39.3619 73.7011 39.1546 73.5774 38.7773C73.1111 37.3632 71.6633 36.5222 71.6475 36.515C71.3079 36.322 71.1813 35.8929 71.3612 35.5472L72.7024 32.9681L69.4213 31.2602L68.08 33.8393C67.9045 34.1763 67.5 34.3218 67.1503 34.172C67.1388 34.1677 65.73 33.5888 64.088 33.8955C63.7267 33.9618 63.3727 33.7501 63.2619 33.4001L62.3913 30.6396L59.7232 31.482L60.6355 34.3765C60.6945 34.5651 60.6744 34.7696 60.5809 34.9439C60.4859 35.1181 60.3247 35.2448 60.1333 35.2967C60.1161 35.301 58.2567 35.8338 57.8523 37.1572C57.789 37.3632 57.6379 37.5316 57.4379 37.6152C57.2393 37.6987 57.0133 37.69 56.8219 37.5892L54.1265 36.1852L52.663 38.9991L55.3584 40.4031C55.5498 40.5025 55.6865 40.6825 55.7326 40.8942C55.7786 41.1059 55.7283 41.3262 55.5959 41.4961C54.7454 42.5877 55.3771 44.4165 55.3828 44.4353C55.449 44.621 55.4361 44.8269 55.3483 45.0026C55.2605 45.1783 55.1051 45.3137 54.9166 45.3727L52.024 46.2857L52.8659 48.9556L55.6246 48.0843C55.9743 47.9735 56.3528 48.1419 56.5039 48.476C57.1961 49.9982 58.4769 50.8204 58.4899 50.8291C58.8094 51.0307 58.923 51.4454 58.7489 51.781L57.4077 54.3601L60.6888 56.068L62.0301 53.4889C62.197 53.1677 62.5726 53.018 62.9136 53.1389C63.4202 53.3146 64.9601 53.7135 65.9674 53.4457C66.0293 53.4284 66.0926 53.4212 66.1545 53.4212L66.156 53.4183Z" fill="white"/>
<path d="M65.0458 49.6302C64.1003 49.6302 63.1634 49.4027 62.3014 48.9534C59.3858 47.4355 58.249 43.8268 59.7658 40.9092C61.2826 37.9917 64.8889 36.854 67.8046 38.3719C69.2163 39.1077 70.2582 40.3491 70.7374 41.8683C71.2166 43.3876 71.0756 45.0019 70.3403 46.416C69.6049 47.8287 68.3643 48.8713 66.8461 49.3508C66.2546 49.538 65.6488 49.6302 65.0458 49.6302ZM65.0601 39.1538C63.4311 39.1538 61.8568 40.038 61.0552 41.5817C59.9082 43.7879 60.7674 46.5168 62.9721 47.6645C64.0399 48.2204 65.2602 48.3269 66.4086 47.9655C67.557 47.6026 68.4953 46.8149 69.0508 45.7464C69.6063 44.6778 69.7128 43.4567 69.3516 42.3075C68.9889 41.1584 68.2017 40.2194 67.1339 39.6636C66.4705 39.318 65.761 39.1553 65.0601 39.1553V39.1538Z" fill="white"/>
<path d="M66.0422 44.8733C66.0422 44.653 65.9645 44.4643 65.8091 44.3088C65.6537 44.1547 65.3946 44.015 65.0348 43.8926C64.5397 43.7429 64.167 43.5427 63.9137 43.2936C63.6619 43.043 63.5367 42.7104 63.5367 42.2927C63.5367 41.8751 63.6533 41.5583 63.8864 41.3034C64.1195 41.0485 64.439 40.8945 64.8449 40.844V40.0319H65.4263V40.8469C65.835 40.9017 66.153 41.0687 66.379 41.3509C66.6049 41.6332 66.7186 42.0105 66.7186 42.4843H65.999C65.999 42.1732 65.9213 41.9198 65.7673 41.7268C65.6134 41.5338 65.4004 41.4359 65.1284 41.4359C64.8406 41.4359 64.6232 41.5122 64.4793 41.662C64.334 41.8118 64.2621 42.0191 64.2621 42.2827C64.2621 42.5203 64.3368 42.7132 64.4865 42.8601C64.6362 43.007 64.9039 43.1467 65.291 43.2792C65.7904 43.4419 66.1616 43.6421 66.4048 43.884C66.6466 44.1259 66.7675 44.4543 66.7675 44.8676C66.7675 45.2809 66.6408 45.625 66.389 45.8727C66.1372 46.1218 65.7903 46.2702 65.3499 46.3162V47.0219H64.7729V46.3206C64.3512 46.2759 64.0059 46.1218 63.7353 45.8583C63.4662 45.5948 63.3367 45.2088 63.3467 44.6976L63.354 44.6803H64.0534C64.0534 45.0576 64.1484 45.3269 64.3398 45.4868C64.5312 45.6466 64.7642 45.7273 65.0377 45.7273C65.3528 45.7273 65.6004 45.6524 65.7789 45.5012C65.9559 45.3514 66.045 45.1426 66.045 44.8748L66.0422 44.8733Z" fill="white"/>
<path d="M29.0746 66.9731H27.6211V59.7426C27.6211 59.5497 27.6974 59.3653 27.8341 59.2285L30.5295 56.5313C30.6662 56.3945 30.8505 56.3182 31.0433 56.3182H37.2602V57.7726H31.3441L29.0746 60.0436V66.9731Z" fill="white"/>
<path d="M28.3483 70.6793C27.7467 70.6793 27.1452 70.4504 26.6875 69.9924C25.7708 69.0751 25.7708 67.5847 26.6875 66.6673C27.1308 66.2238 27.7208 65.979 28.3483 65.979C28.9757 65.979 29.5657 66.2238 30.009 66.6673C30.9257 67.5847 30.9257 69.0751 30.009 69.9924C29.5513 70.4504 28.9498 70.6793 28.3483 70.6793ZM28.3497 67.432C28.1093 67.432 27.8848 67.5256 27.715 67.6941C27.3653 68.044 27.3653 68.6129 27.715 68.9628C28.0647 69.3127 28.6331 69.3127 28.9828 68.9628C29.3325 68.6129 29.3325 68.044 28.9828 67.6941C28.813 67.5242 28.5886 67.4306 28.3483 67.4306L28.3497 67.432Z" fill="white"/>
<path d="M29.4592 54.6392C28.813 54.6392 28.2057 54.3872 27.7495 53.9307C27.2933 53.4742 27.0415 52.8651 27.0415 52.2199C27.0415 51.5748 27.2933 50.9657 27.7495 50.5092C28.2057 50.0527 28.813 49.8007 29.4592 49.8007C30.1053 49.8007 30.7127 50.0527 31.1689 50.5092C32.1115 51.4524 32.1115 52.9889 31.1689 53.9322C30.7127 54.3887 30.1053 54.6407 29.4592 54.6407V54.6392ZM29.4592 51.2522C29.2016 51.2522 28.9584 51.353 28.7756 51.5359C28.5928 51.7188 28.4921 51.9607 28.4921 52.2199C28.4921 52.4792 28.5928 52.7211 28.7756 52.904C28.9584 53.0869 29.2001 53.1877 29.4592 53.1877C29.7182 53.1877 29.96 53.0869 30.1427 52.904C30.5198 52.5267 30.5198 51.9147 30.1427 51.5374C29.96 51.3545 29.7182 51.2537 29.4592 51.2537V51.2522Z" fill="white"/>
<path d="M46.6673 37.4145C46.0212 37.4145 45.4139 37.1625 44.9577 36.706C44.0151 35.7628 44.0151 34.2263 44.9577 33.283C45.4139 32.8265 46.0212 32.5745 46.6673 32.5745C47.3135 32.5745 47.9208 32.8265 48.3769 33.283C49.3196 34.2263 49.3196 35.7628 48.3769 36.706C47.9208 37.1625 47.3135 37.4145 46.6673 37.4145ZM46.6673 34.0275C46.4097 34.0275 46.1665 34.1283 45.9837 34.3112C45.6067 34.6885 45.6067 35.3005 45.9837 35.6778C46.1665 35.8607 46.4083 35.9615 46.6673 35.9615C46.9264 35.9615 47.1681 35.8607 47.3509 35.6778C47.7279 35.3005 47.7279 34.6885 47.3509 34.3112C47.1681 34.1283 46.9264 34.0275 46.6673 34.0275Z" fill="white"/>
<path d="M46.744 52.946H31.1499V51.4916H46.0172V36.6849H47.4707V52.2188C47.4707 52.6206 47.1455 52.946 46.744 52.946Z" fill="white"/>
<path d="M80.4293 63.6647H74.2124V62.2102H80.1286L82.398 59.9392V53.0097H83.8515V60.2402C83.8515 60.4332 83.7752 60.6175 83.6385 60.7543L80.9431 63.4515C80.8063 63.5883 80.6222 63.6647 80.4293 63.6647Z" fill="white"/>
<path d="M91.4226 70.1833C90.8038 70.1833 90.1835 69.9472 89.7129 69.4763C89.2567 69.0198 89.0049 68.4106 89.0049 67.7655C89.0049 67.1203 89.2567 66.5112 89.7129 66.0547C90.1691 65.5982 90.7765 65.3462 91.4226 65.3462C92.0688 65.3462 92.676 65.5982 93.1322 66.0547C94.0748 66.9979 94.0748 68.5345 93.1322 69.4777C92.6602 69.95 92.0414 70.1848 91.4226 70.1848V70.1833ZM91.4226 66.7978C91.165 66.7978 90.9218 66.8986 90.739 67.0815C90.5563 67.2643 90.4555 67.5063 90.4555 67.7655C90.4555 68.0247 90.5563 68.2666 90.739 68.4495C91.1161 68.8268 91.7291 68.8268 92.1047 68.4495C92.4817 68.0722 92.4817 67.4602 92.1047 67.0829C91.9219 66.9 91.6802 66.7992 91.4211 66.7992L91.4226 66.7978Z" fill="white"/>
<path d="M74.2123 87.4075C73.5662 87.4075 72.9589 87.1555 72.5027 86.699C72.0465 86.2425 71.7947 85.6333 71.7947 84.9882C71.7947 84.3431 72.0465 83.7339 72.5027 83.2774C72.9589 82.8209 73.5662 82.5689 74.2123 82.5689C74.8585 82.5689 75.4658 82.8209 75.922 83.2774C76.8646 84.2206 76.8646 85.7572 75.922 86.7004C75.4658 87.1569 74.857 87.4089 74.2123 87.4089V87.4075ZM74.2123 84.0205C73.9547 84.0205 73.7115 84.1213 73.5288 84.3042C73.346 84.4871 73.2453 84.729 73.2453 84.9882C73.2453 85.2474 73.346 85.4893 73.5288 85.6722C73.7115 85.8551 73.9533 85.9559 74.2123 85.9559C74.4714 85.9559 74.7131 85.8551 74.8959 85.6722C75.2729 85.2949 75.2729 84.6829 74.8959 84.3056C74.7131 84.1227 74.4714 84.0219 74.2123 84.0219V84.0205Z" fill="white"/>
<path d="M74.8639 83.2984H73.4104V67.7646C73.4104 67.3628 73.7357 67.0374 74.1372 67.0374H89.7312V68.4918H74.8639V83.2984Z" fill="white"/>
<path d="M83.1202 53.7372C82.4928 53.7372 81.9027 53.4924 81.4595 53.0489C80.5428 52.1316 80.5428 50.6411 81.4595 49.7238C81.9027 49.2803 82.4928 49.0355 83.1202 49.0355C83.7477 49.0355 84.3377 49.2803 84.7809 49.7238C85.6977 50.6411 85.6977 52.1316 84.7809 53.0489C84.3377 53.4924 83.7477 53.7372 83.1202 53.7372ZM83.1202 50.4885C82.8813 50.4885 82.6554 50.5821 82.4856 50.7506C82.1359 51.1005 82.1359 51.6693 82.4856 52.0192C82.6554 52.1892 82.8799 52.2828 83.1202 52.2828C83.3606 52.2828 83.5851 52.1892 83.7549 52.0207C84.1046 51.6708 84.1046 51.1019 83.7549 50.752C83.5851 50.5821 83.3606 50.4885 83.1202 50.4885Z" fill="white"/>
<path d="M78.3497 56.9319H76.8962V59.0142H78.3497V56.9319Z" fill="white"/>
<path d="M77.1464 70.0494H75.6929V75.3992H77.1464V70.0494Z" fill="white"/>
<path d="M45.192 44.5729H43.7385V49.4662H45.192V44.5729Z" fill="white"/>
<path d="M31.5272 60.9692H30.0737V63.0515H31.5272V60.9692Z" fill="white"/>
</svg>
