<svg width="120" height="120" viewBox="0 0 120 120" fill="none" xmlns="http://www.w3.org/2000/svg">
<circle cx="60" cy="60" r="50" fill="#3B0065"/>
<circle cx="60" cy="60" r="60" fill="#3B0065" fill-opacity="0.1"/>
<path d="M55.9512 63.2856C55.9084 63.2856 55.8655 63.2815 55.8241 63.2746C50.8329 62.347 46.3652 59.3735 43.5691 55.1144C41.5536 52.0524 40.4871 48.4845 40.4871 44.7976C40.4871 34.4325 48.914 26 59.2722 26C69.6305 26 78.0533 34.4325 78.0533 44.7976C78.0533 44.9096 78.0533 45.0216 78.0478 45.1336C78.0395 45.3354 77.9428 45.5234 77.7853 45.6492C77.6278 45.775 77.4233 45.8261 77.2244 45.7902C76.169 45.5953 75.0956 45.4971 74.0304 45.4971C66.1616 45.4971 59.2529 50.8027 57.2305 58.4003C56.8657 59.7744 56.6696 61.1886 56.6489 62.6014C56.6461 62.8073 56.5521 63.0008 56.3933 63.1308C56.2676 63.2345 56.1114 63.2884 55.9512 63.2884V63.2856ZM59.2722 27.3948C49.6821 27.3948 41.881 35.2011 41.881 44.7976C41.881 48.2107 42.8674 51.5133 44.7337 54.3472C47.1748 58.063 50.9876 60.7227 55.2853 61.7346C55.3599 60.4905 55.5602 59.2505 55.8821 58.0381C58.0676 49.8309 65.5303 44.0995 74.0304 44.0995C74.9021 44.0995 75.7808 44.1604 76.6511 44.282C76.3776 34.9233 68.6869 27.3948 59.2722 27.3948Z" fill="white"/>
<path d="M74.0307 81.6906C69.9665 81.6906 66.097 80.4119 62.8436 77.9914C58.0886 74.4635 55.2498 68.8193 55.2498 62.893C55.2498 62.7852 55.2497 62.676 55.2539 62.5681C55.2774 61.0448 55.4887 59.52 55.8824 58.0381C58.0679 49.8309 65.5306 44.0995 74.0307 44.0995C75.1801 44.0995 76.3405 44.2059 77.4789 44.4161C86.3672 46.0652 92.8173 53.837 92.8173 62.893C92.8173 73.2581 84.3904 81.6906 74.0322 81.6906H74.0307ZM74.0307 45.4943C66.1619 45.4943 59.2532 50.7999 57.2308 58.3975C56.866 59.7716 56.6699 61.1858 56.6492 62.5985C56.6492 62.6055 56.6492 62.6124 56.6492 62.6193C56.645 62.7105 56.645 62.8017 56.645 62.893C56.645 68.3797 59.2739 73.6051 63.6753 76.8717C66.6869 79.1125 70.2676 80.2958 74.0307 80.2958C83.6195 80.2958 91.422 72.4895 91.422 62.893C91.422 54.5088 85.4513 47.3149 77.2247 45.7888C76.1706 45.5938 75.0958 45.4957 74.0307 45.4957V45.4943Z" fill="white"/>
<path d="M45.7811 91.5498C35.4256 91.5498 27 83.1173 27 72.7522C27 68.0258 28.7586 63.5096 31.9512 60.0343C35.1244 56.5811 39.436 54.4508 44.0888 54.0361C44.3443 54.0126 44.5916 54.1329 44.7339 54.3485C47.3228 58.2911 51.4575 61.0448 56.0785 61.9032C56.4197 61.9668 56.6628 62.2723 56.6476 62.6193C56.6435 62.7105 56.6435 62.8018 56.6435 62.893C56.6435 68.3797 59.2724 73.6051 63.6738 76.8717C63.9031 77.0417 64.0067 77.3362 63.9321 77.6126C61.7425 85.8198 54.2784 91.5512 45.7796 91.5512L45.7811 91.5498ZM43.8055 55.4669C34.9904 56.4539 28.3939 63.8151 28.3939 72.7522C28.3939 82.3473 36.1937 90.155 45.7811 90.155C53.4938 90.155 60.285 85.0568 62.4608 77.6997C58.0056 74.212 55.3325 68.8276 55.2524 63.1585C50.63 62.1466 46.5049 59.3762 43.8069 55.4669H43.8055Z" fill="white"/>
<path d="M74.731 50.4515H73.3357V55.1157H74.731V50.4515Z" fill="white"/>
<path d="M74.731 56.6696H73.3357V57.7948H74.731V56.6696Z" fill="white"/>
<path d="M74.0337 51.1815C73.0294 51.1815 72.2129 50.3646 72.2129 49.3596C72.2129 48.3546 73.0294 47.5376 74.0337 47.5376C75.038 47.5376 75.8545 48.3546 75.8545 49.3596C75.8545 50.3646 75.038 51.1815 74.0337 51.1815ZM74.0337 48.9324C73.7988 48.9324 73.6068 49.1246 73.6068 49.3596C73.6068 49.5946 73.7975 49.7867 74.0337 49.7867C74.2699 49.7867 74.4605 49.5946 74.4605 49.3596C74.4605 49.1246 74.2685 48.9324 74.0337 48.9324Z" fill="white"/>
<path d="M77.9705 57.7935H76.5752V53.7583C76.5752 53.573 76.6484 53.3961 76.7796 53.2648L83.0418 46.9984L84.0282 47.9855L77.9705 54.0472V57.7935Z" fill="white"/>
<path d="M71.4917 57.7935H70.0964V54.0472L67.0737 51.0226L68.0601 50.0355L71.2872 53.2648C71.4184 53.3961 71.4917 53.5731 71.4917 53.7583V57.7935Z" fill="white"/>
<path d="M66.7685 51.5617C65.7642 51.5617 64.9478 50.7447 64.9478 49.7397C64.9478 48.7347 65.7642 47.9177 66.7685 47.9177C67.7729 47.9177 68.5893 48.7347 68.5893 49.7397C68.5893 50.7447 67.7729 51.5617 66.7685 51.5617ZM66.7685 49.3125C66.5337 49.3125 66.3416 49.5033 66.3416 49.7397C66.3416 49.9761 66.5337 50.1669 66.7685 50.1669C67.0034 50.1669 67.1954 49.9747 67.1954 49.7397C67.1954 49.5047 67.0034 49.3125 66.7685 49.3125Z" fill="white"/>
<path d="M74.7315 67.9968H73.3362V69.1221H74.7315V67.9968Z" fill="white"/>
<path d="M80.0073 75.7534L76.7801 72.5242C76.6489 72.3928 76.5757 72.2159 76.5757 72.0307V67.9955H77.971V71.7417L80.9936 74.7664L80.0073 75.7534Z" fill="white"/>
<path d="M81.2988 77.8726C80.2944 77.8726 79.478 77.0556 79.478 76.0506C79.478 75.0457 80.2944 74.2286 81.2988 74.2286C82.3031 74.2286 83.1196 75.0457 83.1196 76.0506C83.1196 77.0556 82.3031 77.8726 81.2988 77.8726ZM81.2988 75.6235C81.0639 75.6235 80.8719 75.8156 80.8719 76.0506C80.8719 76.2856 81.0639 76.4778 81.2988 76.4778C81.5336 76.4778 81.7257 76.287 81.7257 76.0506C81.7257 75.8143 81.535 75.6235 81.2988 75.6235Z" fill="white"/>
<path d="M65.0267 78.7906L64.0403 77.8036L70.0966 71.7432V67.9969H71.4919V72.0321C71.4919 72.2174 71.4187 72.3943 71.2874 72.5256L65.0267 78.7906Z" fill="white"/>
<path d="M74.7315 70.2598H73.3362V74.0973H74.7315V70.2598Z" fill="white"/>
<path d="M79.41 67.0928H68.6567V68.489H79.41V67.0928Z" fill="white"/>
<path d="M79.4103 57.3014H68.657V58.6976H79.4103V57.3014Z" fill="white"/>
<path d="M51.4962 44.0996H46.8352V45.4958H51.4962V44.0996Z" fill="white"/>
<path d="M54.1738 44.0996H53.0493V45.4958H54.1738V44.0996Z" fill="white"/>
<path d="M45.7441 46.6198C44.7398 46.6198 43.9233 45.8028 43.9233 44.7978C43.9233 43.7928 44.7398 42.9758 45.7441 42.9758C46.7485 42.9758 47.5649 43.7928 47.5649 44.7978C47.5649 45.8028 46.7485 46.6198 45.7441 46.6198ZM45.7441 44.3706C45.5093 44.3706 45.3172 44.5614 45.3172 44.7978C45.3172 45.0342 45.5079 45.225 45.7441 45.225C45.9804 45.225 46.171 45.0328 46.171 44.7978C46.171 44.5628 45.979 44.3706 45.7441 44.3706Z" fill="white"/>
<path d="M54.1737 42.2541H50.1412C49.956 42.2541 49.7792 42.1808 49.6479 42.0495L43.3857 35.7832L44.3721 34.7961L50.4299 40.8579H54.1737V42.2541Z" fill="white"/>
<path d="M47.4073 51.7607L46.4209 50.7737L49.648 47.5444C49.7792 47.4131 49.9561 47.3398 50.1412 47.3398H54.1737V48.7361H50.4299L47.4073 51.7607Z" fill="white"/>
<path d="M46.1254 53.8896C45.1211 53.8896 44.3047 53.0726 44.3047 52.0676C44.3047 51.0626 45.1211 50.2456 46.1254 50.2456C47.1297 50.2456 47.9462 51.0626 47.9462 52.0676C47.9462 53.0726 47.1297 53.8896 46.1254 53.8896ZM46.1254 51.6404C45.8906 51.6404 45.6986 51.8326 45.6986 52.0676C45.6986 52.3026 45.8906 52.4947 46.1254 52.4947C46.3603 52.4947 46.5523 52.304 46.5523 52.0676C46.5523 51.8312 46.3616 51.6404 46.1254 51.6404Z" fill="white"/>
<path d="M65.4923 44.0996H64.3691V45.4958H65.4923V44.0996Z" fill="white"/>
<path d="M68.4016 42.2541H64.3691V40.8579H68.1129L71.1356 37.8333L72.1219 38.8203L68.8949 42.0495C68.7636 42.1808 68.5867 42.2541 68.4016 42.2541Z" fill="white"/>
<path d="M72.4177 39.3498C71.4134 39.3498 70.5969 38.5328 70.5969 37.5278C70.5969 36.5228 71.4134 35.7058 72.4177 35.7058C73.422 35.7058 74.2384 36.5228 74.2384 37.5278C74.2384 38.5328 73.422 39.3498 72.4177 39.3498ZM72.4177 37.1006C72.1829 37.1006 71.9908 37.2928 71.9908 37.5278C71.9908 37.7628 72.1829 37.955 72.4177 37.955C72.6526 37.955 72.8446 37.7642 72.8446 37.5278C72.8446 37.2914 72.654 37.1006 72.4177 37.1006Z" fill="white"/>
<path d="M64.8609 39.4175H63.4656V47.7256H64.8609V39.4175Z" fill="white"/>
<path d="M55.0774 39.4175H53.6821V50.1779H55.0774V39.4175Z" fill="white"/>
<path d="M46.1777 80.5709H44.7825V85.2351H46.1777V80.5709Z" fill="white"/>
<path d="M46.1777 77.8918H44.7825V79.0157H46.1777V77.8918Z" fill="white"/>
<path d="M45.48 88.1491C44.4757 88.1491 43.6592 87.3321 43.6592 86.3271C43.6592 85.3221 44.4757 84.5051 45.48 84.5051C46.4843 84.5051 47.3008 85.3221 47.3008 86.3271C47.3008 87.3321 46.4843 88.1491 45.48 88.1491ZM45.48 85.9C45.2451 85.9 45.0531 86.0907 45.0531 86.3271C45.0531 86.5635 45.2437 86.7543 45.48 86.7543C45.7162 86.7543 45.9068 86.5621 45.9068 86.3271C45.9068 86.0921 45.7148 85.9 45.48 85.9Z" fill="white"/>
<path d="M36.4712 88.6869L35.4849 87.6999L41.5426 81.6381V77.8918H42.9379V81.927C42.9379 82.1123 42.8647 82.2892 42.7334 82.4205L36.4712 88.6869Z" fill="white"/>
<path d="M51.452 85.6498L48.225 82.4205C48.0937 82.2892 48.0205 82.1123 48.0205 81.927V77.8918H49.4158V81.6381L52.4384 84.6628L51.452 85.6498Z" fill="white"/>
<path d="M52.745 87.769C51.7407 87.769 50.9243 86.952 50.9243 85.947C50.9243 84.942 51.7407 84.125 52.745 84.125C53.7494 84.125 54.5658 84.942 54.5658 85.947C54.5658 86.952 53.7494 87.769 52.745 87.769ZM52.745 85.5198C52.5102 85.5198 52.3182 85.712 52.3182 85.947C52.3182 86.182 52.5102 86.3741 52.745 86.3741C52.9799 86.3741 53.172 86.1834 53.172 85.947C53.172 85.7106 52.9813 85.5198 52.745 85.5198Z" fill="white"/>
<path d="M46.1772 66.5646H44.782V67.6899H46.1772V66.5646Z" fill="white"/>
<path d="M42.9379 67.6898H41.5427V63.9436L38.52 60.9189L39.5063 59.9319L42.7335 63.1611C42.8647 63.2925 42.9379 63.4694 42.9379 63.6546V67.6898Z" fill="white"/>
<path d="M38.2148 61.4581C37.2105 61.4581 36.394 60.6411 36.394 59.6361C36.394 58.6311 37.2105 57.8141 38.2148 57.8141C39.2192 57.8141 40.0356 58.6311 40.0356 59.6361C40.0356 60.6411 39.2192 61.4581 38.2148 61.4581ZM38.2148 59.2089C37.98 59.2089 37.7879 59.4011 37.7879 59.6361C37.7879 59.8711 37.98 60.0632 38.2148 60.0632C38.4497 60.0632 38.6417 59.8725 38.6417 59.6361C38.6417 59.3997 38.4497 59.2089 38.2148 59.2089Z" fill="white"/>
<path d="M49.4158 67.6899H48.0205V63.6547C48.0205 63.4695 48.0937 63.2926 48.225 63.1612L50.8249 60.5596L51.8112 61.5466L49.4158 63.9436V67.6899Z" fill="white"/>
<path d="M46.1777 61.5894H44.7825V65.4269H46.1777V61.5894Z" fill="white"/>
<path d="M50.8552 67.1976H40.1018V68.5938H50.8552V67.1976Z" fill="white"/>
<path d="M50.8549 76.9891H40.1016V78.3854H50.8549V76.9891Z" fill="white"/>
</svg>
