<svg version="1.1" id="Layer_1" xmlns="http://www.w3.org/2000/svg" xmlns:xlink="http://www.w3.org/1999/xlink" x="0px" y="0px" viewBox="0 0 300 150" enable-background="new 0 0 300 150" xml:space="preserve"><g><path fill="#0F3B60" d="M54.1,21.2v-6.7h20.6v58H54.1V21.2z"></path><path fill="#0F3B60" d="M96.6,83.9v-6.7h20.6v58H96.6V83.9z"></path><path fill="#0F3B60" d="M225.1,21.2v-6.7h20.6v58h-20.6V21.2z"></path><path fill="#0F3B60" d="M96.6,21.2v-6.7h20.6v58H96.6V21.2z"></path><path fill="#0F3B60" d="M203.2,77.2v58h-20.6v-6.4h-0.2c-1.7,2.8-4.2,4.9-7.3,6.3c-3.2,1.4-6.6,2.1-10.2,2.1c-8.4,0-15.4-3-21-9.1
		c-5.5-6.1-8.3-13.4-8.3-21.9c0-8.5,2.7-15.8,8.2-21.8c5.5-6,12.4-9,20.9-9c7.7,0,13.7,2.5,18,7.6v-5.7H203.2z M179.8,96.9
		c-2.4-2.5-5.6-3.8-9.7-3.8c-4.1,0-7.3,1.3-9.7,3.8c-2.4,2.5-3.6,5.6-3.6,9.3c0,3.8,1.2,6.9,3.6,9.3c2.4,2.4,5.6,3.7,9.7,3.7
		c4.1,0,7.3-1.2,9.7-3.7c2.4-2.4,3.6-5.6,3.6-9.3C183.3,102.6,182.2,99.5,179.8,96.9z"></path><path fill="#0F3B60" d="M74.7,77.2v58H54.1v-6.4h-0.2c-1.7,2.8-4.2,4.9-7.3,6.3c-3.2,1.4-6.6,2.1-10.2,2.1c-8.4,0-15.4-3-21-9.1
		c-5.5-6.1-8.3-13.4-8.3-21.9c0-8.5,2.7-15.8,8.2-21.8c5.5-6,12.4-9,20.9-9c7.7,0,13.7,2.5,18,7.6v-5.7H74.7z M51.3,96.9
		c-2.4-2.5-5.6-3.8-9.7-3.8c-4.1,0-7.3,1.3-9.7,3.8c-2.4,2.5-3.6,5.6-3.6,9.3c0,3.8,1.2,6.9,3.6,9.3c2.4,2.4,5.6,3.7,9.7,3.7
		c4.1,0,7.3-1.2,9.7-3.7c2.4-2.4,3.6-5.6,3.6-9.3C54.8,102.6,53.6,99.5,51.3,96.9z"></path><path fill="#0F3B60" d="M245.7,77.2v5.7c4.3-5,10.3-7.6,18-7.6c8.4,0,15.4,3,20.9,9c5.5,6,8.2,13.3,8.2,21.8
		c0,8.5-2.8,15.8-8.3,21.9c-5.5,6.1-12.5,9.1-21,9.1c-3.6,0-7-0.7-10.2-2.1c-3.2-1.4-5.6-3.5-7.3-6.3h-0.2v6.4h-20.6v-58H245.7z
		 M245,106.3c0,3.8,1.2,6.9,3.6,9.3c2.4,2.4,5.6,3.7,9.7,3.7c4.1,0,7.3-1.2,9.7-3.7c2.4-2.4,3.6-5.6,3.6-9.3c0-3.7-1.2-6.8-3.6-9.3
		c-2.4-2.5-5.6-3.8-9.7-3.8c-4.1,0-7.3,1.3-9.7,3.8C246.2,99.5,245,102.6,245,106.3z"></path></g></svg>