<svg width="120" height="120" viewBox="0 0 120 120" fill="none" xmlns="http://www.w3.org/2000/svg">
<circle cx="60" cy="60" r="50" fill="#3B0065"/>
<circle cx="60" cy="60" r="60" fill="#3B0065" fill-opacity="0.1"/>
<path d="M54.5528 78.8056H34.6645C34.3272 78.8056 34.0539 78.5322 34.0539 78.1946V38.3916C34.0539 38.227 34.1204 38.0685 34.2389 37.9536L40.4386 31.924L41.2899 32.8L35.2752 38.6493V77.5835H54.5528V78.8056Z" fill="white"/>
<path d="M75.0518 57.0964H73.8305V31.2221H43.2756V38.3916C43.2756 38.7292 43.0023 39.0027 42.6649 39.0027H34.6646V37.7805H42.0543V30.6111C42.0543 30.2735 42.3275 30 42.6649 30H74.4412C74.7785 30 75.0518 30.2735 75.0518 30.6111V57.0964Z" fill="white"/>
<path d="M56.4223 70.4708H43.6636C42.2984 70.4708 41.1871 69.3587 41.1871 67.9926V46.46C41.1871 44.9499 42.4145 43.7217 43.9236 43.7217H65.1167C66.6609 43.7217 67.9185 44.9789 67.9185 46.5253V59.5477H66.6972V46.5253C66.6972 45.6529 65.9885 44.9438 65.1167 44.9438H43.9236C43.0881 44.9438 42.4085 45.6238 42.4085 46.4612V67.9938C42.4085 68.6872 42.972 69.2498 43.6636 69.2498H56.4223V70.472V70.4708Z" fill="white"/>
<path fill-rule="evenodd" clip-rule="evenodd" d="M60.3541 47.3096L64.3412 50.9342L63.4682 51.8946L60.317 49.0299L56.4419 52.2591L52.5483 49.0145L48.6547 52.2591L44.3457 48.6683L45.1765 47.6712L48.6547 50.5697L52.5483 47.325L56.4419 50.5697L60.3541 47.3096Z" fill="white"/>
<path fill-rule="evenodd" clip-rule="evenodd" d="M60.3541 53.7991L64.3412 57.4237L63.4682 58.3841L60.317 55.5194L56.4419 58.7486L52.5483 55.504L48.6547 58.7486L44.3457 55.1578L45.1765 54.1607L48.6547 57.0592L52.5483 53.8145L56.4419 57.0592L60.3541 53.7991Z" fill="white"/>
<path fill-rule="evenodd" clip-rule="evenodd" d="M52.5483 60.3042L56.4419 63.5489L59.9201 60.6504L60.751 61.6475L56.4419 65.2383L52.5483 61.9936L48.6547 65.2383L44.3457 61.6475L45.1765 60.6504L48.6547 63.5489L52.5483 60.3042Z" fill="white"/>
<path d="M74.4411 67.7811C74.3359 67.7811 74.2307 67.7533 74.1364 67.6988L68.3587 64.3616C68.1701 64.2526 68.054 64.0506 68.054 63.8328C68.054 63.6149 68.1701 63.4129 68.3587 63.304L74.1352 59.9667C74.3238 59.8578 74.5572 59.8578 74.7459 59.9667L80.5236 63.304C80.7122 63.4129 80.8283 63.6149 80.8283 63.8328C80.8283 64.0506 80.7122 64.2526 80.5236 64.3616L74.7471 67.6988C74.6528 67.7533 74.5476 67.7811 74.4423 67.7811H74.4411ZM69.8848 63.8328L74.4411 66.4646L78.9976 63.8328L74.4411 61.2009L69.8848 63.8328Z" fill="white"/>
<path d="M74.4411 74.4568C74.3359 74.4568 74.2307 74.4301 74.1364 74.3745L68.3587 71.0372C68.17 70.9283 68.0539 70.7262 68.0539 70.5084V63.8338C68.0539 63.616 68.17 63.414 68.3587 63.3051C68.5473 63.1962 68.7807 63.1962 68.9693 63.3051L74.747 66.6424C74.9357 66.7513 75.0518 66.9533 75.0518 67.1711V73.8469C75.0518 74.0647 74.9357 74.2668 74.747 74.3757C74.6527 74.4301 74.5475 74.458 74.4423 74.458L74.4411 74.4568ZM69.274 70.1551L73.8305 72.7869V67.5221L69.274 64.8902V70.1551Z" fill="white"/>
<path d="M74.441 74.4567C74.3358 74.4567 74.2306 74.4289 74.1363 74.3745C73.9476 74.2656 73.8316 74.0635 73.8316 73.8457V67.1699C73.8316 66.9521 73.9476 66.75 74.1363 66.6411L79.914 63.3038C80.1027 63.1949 80.336 63.1949 80.5247 63.3038C80.7133 63.4127 80.8294 63.6148 80.8294 63.8326V70.5072C80.8294 70.725 80.7133 70.9271 80.5247 71.036L74.747 74.3733C74.6526 74.4277 74.5474 74.4555 74.4422 74.4555L74.441 74.4567ZM75.0517 67.5232V72.7881L79.6081 70.1563V64.8914L75.0517 67.5232Z" fill="white"/>
<path d="M63.8747 80.3243C63.7695 80.3243 63.6643 80.2965 63.5699 80.242L57.7922 76.9047C57.6036 76.7958 57.4875 76.5938 57.4875 76.376C57.4875 76.1582 57.6036 75.9561 57.7922 75.8472L63.5687 72.5099C63.7574 72.401 63.9908 72.401 64.1794 72.5099L69.9571 75.8472C70.1458 75.9561 70.2619 76.1582 70.2619 76.376C70.2619 76.5938 70.1458 76.7958 69.9571 76.9047L64.1806 80.242C64.0863 80.2965 63.9811 80.3243 63.8759 80.3243H63.8747ZM59.3183 76.376L63.8747 79.0078L68.4311 76.376L63.8747 73.7441L59.3183 76.376Z" fill="white"/>
<path d="M63.8748 86.9988C63.7696 86.9988 63.6644 86.9721 63.5701 86.9165L57.7923 83.5792C57.6037 83.4703 57.4876 83.2682 57.4876 83.0504V76.3746C57.4876 76.1568 57.6037 75.9547 57.7923 75.8458C57.981 75.7369 58.2144 75.7369 58.403 75.8458L64.1807 79.1831C64.3694 79.292 64.4855 79.4941 64.4855 79.7119V86.3865C64.4855 86.6043 64.3694 86.8064 64.1807 86.9153C64.0864 86.9697 63.9812 86.9976 63.876 86.9976L63.8748 86.9988ZM58.7077 82.6971L63.2641 85.3289V80.064L58.7077 77.4322V82.6971Z" fill="white"/>
<path d="M63.8749 86.9988C63.7697 86.9988 63.6645 86.9709 63.5702 86.9165C63.3816 86.8076 63.2655 86.6055 63.2655 86.3877V79.7132C63.2655 79.4953 63.3816 79.2933 63.5702 79.1844L69.3479 75.8471C69.5366 75.7382 69.77 75.7382 69.9586 75.8471C70.1472 75.956 70.2633 76.1581 70.2633 76.3759V83.0516C70.2633 83.2694 70.1472 83.4715 69.9586 83.5804L64.1809 86.9177C64.0866 86.9721 63.9813 87 63.8761 87L63.8749 86.9988ZM64.4856 80.0653V85.3301L69.042 82.6983V77.4334L64.4856 80.0653Z" fill="white"/>
<path d="M85.0078 80.3243C84.9025 80.3243 84.7973 80.2965 84.703 80.242L78.9265 76.9047C78.7379 76.7958 78.6218 76.5938 78.6218 76.376C78.6218 76.1582 78.7379 75.9561 78.9265 75.8472L84.7042 72.5099C84.8929 72.401 85.1263 72.401 85.3149 72.5099L91.0914 75.8472C91.2801 75.9561 91.3961 76.1582 91.3961 76.376C91.3961 76.5938 91.2801 76.7958 91.0914 76.9047L85.3137 80.242C85.2194 80.2965 85.1142 80.3243 85.009 80.3243H85.0078ZM80.4514 76.376L85.0078 79.0078L89.5641 76.376L85.0078 73.7441L80.4514 76.376Z" fill="white"/>
<path d="M85.0076 86.9988C84.9024 86.9988 84.7972 86.9709 84.7029 86.9165C84.5143 86.8076 84.3982 86.6055 84.3982 86.3877V79.7132C84.3982 79.4953 84.5143 79.2933 84.7029 79.1844L90.4806 75.8471C90.6693 75.7382 90.9026 75.7382 91.0913 75.8471C91.2799 75.956 91.396 76.1581 91.396 76.3759V83.0516C91.396 83.2694 91.2799 83.4715 91.0913 83.5804L85.3136 86.9177C85.2192 86.9721 85.114 87 85.0088 87L85.0076 86.9988ZM85.6183 80.0653V85.3301L90.1747 82.6983V77.4334L85.6183 80.0653Z" fill="white"/>
<path d="M85.0077 86.9988C84.9025 86.9988 84.7973 86.9721 84.703 86.9165L78.9253 83.5792C78.7366 83.4703 78.6205 83.2682 78.6205 83.0504V76.3746C78.6205 76.1568 78.7366 75.9547 78.9253 75.8458C79.1139 75.7369 79.3473 75.7369 79.5359 75.8458L85.3137 79.1831C85.5023 79.292 85.6184 79.4941 85.6184 79.7119V86.3865C85.6184 86.6043 85.5023 86.8064 85.3137 86.9153C85.2193 86.9697 85.1141 86.9976 85.0089 86.9976L85.0077 86.9988ZM79.8407 82.6971L84.397 85.3289V80.064L79.8407 77.4322V82.6971Z" fill="white"/>
</svg>
