<svg width="36" height="35" viewBox="0 0 36 35" fill="none" xmlns="http://www.w3.org/2000/svg">
<path d="M35.4436 27.2168C35.3795 27.0615 35.2278 26.9608 35.0607 26.9608H32.5856V20.4434C32.5856 20.2147 32.3994 20.0285 32.1707 20.0285H29.1194V7.77268C29.1194 7.76438 29.1218 7.75727 29.1218 7.75016C29.1218 7.65295 29.091 7.56405 29.0412 7.48937C29.04 7.487 29.0388 7.48581 29.0376 7.48344C29.0234 7.4621 29.0068 7.44195 28.9879 7.42417C28.9831 7.41943 28.9796 7.41469 28.9748 7.41113C28.9677 7.40402 28.9618 7.39572 28.9535 7.38861L21.7036 0.137507C21.6834 0.117355 21.6621 0.100759 21.6396 0.0853489C21.6324 0.0806073 21.6253 0.0758657 21.6182 0.0723095C21.6016 0.0616409 21.585 0.0521577 21.5673 0.0438599C21.559 0.0403037 21.5507 0.035562 21.5412 0.0331912C21.5186 0.0248934 21.4961 0.017781 21.4736 0.011854C21.47 0.011854 21.4665 0.00948321 21.4618 0.00829781C21.4345 0.0023708 21.406 0 21.3776 0C21.374 0 21.3717 0 21.3681 0H7.74665C6.37633 0 5.26087 1.11546 5.26087 2.48579V11.1013H1.8801C1.0195 11.1013 0.320114 11.8007 0.320114 12.6613V20.5063C0.320114 21.3669 1.0195 22.0674 1.8801 22.0674H5.26087V27.8593C5.26087 29.2296 6.37633 30.3451 7.74665 30.3451H24.6125L28.3525 34.085C28.4331 34.1656 28.5398 34.2059 28.6453 34.2059C28.7508 34.2059 28.8575 34.1656 28.9393 34.0839L35.3535 27.6685C35.472 27.5499 35.5076 27.3709 35.4436 27.2168ZM21.8423 6.52208V1.61807L27.5002 7.276H22.5962C22.1801 7.276 21.8423 6.93816 21.8423 6.52208ZM1.26844 20.5063V12.6613C1.26844 12.3234 1.54226 12.0496 1.8801 12.0496H21.6917C22.0296 12.0496 22.3034 12.3234 22.3034 12.6613V20.5063C22.3034 20.8441 22.0296 21.1191 21.6917 21.1191H1.8801C1.54226 21.1191 1.26844 20.8441 1.26844 20.5063ZM7.74665 29.3968C6.89909 29.3968 6.20919 28.7069 6.20919 27.8593V22.0674H21.6917C22.5523 22.0674 23.2517 21.3669 23.2517 20.5063V12.6613C23.2517 11.8007 22.5523 11.1013 21.6917 11.1013H6.20919V2.4846C6.20919 1.63704 6.89909 0.947136 7.74665 0.947136H20.8939V6.52208C20.8939 7.46092 21.6573 8.22432 22.5962 8.22432H28.1711V19.9693H25.1235C24.8615 19.9693 24.6493 20.1815 24.6493 20.4434V26.9015H22.2299C22.0379 26.9015 21.8648 27.0165 21.7913 27.1943C21.7178 27.3709 21.7581 27.576 21.8944 27.7111L23.5801 29.3968H7.74665ZM28.6465 33.2043L25.1792 29.7382C25.1578 29.6635 25.1175 29.5936 25.0606 29.5367L23.375 27.851H25.1235C25.3854 27.851 25.5976 27.6388 25.5976 27.3769V20.9188H28.6453C28.7271 20.9188 28.8029 20.8963 28.8705 20.8595H31.7558V27.3769C31.7558 27.6056 31.9419 27.7917 32.1707 27.7917H34.059L28.6465 33.2055V33.2043Z" fill="#3B0065"/>
<path d="M4.53895 18.3962C4.16792 18.3962 3.87512 18.6724 3.87512 19.0055C3.87512 19.3386 4.16792 19.6219 4.53895 19.6219C4.90998 19.6219 5.19566 19.3374 5.19566 19.0055C5.19566 18.6736 4.89575 18.3962 4.53895 18.3962Z" fill="#3B0065"/>
<path d="M8.27772 13.9773H7.11603C6.78412 13.9773 6.49962 14.238 6.49962 14.5463V19.1006C6.49962 19.3851 6.76041 19.6221 7.0532 19.6221C7.346 19.6221 7.60678 19.3768 7.60678 19.1006V17.6532H8.27891C9.50461 17.6532 10.2953 16.9965 10.2953 15.8265C10.2953 14.8616 9.7654 13.9761 8.27891 13.9761L8.27772 13.9773ZM8.27772 16.6492H7.6056V14.9813H8.27772C9.02097 14.9813 9.18692 15.408 9.18692 15.8194C9.18692 16.3884 8.87042 16.6492 8.27772 16.6492Z" fill="#3B0065"/>
<path d="M12.9114 13.9688H12.0177C11.6857 13.9688 11.4012 14.2295 11.4012 14.5377V18.9806C11.4012 19.2888 11.6857 19.5496 12.0177 19.5496H12.9114C14.7061 19.5496 15.3154 18.5219 15.3154 17.4076V16.0479C15.3154 14.9491 14.699 13.9688 12.9114 13.9688ZM14.2083 17.4076C14.2083 18.0323 13.9155 18.5456 13.0466 18.5456H12.5084V14.9716H13.0466C13.9001 14.9716 14.2083 15.4458 14.2083 16.0468V17.4064V17.4076Z" fill="#3B0065"/>
<path d="M19.245 14.9728C19.545 14.9728 19.7986 14.7677 19.7986 14.482C19.7986 14.1963 19.5461 13.9688 19.245 13.9688H17.103C16.7557 13.9688 16.4937 14.2532 16.4937 14.5306V19.1158C16.4937 19.3849 16.7391 19.6219 17.0473 19.6219C17.3555 19.6219 17.6009 19.3849 17.6009 19.1158V17.2582H19.0957C19.4039 17.2582 19.641 17.0366 19.641 16.7521C19.641 16.4676 19.3719 16.2542 19.0957 16.2542H17.6009V14.974H19.245V14.9728Z" fill="#3B0065"/>
</svg>
