<svg width="28" height="27" viewBox="0 0 28 27" fill="none" xmlns="http://www.w3.org/2000/svg">
<g clip-path="url(#clip0_36_303)">
<path d="M24.8144 0H8.44691C7.10197 0 6.00708 1.09489 6.00708 2.43983V3.77749H3.41067C2.06573 3.77749 0.97084 4.87116 0.97084 6.2161V23.8436C0.97084 25.1885 2.06573 26.2834 3.41067 26.2834H21.0369C22.3819 26.2834 23.4767 25.1885 23.4767 23.8436V21.2471H24.8144C26.1593 21.2471 27.2542 20.1523 27.2542 18.8073V2.43983C27.2542 1.09489 26.1593 0 24.8144 0ZM22.3746 23.8436C22.3746 24.5816 21.7749 25.1812 21.0369 25.1812H3.41067C2.67265 25.1812 2.07301 24.5816 2.07301 23.8436V6.2161C2.07301 5.47808 2.67265 4.87844 3.41067 4.87844H21.0369C21.7749 4.87844 22.3746 5.47808 22.3746 6.2161V23.8436ZM26.1521 18.8073C26.1521 19.5453 25.5524 20.145 24.8144 20.145H23.4767V6.2161C23.4767 4.87116 22.3819 3.77627 21.0369 3.77627H7.10925V2.43861C7.10925 1.7006 7.70889 1.10096 8.44691 1.10096H24.8144C25.5524 1.10096 26.1521 1.7006 26.1521 2.43861V18.8073Z" fill="#3B0065"/>
<path d="M15.6147 7.8911C14.8317 7.88139 14.0998 8.17757 13.5536 8.72258L10.2143 12.199C10.1706 12.2452 10.1354 12.2974 10.1087 12.3544C9.65711 12.9188 9.4374 13.6253 9.49081 14.3463C9.54058 15.0674 9.85011 15.7459 10.3636 16.2557C10.468 16.3589 10.6051 16.4159 10.752 16.4159C10.8989 16.4159 11.0385 16.3577 11.1429 16.2533C11.246 16.1489 11.3031 16.0105 11.3031 15.8636C11.3031 15.7168 11.2448 15.5784 11.1404 15.474C10.8175 15.1523 10.6221 14.7238 10.5906 14.2674C10.5529 13.7588 10.7374 13.2599 11.0979 12.8994C11.1356 12.8618 11.1683 12.8181 11.1926 12.7708L14.3365 9.49702C15.0344 8.80391 16.1876 8.82576 16.9086 9.54679C17.2606 9.8988 17.4585 10.3613 17.4646 10.8505C17.4706 11.3336 17.2898 11.7851 16.9523 12.1226L15.7397 13.4068C15.5309 13.6277 15.5418 13.9773 15.7615 14.1861C15.8647 14.2832 15.9982 14.3366 16.139 14.3366C16.2896 14.3366 16.4364 14.2735 16.5396 14.1643L17.7365 12.8958C18.2803 12.3483 18.5752 11.6176 18.5643 10.8371C18.5534 10.059 18.2414 9.32465 17.6855 8.76871C17.1295 8.21277 16.3927 7.90081 15.6122 7.8911H15.6147Z" fill="#3B0065"/>
<path d="M13.0559 13.7627C12.909 13.7627 12.7706 13.8197 12.6662 13.9241C12.5619 14.0285 12.5048 14.1669 12.5048 14.3138C12.5048 14.4607 12.5619 14.599 12.6662 14.7034C13.0183 15.0554 13.2149 15.5191 13.2222 16.0083C13.2283 16.4878 13.0498 16.9369 12.7184 17.2719L9.47869 20.2131C9.47262 20.2191 9.46655 20.2252 9.45927 20.2313C9.12303 20.5675 8.67027 20.7484 8.18837 20.7423C7.69919 20.7362 7.23672 20.5384 6.8847 20.1876C6.5424 19.8453 6.34818 19.3512 6.35061 18.8293C6.35304 18.3122 6.54725 17.823 6.88106 17.488C6.99516 17.3787 7.57538 16.8155 7.86913 16.5218C8.08398 16.3069 8.08398 15.9573 7.86913 15.7425C7.65428 15.5276 7.30469 15.5276 7.08984 15.7425C6.77667 16.0556 6.11755 16.6929 6.11027 16.7002L6.1042 16.7051C5.56404 17.2452 5.25208 18.0172 5.24722 18.8232C5.24358 19.6365 5.55554 20.4182 6.10298 20.9657C6.65893 21.5216 7.3933 21.8336 8.17138 21.8433C8.18473 21.8433 8.19808 21.8433 8.21143 21.8433C8.97494 21.8433 9.6899 21.5507 10.2264 21.0191L13.4686 18.0755C13.4686 18.0755 13.4747 18.0694 13.4783 18.067C13.4807 18.0646 13.4844 18.0609 13.488 18.0585C14.0367 17.511 14.3316 16.7779 14.3219 15.9937C14.311 15.2157 13.999 14.4813 13.4443 13.9254C13.3399 13.821 13.2016 13.7639 13.0547 13.7639L13.0559 13.7627Z" fill="#3B0065"/>
</g>
<defs>
<clipPath id="clip0_36_303">
<rect width="26.2834" height="26.2834" fill="white" transform="translate(0.97084)"/>
</clipPath>
</defs>
</svg>
