<svg width="23" height="15" viewBox="0 0 23 15" fill="none" xmlns="http://www.w3.org/2000/svg">
<path d="M20.5999 0.399933C19.1019 0.399933 18.0239 1.96793 18.7099 3.39593L14.4959 7.60993C13.7679 7.25993 13.1099 7.41393 12.6899 7.60993L11.2759 6.19593C11.4159 5.92993 11.4999 5.62193 11.4999 5.29993C11.4999 4.13793 10.5619 3.19993 9.39993 3.19993C8.23793 3.19993 7.29993 4.13793 7.29993 5.29993C7.29993 5.62193 7.38393 5.92993 7.50993 6.19593L3.29593 10.4099C3.02993 10.2839 2.72193 10.1999 2.39993 10.1999C1.23793 10.1999 0.299927 11.1379 0.299927 12.2999C0.299927 13.4619 1.23793 14.3999 2.39993 14.3999C3.56193 14.3999 4.49993 13.4619 4.49993 12.2999C4.49993 11.9779 4.41593 11.6699 4.28993 11.4039L8.50393 7.18993C9.23193 7.53993 9.88993 7.38593 10.3099 7.18993L11.7239 8.60393C11.5839 8.86993 11.4999 9.17793 11.4999 9.49993C11.4999 10.6619 12.4379 11.5999 13.5999 11.5999C14.7619 11.5999 15.6999 10.6619 15.6999 9.49993C15.6999 9.17793 15.6159 8.86993 15.4899 8.60393L19.7039 4.38993C21.1459 5.08993 22.6999 3.98393 22.6999 2.49993C22.6999 1.33793 21.7619 0.399933 20.5999 0.399933Z" fill="#3B0065"/>
</svg>
