<svg width="58" height="58" viewBox="0 0 58 58" fill="none" xmlns="http://www.w3.org/2000/svg">
<g clip-path="url(#clip0_2073_15993)">
<path d="M29 57.5C44.7401 57.5 57.5 44.7401 57.5 29C57.5 13.2599 44.7401 0.5 29 0.5C13.2599 0.5 0.5 13.2599 0.5 29C0.5 44.7401 13.2599 57.5 29 57.5Z" stroke="#00FFB3"/>
<path d="M28.6465 39.3536C28.8418 39.5488 29.1584 39.5488 29.3537 39.3536L32.5356 36.1716C32.7309 35.9763 32.7309 35.6597 32.5356 35.4645C32.3404 35.2692 32.0238 35.2692 31.8285 35.4645L29.0001 38.2929L26.1717 35.4645C25.9764 35.2692 25.6598 35.2692 25.4646 35.4645C25.2693 35.6597 25.2693 35.9763 25.4646 36.1716L28.6465 39.3536ZM28.5001 19V39H29.5001V19H28.5001Z" fill="#00FFB3"/>
</g>
<defs>
<clipPath id="clip0_2073_15993">
<rect width="58" height="58" fill="white"/>
</clipPath>
</defs>
</svg>
