<svg width="89" height="78" viewBox="0 0 89 78" fill="none" xmlns="http://www.w3.org/2000/svg">
<path d="M10.901 65.5117C10.7388 65.5117 10.5767 65.4688 10.4314 65.3848L0.469583 59.6287C0.178891 59.4609 0 59.1495 0 58.8138C0 58.4782 0.178891 58.1668 0.469583 57.999L10.4314 52.2428C10.7221 52.075 11.0817 52.075 11.3724 52.2428L21.3342 57.999C21.6249 58.1668 21.8038 58.4782 21.8038 58.8138C21.8038 59.1495 21.6249 59.4609 21.3342 59.6287L11.3724 65.3848C11.2271 65.4688 11.0649 65.5117 10.9028 65.5117H10.901ZM2.81932 58.8138L10.901 63.4829L18.9825 58.8138L10.901 54.1447L2.81932 58.8138Z" fill="#3B0065"/>
<path d="M10.901 77.024C10.7388 77.024 10.5767 76.983 10.4314 76.8972L0.469583 71.141C0.178891 70.9732 0 70.6618 0 70.3262V58.8157C0 58.4801 0.178891 58.1687 0.469583 58.0009C0.760275 57.833 1.11988 57.833 1.41057 58.0009L11.3724 63.757C11.6631 63.9248 11.842 64.2362 11.842 64.5719V76.0824C11.842 76.418 11.6631 76.7294 11.3724 76.8972C11.2271 76.9811 11.0649 77.024 10.9028 77.024H10.901ZM1.87829 69.7836L9.95992 74.4527V65.1145L1.87829 60.4454V69.7836Z" fill="#3B0065"/>
<path d="M10.9011 77.024C10.739 77.024 10.5768 76.9811 10.4315 76.8972C10.1408 76.7294 9.96191 76.418 9.96191 76.0824V64.5719C9.96191 64.2362 10.1408 63.9248 10.4315 63.757L20.3933 58.0009C20.684 57.833 21.0436 57.833 21.3343 58.0009C21.625 58.1687 21.8039 58.4801 21.8039 58.8157V70.3262C21.8039 70.6618 21.625 70.9732 21.3343 71.141L11.3725 76.8972C11.2272 76.9811 11.0651 77.024 10.9029 77.024H10.9011ZM11.8421 65.1145V74.4527L19.9237 69.7836V60.4454L11.8421 65.1145Z" fill="#3B0065"/>
<path d="M77.2047 65.5117C77.0425 65.5117 76.8805 65.4688 76.7351 65.3848L66.7733 59.6287C66.4826 59.4609 66.3037 59.1495 66.3037 58.8138C66.3037 58.4782 66.4826 58.1668 66.7733 57.999L76.7351 52.2428C77.0258 52.075 77.3854 52.075 77.6761 52.2428L87.6379 57.999C87.9286 58.1668 88.1075 58.4782 88.1075 58.8138C88.1075 59.1495 87.9286 59.4609 87.6379 59.6287L77.6761 65.3848C77.5308 65.4688 77.3686 65.5117 77.2065 65.5117H77.2047ZM69.1231 58.8157L77.2047 63.4848L85.2863 58.8157L77.2047 54.1466L69.1231 58.8157Z" fill="#3B0065"/>
<path d="M77.2047 77.024C77.0426 77.024 76.8806 76.9811 76.7352 76.8972C76.4445 76.7294 76.2656 76.418 76.2656 76.0824V64.5719C76.2656 64.2362 76.4445 63.9248 76.7352 63.757L86.697 58.0009C86.9877 57.833 87.3473 57.833 87.638 58.0009C87.9287 58.1687 88.1076 58.4801 88.1076 58.8157V70.3262C88.1076 70.6618 87.9287 70.9732 87.638 71.141L77.6762 76.8972C77.5308 76.9811 77.3687 77.024 77.2066 77.024H77.2047ZM78.1458 65.1145V74.4527L86.2274 69.7836V60.4454L78.1458 65.1145Z" fill="#3B0065"/>
<path d="M77.2047 77.024C77.0425 77.024 76.8805 76.983 76.7351 76.8972L66.7733 71.141C66.4826 70.9732 66.3037 70.6618 66.3037 70.3262V58.8157C66.3037 58.4801 66.4826 58.1687 66.7733 58.0009C67.064 57.833 67.4236 57.833 67.7143 58.0009L77.6761 63.757C77.9668 63.9248 78.1457 64.2362 78.1457 64.5719V76.0824C78.1457 76.418 77.9668 76.7294 77.6761 76.8972C77.5308 76.9811 77.3686 77.024 77.2065 77.024H77.2047ZM68.182 69.7836L76.2637 74.4527V65.1145L68.182 60.4454V69.7836Z" fill="#3B0065"/>
<path d="M44.0528 13.3947C43.8907 13.3947 43.7286 13.3537 43.5832 13.2679L33.6214 7.51176C33.3307 7.34394 33.1519 7.03254 33.1519 6.69691C33.1519 6.36127 33.3307 6.04987 33.6214 5.88206L43.5832 0.125864C43.8739 -0.0419546 44.2336 -0.0419546 44.5243 0.125864L54.486 5.88206C54.7767 6.04987 54.9556 6.36127 54.9556 6.69691C54.9556 7.03254 54.7767 7.34394 54.486 7.51176L44.5243 13.2679C44.3789 13.3518 44.2168 13.3947 44.0547 13.3947H44.0528ZM35.9712 6.69691L44.0528 11.366L52.1344 6.69691L44.0528 2.02782L35.9712 6.69691Z" fill="#3B0065"/>
<path d="M44.0528 24.9071C43.8907 24.9071 43.7286 24.866 43.5832 24.7803L33.6214 19.0241C33.3307 18.8563 33.1519 18.5449 33.1519 18.2093V6.69877C33.1519 6.36313 33.3307 6.05174 33.6214 5.88392C33.9121 5.7161 34.2718 5.7161 34.5625 5.88392L44.5243 11.6401C44.8149 11.8079 44.9938 12.1193 44.9938 12.455V23.9654C44.9938 24.3011 44.8149 24.6124 44.5243 24.7803C44.3789 24.8642 44.2168 24.9071 44.0547 24.9071H44.0528ZM35.0302 17.6666L43.1118 22.3357V12.9976L35.0302 8.32849V17.6666Z" fill="#3B0065"/>
<path d="M44.0529 24.9071C43.8908 24.9071 43.7287 24.8642 43.5834 24.7803C43.2927 24.6124 43.1138 24.3011 43.1138 23.9654V12.455C43.1138 12.1193 43.2927 11.8079 43.5834 11.6401L53.5451 5.88392C53.8358 5.7161 54.1955 5.7161 54.4862 5.88392C54.7769 6.05174 54.9558 6.36313 54.9558 6.69877V18.2093C54.9558 18.5449 54.7769 18.8563 54.4862 19.0241L44.5244 24.7803C44.379 24.8642 44.2169 24.9071 44.0548 24.9071H44.0529ZM44.994 12.9976V22.3357L53.0756 17.6666V8.32849L44.994 12.9976Z" fill="#3B0065"/>
<path d="M44.0528 49.8337C43.8702 49.8337 43.6857 49.7796 43.5273 49.6733L39.0272 46.6432C38.6638 46.3971 38.5167 45.9328 38.675 45.5226L43.1752 33.8685C43.3149 33.5049 43.6634 33.2662 44.0528 33.2662C44.4423 33.2662 44.7907 33.5049 44.9305 33.8685L49.4306 45.5226C49.589 45.9328 49.4418 46.3971 49.0784 46.6432L44.5783 49.6733C44.4199 49.7796 44.2354 49.8337 44.0528 49.8337ZM40.7005 45.5002L44.0528 47.7564L47.4051 45.5002L44.0528 36.8203L40.7005 45.5002Z" fill="#3B0065"/>
<path d="M44.0527 57.6727C43.7173 57.6727 43.4062 57.4937 43.2384 57.2028L38.7383 49.403L40.3669 48.4613L44.0527 54.8496L47.7386 48.4613L49.3672 49.403L44.8671 57.2028C44.6994 57.4937 44.3881 57.6727 44.0527 57.6727Z" fill="#3B0065"/>
<path d="M44.9939 27.4486H43.1118V30.598H44.9939V27.4486Z" fill="#3B0065"/>
<path d="M30.7054 52.0514L27.9795 53.6256L28.9202 55.2568L31.6461 53.6826L30.7054 52.0514Z" fill="#3B0065"/>
<path d="M57.4185 52.0465L56.4775 53.6775L59.2032 55.2522L60.1442 53.6212L57.4185 52.0465Z" fill="#3B0065"/>
</svg>
