<svg width="80" height="61" viewBox="0 0 80 61" fill="none" xmlns="http://www.w3.org/2000/svg">
<path d="M38.6402 29.1288C38.4745 29.1288 38.3073 29.0797 38.1636 28.9833L31.2971 24.3598C30.9253 24.1095 30.8104 23.614 31.0351 23.2251L37.9016 11.3246C38.0537 11.0608 38.336 10.8984 38.6402 10.8984C38.9444 10.8984 39.2266 11.0608 39.3787 11.3246L46.2452 23.2251C46.4699 23.614 46.355 24.1095 45.9832 24.3598L39.1167 28.9833C38.9731 29.0797 38.8075 29.1288 38.6402 29.1288ZM32.9111 23.3891L38.6402 27.2466L44.3692 23.3891L38.6402 13.4588L32.9111 23.3891Z" fill="#3B0065"/>
<path d="M38.6397 42.7542C38.3355 42.7542 38.0532 42.5919 37.9011 42.3281L31.0347 30.4276L32.5118 29.5736L38.6397 40.1939L44.7677 29.5736L46.2447 30.4276L39.3782 42.3281C39.2261 42.5919 38.9439 42.7542 38.6397 42.7542Z" fill="#3B0065"/>
<path d="M12.9269 46.6352C12.7798 46.6352 12.6328 46.5963 12.501 46.5202L0.425884 39.5443C0.162244 39.3921 0 39.1097 0 38.8053C0 38.5009 0.162244 38.2184 0.425884 38.0662L12.501 31.0903C12.7646 30.9381 13.0908 30.9381 13.3544 31.0903L25.4295 38.0662C25.6931 38.2184 25.8554 38.5009 25.8554 38.8053C25.8554 39.1097 25.6931 39.3921 25.4295 39.5443L13.3544 46.5202C13.2226 46.5963 13.0756 46.6352 12.9285 46.6352H12.9269ZM2.55869 38.8053L12.9269 44.7952L23.2951 38.8053L12.9269 32.8153L2.55869 38.8053Z" fill="#3B0065"/>
<path d="M12.9269 60.5871C12.7798 60.5871 12.6328 60.5482 12.501 60.4721L0.425884 53.4962C0.162244 53.344 0 53.0616 0 52.7572V38.8054C0 38.501 0.162244 38.2186 0.425884 38.0664C0.689524 37.9142 1.01574 37.9142 1.27938 38.0664L13.3544 45.0423C13.618 45.1945 13.7803 45.4769 13.7803 45.7813V59.7331C13.7803 60.0375 13.618 60.3199 13.3544 60.4721C13.2226 60.5482 13.0756 60.5871 12.9285 60.5871H12.9269ZM1.70527 52.2634L12.0735 58.2534V46.2734L1.70527 40.2835V52.2634Z" fill="#3B0065"/>
<path d="M12.927 60.5871C12.7799 60.5871 12.6329 60.5482 12.5011 60.4721C12.2374 60.3199 12.0752 60.0375 12.0752 59.7331V45.7813C12.0752 45.4769 12.2374 45.1945 12.5011 45.0423L24.5762 38.0664C24.8398 37.9142 25.166 37.9142 25.4296 38.0664C25.6932 38.2186 25.8555 38.501 25.8555 38.8054V52.7572C25.8555 53.0616 25.6932 53.344 25.4296 53.4962L13.3545 60.4721C13.2227 60.5482 13.0756 60.5871 12.9286 60.5871H12.927ZM13.7804 46.2734V58.2534L24.1503 52.2634V40.2835L13.7804 46.2734Z" fill="#3B0065"/>
<path d="M66.9273 15.659C66.7802 15.659 66.6332 15.6201 66.5014 15.544L54.4264 8.56808C54.1627 8.41588 54.0005 8.13347 54.0005 7.82906C54.0005 7.52466 54.1627 7.24224 54.4264 7.09004L66.5014 0.114151C66.765 -0.0380503 67.0913 -0.0380503 67.3549 0.114151L79.4299 7.09004C79.6936 7.24224 79.8558 7.52466 79.8558 7.82906C79.8558 8.13347 79.6936 8.41588 79.4299 8.56808L67.3549 15.544C67.2231 15.6201 67.076 15.659 66.929 15.659H66.9273ZM56.5592 7.82906L66.9273 13.819L77.2955 7.82906L66.9273 1.83909L56.5592 7.82906Z" fill="#3B0065"/>
<path d="M66.9273 29.6107C66.7802 29.6107 66.6332 29.5718 66.5014 29.4957L54.4264 22.5198C54.1627 22.3676 54.0005 22.0852 54.0005 21.7808V7.829C54.0005 7.5246 54.1627 7.24218 54.4264 7.08998C54.69 6.93778 55.0162 6.93778 55.2798 7.08998L67.3549 14.0659C67.6185 14.2181 67.7808 14.5005 67.7808 14.8049V28.7567C67.7808 29.0611 67.6185 29.3435 67.3549 29.4957C67.2231 29.5718 67.076 29.6107 66.929 29.6107H66.9273ZM55.7057 21.287L66.0755 27.2769V15.297L55.7057 9.30704V21.287Z" fill="#3B0065"/>
<path d="M66.927 29.6107C66.7799 29.6107 66.6329 29.5718 66.5011 29.4957C66.2374 29.3435 66.0752 29.0611 66.0752 28.7567V14.8049C66.0752 14.5005 66.2374 14.2181 66.5011 14.0659L78.5762 7.08998C78.8398 6.93778 79.166 6.93778 79.4296 7.08998C79.6932 7.24218 79.8555 7.5246 79.8555 7.829V21.7808C79.8555 22.0852 79.6932 22.3676 79.4296 22.5198L67.3546 29.4957C67.2228 29.5718 67.0757 29.6107 66.9287 29.6107H66.927ZM67.7805 15.297V27.2769L78.1486 21.287V9.30704L67.7805 15.297Z" fill="#3B0065"/>
<path d="M13.072 25.8598C11.2856 25.8598 9.83398 24.4054 9.83398 22.6196C9.83398 20.8338 11.2873 19.3794 13.072 19.3794C14.8566 19.3794 16.31 20.8338 16.31 22.6196C16.31 24.4054 14.8566 25.8598 13.072 25.8598ZM13.072 21.0857C12.227 21.0857 11.5392 21.774 11.5392 22.6196C11.5392 23.4651 12.227 24.1534 13.072 24.1534C13.917 24.1534 14.6049 23.4651 14.6049 22.6196C14.6049 21.774 13.917 21.0857 13.072 21.0857Z" fill="#3B0065"/>
<path d="M13.9242 20.2318H12.2173V11.1978C12.2173 10.9712 12.3069 10.7547 12.4674 10.5941L15.8356 7.22367C15.9962 7.06302 16.2124 6.97339 16.4389 6.97339H24.2062V8.68142H16.7938L13.9259 11.5513V20.2318H13.9242Z" fill="#3B0065"/>
<path d="M67.2624 40.6911C65.4761 40.6911 64.0244 39.2367 64.0244 37.4509C64.0244 35.6651 65.4778 34.2107 67.2624 34.2107C69.047 34.2107 70.5005 35.6651 70.5005 37.4509C70.5005 39.2367 69.047 40.6911 67.2624 40.6911ZM67.2624 35.917C66.4174 35.917 65.7296 36.6053 65.7296 37.4509C65.7296 38.2964 66.4174 38.9847 67.2624 38.9847C68.1074 38.9847 68.7953 38.2964 68.7953 37.4509C68.7953 36.6053 68.1074 35.917 67.2624 35.917Z" fill="#3B0065"/>
<path d="M63.894 53.0956H56.1284V51.3876H63.5407L66.4087 48.5177V39.8372H68.1156V48.8712C68.1156 49.0978 68.0261 49.3142 67.8655 49.4749L64.4973 52.8453C64.3368 53.006 64.1205 53.0956 63.894 53.0956Z" fill="#3B0065"/>
</svg>
