<svg width="75" height="60" viewBox="0 0 75 60" fill="none" xmlns="http://www.w3.org/2000/svg">
<path fill-rule="evenodd" clip-rule="evenodd" d="M45.9433 8.91983L47.7273 0L49.5112 8.91983C49.6696 9.71155 50.2884 10.3304 51.0802 10.4888L60 12.2727L51.0802 14.0567C50.2884 14.215 49.6696 14.8339 49.5112 15.6256L47.7273 24.5455L45.9433 15.6256C45.785 14.8339 45.1661 14.215 44.3744 14.0567L35.4545 12.2727L44.3744 10.4888C45.1661 10.3304 45.785 9.71155 45.9433 8.91983ZM7.07967 17.7835L8.18182 12.2727L9.28397 17.7835C9.44231 18.5752 10.0612 19.1941 10.8529 19.3524L16.3636 20.4545L10.8529 21.5567C10.0612 21.715 9.44231 22.3339 9.28397 23.1256L8.18182 28.6364L7.07967 23.1256C6.92133 22.3339 6.30246 21.715 5.51074 21.5567L0 20.4545L5.51074 19.3524C6.30246 19.1941 6.92133 18.5752 7.07967 17.7835ZM36.5871 31.7665C36.7378 31.2031 36.8182 30.6109 36.8182 30C36.8182 26.2344 33.7656 23.1818 30 23.1818C26.2344 23.1818 23.1818 26.2344 23.1818 30C23.1818 30.3154 23.2032 30.6258 23.2447 30.9298L7.74796 46.4265C7.44395 46.385 7.13357 46.3636 6.81818 46.3636C3.0526 46.3636 0 49.4162 0 53.1818C0 56.9474 3.0526 60 6.81818 60C10.5838 60 13.6364 56.9474 13.6364 53.1818C13.6364 52.2915 13.4657 51.4411 13.1554 50.6614L27.4796 36.3372C28.2593 36.6475 29.1097 36.8182 30 36.8182C30.6106 36.8182 31.2025 36.7379 31.7657 36.5873L40.9357 45.7574C40.9181 45.9571 40.9091 46.1593 40.9091 46.3636C40.9091 50.1292 43.9617 53.1818 47.7273 53.1818C51.4929 53.1818 54.5455 50.1292 54.5455 46.3636C54.5455 46.0733 54.5273 45.7873 54.4921 45.5065L66.4843 33.5144C67.0269 33.6534 67.5955 33.7273 68.1815 33.7273C71.947 33.7273 74.9996 30.6747 74.9996 26.9091C74.9996 23.1435 71.947 20.0909 68.1815 20.0909C64.4159 20.0909 61.3633 23.1435 61.3633 26.9091C61.3633 27.5446 61.4502 28.1598 61.6129 28.7434L50.3062 40.0501C49.5106 39.7248 48.6399 39.5455 47.7273 39.5455C46.7397 39.5455 45.8011 39.7554 44.9538 40.1332L36.5871 31.7665Z" fill="#E21569"/>
</svg>
