<svg width="30" height="30" viewBox="0 0 30 30" fill="none" xmlns="http://www.w3.org/2000/svg">
<path d="M15 30C23.2843 30 30 23.2843 30 15C30 6.71573 23.2843 0 15 0C6.71573 0 0 6.71573 0 15C0 23.2843 6.71573 30 15 30Z" fill="#13B5EC"/>
<path fill-rule="evenodd" clip-rule="evenodd" d="M16.125 12.0937L19.5 10.125V14.0625L16.125 12.0937ZM19.5 20.5312L15 23.1562L10.5 20.5312V15.9375L15 18.5625L19.5 15.9375V20.5312ZM10.5 10.125L13.875 12.0937L10.5 14.0625V10.125ZM15.5625 13.0312L18.9375 15L15.5625 16.9688V13.0312ZM14.4375 16.9688L11.0625 15L14.4375 13.0312V16.9688ZM18.9375 9.1875L15 11.4375L11.0625 9.1875L15 6.84375L18.9375 9.1875ZM9.375 8.8125V21.0938L15 24.2812L20.625 21.0938V8.8125L15 5.625L9.375 8.8125Z" fill="white"/>
</svg>
