<svg width="51" height="50" viewBox="0 0 51 50" fill="none" xmlns="http://www.w3.org/2000/svg">
<path d="M25.334 0C11.534 0 0.333984 11.2 0.333984 25C0.333984 38.8 11.534 50 25.334 50C39.134 50 50.334 38.8 50.334 25C50.334 11.2 39.134 0 25.334 0ZM5.33398 25C5.33398 23.475 5.53398 21.975 5.85898 20.55L17.809 32.5V35C17.809 37.75 20.059 40 22.809 40V44.825C12.984 43.575 5.33398 35.175 5.33398 25ZM40.059 38.5C39.409 36.475 37.559 35 35.309 35H32.809V27.5C32.809 26.125 31.684 25 30.309 25H15.309V20H20.309C21.684 20 22.809 18.875 22.809 17.5V12.5H27.809C30.559 12.5 32.809 10.25 32.809 7.5V6.475C40.134 9.425 45.334 16.625 45.334 25C45.334 30.2 43.309 34.95 40.059 38.5Z" fill="#3B0065"/>
</svg>
