<svg width="240" height="246" viewBox="0 0 240 246" fill="none" xmlns="http://www.w3.org/2000/svg">
<g opacity="0.8">
<mask id="mask0_268_1735" style="mask-type:alpha" maskUnits="userSpaceOnUse" x="37" y="31" width="166" height="166">
<circle cx="120" cy="114.056" r="81.195" fill="#005488" stroke="#3F0561" stroke-width="3"/>
</mask>
<g mask="url(#mask0_268_1735)">
<circle cx="120" cy="114.056" r="81.195" fill="white" stroke="#3F0561" stroke-width="3"/>
<path d="M157.261 48.8088L158.329 48.1292C159.639 47.2951 160.777 46.2111 161.675 44.9432C164.405 41.0892 169.155 39.1933 173.786 40.1195C179.376 41.2375 183.399 46.1454 183.399 51.8458V59.6758C183.399 61.1739 182.77 62.6031 181.666 63.6154C180.191 64.9674 178.085 65.3823 176.207 64.6906L175.366 64.3808C173.67 63.756 171.796 63.8305 170.155 64.5879L167.227 65.9393C165.055 66.9419 163.511 68.9449 163.095 71.3009L163.042 71.6031C162.835 72.7749 162.298 73.8633 161.494 74.7405L161.185 75.0782C159.802 76.5865 157.696 77.2016 155.719 76.6744L155.655 76.6575C154.436 76.3324 153.372 75.5842 152.654 74.5467C151.447 72.8033 149.32 71.9438 147.24 72.3596L146.067 72.5943C142.73 73.2616 140.329 76.1911 140.329 79.5935V81.4355C140.329 82.2674 140.522 83.0879 140.895 83.832C141.626 85.294 142.984 86.3424 144.583 86.6792L146.966 87.1807C148.047 87.4084 149.158 87.4622 150.257 87.3401L150.969 87.261C151.455 87.207 151.936 87.1141 152.407 86.9833L153.904 86.5675C156.351 85.8878 158.971 86.6601 160.658 88.5581L162.871 91.0874C163.002 91.2374 163.102 91.412 163.165 91.601L163.478 92.5377C163.622 92.9704 163.327 93.4251 162.874 93.4705C162.155 93.5423 161.988 94.5147 162.641 94.8221L164.034 95.4773C164.896 95.883 165.845 95.1121 165.624 94.1853L165.374 93.1363C165.032 91.7011 166.596 90.5693 167.853 91.3424L168.457 91.7145C168.765 91.9036 169.119 92.0037 169.479 92.0037H169.764C171.395 92.0037 172.718 93.3263 172.718 94.9578V96.6455C172.718 98.0661 173.368 99.4085 174.483 100.289L179.264 104.063L181.939 105.902C183.324 106.855 183.351 108.891 181.992 109.879C181.361 110.338 180.548 110.467 179.806 110.225L172.317 107.787C168.346 106.494 164.952 103.851 162.727 100.316L161.513 98.3882C160.719 97.1266 159.723 96.0035 158.566 95.0633L157.02 93.8071C155.584 92.6405 153.791 92.0037 151.941 92.0037C150.65 92.0037 149.379 91.6936 148.233 91.0996L146.941 90.4298C143.114 88.4451 138.485 88.843 135.052 91.4519L134.515 91.8599C132.922 93.0709 130.976 93.7265 128.974 93.7265C124.886 93.7265 121.293 96.4369 120.169 100.368L118.765 105.285C117.779 108.734 117.986 112.414 119.352 115.731L122.052 122.288C123.575 125.989 126.788 128.73 130.683 129.652L133.757 130.38C136.122 130.94 138.017 132.706 138.742 135.026C139.104 136.186 139.153 137.421 138.884 138.606L138.097 142.068C137.753 143.582 137.802 145.159 138.24 146.649C138.916 148.946 138.658 151.417 137.523 153.526L134.753 158.67C132.985 161.954 132.059 165.625 132.059 169.354V173.888C132.059 175.537 132.564 177.147 133.506 178.502C135.83 181.842 140.276 182.933 143.882 181.048L152.733 176.421L160.559 172.007C164.122 169.997 166.632 166.534 167.435 162.523L167.555 161.92C168.411 157.64 171.371 154.081 175.424 152.46C178.952 151.049 181.68 148.156 182.882 144.551L184.414 139.953C184.652 139.239 185.069 138.597 185.624 138.089L188.851 135.13C190.457 133.658 193.047 134.797 193.047 136.976C193.047 138.093 193.788 139.076 194.863 139.383L197.087 140.018C200.141 140.891 201.848 144.138 200.836 147.149L193.782 168.137C191.513 174.887 197.023 181.708 204.099 180.909C207.865 180.484 211.042 177.911 212.24 174.315L220.502 149.53C222.844 142.505 223.617 135.052 222.766 127.696L220.179 105.324C218.879 94.0846 214.874 83.3279 208.507 73.9751L192.482 50.4328C183.905 37.8336 171.451 28.3778 157.01 23.5019L142.256 18.5199C131.706 14.9574 120.457 13.9634 109.445 15.6205L81.7416 19.7895C65.04 22.3029 50.485 32.5062 42.4271 47.3497L31.6184 67.2604C29.9996 70.2425 29.9392 73.8272 31.4567 76.8621C32.9635 79.8757 35.8383 81.9713 39.1684 82.4837L44.6949 83.3339C46.3855 83.594 47.9491 84.3863 49.1586 85.5958C51.3833 87.8205 52.1063 91.1382 51.0092 94.0869L49.267 98.769C47.993 102.193 47.943 105.952 49.1255 109.408L49.6263 110.872C51.0227 114.954 51.0726 119.376 49.7687 123.488L47.7765 129.771C47.4575 130.778 47.047 131.752 46.5503 132.684L44.9929 135.604C43.0109 139.32 43.1894 143.817 45.4598 147.364C46.6594 149.239 47.297 151.417 47.297 153.643V164.703C47.297 167.181 48.8652 169.387 51.2052 170.201C53.5977 171.033 56.2537 170.222 57.7735 168.195L58.0613 167.812C58.9021 166.691 59.3566 165.327 59.3566 163.926V159.519C59.3566 156.607 60.1963 153.757 61.7749 151.31L64.482 147.114C65.5828 145.408 67.4746 144.377 69.5053 144.377H70.146C72.5126 144.377 74.5755 142.767 75.1495 140.471C75.4106 139.426 75.9922 138.489 76.8127 137.792L78.3749 136.464C80.9552 134.271 82.4423 131.055 82.4423 127.668V124.723C82.4423 121.922 81.0841 119.296 78.7989 117.677L77.8676 117.017C75.6246 115.429 74.5393 112.659 75.1056 109.97C75.3956 108.592 75.2571 107.159 74.7085 105.862L72.8074 101.368C72.1122 99.7253 71.2237 98.1709 70.1606 96.738L66.787 92.191C64.8451 89.5737 62.3334 87.4322 59.4419 85.9286L56.669 84.4867C55.7158 83.991 54.8825 83.293 54.2274 82.4414C52.6996 80.4552 52.2856 77.8288 53.1284 75.4689L53.475 74.4984C54.5601 71.4602 57.1482 69.2058 60.3065 68.5479L69.3404 66.6658C70.7504 66.3721 71.7609 65.1294 71.7609 63.6891C71.7609 62.0099 73.1222 60.6485 74.8015 60.6485H78.6158C79.3248 60.6485 80.0296 60.5385 80.705 60.3224L88.2999 57.892L93.2366 56.6579C94.2294 56.4097 95.1911 57.1606 95.1911 58.1839C95.1911 59.3334 96.3839 60.0947 97.4266 59.6107L102.056 57.4611C103.753 56.6732 104.839 54.9724 104.839 53.1016C104.839 52.1799 105.104 51.2777 105.602 50.5025L107.588 47.4139C107.822 47.0492 108.085 46.7037 108.374 46.3807L112.665 41.5856C113.292 40.8847 113.236 39.8091 112.54 39.1764C111.496 38.2273 111.983 36.4937 113.369 36.2273L118.035 35.33C118.639 35.2139 119.187 34.9019 119.596 34.4423L120.52 33.4024C121.904 31.8454 124.479 32.8244 124.479 34.9075C124.479 35.0693 124.496 35.2307 124.531 35.3888L125.704 40.7885C126.021 42.2467 125.715 43.771 124.859 44.9935L122.959 47.7086C121.277 50.1113 122.996 53.4127 125.929 53.4127C126.11 53.4127 126.292 53.3991 126.472 53.3718L132.359 52.4798C135.83 51.954 139.335 51.6899 142.845 51.6899H143.774H147.367C150.871 51.6899 154.304 50.6905 157.261 48.8088Z" fill="#3F0561" stroke="#3F0561" stroke-width="3"/>
</g>
</g>
<circle cx="87.6136" cy="40.3192" r="1.94562" stroke="#005488" stroke-width="3"/>
<circle cx="162.035" cy="90.6254" r="1.94562" stroke="#005488" stroke-width="3"/>
<circle cx="175.821" cy="60.993" r="1.94562" stroke="#005488" stroke-width="3"/>
<circle cx="189.602" cy="135.419" r="1.94562" stroke="#005488" stroke-width="3"/>
<circle cx="62.805" cy="119.569" r="1.94562" stroke="#005488" stroke-width="3"/>
<circle cx="120" cy="114.056" r="81.195" stroke="#3F0561" stroke-width="3"/>
<path opacity="0.6" fill-rule="evenodd" clip-rule="evenodd" d="M179.44 56.5352C205.61 54.4086 224.281 58.6836 228.258 69.608C235.417 89.2782 192.223 123.058 131.782 145.056C71.3409 167.055 16.5398 168.943 9.38044 149.273C5.46076 138.504 16.6341 123.505 37.4676 108.526C37.4936 108.142 37.5223 107.757 37.5536 107.373C10.9665 125.071 -3.79964 143.277 0.847971 156.046C8.6582 177.504 68.3358 175.483 134.142 151.532C199.948 127.581 246.962 90.7688 239.152 69.3104C234.452 56.396 210.964 51.9859 178.661 55.7425C178.922 56.0048 179.182 56.2691 179.44 56.5352Z" fill="#E21569"/>
<path opacity="0.6" fill-rule="evenodd" clip-rule="evenodd" d="M193.086 149.334C204.035 173.199 206.404 192.206 197.498 199.678C181.463 213.134 134.948 184.098 93.6033 134.826C52.2591 85.554 31.7422 34.7034 47.7775 21.2482C56.5566 13.8816 74.4718 19.2512 95.6726 33.705C96.0435 33.5977 96.415 33.493 96.787 33.3911C71.0626 14.4592 48.9033 6.80961 38.4934 15.5445C21.0004 30.2229 43.3104 85.6104 88.3242 139.256C133.338 192.901 184.01 224.49 201.503 209.812C212.031 200.978 208.142 177.4 193.565 148.331C193.408 148.666 193.248 149.001 193.086 149.334Z" fill="#005488"/>
</svg>
