<svg width="16" height="12" viewBox="0 0 16 12" fill="none" xmlns="http://www.w3.org/2000/svg">
<path d="M1.70711 6.28991C1.31658 5.90336 0.683418 5.90336 0.292893 6.28991C-0.0976311 6.67647 -0.0976311 7.30319 0.292893 7.68974L4.29289 11.6491C4.68342 12.0356 5.31658 12.0356 5.70711 11.6491L15.7071 1.75078C16.0976 1.36422 16.0976 0.737501 15.7071 0.350949C15.3166 -0.0356028 14.6834 -0.0356028 14.2929 0.350949L5 9.54931L1.70711 6.28991Z" fill="white" fill-opacity="0.01"/>
<mask id="mask0_2555_17194" style="mask-type:luminance" maskUnits="userSpaceOnUse" x="0" y="0" width="16" height="12">
<path d="M1.70711 6.28991C1.31658 5.90336 0.683418 5.90336 0.292893 6.28991C-0.0976311 6.67647 -0.0976311 7.30319 0.292893 7.68974L4.29289 11.6491C4.68342 12.0356 5.31658 12.0356 5.70711 11.6491L15.7071 1.75078C16.0976 1.36422 16.0976 0.737501 15.7071 0.350949C15.3166 -0.0356028 14.6834 -0.0356028 14.2929 0.350949L5 9.54931L1.70711 6.28991Z" fill="white"/>
</mask>
<g mask="url(#mask0_2555_17194)">
<rect y="-1.91846" width="16" height="15.8372" fill="#00FFB3"/>
</g>
</svg>
