<svg width="50" height="50" viewBox="0 0 50 50" fill="none" xmlns="http://www.w3.org/2000/svg">
<path d="M39.2139 3.26208e-06C36.3581 -0.00221981 33.6181 1.13188 31.5953 3.15337C29.5726 5.17485 28.4324 7.91853 28.425 10.7821V22.7369C27.3139 22.8121 26.1778 22.8595 25 22.8595C23.8222 22.8595 22.6917 22.9068 21.575 22.9737V10.7821C21.5296 7.94336 20.3731 5.23627 18.3549 3.24487C16.3368 1.25347 13.6189 0.137377 10.7875 0.137377C7.95609 0.137377 5.23816 1.25347 3.22005 3.24487C1.20195 5.23627 0.0454307 7.94336 0 10.7821V39.3544C0.0454307 42.1931 1.20195 44.9002 3.22005 46.8916C5.23816 48.883 7.95609 49.9991 10.7875 49.9991C13.6189 49.9991 16.3368 48.883 18.3549 46.8916C20.3731 44.9002 21.5296 42.1931 21.575 39.3544V27.3996C22.6861 27.3244 23.8222 27.277 25 27.277C26.1778 27.277 27.3083 27.2297 28.425 27.1628V39.3544C28.4704 42.1931 29.6269 44.9002 31.6451 46.8916C33.6632 48.883 36.3811 49.9991 39.2125 49.9991C42.0439 49.9991 44.7618 48.883 46.7799 46.8916C48.7981 44.9002 49.9546 42.1931 50 39.3544V10.7821C49.9926 7.91901 48.8528 5.17576 46.8307 3.15435C44.8085 1.13295 42.0692 -0.0014817 39.2139 3.26208e-06ZM10.7861 4.41758C12.4715 4.41684 14.0884 5.08653 15.282 6.27972C16.4756 7.4729 17.1484 9.09213 17.1528 10.7821V23.4416C13.9966 23.9002 10.9145 24.774 7.98611 26.0403C6.71732 26.5987 5.52291 27.3136 4.43055 28.1684V10.7821C4.43496 9.09406 5.10625 7.47652 6.29743 6.28365C7.48861 5.09078 9.10263 4.41979 10.7861 4.41758ZM17.1528 39.3544C17.1528 41.0475 16.482 42.6713 15.288 43.8686C14.094 45.0658 12.4747 45.7384 10.7861 45.7384C9.09757 45.7384 7.47818 45.0658 6.2842 43.8686C5.09022 42.6713 4.41945 41.0475 4.41945 39.3544V36.4882C4.41945 33.9563 6.41945 31.5581 9.77222 30.0652C12.1347 29.0432 14.6134 28.3163 17.1528 27.901V39.3544ZM39.2139 45.7189C37.5285 45.7197 35.9116 45.05 34.718 43.8568C33.5244 42.6636 32.8516 41.0444 32.8472 39.3544V26.6949C36.0034 26.2363 39.0855 25.3625 42.0139 24.0962C43.2827 23.5378 44.4771 22.8229 45.5694 21.9681V39.3544C45.565 41.0424 44.8938 42.66 43.7026 43.8528C42.5114 45.0457 40.8974 45.7167 39.2139 45.7189ZM40.2278 20.0546C37.8654 21.0766 35.3866 21.8035 32.8472 22.2188V10.7821C32.8472 9.08898 33.518 7.46517 34.712 6.26793C35.906 5.07069 37.5253 4.39809 39.2139 4.39809C40.9024 4.39809 42.5218 5.07069 43.7158 6.26793C44.9098 7.46517 45.5806 9.08898 45.5806 10.7821V13.6483C45.5806 16.169 43.5806 18.5672 40.2278 20.0546Z" fill="url(#paint0_linear_2332_17207)"/>
<defs>
<linearGradient id="paint0_linear_2332_17207" x1="3.16666" y1="46.274" x2="46.6667" y2="2.77403" gradientUnits="userSpaceOnUse">
<stop stop-color="#00AEE9"/>
<stop offset="1" stop-color="#69FABD"/>
</linearGradient>
</defs>
</svg>
