<svg width="26" height="22" viewBox="0 0 26 22" fill="none" xmlns="http://www.w3.org/2000/svg">
<path d="M14.6666 0.5C8.86829 0.5 4.16663 5.20167 4.16663 11H0.666626L5.20496 15.5383L5.28663 15.7017L9.99996 11H6.49996C6.49996 6.485 10.1516 2.83333 14.6666 2.83333C19.1816 2.83333 22.8333 6.485 22.8333 11C22.8333 15.515 19.1816 19.1667 14.6666 19.1667C12.415 19.1667 10.3733 18.245 8.90329 16.7633L7.24663 18.42C9.14829 20.3217 11.7616 21.5 14.6666 21.5C20.465 21.5 25.1666 16.7983 25.1666 11C25.1666 5.20167 20.465 0.5 14.6666 0.5ZM13.5 6.33333V12.1667L18.4583 15.1067L19.3566 13.6133L15.25 11.175V6.33333H13.5Z" fill="#3B0065"/>
</svg>
