<svg width="134" height="40" viewBox="0 0 134 40" fill="none" xmlns="http://www.w3.org/2000/svg">
<g clip-path="url(#clip0_0_3)">
<path d="M71.8656 13.8053H71.8456C71.8519 14.0285 71.8114 14.2506 71.7267 14.4573C71.642 14.6639 71.5149 14.8505 71.3537 15.0051C71.1957 15.161 71.0082 15.2841 70.8023 15.3672C70.5964 15.4502 70.376 15.4916 70.154 15.489C69.9243 15.4947 69.6959 15.4549 69.4817 15.3718C69.2675 15.2887 69.0719 15.1641 68.9062 15.0051C68.7404 14.8535 68.6094 14.6677 68.5224 14.4606C68.4354 14.2534 68.3944 14.0298 68.4023 13.8053C68.4023 13.5899 68.4491 13.3771 68.5396 13.1817C68.63 12.9863 68.762 12.8129 68.9262 12.6735C69.2581 12.3605 69.6977 12.1872 70.154 12.1896C70.6008 12.1848 71.0317 12.3557 71.3537 12.6655C71.514 12.8092 71.6423 12.9848 71.7305 13.1812C71.8187 13.3775 71.8647 13.5901 71.8656 13.8053ZM68.6183 27.8425V16.6047H71.6257V27.8425H68.6183Z" fill="#3F4D98"/>
<path d="M77.5605 18.8887C77.9652 18.151 78.5651 17.5388 79.2944 17.1191C80.0238 16.6994 80.8545 16.4884 81.6957 16.5092V19.7086H81.3398C80.3629 19.6743 79.4063 19.9922 78.6443 20.6044C77.9285 21.2043 77.5725 22.2041 77.5725 23.5638V27.8749H74.5571V16.6372H77.5725L77.5605 18.8887Z" fill="#3F4D98"/>
<path d="M91.6456 16.6366H94.633V27.8583H91.6256V26.2026C90.3751 27.4691 89.0607 28.1036 87.6824 28.1063C87.1145 28.1264 86.5492 28.0199 86.0277 27.7944C85.5061 27.5689 85.0413 27.2301 84.667 26.8025C83.9031 25.9387 83.5232 24.7629 83.5232 23.2832V16.6486H86.5386V22.8233C86.5186 23.1641 86.5666 23.5055 86.6799 23.8275C86.7932 24.1495 86.9695 24.4458 87.1985 24.6989C87.4264 24.9247 87.6987 25.1006 87.9981 25.2156C88.2976 25.3306 88.6177 25.3821 88.9381 25.3668C89.6557 25.3887 90.3533 25.1289 90.8817 24.643C91.1321 24.4063 91.3296 24.1193 91.4613 23.8008C91.5929 23.4824 91.6557 23.1397 91.6456 22.7953V16.6366Z" fill="#3F4D98"/>
<path d="M97.4165 27.8629V12.502H100.432V27.8629H97.4165Z" fill="#3F4D98"/>
<path d="M110.262 27.8632L110.238 26.6035C109.531 27.5953 108.381 28.0872 106.787 28.0792C105.685 28.1377 104.597 27.8173 103.703 27.1714C103.319 26.8619 103.013 26.4657 102.811 26.0152C102.61 25.5647 102.518 25.0728 102.543 24.5799C102.526 24.0565 102.644 23.5375 102.885 23.0726C103.126 22.6076 103.482 22.2123 103.919 21.9244C104.859 21.2783 105.978 20.9426 107.119 20.9646C108.148 20.9647 109.171 21.1128 110.158 21.4045C110.193 19.7808 109.354 18.969 107.642 18.969C106.936 18.9726 106.233 19.0598 105.547 19.2289C104.969 19.3589 104.406 19.5437 103.863 19.7808L103.127 17.5853C104.67 16.8335 106.362 16.4411 108.078 16.4375C109.817 16.4375 111.102 16.8627 111.934 17.7132C112.765 18.5611 113.181 19.8568 113.181 21.5885V27.8832L110.262 27.8632ZM107.654 25.9076C108.287 25.9263 108.909 25.7504 109.438 25.4037C109.674 25.2407 109.865 25.0199 109.992 24.7622C110.119 24.5046 110.177 24.2187 110.162 23.932V23.1882C109.435 22.9337 108.669 22.8066 107.898 22.8122C107.313 22.7913 106.732 22.9295 106.219 23.2121C106.013 23.32 105.84 23.4828 105.721 23.6826C105.602 23.8823 105.54 24.1113 105.543 24.3439C105.538 24.5691 105.591 24.7918 105.696 24.9911C105.801 25.1905 105.955 25.3599 106.143 25.4837C106.589 25.7819 107.118 25.9304 107.654 25.9076Z" fill="#3F4D98"/>
<path d="M120.144 28.1594H120.2C118.394 28.2168 116.618 27.6878 115.137 26.6517L116.217 24.6881C116.791 25.0479 117.413 25.3252 118.064 25.5119C118.711 25.7199 119.385 25.8305 120.064 25.8398C121.24 25.8398 121.824 25.5119 121.824 24.852C121.821 24.6868 121.774 24.5253 121.687 24.3846C121.601 24.2439 121.478 24.129 121.332 24.0522C120.957 23.8326 120.542 23.6886 120.112 23.6283C119.676 23.5563 119.148 23.4443 118.536 23.2883C117.993 23.1491 117.458 22.9754 116.937 22.7684C116.442 22.5613 116.023 22.2066 115.737 21.7526C115.312 21.0476 115.159 20.2119 115.307 19.4021C115.454 18.5924 115.891 17.864 116.537 17.3535C117.483 16.7076 118.611 16.3824 119.756 16.4257C121.288 16.3798 122.797 16.798 124.087 17.6255L123.139 19.6251C122.127 19.0336 120.976 18.7204 119.804 18.7172C118.708 18.7172 118.16 19.0518 118.16 19.721C118.16 20.081 118.384 20.3529 118.828 20.5209C119.352 20.7237 119.897 20.8699 120.452 20.9568C121.098 21.0678 121.737 21.2133 122.368 21.3927C123.007 21.5728 123.574 21.9473 123.991 22.4645C124.517 23.1813 124.751 24.0705 124.648 24.9532C124.545 25.836 124.112 26.6471 123.435 27.2235C122.635 27.8474 121.52 28.1594 120.144 28.1594Z" fill="#3F4D98"/>
<path d="M130.39 19.3241V24.1672C130.39 25.0763 130.847 25.5309 131.762 25.5309C131.937 25.529 132.112 25.513 132.285 25.4829C132.421 25.4634 132.554 25.434 132.685 25.3949L132.821 25.3389L133.293 27.5905C132.502 27.959 131.633 28.1279 130.762 28.0824C129.866 28.1417 128.979 27.8699 128.27 27.3185C127.966 27.0399 127.728 26.6966 127.574 26.3139C127.419 25.9312 127.353 25.5188 127.378 25.107V19.3241H126.179V18.2043L130.234 14.1252H130.39V16.6367H132.789V19.3241H130.39Z" fill="#3F4D98"/>
<path d="M20 40C31.0457 40 40 31.0457 40 20C40 8.95431 31.0457 0 20 0C8.9543 0 0 8.95431 0 20C0 31.0457 8.9543 40 20 40Z" fill="#70C5CA"/>
<path d="M30.1218 40C41.1675 40 50.1218 31.0457 50.1218 20C50.1218 8.95431 41.1675 0 30.1218 0C19.0761 0 10.1218 8.95431 10.1218 20C10.1218 31.0457 19.0761 40 30.1218 40Z" fill="#4A79BC"/>
<path d="M40.2478 40C51.2935 40 60.2478 31.0457 60.2478 20C60.2478 8.95431 51.2935 0 40.2478 0C29.2021 0 20.2478 8.95431 20.2478 20C20.2478 31.0457 29.2021 40 40.2478 40Z" fill="#3F4D98"/>
<path d="M34.2531 12.4983C34.2445 12.834 34.137 13.1597 33.9442 13.4347C33.7514 13.7097 33.4818 13.9217 33.1691 14.0442C32.8564 14.1668 32.5145 14.1944 32.1862 14.1236C31.8579 14.0528 31.5577 13.8868 31.3233 13.6463C31.0888 13.4058 30.9305 13.1016 30.8681 12.7716C30.8057 12.4416 30.842 12.1005 30.9724 11.791C31.1029 11.4816 31.3217 11.2174 31.6015 11.0316C31.8813 10.8459 32.2096 10.7467 32.5455 10.7466C32.7751 10.7408 33.0034 10.7825 33.2161 10.8691C33.4288 10.9556 33.6214 11.0852 33.7817 11.2496C33.942 11.4141 34.0667 11.6099 34.1478 11.8247C34.2289 12.0396 34.2648 12.2689 34.2531 12.4983ZM34.1292 16.2255V29.2549H30.9658V16.2255H34.1292Z" fill="white"/>
<path d="M44.2511 16.1456C43.9591 16.1216 43.6592 16.1016 43.3393 16.1016C41.2197 16.1016 40.0159 16.9774 39.82 17.7012V16.2175H36.6526V29.2469H39.82V22.8482C39.82 20.7046 41.0837 19.125 43.2273 19.097C43.5737 19.0948 43.9186 19.1433 44.2511 19.2409V16.1456Z" fill="white"/>
</g>
<defs>
<clipPath id="clip0_0_3">
<rect width="134" height="40" fill="white"/>
</clipPath>
</defs>
</svg>
