<svg width="24" height="24" viewBox="0 0 24 24" fill="none" xmlns="http://www.w3.org/2000/svg">
<path fill-rule="evenodd" clip-rule="evenodd" d="M12 24C15.1826 24 18.2348 22.7357 20.4853 20.4853C22.7357 18.2348 24 15.1826 24 12C24 8.8174 22.7357 5.76515 20.4853 3.51472C18.2348 1.26428 15.1826 0 12 0C8.8174 0 5.76515 1.26428 3.51472 3.51472C1.26428 5.76515 0 8.8174 0 12C0 15.1826 1.26428 18.2348 3.51472 20.4853C5.76515 22.7357 8.8174 24 12 24ZM6.29 13.28C6.09 13.64 6 14.03 6 14.45C6.00055 14.7932 6.06986 15.1329 6.20382 15.4489C6.33779 15.7649 6.5337 16.0509 6.78 16.29L7.79 17.25C8.32 17.75 8.96 18 9.71 18C10.46 18 11.09 17.75 11.61 17.25L12.81 16.1L13.56 15.39L14.07 14.89C14.3798 14.5939 14.6086 14.2234 14.7346 13.8137C14.8607 13.4041 14.8797 12.9691 14.79 12.55C14.7879 12.4889 14.7778 12.4284 14.76 12.37C14.7003 12.196 14.6233 12.0285 14.53 11.87V11.85L14.45 11.71L14.43 11.68L14.41 11.67C14.3931 11.6326 14.3693 11.5987 14.34 11.57C14.34 11.55 14.33 11.54 14.31 11.52C14.3011 11.509 14.291 11.4989 14.28 11.49L14.25 11.45V11.44L14.23 11.41L14.19 11.38C14.1421 11.3415 14.0985 11.2979 14.06 11.25L13.63 10.83L13.57 10.89L12.67 11.73L12.62 11.82C12.6033 11.851 12.5931 11.885 12.59 11.92L12.96 12.3C13 12.33 13.04 12.37 13.06 12.41L13.07 12.42L13.08 12.45L13.1 12.46L13.14 12.56L13.17 12.6L13.23 12.7V12.72L13.24 12.74C13.27 12.84 13.29 12.94 13.29 13.07C13.2925 13.2409 13.2512 13.4096 13.17 13.56C13.1 13.69 13.02 13.78 12.95 13.85L12.07 14.7L11.46 15.27L10.51 16.19C10.29 16.39 10.01 16.49 9.69 16.49C9.38 16.49 9.11 16.39 8.89 16.19L7.91 15.23C7.77947 15.1145 7.67689 14.9709 7.61 14.81C7.58198 14.6955 7.56854 14.5779 7.57 14.46C7.57 14.36 7.58 14.26 7.61 14.16C7.65992 13.9708 7.76422 13.8005 7.91 13.67L9.41 12.21V11.97C9.41 11.76 9.41 11.55 9.45 11.37C9.58748 10.7211 9.90654 10.1246 10.37 9.65C9.96 9.75 9.59 9.97 9.26 10.27L9.25 10.29L9.24 10.3L6.78 12.63C6.58 12.84 6.43 13.03 6.34 13.23H6.32C6.32 13.25 6.32 13.25 6.3 13.25V13.27L6.29 13.28ZM10.21 11.48C10.1293 11.7992 10.1362 12.1344 10.23 12.45C10.23 12.51 10.23 12.58 10.25 12.64C10.31 12.81 10.39 12.98 10.47 13.14V13.16L10.53 13.28L10.55 13.31L10.56 13.33L10.64 13.43C10.64 13.45 10.66 13.46 10.68 13.48L10.76 13.58H10.77C10.77 13.59 10.77 13.61 10.79 13.61L10.93 13.75L11.36 14.16L11.44 14.1L12.32 13.26L12.37 13.17L12.4 13.07L12.04 12.7C11.9908 12.6662 11.9498 12.6217 11.92 12.57V12.55L11.9 12.53L11.85 12.44L11.81 12.4L11.77 12.3V12.28L11.75 12.26C11.6692 11.9885 11.6906 11.6968 11.81 11.44C11.9 11.3 11.97 11.2 12.04 11.14L12.94 10.29L13.54 9.71L14.47 8.79C14.7 8.59 14.97 8.49 15.29 8.49C15.5913 8.48348 15.884 8.59058 16.11 8.79L17.11 9.75C17.24 9.9 17.34 10.04 17.39 10.17C17.4415 10.387 17.4415 10.613 17.39 10.83C17.36 11 17.27 11.16 17.13 11.31L15.59 12.76L15.61 13.01C15.6102 13.4408 15.5255 13.8674 15.3608 14.2655C15.1961 14.6636 14.9545 15.0253 14.65 15.33C15.0637 15.2209 15.4424 15.0074 15.75 14.71L15.76 14.7L18.22 12.36C18.41 12.16 18.57 11.96 18.68 11.76L18.7 11.74V11.72H18.71C19.0127 11.1633 19.088 10.511 18.92 9.9C18.8015 9.44611 18.5591 9.0341 18.22 8.71L17.22 7.75C16.9665 7.50565 16.6673 7.31365 16.3396 7.18496C16.0119 7.05627 15.662 6.99342 15.31 7C14.56 7 13.93 7.25 13.41 7.76L12.21 8.9L11.45 9.62L10.95 10.11C10.55 10.48 10.31 10.94 10.21 11.48Z" fill="#3B0065"/>
</svg>
