<svg width="42" height="60" viewBox="0 0 42 60" fill="none" xmlns="http://www.w3.org/2000/svg">
<path fill-rule="evenodd" clip-rule="evenodd" d="M39.1542 30.7965C40.7657 27.8383 41.6814 24.4465 41.6814 20.8407C41.6814 9.3307 32.3507 0 20.8407 0C9.3307 0 0 9.3307 0 20.8407C0 24.4465 0.9157 27.8383 2.52724 30.7965H2.52164L18.1758 58.2241C18.6403 59.2703 19.6884 60 20.9069 60C22.1309 60 23.1829 59.2637 23.6442 58.2099L39.1588 30.7965H39.1542ZM20.9069 28.5398C25.1957 28.5398 28.6724 25.0631 28.6724 20.7743C28.6724 16.4856 25.1957 13.0088 20.9069 13.0088C16.6182 13.0088 13.1415 16.4856 13.1415 20.7743C13.1415 25.0631 16.6182 28.5398 20.9069 28.5398Z" fill="#E21569"/>
</svg>
