<svg width="12" height="15" viewBox="0 0 12 15" fill="none" xmlns="http://www.w3.org/2000/svg">
<path d="M9.99935 5.33366H9.33268V4.00033C9.33268 2.16033 7.83935 0.666992 5.99935 0.666992C4.15935 0.666992 2.66602 2.16033 2.66602 4.00033V5.33366H1.99935C1.26602 5.33366 0.666016 5.93366 0.666016 6.66699V13.3337C0.666016 14.067 1.26602 14.667 1.99935 14.667H9.99935C10.7327 14.667 11.3327 14.067 11.3327 13.3337V6.66699C11.3327 5.93366 10.7327 5.33366 9.99935 5.33366ZM5.99935 11.3337C5.26602 11.3337 4.66602 10.7337 4.66602 10.0003C4.66602 9.26699 5.26602 8.66699 5.99935 8.66699C6.73268 8.66699 7.33268 9.26699 7.33268 10.0003C7.33268 10.7337 6.73268 11.3337 5.99935 11.3337ZM8.06602 5.33366H3.93268V4.00033C3.93268 2.86033 4.85935 1.93366 5.99935 1.93366C7.13935 1.93366 8.06602 2.86033 8.06602 4.00033V5.33366Z" fill="#3B0065"/>
</svg>
