<svg width="220" height="45" viewBox="0 0 220 45" fill="none" xmlns="http://www.w3.org/2000/svg">
<g clip-path="url(#clip0_425_2)">
<path fill-rule="evenodd" clip-rule="evenodd" d="M29.4577 26.5102C32.3589 26.4327 35.2506 26.1439 38.1099 25.6461C38.3158 25.6088 38.5275 25.6171 38.7298 25.6706C38.9322 25.7241 39.1203 25.8214 39.281 25.9556C39.4416 26.0898 39.5708 26.2577 39.6594 26.4473C39.748 26.6369 39.7939 26.8437 39.7937 27.053V32.4703C35.6887 33.3056 31.5088 33.7176 27.3196 33.7C17.4599 33.7 8.83 31.5619 4.05526 28.3603C2.53845 27.4474 1.31272 26.1218 0.521283 24.5383C0.234554 23.9201 0.0834319 23.2477 0.078125 22.5663C0.100578 21.5171 0.436251 20.4986 1.04196 19.6417C1.09229 19.5634 1.15959 19.4975 1.23886 19.4487C1.31813 19.4 1.40734 19.3697 1.49989 19.3602C1.59245 19.3506 1.68597 19.362 1.77354 19.3934C1.8611 19.4249 1.94048 19.4757 2.00577 19.542C2.5369 20.0691 3.11128 20.5509 3.72289 20.9821C6.43388 22.7565 9.43275 24.046 12.5855 24.7931C16.7168 25.8442 20.9531 26.4276 25.2147 26.5324V29.2133C25.2147 29.4912 25.2695 29.7663 25.3758 30.023C25.4821 30.2798 25.638 30.513 25.8345 30.7095C26.031 30.906 26.2642 31.0618 26.5209 31.1682C26.7776 31.2745 27.0528 31.3293 27.3307 31.3293C27.891 31.3263 28.4275 31.1025 28.8237 30.7063C29.2199 30.3101 29.4437 29.7736 29.4466 29.2133L29.4577 26.5102Z" fill="#C4C4C4"/>
<path fill-rule="evenodd" clip-rule="evenodd" d="M29.4577 26.5102C32.3589 26.4327 35.2506 26.1439 38.1099 25.6461C38.3158 25.6088 38.5275 25.6171 38.7298 25.6706C38.9322 25.7241 39.1203 25.8214 39.281 25.9556C39.4416 26.0898 39.5708 26.2577 39.6594 26.4473C39.748 26.6369 39.7939 26.8437 39.7937 27.053V32.4703C35.6887 33.3056 31.5088 33.7176 27.3196 33.7C17.4599 33.7 8.83 31.5619 4.05526 28.3603C2.53845 27.4474 1.31272 26.1218 0.521283 24.5383C0.234554 23.9201 0.0834319 23.2477 0.078125 22.5663C0.100578 21.5171 0.436251 20.4986 1.04196 19.6417C1.09229 19.5634 1.15959 19.4975 1.23886 19.4487C1.31813 19.4 1.40734 19.3697 1.49989 19.3602C1.59245 19.3506 1.68597 19.362 1.77354 19.3934C1.8611 19.4249 1.94048 19.4757 2.00577 19.542C2.5369 20.0691 3.11128 20.5509 3.72289 20.9821C6.43388 22.7565 9.43275 24.046 12.5855 24.7931C16.7168 25.8442 20.9531 26.4276 25.2147 26.5324V29.2133C25.2147 29.4912 25.2695 29.7663 25.3758 30.023C25.4821 30.2798 25.638 30.513 25.8345 30.7095C26.031 30.906 26.2642 31.0618 26.5209 31.1682C26.7776 31.2745 27.0528 31.3293 27.3307 31.3293C27.891 31.3263 28.4275 31.1025 28.8237 30.7063C29.2199 30.3101 29.4437 29.7736 29.4466 29.2133L29.4577 26.5102Z" fill="#FF7900"/>
<path fill-rule="evenodd" clip-rule="evenodd" d="M54.5498 22.4998C54.5485 23.1972 54.3934 23.8856 54.0956 24.5161C53.2949 26.0781 52.0751 27.3862 50.5727 28.2938C48.5286 29.5939 46.3139 30.6043 43.9922 31.296V25.1808C43.9897 24.8842 44.0803 24.5942 44.2512 24.3518C44.4221 24.1093 44.6647 23.9266 44.9449 23.8292C47.0496 23.1377 49.0481 22.1572 50.8829 20.9156C51.5039 20.4835 52.0859 19.9979 52.6222 19.4644C52.6875 19.3981 52.7668 19.3473 52.8544 19.3159C52.942 19.2844 53.0355 19.273 53.1281 19.2826C53.2206 19.2922 53.3098 19.3224 53.3891 19.3712C53.4684 19.4199 53.5357 19.4858 53.586 19.5641C54.1988 20.4216 54.5351 21.4459 54.5498 22.4998Z" fill="#C4C4C4"/>
<path fill-rule="evenodd" clip-rule="evenodd" d="M54.5498 22.4998C54.5485 23.1972 54.3934 23.8856 54.0956 24.5161C53.2949 26.0781 52.0751 27.3862 50.5727 28.2938C48.5286 29.5939 46.3139 30.6043 43.9922 31.296V25.1808C43.9897 24.8842 44.0803 24.5942 44.2512 24.3518C44.4221 24.1093 44.6647 23.9266 44.9449 23.8292C47.0496 23.1377 49.0481 22.1572 50.8829 20.9156C51.5039 20.4835 52.0859 19.9979 52.6222 19.4644C52.6875 19.3981 52.7668 19.3473 52.8544 19.3159C52.942 19.2844 53.0355 19.273 53.1281 19.2826C53.2206 19.2922 53.3098 19.3224 53.3891 19.3712C53.4684 19.4199 53.5357 19.4858 53.586 19.5641C54.1988 20.4216 54.5351 21.4459 54.5498 22.4998Z" fill="#FF7900"/>
<path fill-rule="evenodd" clip-rule="evenodd" d="M54.5499 33.8773C54.5462 34.5708 54.3912 35.2551 54.0956 35.8825C53.295 37.4444 52.0751 38.7525 50.5728 39.6602C45.7759 42.8618 37.1459 44.9999 27.3084 44.9999C17.4708 44.9999 8.81873 42.8618 4.04399 39.6602C2.52719 38.7473 1.30146 37.4217 0.510019 35.8382C0.223525 35.2238 0.0724096 34.5551 0.0668945 33.8773C0.0878226 32.8244 0.423501 31.8019 1.0307 30.9416C1.08103 30.8633 1.14832 30.7974 1.2276 30.7486C1.30687 30.6999 1.39607 30.6696 1.48863 30.66C1.58118 30.6505 1.67471 30.6618 1.76227 30.6933C1.84984 30.7248 1.92921 30.7756 1.9945 30.8419C2.52323 31.3717 3.09784 31.8536 3.71162 32.282C6.42014 34.061 9.41984 35.3509 12.5742 36.093C17.3876 37.3009 22.3348 37.8928 27.2973 37.8544C31.4864 37.8726 35.6664 37.4605 39.7714 36.6247V38.8404C39.77 39.1187 39.8237 39.3945 39.9295 39.6518C40.0353 39.9092 40.1911 40.1431 40.3879 40.3399C40.5847 40.5366 40.8185 40.6924 41.0759 40.7982C41.3333 40.9041 41.6091 40.9578 41.8874 40.9563C42.1653 40.9563 42.4404 40.9016 42.6971 40.7953C42.9538 40.6889 43.1871 40.5331 43.3836 40.3366C43.5801 40.1401 43.7359 39.9068 43.8422 39.6501C43.9486 39.3934 44.0033 39.1182 44.0033 38.8404V35.5169C46.4472 34.7985 48.7671 33.7114 50.8829 32.2931C51.5091 31.8678 52.0917 31.3817 52.6222 30.8419C52.6886 30.7754 52.7688 30.7246 52.8572 30.6931C52.9457 30.6616 53.04 30.6502 53.1334 30.6598C53.2268 30.6693 53.3168 30.6996 53.3971 30.7483C53.4773 30.7971 53.5457 30.8631 53.5971 30.9416C54.2016 31.8026 54.5335 32.8254 54.5499 33.8773Z" fill="#C4C4C4"/>
<path fill-rule="evenodd" clip-rule="evenodd" d="M54.5499 33.8773C54.5462 34.5708 54.3912 35.2551 54.0956 35.8825C53.295 37.4444 52.0751 38.7525 50.5728 39.6602C45.7759 42.8618 37.1459 44.9999 27.3084 44.9999C17.4708 44.9999 8.81873 42.8618 4.04399 39.6602C2.52719 38.7473 1.30146 37.4217 0.510019 35.8382C0.223525 35.2238 0.0724096 34.5551 0.0668945 33.8773C0.0878226 32.8244 0.423501 31.8019 1.0307 30.9416C1.08103 30.8633 1.14832 30.7974 1.2276 30.7486C1.30687 30.6999 1.39607 30.6696 1.48863 30.66C1.58118 30.6505 1.67471 30.6618 1.76227 30.6933C1.84984 30.7248 1.92921 30.7756 1.9945 30.8419C2.52323 31.3717 3.09784 31.8536 3.71162 32.282C6.42014 34.061 9.41984 35.3509 12.5742 36.093C17.3876 37.3009 22.3348 37.8928 27.2973 37.8544C31.4864 37.8726 35.6664 37.4605 39.7714 36.6247V38.8404C39.77 39.1187 39.8237 39.3945 39.9295 39.6518C40.0353 39.9092 40.1911 40.1431 40.3879 40.3399C40.5847 40.5366 40.8185 40.6924 41.0759 40.7982C41.3333 40.9041 41.6091 40.9578 41.8874 40.9563C42.1653 40.9563 42.4404 40.9016 42.6971 40.7953C42.9538 40.6889 43.1871 40.5331 43.3836 40.3366C43.5801 40.1401 43.7359 39.9068 43.8422 39.6501C43.9486 39.3934 44.0033 39.1182 44.0033 38.8404V35.5169C46.4472 34.7985 48.7671 33.7114 50.8829 32.2931C51.5091 31.8678 52.0917 31.3817 52.6222 30.8419C52.6886 30.7754 52.7688 30.7246 52.8572 30.6931C52.9457 30.6616 53.04 30.6502 53.1334 30.6598C53.2268 30.6693 53.3168 30.6996 53.3971 30.7483C53.4773 30.7971 53.5457 30.8631 53.5971 30.9416C54.2016 31.8026 54.5335 32.8254 54.5499 33.8773Z" fill="#FF7900"/>
<path fill-rule="evenodd" clip-rule="evenodd" d="M54.5495 11.1337C54.5447 11.8579 54.3821 12.5724 54.0731 13.2275C53.3027 14.6942 52.1556 15.9293 50.7496 16.8058C49.5875 17.5885 48.352 18.2563 47.0605 18.7998C41.4324 20.9966 35.4541 22.16 29.4128 22.2341V19.254C29.4121 18.4051 29.6647 17.5752 30.1384 16.8706C30.612 16.166 31.2851 15.6189 32.0716 15.2991L34.9963 14.1027C37.4889 13.1942 39.0731 11.8316 39.0731 10.325C39.0731 7.56646 33.7998 5.32865 27.2969 5.32865C20.7939 5.32865 15.5207 7.5443 15.5207 10.325C15.5207 11.8316 17.1049 13.1942 19.5975 14.1027L22.5332 15.2991C23.3188 15.6201 23.9911 16.1676 24.4646 16.8719C24.9381 17.5762 25.1913 18.4054 25.192 19.254V22.2341C19.1237 22.1683 13.1178 21.0009 7.46675 18.7888C6.18403 18.2462 4.95614 17.5821 3.79984 16.8058C2.3956 15.9272 1.24894 14.6927 0.476358 13.2275C0.167359 12.5724 0.00480777 11.8579 0 11.1337C0 4.98522 12.1861 0 27.2415 0C42.2969 0 54.5495 4.98522 54.5495 11.1337Z" fill="#C4C4C4"/>
<path fill-rule="evenodd" clip-rule="evenodd" d="M54.5495 11.1337C54.5447 11.8579 54.3821 12.5724 54.0731 13.2275C53.3027 14.6942 52.1556 15.9293 50.7496 16.8058C49.5875 17.5885 48.352 18.2563 47.0605 18.7998C41.4324 20.9966 35.4541 22.16 29.4128 22.2341V19.254C29.4121 18.4051 29.6647 17.5752 30.1384 16.8706C30.612 16.166 31.2851 15.6189 32.0716 15.2991L34.9963 14.1027C37.4889 13.1942 39.0731 11.8316 39.0731 10.325C39.0731 7.56646 33.7998 5.32865 27.2969 5.32865C20.7939 5.32865 15.5207 7.5443 15.5207 10.325C15.5207 11.8316 17.1049 13.1942 19.5975 14.1027L22.5332 15.2991C23.3188 15.6201 23.9911 16.1676 24.4646 16.8719C24.9381 17.5762 25.1913 18.4054 25.192 19.254V22.2341C19.1237 22.1683 13.1178 21.0009 7.46675 18.7888C6.18403 18.2462 4.95614 17.5821 3.79984 16.8058C2.3956 15.9272 1.24894 14.6927 0.476358 13.2275C0.167359 12.5724 0.00480777 11.8579 0 11.1337C0 4.98522 12.1861 0 27.2415 0C42.2969 0 54.5495 4.98522 54.5495 11.1337Z" fill="#FF7900"/>
<path d="M77.814 8.69653H83.5969L92.9802 20.4063L102.364 8.69653H108.146V36.1928H101.743V18.9882L93.6449 28.8811H92.393L84.2172 18.9107V36.1596H77.814V8.69653Z" fill="#1D1D1B"/>
<path d="M123.545 8.69653H130.425L142.677 36.1928H135.731L133.682 31.2408H120.133L118.095 36.1928H111.215L123.545 8.69653ZM131.411 25.7017L126.979 14.8671L122.46 25.7017H131.411Z" fill="#1D1D1B"/>
<path d="M145.78 8.69653H158.941C165.388 8.69653 169.476 12.5074 169.476 18.5562C169.476 24.6049 165.388 28.4158 158.941 28.4158H152.227V36.1706H145.78V8.69653ZM158.686 22.7991C159.262 22.8535 159.844 22.7837 160.391 22.5944C160.939 22.4052 161.439 22.1009 161.859 21.702C162.279 21.3031 162.608 20.819 162.825 20.2821C163.042 19.7452 163.142 19.168 163.117 18.5894C163.117 16.0414 161.389 14.3907 158.686 14.3907H152.238V22.7991H158.686Z" fill="#1D1D1B"/>
<path d="M173.597 8.69653H180.044V30.3767H193.87V36.1928H173.597V8.69653Z" fill="#1D1D1B"/>
<path d="M197.914 8.69653H218.896V14.0805H204.162V19.6197H218.11V24.8043H204.162V30.7423H219.328V36.1596H197.914V8.69653Z" fill="#1D1D1B"/>
</g>
<defs>
<clipPath id="clip0_425_2">
<rect width="220" height="45" fill="white"/>
</clipPath>
</defs>
</svg>
