<svg width="20" height="20" viewBox="0 0 20 20" fill="none" xmlns="http://www.w3.org/2000/svg">
<path d="M10.0004 0.400391C4.69639 0.400391 0.400391 4.69639 0.400391 10.0004C0.400391 15.3044 4.69639 19.6004 10.0004 19.6004H17.8004C18.7964 19.6004 19.6004 18.7964 19.6004 17.8004V10.0004C19.6004 4.69639 15.3044 0.400391 10.0004 0.400391ZM18.1004 17.2004C18.1004 17.6924 17.6924 18.1004 17.2004 18.1004C16.7084 18.1004 16.3004 17.6924 16.3004 17.2004C16.3004 16.7084 16.7084 16.3004 17.2004 16.3004C17.6924 16.3004 18.1004 16.7084 18.1004 17.2004ZM10.0004 17.8004C7.27639 17.8004 4.86439 16.3964 3.47239 14.2724L6.41239 11.3324L9.40039 14.2604L14.2004 9.46039V11.2004H16.0004V6.40039H11.2004V8.20039H12.9164L9.38839 11.7284L6.40039 8.80039L2.63239 12.5684C2.35639 11.7644 2.20039 10.9004 2.20039 10.0004C2.20039 5.70439 5.70439 2.20039 10.0004 2.20039C14.2964 2.20039 17.8004 5.70439 17.8004 10.0004C17.8004 14.2964 14.2964 17.8004 10.0004 17.8004Z" fill="#3B0065"/>
</svg>
