<svg width="24" height="24" viewBox="0 0 24 24" fill="none" xmlns="http://www.w3.org/2000/svg">
<path fill-rule="evenodd" clip-rule="evenodd" d="M23.9641 11.9998C23.9641 5.39771 18.604 0.0375977 12.0018 0.0375977H12.0013C5.39917 0.0375977 0.0390625 5.39771 0.0390625 11.9998C0.0390625 18.6019 5.39917 23.962 12.0013 23.962H12.0018C18.604 23.962 23.9641 18.6019 23.9641 11.9998ZM13.2027 11.9999C13.2027 14.9404 10.8351 17.3242 7.91472 17.3242C4.99431 17.3242 2.62656 14.9399 2.62656 11.9999C2.62656 9.05991 4.99412 6.67547 7.91472 6.67547C10.8353 6.67547 13.2027 9.0594 13.2027 11.9999ZM19.0038 11.9999C19.0038 14.7678 17.82 17.0124 16.3597 17.0124C14.8994 17.0124 13.7156 14.7678 13.7156 11.9999C13.7156 9.23204 14.8992 6.98733 16.3595 6.98733C17.8198 6.98733 19.0036 9.23133 19.0036 11.9999H19.0038ZM21.3766 11.9999C21.3766 14.4792 20.9603 16.4903 20.4467 16.4903C19.933 16.4903 19.5169 14.4798 19.5169 11.9999C19.5169 9.52004 19.9331 7.50947 20.4467 7.50947C20.9601 7.50947 21.3766 9.51985 21.3766 11.9999Z" fill="#3F0561"/>
<path fill-rule="evenodd" clip-rule="evenodd" d="M1.99688 20.4999C1.99688 20.2248 1.77354 20.0015 1.49845 20.0015H1.49843C1.22334 20.0015 1 20.2248 1 20.4999C1 20.775 1.22334 20.9983 1.49843 20.9983H1.49845C1.77354 20.9983 1.99688 20.775 1.99688 20.4999ZM1.54848 20.4999C1.54848 20.6224 1.44984 20.7217 1.32815 20.7217C1.20647 20.7217 1.10781 20.6224 1.10781 20.4999C1.10781 20.3774 1.20646 20.278 1.32815 20.278C1.44984 20.278 1.54848 20.3774 1.54848 20.4999ZM1.7902 20.4999C1.7902 20.6152 1.74087 20.7088 1.68003 20.7088C1.61918 20.7088 1.56986 20.6152 1.56986 20.4999C1.56986 20.3846 1.61917 20.291 1.68002 20.291C1.74087 20.291 1.79019 20.3845 1.79019 20.4999H1.7902ZM1.88906 20.4999C1.88906 20.6032 1.87172 20.687 1.85032 20.687C1.82891 20.687 1.81158 20.6032 1.81158 20.4999C1.81158 20.3966 1.82892 20.3128 1.85032 20.3128C1.87171 20.3128 1.88906 20.3966 1.88906 20.4999Z" fill="#3F0561"/>
</svg>
