<svg width="51" height="50" viewBox="0 0 51 50" fill="none" xmlns="http://www.w3.org/2000/svg">
<g clip-path="url(#clip0_2332_17210)">
<path d="M25.5 50C39.3071 50 50.5 38.8071 50.5 25C50.5 11.1929 39.3071 0 25.5 0C11.6929 0 0.5 11.1929 0.5 25C0.5 38.8071 11.6929 50 25.5 50Z" fill="#FF0420"/>
<path d="M18.2106 31.6399C16.7206 31.6399 15.5006 31.2899 14.5506 30.5899C13.6106 29.8799 13.1406 28.8599 13.1406 27.5499C13.1406 27.2699 13.1706 26.9399 13.2306 26.5399C13.3906 25.6399 13.6206 24.5599 13.9206 23.2899C14.7706 19.8499 16.9706 18.1299 20.5106 18.1299C21.4706 18.1299 22.3406 18.2899 23.1006 18.6199C23.8606 18.9299 24.4606 19.4099 24.9006 20.0499C25.3406 20.6799 25.5606 21.4299 25.5606 22.2999C25.5606 22.5599 25.5306 22.8899 25.4706 23.2899C25.2806 24.3999 25.0606 25.4899 24.7906 26.5399C24.3506 28.2499 23.6006 29.5399 22.5206 30.3899C21.4506 31.2299 20.0106 31.6399 18.2106 31.6399ZM18.4806 28.9399C19.1806 28.9399 19.7706 28.7299 20.2606 28.3199C20.7606 27.9099 21.1206 27.2799 21.3306 26.4199C21.6206 25.2399 21.8406 24.2199 21.9906 23.3399C22.0406 23.0799 22.0706 22.8099 22.0706 22.5299C22.0706 21.3899 21.4806 20.8199 20.2906 20.8199C19.5906 20.8199 18.9906 21.0299 18.4906 21.4399C18.0006 21.8499 17.6506 22.4799 17.4406 23.3399C17.2106 24.1799 16.9906 25.1999 16.7606 26.4199C16.7106 26.6699 16.6806 26.9299 16.6806 27.2099C16.6706 28.3699 17.2806 28.9399 18.4806 28.9399Z" fill="white"/>
<path d="M26.4305 31.4601C26.2905 31.4601 26.1905 31.4201 26.1105 31.3301C26.0505 31.2301 26.0305 31.1201 26.0505 30.9901L28.6405 18.7901C28.6605 18.6501 28.7305 18.5401 28.8505 18.4501C28.9605 18.3601 29.0805 18.3201 29.2105 18.3201H34.2005C35.5905 18.3201 36.7005 18.6101 37.5405 19.1801C38.3905 19.7601 38.8205 20.5901 38.8205 21.6801C38.8205 21.9901 38.7805 22.3201 38.7105 22.6601C38.4005 24.1001 37.7705 25.1601 36.8105 25.8501C35.8705 26.5401 34.5805 26.8801 32.9405 26.8801H30.4105L29.5505 30.9901C29.5205 31.1301 29.4605 31.2401 29.3405 31.3301C29.2305 31.4201 29.1105 31.4601 28.9805 31.4601H26.4305ZM33.0705 24.2901C33.6005 24.2901 34.0505 24.1501 34.4405 23.8601C34.8405 23.5701 35.1005 23.1601 35.2305 22.6201C35.2705 22.4101 35.2905 22.2201 35.2905 22.0601C35.2905 21.7001 35.1805 21.4201 34.9705 21.2301C34.7605 21.0301 34.3905 20.9301 33.8805 20.9301H31.6305L30.9205 24.2901H33.0705Z" fill="white"/>
</g>
<defs>
<clipPath id="clip0_2332_17210">
<rect width="50" height="50" fill="white" transform="translate(0.5)"/>
</clipPath>
</defs>
</svg>
