<svg xmlns="http://www.w3.org/2000/svg" xmlns:xlink="http://www.w3.org/1999/xlink" viewBox="0 0 863.48 160.3"><defs><style>.cls-1{fill:url(#New_Gradient_Swatch_1);}</style><linearGradient id="New_Gradient_Swatch_1" y1="80.15" x2="863.48" y2="80.15" gradientUnits="userSpaceOnUse"><stop offset="0" stop-color="#bb023d"/><stop offset="1" stop-color="#f1a729"/></linearGradient></defs><g id="Layer_2" data-name="Layer 2"><g id="Layer_1-2" data-name="Layer 1"><path d="M117.16,58.47c0,34.16-25,55-55.84,55H43.8V156.8H0V3.5H61.32C92.2,3.5,117.16,24.31,117.16,58.47Zm-43.8,0c0-7.88-5.47-12.48-12-12.48H43.8V71H61.32C67.89,71,73.36,66.36,73.36,58.47Z"/><path d="M174.1,3.5V156.8H130.3V3.5Z"/><path d="M190.52,80.15C190.52,34.82,224.24,0,270.67,0c28.69,0,53.87,14.67,67.23,37.23l-38.1,21.9c-5-9.86-16.21-16.21-29.13-16.21-21.68,0-36.35,16-36.35,37.23s14.67,37.23,36.35,37.23c13.14,0,24.09-6.35,29.13-16.42l38.1,21.9c-13.36,22.77-38.54,37.44-67.23,37.44C224.24,160.3,190.52,125.48,190.52,80.15Z"/><path d="M432.29,137.09H388.05L382.8,156.8H335.71L384.55,3.5h51.24l48.84,153.3H437.54Zm-9.42-35L410.17,55l-12.7,47.08Z"/><path d="M620.4,3.5V156.8h-35L537.18,86.72V156.8H493.39V3.5h35L576.6,73.58V3.5Z"/><path d="M749.61,46H713.47V156.8h-43.8V46H633.54V3.5H749.61Z"/><path d="M863.48,116.5v40.3H762.75V3.5h99.64V43.36H806.54V60h50.37V99.42H806.54V116.5Z"/><path class="cls-1" d="M117.16,58.47c0,34.16-25,55-55.84,55H43.8V156.8H0V3.5H61.32C92.2,3.5,117.16,24.31,117.16,58.47Zm-43.8,0c0-7.88-5.47-12.48-12-12.48H43.8V71H61.32C67.89,71,73.36,66.36,73.36,58.47Z"/><path class="cls-1" d="M174.1,3.5V156.8H130.3V3.5Z"/><path class="cls-1" d="M190.52,80.15C190.52,34.82,224.24,0,270.67,0c28.69,0,53.87,14.67,67.23,37.23l-38.1,21.9c-5-9.86-16.21-16.21-29.13-16.21-21.68,0-36.35,16-36.35,37.23s14.67,37.23,36.35,37.23c13.14,0,24.09-6.35,29.13-16.42l38.1,21.9c-13.36,22.77-38.54,37.44-67.23,37.44C224.24,160.3,190.52,125.48,190.52,80.15Z"/><path class="cls-1" d="M432.29,137.09H388.05L382.8,156.8H335.71L384.55,3.5h51.24l48.84,153.3H437.54Zm-9.42-35L410.17,55l-12.7,47.08Z"/><path class="cls-1" d="M620.4,3.5V156.8h-35L537.18,86.72V156.8H493.39V3.5h35L576.6,73.58V3.5Z"/><path class="cls-1" d="M749.61,46H713.47V156.8h-43.8V46H633.54V3.5H749.61Z"/><path class="cls-1" d="M863.48,116.5v40.3H762.75V3.5h99.64V43.36H806.54V60h50.37V99.42H806.54V116.5Z"/></g></g></svg>