<svg width="101" height="101" viewBox="0 0 101 101" fill="none" xmlns="http://www.w3.org/2000/svg">
<path d="M48.1672 42.544L46.8805 39.3484C46.5694 38.5766 45.6866 38.2088 44.9174 38.5147C44.1443 38.8283 43.7714 39.7046 44.0824 40.4764L47.2238 48.2769L58.5438 41.1888C59.2485 40.7487 59.4627 39.8169 59.0213 39.1122C58.5786 38.4024 57.6468 38.1894 56.9434 38.6321L52.2623 41.5657L65.1505 19.9478H47.0999L57.6339 2.28183C58.0598 1.56811 57.8236 0.64145 57.1125 0.216836C56.3975 -0.214231 55.4721 0.0245336 55.0449 0.739537L41.7941 22.9653H59.8434L48.1672 42.544Z" fill="white"/>
<path d="M66.2088 35.1164L64.984 36.9052L79.7745 45.4724L50.5007 62.2427L21.2242 45.4711L49.2333 29.3448L45.0852 29.2467L18.0558 44.8116V82.2718L50.5007 100.999L82.9429 82.2692V44.8077L66.2088 35.1164ZM49.4204 97.8883L20.215 80.8186V47.376L49.5185 64.3373L49.4204 97.8883ZM51.5796 97.8883V64.5129L80.7876 47.3773L80.8276 81.1077L51.5796 97.8883Z" fill="white"/>
</svg>
