<svg width="28" height="26" viewBox="0 0 28 26" fill="none" xmlns="http://www.w3.org/2000/svg">
<g clip-path="url(#clip0_2555_17228)">
<g filter="url(#filter0_b_2555_17228)">
<path d="M20.8205 8.32001C20.3179 8.02286 19.6718 8.02286 19.0974 8.32001L15.0769 10.7714L12.3487 12.3314L8.4 14.7829C7.89744 15.08 7.25128 15.08 6.67692 14.7829L3.58974 12.8514C3.08718 12.5543 2.7282 11.96 2.7282 11.2914V7.57715C2.7282 6.98286 3.01538 6.38858 3.58974 6.01715L6.67692 4.16001C7.17949 3.86286 7.82564 3.86286 8.4 4.16001L11.4872 6.09144C11.9897 6.38858 12.3487 6.98286 12.3487 7.65144V10.1029L15.0769 8.46858V5.94286C15.0769 5.34858 14.7897 4.75429 14.2154 4.38286L8.47179 0.891436C7.96923 0.594293 7.32308 0.594293 6.74872 0.891436L0.861538 4.45715C0.287179 4.75429 0 5.34858 0 5.94286V12.9257C0 13.52 0.287179 14.1143 0.861538 14.4857L6.67692 17.9771C7.17949 18.2743 7.82564 18.2743 8.4 17.9771L12.3487 15.6L15.0769 13.9657L19.0256 11.5886C19.5282 11.2914 20.1744 11.2914 20.7487 11.5886L23.8359 13.4457C24.3385 13.7429 24.6974 14.3372 24.6974 15.0057V18.72C24.6974 19.3143 24.4103 19.9086 23.8359 20.28L20.8205 22.1371C20.3179 22.4343 19.6718 22.4343 19.0974 22.1371L16.0103 20.28C15.5077 19.9829 15.1487 19.3886 15.1487 18.72V16.3429L12.4205 17.9771V20.4286C12.4205 21.0229 12.7077 21.6171 13.2821 21.9886L19.0974 25.48C19.6 25.7771 20.2462 25.7771 20.8205 25.48L26.6359 21.9886C27.1385 21.6914 27.4974 21.0971 27.4974 20.4286V13.3714C27.4974 12.7772 27.2103 12.1829 26.6359 11.8114L20.8205 8.32001Z" fill="#8247E5"/>
</g>
</g>
<defs>
<filter id="filter0_b_2555_17228" x="-4" y="-3.33142" width="35.4974" height="33.0343" filterUnits="userSpaceOnUse" color-interpolation-filters="sRGB">
<feFlood flood-opacity="0" result="BackgroundImageFix"/>
<feGaussianBlur in="BackgroundImageFix" stdDeviation="2"/>
<feComposite in2="SourceAlpha" operator="in" result="effect1_backgroundBlur_2555_17228"/>
<feBlend mode="normal" in="SourceGraphic" in2="effect1_backgroundBlur_2555_17228" result="shape"/>
</filter>
<clipPath id="clip0_2555_17228">
<rect width="28" height="26" fill="white"/>
</clipPath>
</defs>
</svg>
