<svg width="501" height="556" viewBox="0 0 501 556" fill="none" xmlns="http://www.w3.org/2000/svg">
<path d="M189.878 35.2887L250 0.57735L310.122 35.2887V104.711L250 139.423L189.878 104.711V35.2887Z" fill="#00FFB3" fill-opacity="0.05" stroke="#00FFB3"/>
<path d="M190 35.5L250 70M310 35.5L250 70M250 70V139.5" stroke="#00FFB3"/>
<path d="M250.878 139.289L311 104.577L371.122 139.289V208.711L311 243.423L250.878 208.711V139.289Z" stroke="#00FFB3"/>
<path d="M370.878 139.289L431 104.577L491.122 139.289V208.711L431 243.423L370.878 208.711V139.289Z" fill="#00FFB3" fill-opacity="0.05" stroke="#00FFB3"/>
<path d="M371 139.5L431 174M491 139.5L431 174M431 174V243.5" stroke="#00FFB3"/>
<path d="M129.878 139.289L190 104.577L250.122 139.289V208.711L190 243.423L129.878 208.711V139.289Z" stroke="#00FFB3"/>
<path d="M9.87822 139.289L70 104.577L130.122 139.289V208.711L70 243.423L9.87822 208.711V139.289Z" fill="#00FFB3" fill-opacity="0.05" stroke="#00FFB3"/>
<path d="M10 139.5L70 174M130 139.5L70 174M70 174V243.5" stroke="#00FFB3"/>
<path d="M189.878 243.289L250 208.577L310.122 243.289V312.711L250 347.423L189.878 312.711V243.289Z" fill="#00FFB3" fill-opacity="0.05" stroke="#00FFB3"/>
<path d="M190 243.5L250 278M310 243.5L250 278M250 278V347.5" stroke="#00FFB3"/>
<path d="M309.878 243.289L370 208.577L430.122 243.289V312.711L370 347.423L309.878 312.711V243.289Z" stroke="#00FFB3"/>
<path d="M69.8782 243.289L130 208.577L190.122 243.289V312.711L130 347.423L69.8782 312.711V243.289Z" stroke="#00FFB3"/>
<path d="M189.878 451.289L250 416.577L310.122 451.289V520.711L250 555.423L189.878 520.711V451.289Z" fill="#00FFB3" fill-opacity="0.05" stroke="#00FFB3"/>
<path d="M190 451.5L250 486M310 451.5L250 486M250 486V555.5" stroke="#00FFB3"/>
<path d="M250.878 347.289L311 312.577L371.122 347.289V416.711L311 451.423L250.878 416.711V347.289Z" stroke="#00FFB3"/>
<path d="M370.878 347.289L431 312.577L491.122 347.289V416.711L431 451.423L370.878 416.711V347.289Z" fill="#00FFB3" fill-opacity="0.05" stroke="#00FFB3"/>
<path d="M371 347.5L431 382M491 347.5L431 382M431 382V451.5" stroke="#00FFB3"/>
<path d="M129.878 347.289L190 312.577L250.122 347.289V416.711L190 451.423L129.878 416.711V347.289Z" stroke="#00FFB3"/>
<path d="M9.87822 347.289L70 312.577L130.122 347.289V416.711L70 451.423L9.87822 416.711V347.289Z" fill="#00FFB3" fill-opacity="0.05" stroke="#00FFB3"/>
<path d="M10 347.5L70 382M130 347.5L70 382M70 382V451.5" stroke="#00FFB3"/>
</svg>
