<svg width="50" height="44" viewBox="0 0 50 44" fill="none" xmlns="http://www.w3.org/2000/svg">
<path d="M37.1795 13.4C36.282 12.8857 35.1282 12.8857 34.1026 13.4L26.9231 17.6428L22.0513 20.3428L15 24.5857C14.1026 25.1 12.9487 25.1 11.9231 24.5857L6.41026 21.2428C5.51282 20.7285 4.87179 19.7 4.87179 18.5428V12.1142C4.87179 11.0857 5.38461 10.0571 6.41026 9.41425L11.9231 6.19996C12.8205 5.68568 13.9744 5.68568 15 6.19996L20.5128 9.54282C21.4103 10.0571 22.0513 11.0857 22.0513 12.2428V16.4857L26.9231 13.6571V9.28568C26.9231 8.2571 26.4103 7.22853 25.3846 6.58568L15.1282 0.542819C14.2308 0.0285331 13.0769 0.0285331 12.0513 0.542819L1.53846 6.71425C0.512821 7.22853 0 8.2571 0 9.28568V21.3714C0 22.4 0.512821 23.4285 1.53846 24.0714L11.9231 30.1142C12.8205 30.6285 13.9744 30.6285 15 30.1142L22.0513 26L26.9231 23.1714L33.9744 19.0571C34.8718 18.5428 36.0256 18.5428 37.0513 19.0571L42.5641 22.2714C43.4615 22.7857 44.1026 23.8142 44.1026 24.9714V31.4C44.1026 32.4285 43.5897 33.4571 42.5641 34.1L37.1795 37.3142C36.282 37.8285 35.1282 37.8285 34.1026 37.3142L28.5897 34.1C27.6923 33.5857 27.0513 32.5571 27.0513 31.4V27.2857L22.1795 30.1142V34.3571C22.1795 35.3857 22.6923 36.4142 23.7179 37.0571L34.1026 43.1C35 43.6142 36.1538 43.6142 37.1795 43.1L47.5641 37.0571C48.4615 36.5428 49.1026 35.5142 49.1026 34.3571V22.1428C49.1026 21.1142 48.5897 20.0857 47.5641 19.4428L37.1795 13.4Z" fill="#8247E5"/>
</svg>
