<svg width="181" height="180" viewBox="0 0 181 180" fill="none" xmlns="http://www.w3.org/2000/svg">
<path d="M137.111 44.6264L121.251 60.4866C120.314 61.4239 118.794 61.4239 117.857 60.4866C116.919 59.5494 116.919 58.0298 117.857 57.0925L135.118 39.8307C136.019 38.9306 137.24 38.4249 138.513 38.4249H156.275C157.589 38.4249 158.654 39.4899 158.654 40.8036C158.654 42.1151 157.593 43.1792 156.281 43.1823L140.494 43.2205C139.225 43.2236 138.008 43.7291 137.111 44.6264Z" fill="#8DC9ED"/>
<path d="M42.6414 70.0663L58.5015 85.9264C59.4387 86.8637 60.9583 86.8637 61.8956 85.9264C62.8328 84.9892 62.8328 83.4696 61.8956 82.5323L44.6338 65.2705C43.7336 64.3703 42.5127 63.8646 41.2397 63.8646L31.923 63.8646L20.6182 64.7998L20.6181 68.6164L39.2586 68.6604C40.5277 68.6634 41.744 69.1689 42.6414 70.0663Z" fill="#8DC9ED"/>
<path d="M63.2777 135.603L79.1368 119.744C80.074 118.806 81.5936 118.806 82.5309 119.744C83.4681 120.681 83.4681 122.2 82.5309 123.138L65.2691 140.399C64.3689 141.3 63.148 141.805 61.875 141.805L37.3914 141.805C36.078 141.805 35.0133 140.741 35.0133 139.427C35.0133 138.116 36.0754 137.052 37.387 137.049L59.8923 137.008C61.1623 137.006 62.3797 136.501 63.2777 135.603Z" fill="#8DC9ED"/>
<path fill-rule="evenodd" clip-rule="evenodd" d="M180.28 21.6C180.28 33.5701 170.65 43.2 158.68 43.2C146.71 43.2 137.08 33.5701 137.08 21.6C137.08 9.62993 146.71 0 158.68 0C170.65 0 180.28 9.62993 180.28 21.6ZM158.95 20.3401C162.73 20.79 164.62 21.87 164.62 25.0199C164.62 27.4499 162.82 29.3399 160.12 29.7901V31.9501C160.03 32.4 159.76 32.67 159.4 32.67H158.05C157.6 32.5799 157.33 32.3099 157.33 31.9501V29.7901C154.36 29.3399 152.92 27.7199 152.56 25.4701V25.38C152.56 25.0199 152.83 24.7499 153.19 24.7499H154.72C154.99 24.7499 155.26 24.9301 155.35 25.2899C155.62 26.6399 156.43 27.6301 158.77 27.6301C160.48 27.6301 161.74 26.6401 161.74 25.2001C161.74 23.76 160.93 23.22 158.41 22.7701C154.63 22.3199 152.83 21.1501 152.83 18.1801C152.83 15.93 154.54 14.1301 157.24 13.77V11.7001C157.33 11.2499 157.6 10.9799 157.96 10.9799H159.31C159.76 11.07 160.03 11.34 160.03 11.7001V13.8601C162.1 14.04 163.72 15.5699 164.08 17.55V17.6401C164.08 17.9999 163.81 18.2699 163.45 18.2699H162.01C161.74 18.2699 161.47 18.09 161.38 17.82C160.93 16.47 160.03 15.93 158.41 15.93C156.61 15.93 155.71 16.7398 155.71 17.9999C155.71 19.2601 156.25 19.98 158.95 20.3401ZM154.09 34.4699C147.07 31.9501 143.47 24.1201 146.08 17.1899C147.43 13.4099 150.4 10.53 154.09 9.18C154.45 9.00007 154.63 8.73007 154.63 8.27993V7.02C154.63 6.65993 154.45 6.38993 154.09 6.30007C154 6.30007 153.82 6.30007 153.73 6.38993C145.18 9.08993 140.5 18.1801 143.2 26.73C144.82 31.7699 148.69 35.64 153.73 37.26C154.09 37.4399 154.45 37.26 154.54 36.8999C154.63 36.8101 154.63 36.72 154.63 36.5401V35.2799C154.63 35.0099 154.36 34.6501 154.09 34.4699ZM163.63 6.38993C163.27 6.21 162.91 6.38993 162.82 6.75C162.73 6.84007 162.73 6.92993 162.73 7.11007V8.37C162.73 8.73007 163 9.08993 163.27 9.27007C170.29 11.7899 173.89 19.6199 171.28 26.5501C169.93 30.3301 166.96 33.21 163.27 34.56C162.91 34.7399 162.73 35.0099 162.73 35.4601V36.72C162.73 37.0801 162.91 37.3501 163.27 37.4399C163.36 37.4399 163.54 37.4399 163.63 37.3501C172.18 34.6501 176.86 25.5599 174.16 17.01C172.54 11.88 168.58 8.00993 163.63 6.38993ZM32.6417 138.31C35.014 137.372 37.4303 136.88 40.0604 136.802C40.2783 136.796 41.3387 136.806 41.5535 136.817C42.9555 136.886 44.2003 137.055 45.4829 137.351C49.5118 138.28 53.1897 140.359 56.1006 143.353C59.2629 146.604 61.3209 150.769 61.9758 155.239C62.0816 155.965 62.1445 156.629 62.1874 157.468C62.2042 157.805 62.2042 158.997 62.1874 159.333C62.1141 160.77 61.9496 161.99 61.6509 163.284C60.9793 166.201 59.6915 168.962 57.8745 171.378C55.4614 174.586 52.188 177.075 48.464 178.529C46.406 179.334 44.2433 179.813 42.0251 179.959C41.5022 179.993 41.2559 180 40.6 180C39.9441 180 39.6978 179.993 39.1749 179.959C36.767 179.801 34.4251 179.249 32.2121 178.317C29.5538 177.197 27.1186 175.531 25.0994 173.45C21.5096 169.75 19.3772 164.954 19.0409 159.826C19.0073 159.303 19 159.057 19 158.401C19 157.745 19.0073 157.499 19.0409 156.976C19.3164 152.776 20.7939 148.79 23.3254 145.424C25.7166 142.244 28.9638 139.764 32.6417 138.31ZM48.0029 144.71C45.8056 143.46 43.3914 142.776 40.8148 142.674C40.5183 142.662 39.9409 142.662 39.636 142.675C37.928 142.743 36.2704 143.077 34.6955 143.671C32.9875 144.316 31.399 145.259 30.0117 146.451C28.7365 147.547 27.6498 148.829 26.7885 150.254C25.2996 152.715 24.5263 155.502 24.5263 158.401C24.5263 160.324 24.8658 162.197 25.5343 163.97C26.1787 165.678 27.1217 167.266 28.3142 168.654C29.4102 169.929 30.6928 171.015 32.1178 171.877C33.9505 172.985 35.9728 173.701 38.0904 173.991C40.6954 174.348 43.3506 174.052 45.792 173.131C46.7958 172.751 47.7326 172.283 48.6735 171.69C48.8946 171.55 48.9627 171.474 49.0088 171.316C49.034 171.23 49.0267 171.066 48.9942 170.983C48.9554 170.883 48.9124 170.836 48.7312 170.69C47.7148 169.874 46.7717 168.897 45.9879 167.847C45.4577 167.137 45.0355 166.464 44.6038 165.639C44.5231 165.485 44.477 165.433 44.3827 165.384C44.2926 165.338 44.2213 165.325 44.105 165.329L43.9981 165.332L43.7267 165.465C43.4491 165.601 43.317 165.66 43.1043 165.743C40.9196 166.595 38.4488 166.426 36.4118 165.284C35.0633 164.527 33.9536 163.38 33.2568 162.018C33.0787 161.67 32.9833 161.451 32.8544 161.1C32.2278 159.383 32.2278 157.419 32.8544 155.702C33.4706 154.015 34.6295 152.6 36.1593 151.666C38.0663 150.502 40.3946 150.21 42.549 150.866C42.9639 150.992 43.2856 151.121 43.7267 151.337L43.9981 151.47L44.105 151.473C44.2213 151.477 44.2926 151.464 44.3827 151.417C44.477 151.369 44.5231 151.317 44.6038 151.163C45.0355 150.338 45.4577 149.665 45.9879 148.955C46.7717 147.905 47.7148 146.928 48.7312 146.111C48.9722 145.919 49.013 145.854 49.0225 145.654C49.0298 145.49 48.9889 145.375 48.8863 145.269C48.815 145.196 48.442 144.959 48.0029 144.71ZM54.205 152.109C53.6906 151.558 53.1101 151.072 52.4751 150.66C52.3944 150.606 52.321 150.564 52.3127 150.564C52.298 150.565 52.0811 150.705 51.8851 150.84C51.1841 151.326 50.4884 151.98 49.9456 152.664C48.8726 154.015 48.201 155.641 48.0145 157.343C47.9673 157.772 47.961 157.891 47.961 158.422C47.961 158.953 47.9673 159.072 48.0145 159.501C48.2282 161.451 49.077 163.293 50.4245 164.735C50.8101 165.147 51.2868 165.57 51.729 165.892C51.8684 165.993 52.2047 166.221 52.2812 166.265C52.2902 166.27 52.2963 166.274 52.3032 166.277C52.3275 166.284 52.3614 166.259 52.5673 166.122C54.006 165.166 55.1491 163.823 55.8606 162.255C56.2536 161.385 56.5113 160.446 56.6151 159.501C56.6622 159.072 56.6685 158.953 56.6685 158.422C56.6685 157.891 56.6622 157.772 56.6151 157.343C56.4013 155.393 55.5526 153.55 54.205 152.109Z" fill="#005488"/>
<path fill-rule="evenodd" clip-rule="evenodd" d="M150.041 68.1601C152.692 68.1601 154.841 66.011 154.841 63.3601C154.841 60.7091 152.692 58.5601 150.041 58.5601C147.39 58.5601 145.241 60.7091 145.241 63.3601C145.241 63.5559 145.252 63.749 145.275 63.9388L108.684 92.5268C108.117 92.2905 107.494 92.1601 106.841 92.1601C106.411 92.1601 105.994 92.2166 105.597 92.3226L92.2781 79.0033C92.3841 78.6068 92.4406 78.19 92.4406 77.7601C92.4406 75.1091 90.2916 72.9601 87.6406 72.9601C84.9897 72.9601 82.8406 75.1091 82.8406 77.7601C82.8406 77.9559 82.8524 78.149 82.8752 78.3388L46.2841 106.927C45.7165 106.691 45.0938 106.56 44.4406 106.56C41.7897 106.56 39.6406 108.709 39.6406 111.36C39.6406 114.011 41.7897 116.16 44.4406 116.16C47.0916 116.16 49.2406 114.011 49.2406 111.36C49.2406 111.15 49.2271 110.943 49.2009 110.739L85.7588 82.1771C86.3366 82.4236 86.9727 82.5601 87.6406 82.5601C88.0706 82.5601 88.4874 82.5035 88.884 82.3975L102.203 95.7167C102.097 96.1132 102.041 96.53 102.041 96.9601C102.041 99.611 104.19 101.76 106.841 101.76C109.492 101.76 111.641 99.611 111.641 96.9601C111.641 96.7497 111.627 96.5425 111.601 96.3393L148.159 67.7771C148.737 68.0236 149.373 68.1601 150.041 68.1601ZM150.041 65.7601C151.366 65.7601 152.441 64.6855 152.441 63.3601C152.441 62.0346 151.366 60.9601 150.041 60.9601C148.715 60.9601 147.641 62.0346 147.641 63.3601C147.641 64.6855 148.715 65.7601 150.041 65.7601ZM87.6406 80.1601C88.9661 80.1601 90.0406 79.0855 90.0406 77.7601C90.0406 76.4346 88.9661 75.3601 87.6406 75.3601C86.3151 75.3601 85.2406 76.4346 85.2406 77.7601C85.2406 79.0855 86.3151 80.1601 87.6406 80.1601ZM44.4406 113.76C45.7661 113.76 46.8406 112.686 46.8406 111.36C46.8406 110.035 45.7661 108.96 44.4406 108.96C43.1151 108.96 42.0406 110.035 42.0406 111.36C42.0406 112.686 43.1151 113.76 44.4406 113.76ZM109.241 96.9601C109.241 98.2855 108.166 99.3601 106.841 99.3601C105.515 99.3601 104.441 98.2855 104.441 96.9601C104.441 95.6346 105.515 94.5601 106.841 94.5601C108.166 94.5601 109.241 95.6346 109.241 96.9601Z" fill="#E21569"/>
<path fill-rule="evenodd" clip-rule="evenodd" d="M43.1998 47.0396C43.1998 58.9689 33.5292 68.6395 21.5999 68.6395C9.67061 68.6395 0 58.9689 0 47.0396C0 35.1103 9.67061 25.4397 21.5999 25.4397C33.5292 25.4397 43.1998 35.1103 43.1998 47.0396ZM11.52 47.2796L22.3199 29.7597L32.8799 47.2796L22.3199 53.5196L11.52 47.2796ZM11.52 49.4396L22.3199 64.3195L32.8799 49.4396L22.3199 55.4396L11.52 49.4396Z" fill="#005488"/>
<path opacity="0.4" d="M22.3195 42.48L11.5195 47.28L22.3195 53.5199L32.8794 47.28L22.3195 42.48Z" fill="#005488"/>
<path opacity="0.4" d="M32.8783 47.2802L22.3184 29.7603V53.5202L32.8783 47.2802Z" fill="#005488"/>
<path opacity="0.4" d="M32.8783 49.4402L22.3184 64.3201V55.4402L32.8783 49.4402Z" fill="#005488"/>
<path fill-rule="evenodd" clip-rule="evenodd" d="M96.9604 125.759C118.168 125.759 135.36 108.567 135.36 87.3596C135.36 66.1519 118.168 48.9597 96.9604 48.9597C75.7527 48.9597 58.5605 66.1519 58.5605 87.3596C58.5605 108.567 75.7527 125.759 96.9604 125.759ZM96.9604 116.159C112.866 116.159 125.76 103.265 125.76 87.3596C125.76 71.4538 112.866 58.5597 96.9604 58.5597C81.0547 58.5597 68.1605 71.4538 68.1605 87.3596C68.1605 103.265 81.0547 116.159 96.9604 116.159Z" fill="#6F2F99"/>
<path fill-rule="evenodd" clip-rule="evenodd" d="M159.672 137.044L128.039 108.737L117.857 118.919L146.164 150.552C146.345 150.778 146.54 150.996 146.749 151.205C146.749 151.205 146.749 151.205 146.749 151.205C150.128 154.584 155.906 154.284 159.655 150.535C163.404 146.786 163.705 141.008 160.326 137.629C160.326 137.629 160.326 137.629 160.326 137.629C160.117 137.42 159.898 137.225 159.672 137.044Z" fill="#6F2F99"/>
</svg>
