<svg width="36" height="34" viewBox="0 0 36 34" fill="none" xmlns="http://www.w3.org/2000/svg">
<path fill-rule="evenodd" clip-rule="evenodd" d="M0.222656 0.444458H2.44488H33.556H35.7782V2.66668V24.8889V27.1111H33.556H20.2227C20.2227 29.3202 21.715 31.1111 23.556 31.1111H25.7782C26.3918 31.1111 26.8893 31.708 26.8893 32.4445C26.8893 33.1809 26.3918 33.7778 25.7782 33.7778H10.2227C9.60901 33.7778 9.11155 33.1809 9.11155 32.4445C9.11155 31.708 9.60901 31.1111 10.2227 31.1111H12.4449C14.2858 31.1111 15.7782 29.3202 15.7782 27.1111H2.44488H0.222656V24.8889V2.66668V0.444458ZM4.6671 4.8889V22.6667H31.3338V4.8889H4.6671ZM21.8474 8.01557L21.2926 9.22359L20.7588 8.01557L19.5368 7.46775L20.7588 6.91995L21.2926 5.71192L21.8474 6.91995L23.0484 7.46775L21.8474 8.01557ZM10.7577 12.7351L11.1088 11.3305L12.5135 10.9793L11.1088 10.6281L10.7577 9.22348L10.4065 10.6281L9.00181 10.9793L10.4065 11.3305L10.7577 12.7351ZM24.9853 10.8525C24.3938 9.59881 25.3233 8.22224 26.6149 8.22224C27.6169 8.22224 28.4258 9.04572 28.4258 10.0659C28.4258 11.3687 27.0858 12.3397 25.8424 11.7251L22.2089 15.4247C22.3176 15.6582 22.39 15.9286 22.39 16.2113C22.39 17.2314 21.5812 18.0549 20.5793 18.0549C19.5774 18.0549 18.7686 17.2314 18.7686 16.2113C18.7686 15.9286 18.841 15.6582 18.9617 15.4247L17.7425 14.1833C17.3804 14.3553 16.8131 14.4905 16.1853 14.1833L12.5519 17.8828C12.6605 18.1163 12.7329 18.3867 12.7329 18.6694C12.7329 19.6896 11.9242 20.513 10.9222 20.513C9.92032 20.513 9.11155 19.6896 9.11155 18.6694C9.11155 17.6493 9.92032 16.8258 10.9222 16.8258C11.1999 16.8258 11.4655 16.8995 11.6948 17.0102L15.3283 13.3106C15.2196 13.0771 15.1472 12.8067 15.1472 12.524C15.1472 11.5039 15.956 10.6804 16.9579 10.6804C17.9598 10.6804 18.7686 11.5039 18.7686 12.524C18.7686 12.8067 18.6962 13.0771 18.5755 13.3106L19.7947 14.552C20.1568 14.3799 20.7242 14.2447 21.3519 14.552L24.9853 10.8525Z" fill="white"/>
</svg>
