<svg width="23" height="24" viewBox="0 0 23 24" fill="none" xmlns="http://www.w3.org/2000/svg">
<path d="M11.5 0.800079C5.31205 0.800079 0.300049 5.81208 0.300049 12.0001C0.300049 18.1881 5.31205 23.2001 11.5 23.2001H20.6C21.762 23.2001 22.7 22.2621 22.7 21.1001V12.0001C22.7 5.81208 17.688 0.800079 11.5 0.800079ZM20.95 20.4001C20.95 20.9741 20.474 21.4501 19.9 21.4501C19.326 21.4501 18.85 20.9741 18.85 20.4001C18.85 19.8261 19.326 19.3501 19.9 19.3501C20.474 19.3501 20.95 19.8261 20.95 20.4001ZM11.5 21.1001C8.32205 21.1001 5.50805 19.4621 3.88405 16.9841L7.31405 13.5541L10.8 16.9701L16.4 11.3701V13.4001H18.5V7.80008H12.9V9.90008H14.902L10.786 14.0161L7.30005 10.6001L2.90405 14.9961C2.58205 14.0581 2.40005 13.0501 2.40005 12.0001C2.40005 6.98808 6.48805 2.90008 11.5 2.90008C16.512 2.90008 20.6 6.98808 20.6 12.0001C20.6 17.0121 16.512 21.1001 11.5 21.1001Z" fill="#3B0065"/>
</svg>
