<svg width="200" height="153" viewBox="0 0 200 153" fill="none" xmlns="http://www.w3.org/2000/svg">
<g opacity="0.8">
<path fill-rule="evenodd" clip-rule="evenodd" d="M140.975 31.0879C142.88 30.5417 143.981 28.555 143.435 26.6503C142.889 24.7457 140.902 23.6444 138.997 24.1906C137.093 24.7367 135.992 26.7235 136.538 28.6281C137.084 30.5327 139.071 31.634 140.975 31.0879ZM140.482 29.3624C141.434 29.0893 141.985 28.0959 141.712 27.1436C141.439 26.1913 140.445 25.6406 139.493 25.9137C138.541 26.1868 137.99 27.1802 138.263 28.1325C138.536 29.0848 139.53 29.6354 140.482 29.3624Z" fill="#E21569"/>
<path fill-rule="evenodd" clip-rule="evenodd" d="M116.858 64.1274C118.763 63.5813 119.864 61.5945 119.318 59.6899C118.772 57.7852 116.785 56.684 114.88 57.2301C112.976 57.7763 111.874 59.763 112.421 61.6677C112.967 63.5723 114.953 64.6736 116.858 64.1274ZM116.363 62.4026C117.316 62.1296 117.866 61.1362 117.593 60.1839C117.32 59.2316 116.327 58.6809 115.374 58.954C114.422 59.2271 113.871 60.2204 114.144 61.1728C114.418 62.1251 115.411 62.6757 116.363 62.4026Z" fill="#E21569"/>
<path fill-rule="evenodd" clip-rule="evenodd" d="M158.725 40.9267C160.63 40.3806 161.731 38.3938 161.185 36.4892C160.639 34.5846 158.652 33.4833 156.747 34.0294C154.843 34.5756 153.742 36.5623 154.288 38.467C154.834 40.3716 156.821 41.4729 158.725 40.9267ZM158.232 39.2017C159.184 38.9286 159.735 37.9353 159.462 36.983C159.189 36.0306 158.195 35.48 157.243 35.7531C156.291 36.0261 155.74 37.0195 156.013 37.9718C156.286 38.9242 157.279 39.4748 158.232 39.2017Z" fill="#E21569"/>
<path fill-rule="evenodd" clip-rule="evenodd" d="M182.839 7.88621C184.743 7.34006 185.844 5.35331 185.298 3.44867C184.752 1.54403 182.765 0.44275 180.861 0.988897C178.956 1.53504 177.855 3.5218 178.401 5.42644C178.947 7.33108 180.934 8.43236 182.839 7.88621ZM182.346 6.16077C183.299 5.8877 183.849 4.89432 183.576 3.942C183.303 2.98968 182.31 2.43904 181.357 2.71212C180.405 2.98519 179.855 3.97857 180.128 4.93089C180.401 5.88321 181.394 6.43385 182.346 6.16077Z" fill="#E21569"/>
<path d="M142.748 27.1179L156.53 34.7572L154.79 37.895L141.009 30.2557L142.748 27.1179Z" fill="#E21569"/>
<path fill-rule="evenodd" clip-rule="evenodd" d="M85.1901 46.7954C87.0947 46.2492 88.196 44.2625 87.6499 42.3578C87.1037 40.4532 85.117 39.3519 83.2123 39.8981C81.3077 40.4442 80.2064 42.431 80.7526 44.3356C81.2987 46.2403 83.2855 47.3415 85.1901 46.7954ZM84.6962 45.0715C85.6486 44.7984 86.1992 43.805 85.9261 42.8527C85.653 41.9004 84.6597 41.3497 83.7073 41.6228C82.755 41.8959 82.2044 42.8893 82.4775 43.8416C82.7505 44.7939 83.7439 45.3445 84.6962 45.0715Z" fill="#E21569"/>
<path d="M87.3789 43.0559L114.402 58.0351L112.663 61.173L85.6396 46.1937L87.3789 43.0559Z" fill="#E21569"/>
<path d="M157.674 34.5657L179.084 5.09739L181.986 7.20615L160.576 36.6744L157.674 34.5657Z" fill="#E21569"/>
<path d="M115.746 57.854L137.173 28.3628L140.075 30.4716L118.649 59.9628L115.746 57.854Z" fill="#E21569"/>
</g>
<g opacity="0.8">
<path fill-rule="evenodd" clip-rule="evenodd" d="M43.2135 70.6042C45.1182 70.0581 46.2195 68.0713 45.6733 66.1667C45.1272 64.262 43.1404 63.1608 41.2358 63.7069C39.3311 64.2531 38.2298 66.2398 38.776 68.1445C39.3221 70.0491 41.3089 71.1504 43.2135 70.6042ZM42.7201 68.8787C43.6724 68.6056 44.2231 67.6123 43.95 66.6599C43.6769 65.7076 42.6835 65.157 41.7312 65.4301C40.7789 65.7031 40.2283 66.6965 40.5013 67.6488C40.7744 68.6012 41.7678 69.1518 42.7201 68.8787Z" fill="#E21569"/>
<path fill-rule="evenodd" clip-rule="evenodd" d="M19.0964 103.644C21.001 103.098 22.1023 101.111 21.5561 99.2062C21.01 97.3016 19.0232 96.2003 17.1186 96.7465C15.2139 97.2926 14.1127 99.2794 14.6588 101.184C15.205 103.089 17.1917 104.19 19.0964 103.644ZM18.6015 101.919C19.5539 101.646 20.1045 100.653 19.8314 99.7002C19.5583 98.7479 18.565 98.1973 17.6126 98.4703C16.6603 98.7434 16.1097 99.7368 16.3828 100.689C16.6558 101.641 17.6492 102.192 18.6015 101.919Z" fill="#E21569"/>
<path fill-rule="evenodd" clip-rule="evenodd" d="M60.9635 80.4431C62.8682 79.8969 63.9695 77.9102 63.4233 76.0056C62.8772 74.1009 60.8904 72.9996 58.9858 73.5458C57.0811 74.0919 55.9798 76.0787 56.526 77.9833C57.0721 79.888 59.0589 80.9892 60.9635 80.4431ZM60.4701 78.7181C61.4224 78.445 61.973 77.4516 61.7 76.4993C61.4269 75.547 60.4335 74.9963 59.4812 75.2694C58.5289 75.5425 57.9782 76.5359 58.2513 77.4882C58.5244 78.4405 59.5178 78.9912 60.4701 78.7181Z" fill="#E21569"/>
<path fill-rule="evenodd" clip-rule="evenodd" d="M85.0788 47.4026C86.9834 46.8564 88.0847 44.8697 87.5385 42.965C86.9924 41.0604 85.0056 39.9591 83.101 40.5053C81.1964 41.0514 80.0951 43.0382 80.6412 44.9428C81.1874 46.8474 83.1741 47.9487 85.0788 47.4026ZM84.5866 45.6771C85.5389 45.4041 86.0896 44.4107 85.8165 43.4584C85.5434 42.506 84.55 41.9554 83.5977 42.2285C82.6454 42.5015 82.0948 43.4949 82.3678 44.4472C82.6409 45.3996 83.6343 45.9502 84.5866 45.6771Z" fill="#E21569"/>
<path d="M44.9863 66.6338L58.7679 74.2731L57.0286 77.4109L43.247 69.7716L44.9863 66.6338Z" fill="#E21569"/>
<path d="M59.9102 74.082L81.3201 44.6138L84.2226 46.7225L62.8126 76.1908L59.9102 74.082Z" fill="#E21569"/>
<path d="M17.9844 97.3699L39.411 67.8787L42.3134 69.9875L20.8868 99.4786L17.9844 97.3699Z" fill="#E21569"/>
</g>
<path fill-rule="evenodd" clip-rule="evenodd" d="M122.082 61.9094C122.082 60.569 123.169 59.4824 124.509 59.4824H145.138C146.478 59.4824 147.565 60.569 147.565 61.9094V64.3363H166.98C168.321 64.3363 169.407 65.4229 169.407 66.7632H180.328V75.2575H169.407C169.407 76.5978 168.321 77.6844 166.98 77.6844H147.565V80.1113C147.565 81.4517 146.478 82.5383 145.138 82.5383H124.509C123.169 82.5383 122.082 81.4517 122.082 80.1113V61.9094Z" fill="#6F2F99"/>
<path fill-rule="evenodd" clip-rule="evenodd" d="M71.8438 92.4626C81.5607 101.371 94.5124 106.807 108.734 106.807C123.045 106.807 136.071 101.302 145.808 92.2932L143.791 89.1946C134.656 97.8546 122.315 103.167 108.734 103.167C95.235 103.167 82.9619 97.9189 73.8435 89.3519L71.8438 92.4626Z" fill="#8DC9ED"/>
<path d="M99.6513 49.6953C101.111 47.4471 104.117 46.8081 106.366 48.2681C108.614 49.7281 109.253 52.7343 107.793 54.9825L63.4343 123.289C61.9743 125.537 58.9681 126.176 56.7199 124.716C54.4717 123.256 53.8327 120.25 55.2927 118.002L99.6513 49.6953Z" fill="#8DC9ED"/>
<path d="M109.899 54.9829C108.439 52.7347 109.078 49.7285 111.327 48.2685C113.575 46.8085 116.581 47.4475 118.041 49.6957L162.4 118.002C163.86 120.25 163.221 123.256 160.972 124.716C158.724 126.176 155.718 125.537 154.258 123.289L109.899 54.9829Z" fill="#8DC9ED"/>
<path d="M122.562 47.9546C122.562 55.6617 116.314 61.9095 108.607 61.9095C100.9 61.9095 94.6523 55.6617 94.6523 47.9546C94.6523 40.2476 100.9 33.9998 108.607 33.9998C116.314 33.9998 122.562 40.2476 122.562 47.9546Z" fill="#005488"/>
<path fill-rule="evenodd" clip-rule="evenodd" d="M40.8845 128.613C38.4464 126.6 38.1677 123.014 40.1166 120.524L43.8056 115.81C46.0145 112.988 50.1657 112.701 52.9455 114.964C67.5621 126.859 86.2112 133.991 106.526 133.991C127.183 133.991 146.117 126.617 160.841 114.358C163.686 111.99 168.007 112.33 170.19 115.32L173.705 120.134C175.515 122.613 175.2 126.069 172.85 128.044C154.919 143.115 131.782 152.193 106.526 152.193C81.5887 152.193 58.7186 143.343 40.8845 128.613ZM109.213 138.358C108.543 138.358 108 138.901 108 139.571V148.065C108 148.736 108.543 149.279 109.213 149.279C109.883 149.279 110.426 148.736 110.426 148.065V139.571C110.426 138.901 109.883 138.358 109.213 138.358ZM91.4829 138.339C91.5993 137.679 92.2286 137.239 92.8886 137.355C93.5486 137.471 93.9893 138.101 93.8729 138.761L92.3979 147.126C92.2816 147.786 91.6522 148.227 90.9922 148.11C90.3322 147.994 89.8915 147.364 90.0079 146.704L91.4829 138.339ZM126.182 136.142C125.522 136.258 125.081 136.888 125.198 137.548L126.673 145.913C126.789 146.573 127.418 147.014 128.078 146.897C128.738 146.781 129.179 146.151 129.063 145.491L127.588 137.126C127.471 136.466 126.842 136.026 126.182 136.142ZM142.74 131.876C142.511 131.246 142.835 130.55 143.465 130.321C144.095 130.091 144.791 130.416 145.021 131.046L147.926 139.028C148.155 139.658 147.83 140.354 147.201 140.583C146.571 140.812 145.874 140.488 145.645 139.858L142.74 131.876ZM76.4711 132.705C75.8413 132.476 75.145 132.801 74.9158 133.431L72.0105 141.413C71.7813 142.042 72.106 142.739 72.7358 142.968C73.3656 143.197 74.0619 142.872 74.2911 142.243L77.1963 134.261C77.4255 133.631 77.1008 132.935 76.4711 132.705Z" fill="#005488"/>
<path d="M103.879 50.9881C103.879 48.3074 106.052 46.1343 108.733 46.1343C111.413 46.1343 113.587 48.3074 113.587 50.9881V133.504C113.587 136.184 111.413 138.358 108.733 138.358C106.052 138.358 103.879 136.184 103.879 133.504V50.9881Z" fill="#6F2F99"/>
<path d="M94.1758 137.143C94.1758 133.792 96.8922 131.076 100.243 131.076H117.232C120.583 131.076 123.299 133.792 123.299 137.143C123.299 140.494 120.583 143.21 117.232 143.21H100.243C96.8922 143.21 94.1758 140.494 94.1758 137.143Z" fill="#6F2F99"/>
</svg>
