<?xml version="1.0" encoding="UTF-8"?>
<svg width="386px" height="406px" viewBox="0 0 193 203" version="1.1" xmlns="http://www.w3.org/2000/svg" xmlns:xlink="http://www.w3.org/1999/xlink">
    <title>RiskTerminal Square</title>
    <defs>
        <radialGradient cx="50%" cy="50%" fx="50%" fy="50%" r="68.3381071%" id="radialGradient-1">
            <stop stop-color="#3B0065" offset="0%"></stop>
            <stop stop-color="#150024" offset="100%"></stop>
        </radialGradient>
    </defs>
    <g id="RiskTerminal-Square" stroke="none" stroke-width="1" fill="none" fill-rule="evenodd">
        <rect id="Rectangle" fill="url(#radialGradient-1)" x="0" y="10" width="193" height="193" rx="14"></rect>
        <g id="Group" transform="translate(16.000000, 0.000000)">
            <g id="Logarithm" transform="translate(-12.000000, -9.000000)" fill-rule="nonzero">
                <path d="M140.770696,76.7839 C135.008696,76.7839 129.613696,78.3499 124.985696,81.0789 L114.489696,67.5749 C120.066696,61.9509 123.512696,54.2089 123.512696,45.6629 C123.512696,28.4749 109.579696,14.5419 92.3916955,14.5419 C75.2036955,14.5419 61.2706955,28.4759 61.2706955,45.6629 C61.2706955,54.2089 64.7156955,61.9509 70.2936955,67.5749 L59.7976955,81.0789 C55.1696955,78.3499 49.7736955,76.7839 44.0126955,76.7839 C26.8256955,76.7839 12.8916955,90.7169 12.8916955,107.9049 C12.8916955,125.0929 26.8246955,139.0259 44.0126955,139.0259 C61.2006955,139.0259 75.1336955,125.0929 75.1336955,107.9049 C75.1336955,99.3589 71.6886955,91.6169 66.1116955,85.9929 L76.6076955,72.4899 C81.2356955,75.2189 86.6306955,76.7849 92.3926955,76.7849 C98.1546955,76.7849 103.549696,75.2189 108.177696,72.4899 L118.673696,85.9929 C113.096696,91.6169 109.650696,99.3589 109.650696,107.9049 C109.650696,125.0929 123.583696,139.0259 140.771696,139.0259 C157.959696,139.0259 171.892696,125.0929 171.892696,107.9049 C171.892696,90.7169 157.958696,76.7839 140.770696,76.7839 Z" id="Path" fill="#1A1A1A"></path>
                <g id="Group">
                    <path d="M140.773696,106.905035 C139.581696,106.9059 138.401696,106.3739 137.612696,105.3599 L92.3916955,47.1809 L47.1706955,105.3589 C45.8156955,107.1039 43.3036955,107.4189 41.5576955,106.0629 C39.8136955,104.7069 39.4986955,102.1939 40.8546955,100.4499 L89.2336955,38.2079 C89.9916955,37.2329 91.1576955,36.6629 92.3916955,36.6629 C93.6256955,36.6629 94.7916955,37.2329 95.5496955,38.2079 L143.928696,100.4499 C145.283696,102.1939 144.969696,104.7069 143.225696,106.0629 C142.496696,106.6299 141.630696,106.905035 140.773696,106.905035 Z" id="Path" fill="#FFFFFF"></path>
                    <path d="M47.1706955,105.3589 L92.3916955,47.1809 L137.612695,105.3589 C138.401695,106.3739 139.581695,106.904838 140.773695,106.9039 C141.630696,106.9039 142.496695,106.6289 143.225695,106.0619 C143.292695,106.0099 143.357695,105.9559 143.420695,105.8999 L95.5496955,44.3119 C94.7916955,43.3369 93.6256955,42.7669 92.3916955,42.7669 C91.1576955,42.7669 89.9916955,43.3369 89.2336955,44.3119 L41.3626955,105.8999 C41.4256955,105.9559 41.4906955,106.0099 41.5576955,106.0619 C43.3036955,107.4189 45.8156955,107.1039 47.1706955,105.3589 Z" id="Path" fill="#D1D3D4"></path>
                    <g>
                        <g transform="translate(51.733107, 0.000000)">
                            <circle id="Oval" fill="#DE1A60" transform="translate(40.662699, 40.662699) rotate(-22.500428) translate(-40.662699, -40.662699) " cx="40.6626986" cy="40.6626986" r="31.1217858"></circle>
                            <path d="M60.8415888,39.7449 C60.8385888,39.7119 60.8345888,39.6799 60.8295888,39.6479 C60.8085888,39.5089 60.7735888,39.3729 60.7235888,39.2449 C60.7225888,39.2419 60.7215888,39.2399 60.7205888,39.2369 C60.7195888,39.2349 60.7185888,39.2329 60.7185888,39.2309 C60.5025888,38.6869 60.0385888,38.2609 59.4465888,38.1079 L54.9655888,36.9479 L56.7285888,33.9529 C56.8975888,33.6669 56.9795888,33.3499 56.9855888,33.0349 C56.9865888,33.0189 56.9855888,33.0039 56.9855888,32.9879 L56.9855888,30.7249 C56.9865888,30.7149 56.9855888,30.7039 56.9855888,30.6939 C57.0065888,30.2899 56.8955888,29.8839 56.6625888,29.5419 C56.6615888,29.5409 56.6605888,29.5389 56.6595888,29.5379 C56.6485888,29.5209 56.6365888,29.5049 56.6245888,29.4879 C56.6165888,29.4769 56.6085888,29.4669 56.6005888,29.4559 C56.5965888,29.4499 56.5915888,29.4449 56.5875888,29.4389 C56.5415888,29.3809 56.4935888,29.3239 56.4395888,29.2709 L53.4345888,26.2659 C53.0565888,25.8899 52.5505888,25.7019 52.0455888,25.7179 C51.7405888,25.7279 51.4345888,25.8129 51.1575888,25.9759 L46.4505888,28.7469 C46.2905888,28.6769 46.1305888,28.6099 45.9675888,28.5459 L44.5985888,23.2579 C44.4485888,22.6779 44.0355888,22.2209 43.5075888,21.9999 C43.3635888,21.9389 43.2105888,21.8969 43.0525888,21.8739 C43.0255888,21.8699 42.9975888,21.8669 42.9705888,21.8639 C42.9095888,21.8579 42.8475888,21.8539 42.7845888,21.8539 L38.5345888,21.8539 C38.4745888,21.8539 38.4155888,21.8569 38.3575888,21.8629 C38.3245888,21.8659 38.2925888,21.8699 38.2605888,21.8749 C38.1025888,21.8979 37.9495888,21.9419 37.8055888,22.0029 C37.2805888,22.2249 36.8695888,22.6799 36.7205888,23.2589 L35.3515888,28.5469 C35.1885888,28.6109 35.0285888,28.6789 34.8685888,28.7479 L30.1615888,25.9769 C29.8845888,25.8139 29.5795888,25.7289 29.2745888,25.7189 C28.7685888,25.7019 28.2625888,25.8899 27.8845888,26.2659 L24.8795888,29.2709 C24.8265888,29.3249 24.7775888,29.3809 24.7315888,29.4389 C24.7275888,29.4449 24.7225888,29.4499 24.7185888,29.4559 C24.7105888,29.4659 24.7025888,29.4769 24.6945888,29.4879 C24.6825888,29.5049 24.6705888,29.5209 24.6595888,29.5379 C24.6585888,29.5389 24.6575888,29.5399 24.6565888,29.5419 C24.4235888,29.8839 24.3125888,30.2899 24.3335888,30.6939 C24.3335888,30.7039 24.3325888,30.7139 24.3335888,30.7239 L24.3335888,33.0339 C24.3385888,33.3489 24.4215888,33.6659 24.5905888,33.9519 L26.3535888,36.9469 L21.8725888,38.1069 C21.3695888,38.2369 20.9595888,38.5649 20.7155888,38.9929 C20.7015888,39.0179 20.6885888,39.0419 20.6755888,39.0679 C20.6625888,39.0929 20.6505888,39.1169 20.6395888,39.1429 C20.5665888,39.3019 20.5165888,39.4709 20.4905888,39.6479 C20.4855888,39.6799 20.4815888,39.7129 20.4785888,39.7449 C20.4725888,39.8029 20.4695888,39.8619 20.4695888,39.9219 L20.4695888,46.5759 C20.4695888,47.4299 21.0475888,48.1759 21.8745888,48.3899 L26.3545888,49.5499 L24.5905888,52.5449 C24.3995888,52.8699 24.3155888,53.2339 24.3335888,53.5909 C24.3335888,53.5959 24.3335888,53.5999 24.3335888,53.6049 L24.3335888,55.8199 C24.3115888,56.3319 24.4995888,56.8439 24.8795888,57.2249 L27.8845888,60.2299 C28.4885888,60.8339 29.4245888,60.9529 30.1605888,60.5199 L34.8695888,57.7479 C35.0275888,57.8169 35.1885888,57.8819 35.3495888,57.9459 L36.7195888,63.2379 C36.9335888,64.0649 37.6795888,64.6419 38.5335888,64.6419 L42.7835888,64.6419 C43.6375888,64.6419 44.3835888,64.0649 44.5975888,63.2379 L45.9675888,57.9459 C46.1285888,57.8829 46.2895888,57.8169 46.4475888,57.7479 L51.1565888,60.5199 C51.8925888,60.9529 52.8285888,60.8339 53.4325888,60.2299 L56.4375888,57.2249 C56.8185888,56.8439 57.0055888,56.3309 56.9835888,55.8199 L56.9835888,53.6049 C56.9835888,53.5999 56.9835888,53.5959 56.9835888,53.5909 C57.0015888,53.2339 56.9185888,52.8699 56.7265888,52.5449 L54.9625888,49.5499 L59.4425888,48.3899 C60.2695888,48.1759 60.8475888,47.4299 60.8475888,46.5759 L60.8475888,39.9219 C60.8495888,39.8619 60.8465888,39.8029 60.8415888,39.7449 Z M33.9945888,42.0469 C33.9945888,38.3669 36.9775888,35.3829 40.6585888,35.3829 C44.3385888,35.3829 47.3225888,38.3669 47.3225888,42.0469 C47.3225888,45.7269 44.3385888,48.7109 40.6585888,48.7109 C36.9785888,48.7109 33.9945888,45.7269 33.9945888,42.0469 Z" id="Shape" fill="#BA144F"></path>
                            <g transform="translate(20.464589, 19.268900)">
                                <path d="M36.52,8.869 C36.521,8.854 36.519,8.84 36.52,8.825 C36.521,8.801 36.519,8.777 36.519,8.753 C36.518,8.713 36.517,8.674 36.514,8.634 C36.488,8.187 36.308,7.751 35.974,7.416 L32.969,4.411 C32.363,3.808 31.428,3.687 30.693,4.123 L25.984,6.894 C25.825,6.824 25.664,6.759 25.503,6.697 L24.133,1.404 C23.919,0.577 23.171,0 22.318,0 L18.068,0 C17.215,0 16.467,0.577 16.253,1.404 L14.883,6.697 C14.722,6.76 14.561,6.824 14.402,6.894 L9.693,4.123 C8.957,3.688 8.022,3.808 7.417,4.411 L4.412,7.416 C4.078,7.751 3.898,8.187 3.872,8.634 C3.869,8.674 3.867,8.713 3.867,8.753 C3.867,8.777 3.865,8.801 3.866,8.825 C3.866,8.84 3.865,8.854 3.866,8.869 L3.866,11.179 C3.871,11.495 3.954,11.811 4.122,12.097 L5.885,15.092 L1.404,16.252 C0.577,16.466 0,17.214 0,18.067 L0,24.721 C0,25.575 0.578,26.321 1.405,26.535 L5.886,27.695 L4.123,30.691 C3.948,30.986 3.867,31.313 3.867,31.639 C3.867,31.645 3.866,31.65 3.866,31.656 C3.865,31.672 3.866,31.687 3.866,31.703 C3.865,31.719 3.866,31.734 3.866,31.75 L3.866,33.965 C3.844,34.477 4.031,34.989 4.412,35.37 L7.417,38.375 C8.021,38.979 8.957,39.098 9.693,38.665 L14.402,35.893 C14.56,35.962 14.721,36.027 14.882,36.091 L16.252,41.383 C16.466,42.21 17.212,42.788 18.066,42.788 L22.316,42.788 C23.17,42.788 23.916,42.21 24.13,41.383 L25.5,36.091 C25.661,36.028 25.822,35.962 25.98,35.893 L30.689,38.665 C31.425,39.098 32.361,38.979 32.965,38.375 L35.97,35.37 C36.351,34.989 36.538,34.476 36.516,33.965 L36.516,31.75 C36.516,31.734 36.517,31.719 36.516,31.703 C36.516,31.687 36.517,31.672 36.516,31.656 C36.516,31.65 36.515,31.645 36.515,31.639 C36.515,31.314 36.434,30.987 36.259,30.691 L34.496,27.695 L38.977,26.535 C39.804,26.321 40.381,25.575 40.381,24.721 L40.381,18.067 C40.381,17.214 39.804,16.466 38.977,16.252 L34.496,15.092 L36.259,12.097 C36.428,11.811 36.51,11.494 36.516,11.179 C36.517,11.163 36.516,11.148 36.516,11.132 L36.516,8.869 L36.52,8.869 Z M20.194,26.884 C16.504,26.884 13.503,23.882 13.503,20.193 C13.503,16.503 16.505,13.502 20.194,13.502 C23.883,13.502 26.885,16.504 26.885,20.193 C26.885,23.882 23.884,26.884 20.194,26.884 Z" id="Shape" fill="#D7D7D7"></path>
                                <g transform="translate(0.002000, 0.000000)" fill="#FFFFFF">
                                    <path d="M20.192,5.69 C12.183,5.69 5.69,12.183 5.69,20.192 C5.69,28.201 12.183,34.694 20.192,34.694 C28.201,34.694 34.694,28.201 34.694,20.192 C34.694,12.183 28.202,5.69 20.192,5.69 Z M20.192,26.856 C16.512,26.856 13.528,23.873 13.528,20.192 C13.528,16.512 16.512,13.528 20.192,13.528 C23.872,13.528 26.856,16.511 26.856,20.192 C26.856,23.873 23.872,26.856 20.192,26.856 Z" id="Shape"></path>
                                    <g id="Path">
                                        <g transform="translate(14.750937, 0.000000)">
                                            <path d="M9.00606258,9.313 L1.87506258,9.313 C0.649062583,9.313 -0.246937417,8.156 0.0610625831,6.969 L1.50106258,1.405 C1.71506258,0.578 2.46106258,0 3.31506258,0 L7.56506258,0 C8.41906258,0 9.16506258,0.578 9.37906258,1.405 L10.8190626,6.969 C11.1280626,8.156 10.2320626,9.313 9.00606258,9.313 Z"></path>
                                            <path d="M1.87606258,31.071 L9.00706258,31.071 C10.2330626,31.071 11.1290626,32.228 10.8210626,33.415 L9.38106258,38.979 C9.16706258,39.806 8.42106258,40.383 7.56706258,40.383 L3.31706258,40.383 C2.46306258,40.383 1.71706258,39.806 1.50306258,38.979 L0.0630625831,33.415 C-0.245937417,32.228 0.650062583,31.071 1.87606258,31.071 Z"></path>
                                        </g>
                                        <g transform="translate(0.000000, 14.751937)">
                                            <path d="M31.071,9.00606258 L31.071,1.87506258 C31.071,0.649062583 32.228,-0.246937417 33.415,0.0610625831 L38.979,1.50106258 C39.806,1.71506258 40.383,2.46106258 40.383,3.31506258 L40.383,7.56506258 C40.383,8.41906258 39.805,9.16506258 38.979,9.38006258 L33.415,10.8200626 C32.228,11.1270626 31.071,10.2310626 31.071,9.00606258 Z"></path>
                                            <path d="M9.313,1.87506258 L9.313,9.00606258 C9.313,10.2320626 8.156,11.1280626 6.969,10.8200626 L1.405,9.38006258 C0.578,9.16606258 0,8.42006258 0,7.56506258 L0,3.31506258 C0,2.46106258 0.578,1.71506258 1.405,1.50106258 L6.969,0.0610625831 C8.156,-0.246937417 9.313,0.649062583 9.313,1.87506258 Z"></path>
                                        </g>
                                        <g transform="translate(3.863066, 3.864066)">
                                            <path d="M26.5429344,11.1569344 L21.5009344,6.11493442 C20.6339344,5.24793442 20.8189344,3.79593442 21.8749344,3.17493442 L26.8279344,0.258934419 C27.5639344,-0.174065581 28.4999344,-0.0550655813 29.1039344,0.548934419 L32.1089344,3.55393442 C32.7129344,4.15793442 32.8319344,5.09393442 32.3989344,5.82993442 L29.4829344,10.7829344 C28.8609344,11.8389344 27.4089344,12.0239344 26.5429344,11.1569344 Z"></path>
                                            <path d="M6.11493442,21.4999344 L11.1569344,26.5419344 C12.0239344,27.4089344 11.8389344,28.8609344 10.7829344,29.4819344 L5.82993442,32.3979344 C5.09393442,32.8309344 4.15793442,32.7119344 3.55393442,32.1079344 L0.548934419,29.1029344 C-0.0550655813,28.4989344 -0.174065581,27.5629344 0.258934419,26.8269344 L3.17493442,21.8739344 C3.79693442,20.8179344 5.24893442,20.6329344 6.11493442,21.4999344 Z"></path>
                                        </g>
                                        <g transform="translate(3.864066, 3.864066)">
                                            <path d="M21.4989344,26.5419344 L26.5409344,21.4999344 C27.4079344,20.6329344 28.8599344,20.8179344 29.4819344,21.8749344 L32.3979344,26.8279344 C32.8309344,27.5639344 32.7119344,28.4999344 32.1079344,29.1039344 L29.1029344,32.1089344 C28.4989344,32.7129344 27.5629344,32.8319344 26.8269344,32.3989344 L21.8739344,29.4829344 C20.8179344,28.8599344 20.6329344,27.4079344 21.4989344,26.5419344 Z"></path>
                                            <path d="M11.1569344,6.11493442 L6.11493442,11.1569344 C5.24793442,12.0239344 3.79593442,11.8389344 3.17493442,10.7829344 L0.258934419,5.82993442 C-0.174065581,5.09393442 -0.0550655813,4.15793442 0.548934419,3.55393442 L3.55393442,0.548934419 C4.15793442,-0.0550655813 5.09393442,-0.174065581 5.82993442,0.258934419 L10.7829344,3.17493442 C11.8379344,3.79593442 12.0229344,5.24793442 11.1569344,6.11493442 Z"></path>
                                        </g>
                                    </g>
                                    <path d="M20.192,32.331 C13.499,32.331 8.053,26.886 8.053,20.192 C8.053,13.499 13.498,8.053 20.192,8.053 C26.886,8.053 32.331,13.498 32.331,20.192 C32.331,26.886 26.885,32.331 20.192,32.331 Z M20.192,9.952 C14.546,9.952 9.952,14.546 9.952,20.192 C9.952,25.838 14.546,30.432 20.192,30.432 C25.838,30.432 30.432,25.839 30.432,20.192 C30.432,14.546 25.838,9.952 20.192,9.952 Z" id="Shape"></path>
                                    <path d="M20.192,30.432 C14.546,30.432 9.952,25.839 9.952,20.192 C9.952,14.546 14.545,9.952 20.192,9.952 C25.838,9.952 30.432,14.546 30.432,20.192 C30.432,25.838 25.838,30.432 20.192,30.432 Z M20.192,13.501 C16.502,13.501 13.501,16.503 13.501,20.192 C13.501,23.882 16.503,26.883 20.192,26.883 C23.881,26.883 26.883,23.881 26.883,20.192 C26.883,16.503 23.882,13.501 20.192,13.501 Z" id="Shape"></path>
                                </g>
                            </g>
                        </g>
                        <g transform="translate(0.000000, 58.892786)">
                            <g>
                                <circle id="Oval" fill="#3B0065" transform="translate(44.011318, 44.011318) rotate(-45.000000) translate(-44.011318, -44.011318) " cx="44.0113182" cy="44.0113182" r="31.1207015"></circle>
                                <path d="M64.1946955,43.0931137 C64.1916955,43.0601137 64.1876955,43.0281137 64.1826955,42.9961137 C64.1616955,42.8561137 64.1266955,42.7211137 64.0766955,42.5931137 C64.0756955,42.5901137 64.0746955,42.5881137 64.0736955,42.5851137 C64.0726955,42.5831137 64.0716955,42.5811137 64.0716955,42.5791137 C63.8556955,42.0351137 63.3916955,41.6091137 62.7996955,41.4561137 L58.3186955,40.2961137 L60.0816955,37.3011137 C60.2506955,37.0151137 60.3326955,36.6981137 60.3376955,36.3831137 C60.3386955,36.3671137 60.3376955,36.3521137 60.3376955,36.3361137 L60.3376955,34.0741137 C60.3386955,34.0641137 60.3376955,34.0541137 60.3376955,34.0431137 C60.3586955,33.6391137 60.2476955,33.2331137 60.0146955,32.8911137 C60.0136955,32.8901137 60.0126955,32.8881137 60.0116955,32.8871137 C60.0006955,32.8701137 59.9886955,32.8541137 59.9766955,32.8371137 C59.9686955,32.8261137 59.9606955,32.8161137 59.9536955,32.8051137 C59.9496955,32.7991137 59.9446955,32.7941137 59.9406955,32.7881137 C59.8956955,32.7301137 59.8466955,32.6731137 59.7926955,32.6201137 L56.7876955,29.6151137 C56.4096955,29.2391137 55.9036955,29.0511137 55.3986955,29.0671137 C55.0936955,29.0771137 54.7876955,29.1621137 54.5106955,29.3251137 L49.8036955,32.0961137 C49.6436955,32.0261137 49.4826955,31.9591137 49.3206955,31.8951137 L47.9516955,26.6071137 C47.8016955,26.0271137 47.3886955,25.5701137 46.8606955,25.3491137 C46.7166955,25.2881137 46.5636955,25.2461137 46.4056955,25.2231137 C46.3786955,25.2191137 46.3516955,25.2161137 46.3236955,25.2131137 C46.2616955,25.2071137 46.2006955,25.2031137 46.1376955,25.2031137 L41.8876955,25.2031137 C41.8276955,25.2031137 41.7686955,25.2061137 41.7106955,25.2121137 C41.6776955,25.2151137 41.6456955,25.2191137 41.6136955,25.2241137 C41.4556955,25.2471137 41.3026955,25.2911137 41.1586955,25.3511137 C40.6336955,25.5731137 40.2226955,26.0291137 40.0736955,26.6071137 L38.7046955,31.8951137 C38.5416955,31.9591137 38.3816955,32.0271137 38.2216955,32.0961137 L33.5146955,29.3251137 C33.2376955,29.1621137 32.9326955,29.0771137 32.6276955,29.0671137 C32.1216955,29.0501137 31.6156955,29.2381137 31.2376955,29.6141137 L28.2326955,32.6191137 C28.1796955,32.6731137 28.1306955,32.7291137 28.0846955,32.7871137 C28.0806955,32.7931137 28.0756955,32.7981137 28.0716955,32.8041137 C28.0636955,32.8141137 28.0556955,32.8251137 28.0476955,32.8361137 C28.0356955,32.8521137 28.0236955,32.8691137 28.0126955,32.8861137 C28.0116955,32.8871137 28.0106955,32.8891137 28.0096955,32.8901137 C27.7766955,33.2321137 27.6656955,33.6381137 27.6866955,34.0421137 C27.6866955,34.0521137 27.6866955,34.0621137 27.6866955,34.0721137 L27.6866955,36.3821137 C27.6916955,36.6971137 27.7746955,37.0141137 27.9436955,37.3001137 L29.7066955,40.2951137 L25.2256955,41.4551137 C24.7226955,41.5851137 24.3126955,41.9131137 24.0686955,42.3411137 C24.0546955,42.3661137 24.0406955,42.3901137 24.0276955,42.4161137 C24.0146955,42.4411137 24.0026955,42.4651137 23.9916955,42.4911137 C23.9196955,42.6491137 23.8686955,42.8191137 23.8426955,42.9961137 C23.8376955,43.0281137 23.8336955,43.0611137 23.8306955,43.0931137 C23.8246955,43.1511137 23.8216955,43.2101137 23.8216955,43.2701137 L23.8216955,49.9241137 C23.8216955,50.7781137 24.3986955,51.5241137 25.2256955,51.7381137 L29.7056955,52.8981137 L27.9416955,55.8931137 C27.7506955,56.2181137 27.6666955,56.5821137 27.6846955,56.9391137 C27.6846955,56.9441137 27.6846955,56.9481137 27.6846955,56.9531137 L27.6846955,59.1681137 C27.6626955,59.6801137 27.8506955,60.1921137 28.2306955,60.5731137 L31.2356955,63.5781137 C31.8396955,64.1821137 32.7756955,64.3011137 33.5116955,63.8681137 L38.2206955,61.0961137 C38.3786955,61.1651137 38.5396955,61.2301137 38.7006955,61.2941137 L40.0706955,66.5861137 C40.2846955,67.4131137 41.0306955,67.9901137 41.8846955,67.9901137 L46.1346955,67.9901137 C46.9886955,67.9901137 47.7346955,67.4131137 47.9486955,66.5861137 L49.3186955,61.2941137 C49.4796955,61.2311137 49.6406955,61.1651137 49.7986955,61.0961137 L54.5076955,63.8681137 C55.2436955,64.3011137 56.1796955,64.1821137 56.7836955,63.5781137 L59.7886955,60.5731137 C60.1696955,60.1921137 60.3566955,59.6791137 60.3346955,59.1681137 L60.3346955,56.9531137 C60.3346955,56.9481137 60.3346955,56.9441137 60.3346955,56.9391137 C60.3526955,56.5821137 60.2696955,56.2181137 60.0776955,55.8931137 L58.3136955,52.8981137 L62.7936955,51.7381137 C63.6206955,51.5241137 64.1986955,50.7781137 64.1986955,49.9241137 L64.1986955,43.2701137 C64.2036955,43.2111137 64.2006955,43.1521137 64.1946955,43.0931137 Z M37.3486955,45.3961137 C37.3486955,41.7161137 40.3316955,38.7321137 44.0126955,38.7321137 C47.6926955,38.7321137 50.6766955,41.7161137 50.6766955,45.3961137 C50.6766955,49.0761137 47.6936955,52.0601137 44.0126955,52.0601137 C40.3316955,52.0591137 37.3486955,49.0761137 37.3486955,45.3961137 Z" id="Shape" fill="#250040"></path>
                                <g transform="translate(23.820695, 22.618114)">
                                    <path d="M36.518,8.869 C36.519,8.854 36.517,8.84 36.518,8.825 C36.519,8.801 36.517,8.777 36.517,8.753 C36.516,8.713 36.515,8.674 36.512,8.634 C36.486,8.187 36.306,7.751 35.973,7.416 L32.968,4.411 C32.362,3.808 31.427,3.687 30.692,4.123 L25.983,6.894 C25.824,6.824 25.663,6.759 25.502,6.697 L24.132,1.404 C23.918,0.577 23.17,-2.84217094e-14 22.317,-2.84217094e-14 L18.067,-2.84217094e-14 C17.214,-2.84217094e-14 16.466,0.577 16.252,1.404 L14.882,6.697 C14.721,6.76 14.56,6.824 14.401,6.894 L9.692,4.123 C8.956,3.688 8.021,3.808 7.416,4.411 L4.411,7.416 C4.077,7.751 3.897,8.187 3.871,8.634 C3.868,8.674 3.866,8.713 3.866,8.753 C3.866,8.777 3.864,8.801 3.865,8.825 C3.865,8.84 3.864,8.854 3.865,8.869 L3.865,11.179 C3.87,11.495 3.953,11.811 4.122,12.097 L5.885,15.092 L1.404,16.252 C0.577,16.466 0,17.214 0,18.067 L0,24.721 C0,25.575 0.578,26.321 1.404,26.535 L5.885,27.695 L4.121,30.691 C3.946,30.986 3.865,31.313 3.865,31.639 C3.865,31.645 3.864,31.65 3.864,31.656 C3.863,31.672 3.864,31.687 3.864,31.703 C3.863,31.719 3.864,31.734 3.864,31.75 L3.864,33.965 C3.842,34.477 4.03,34.989 4.41,35.37 L7.415,38.375 C8.019,38.979 8.955,39.098 9.691,38.665 L14.4,35.893 C14.558,35.962 14.719,36.027 14.88,36.091 L16.25,41.383 C16.464,42.21 17.21,42.788 18.064,42.788 L22.314,42.788 C23.168,42.788 23.914,42.21 24.128,41.383 L25.498,36.091 C25.659,36.028 25.82,35.962 25.978,35.893 L30.687,38.665 C31.423,39.098 32.359,38.979 32.963,38.375 L35.968,35.37 C36.349,34.989 36.536,34.476 36.514,33.965 L36.514,31.75 C36.514,31.734 36.515,31.719 36.514,31.703 C36.514,31.687 36.515,31.672 36.514,31.656 C36.514,31.65 36.513,31.644 36.513,31.639 C36.513,31.314 36.431,30.987 36.257,30.691 L34.494,27.695 L38.975,26.535 C39.802,26.321 40.38,25.575 40.38,24.721 L40.38,18.067 C40.38,17.214 39.803,16.466 38.976,16.252 L34.495,15.092 L36.258,12.097 C36.427,11.811 36.509,11.494 36.515,11.179 C36.516,11.163 36.515,11.148 36.515,11.132 L36.518,8.869 Z M20.192,26.883 C16.502,26.883 13.501,23.881 13.501,20.192 C13.501,16.502 16.503,13.501 20.192,13.501 C23.882,13.501 26.883,16.503 26.883,20.192 C26.883,23.881 23.881,26.883 20.192,26.883 Z" id="Shape" fill="#D7D7D7"></path>
                                    <g transform="translate(0.001000, 0.000000)" fill="#FFFFFF">
                                        <path d="M20.191,5.689 C12.182,5.689 5.689,12.182 5.689,20.191 C5.689,28.2 12.182,34.693 20.191,34.693 C28.2,34.693 34.693,28.2 34.693,20.191 C34.693,12.182 28.2,5.689 20.191,5.689 Z M20.191,26.856 C16.511,26.856 13.527,23.872 13.527,20.192 C13.527,16.512 16.51,13.528 20.191,13.528 C23.871,13.528 26.855,16.512 26.855,20.192 C26.855,23.872 23.871,26.856 20.191,26.856 Z" id="Shape"></path>
                                        <g id="Path">
                                            <g transform="translate(14.749937, 0.000000)">
                                                <path d="M9.00606258,9.313 L1.87506258,9.313 C0.649062583,9.313 -0.246937417,8.156 0.0610625831,6.969 L1.50106258,1.405 C1.71506258,0.578 2.46106258,0 3.31506258,0 L7.56506258,0 C8.41906258,0 9.16506258,0.578 9.37906258,1.405 L10.8190626,6.969 C11.1280626,8.156 10.2320626,9.313 9.00606258,9.313 Z"></path>
                                                <path d="M1.87506258,31.071 L9.00606258,31.071 C10.2320626,31.071 11.1280626,32.228 10.8200626,33.415 L9.38006258,38.979 C9.16606258,39.806 8.42006258,40.383 7.56606258,40.383 L3.31606258,40.383 C2.46206258,40.383 1.71606258,39.806 1.50206258,38.979 L0.0620625831,33.415 C-0.245937417,32.228 0.650062583,31.071 1.87506258,31.071 Z"></path>
                                            </g>
                                            <g transform="translate(0.000000, 14.750937)">
                                                <path d="M31.069,9.00606258 L31.069,1.87506258 C31.069,0.649062583 32.226,-0.246937417 33.413,0.0610625831 L38.977,1.50106258 C39.804,1.71506258 40.382,2.46106258 40.382,3.31506258 L40.382,7.56506258 C40.382,8.41906258 39.804,9.16506258 38.977,9.37906258 L33.413,10.8190626 C32.227,11.1280626 31.069,10.2320626 31.069,9.00606258 Z"></path>
                                                <path d="M9.312,1.87506258 L9.312,9.00606258 C9.312,10.2320626 8.155,11.1280626 6.968,10.8200626 L1.404,9.38006258 C0.577,9.16606258 0,8.42006258 0,7.56606258 L0,3.31606258 C0,2.46206258 0.578,1.71606258 1.404,1.50206258 L6.968,0.0620625831 C8.155,-0.245937417 9.312,0.650062583 9.312,1.87506258 Z"></path>
                                            </g>
                                            <g transform="translate(3.862066, 3.863066)">
                                                <path d="M26.5419344,11.1569344 L21.4999344,6.11493442 C20.6329344,5.24793442 20.8179344,3.79593442 21.8739344,3.17493442 L26.8269344,0.258934419 C27.5629344,-0.174065581 28.4989344,-0.0550655813 29.1029344,0.548934419 L32.1079344,3.55393442 C32.7119344,4.15793442 32.8309344,5.09393442 32.3979344,5.82993442 L29.4819344,10.7829344 C28.8609344,11.8389344 27.4089344,12.0239344 26.5419344,11.1569344 Z"></path>
                                                <path d="M6.11493442,21.4999344 L11.1569344,26.5419344 C12.0239344,27.4089344 11.8389344,28.8599344 10.7829344,29.4819344 L5.82993442,32.3979344 C5.09393442,32.8309344 4.15793442,32.7119344 3.55393442,32.1079344 L0.548934419,29.1029344 C-0.0550655813,28.4989344 -0.174065581,27.5629344 0.258934419,26.8269344 L3.17493442,21.8739344 C3.79693442,20.8179344 5.24793442,20.6329344 6.11493442,21.4999344 Z"></path>
                                            </g>
                                            <g transform="translate(3.862066, 3.863066)">
                                                <path d="M21.4999344,26.5419344 L26.5419344,21.4999344 C27.4089344,20.6329344 28.8609344,20.8179344 29.4819344,21.8739344 L32.3979344,26.8269344 C32.8309344,27.5629344 32.7119344,28.4989344 32.1079344,29.1029344 L29.1029344,32.1079344 C28.4989344,32.7119344 27.5629344,32.8309344 26.8269344,32.3979344 L21.8739344,29.4819344 C20.8179344,28.8609344 20.6329344,27.4089344 21.4999344,26.5419344 Z"></path>
                                                <path d="M11.1569344,6.11493442 L6.11493442,11.1569344 C5.24793442,12.0239344 3.79593442,11.8389344 3.17493442,10.7829344 L0.258934419,5.82993442 C-0.174065581,5.09393442 -0.0550655813,4.15793442 0.548934419,3.55393442 L3.55393442,0.548934419 C4.15793442,-0.0550655813 5.09393442,-0.174065581 5.82993442,0.258934419 L10.7829344,3.17493442 C11.8389344,3.79693442 12.0239344,5.24793442 11.1569344,6.11493442 Z"></path>
                                            </g>
                                        </g>
                                        <path d="M20.191,32.33 C13.498,32.33 8.052,26.885 8.052,20.191 C8.052,13.498 13.497,8.052 20.191,8.052 C26.884,8.052 32.33,13.497 32.33,20.191 C32.329,26.885 26.884,32.33 20.191,32.33 Z M20.191,9.952 C14.545,9.952 9.951,14.546 9.951,20.192 C9.951,25.838 14.545,30.432 20.191,30.432 C25.837,30.432 30.431,25.839 30.431,20.192 C30.431,14.545 25.837,9.952 20.191,9.952 Z" id="Shape"></path>
                                        <path d="M20.191,30.431 C14.545,30.431 9.951,25.838 9.951,20.191 C9.951,14.545 14.545,9.951 20.191,9.951 C25.837,9.951 30.431,14.545 30.431,20.191 C30.43,25.838 25.837,30.431 20.191,30.431 Z M20.191,13.5 C16.501,13.5 13.5,16.502 13.5,20.191 C13.5,23.881 16.502,26.882 20.191,26.882 C23.881,26.882 26.882,23.88 26.882,20.191 C26.882,16.502 23.88,13.5 20.191,13.5 Z" id="Shape"></path>
                                    </g>
                                </g>
                            </g>
                            <g transform="translate(103.333498, 6.589285)">
                                <circle id="Oval" fill="#08538C" transform="translate(37.438563, 37.438563) rotate(-76.714204) translate(-37.438563, -37.438563) " cx="37.438563" cy="37.438563" r="31.1198529"></circle>
                                <path d="M57.6201976,36.503829 C57.6171976,36.470829 57.6131976,36.438829 57.6081976,36.406829 C57.5871976,36.266829 57.5521976,36.131829 57.5021976,36.003829 C57.5011976,36.000829 57.5001976,35.998829 57.4991976,35.995829 C57.4981976,35.993829 57.4971976,35.991829 57.4961976,35.989829 C57.2801976,35.445829 56.8171976,35.019829 56.2241976,34.866829 L51.7431976,33.706829 L53.5061976,30.711829 C53.6751976,30.425829 53.7571976,30.108829 53.7621976,29.793829 C53.7631976,29.777829 53.7621976,29.762829 53.7621976,29.746829 L53.7621976,27.484829 C53.7631976,27.474829 53.7621976,27.464829 53.7621976,27.453829 C53.7831976,27.049829 53.6721976,26.643829 53.4391976,26.301829 C53.4381976,26.300829 53.4371976,26.298829 53.4361976,26.297829 C53.4251976,26.280829 53.4131976,26.264829 53.4011976,26.247829 C53.3931976,26.236829 53.3851976,26.226829 53.3781976,26.215829 C53.3741976,26.209829 53.3691976,26.204829 53.3651976,26.198829 C53.3201976,26.140829 53.2711976,26.083829 53.2171976,26.030829 L50.2121976,23.025829 C49.8341976,22.649829 49.3281976,22.461829 48.8231976,22.477829 C48.5181976,22.487829 48.2121976,22.572829 47.9351976,22.735829 L43.2281976,25.506829 C43.0681976,25.436829 42.9071976,25.369829 42.7451976,25.305829 L41.3761976,20.017829 C41.2261976,19.437829 40.8131976,18.980829 40.2851976,18.759829 C40.1411976,18.698829 39.9881976,18.656829 39.8301976,18.633829 C39.8031976,18.629829 39.7751976,18.626829 39.7481976,18.623829 C39.6871976,18.617829 39.6241976,18.613829 39.5621976,18.613829 L35.3121976,18.613829 C35.2521976,18.613829 35.1931976,18.616829 35.1351976,18.622829 C35.1021976,18.625829 35.0701976,18.629829 35.0381976,18.634829 C34.8801976,18.657829 34.7271976,18.701829 34.5831976,18.761829 C34.0581976,18.983829 33.6471976,19.439829 33.4981976,20.017829 L32.1291976,25.305829 C31.9661976,25.369829 31.8061976,25.437829 31.6461976,25.506829 L26.9391976,22.735829 C26.6621976,22.572829 26.3571976,22.487829 26.0521976,22.477829 C25.5461976,22.460829 25.0401976,22.648829 24.6621976,23.024829 L21.6571976,26.029829 C21.6041976,26.083829 21.5551976,26.139829 21.5091976,26.197829 C21.5051976,26.203829 21.5001976,26.208829 21.4961976,26.214829 C21.4881976,26.224829 21.4801976,26.235829 21.4721976,26.246829 C21.4601976,26.262829 21.4481976,26.279829 21.4371976,26.296829 C21.4361976,26.297829 21.4351976,26.299829 21.4341976,26.300829 C21.2011976,26.642829 21.0901976,27.048829 21.1111976,27.452829 C21.1111976,27.462829 21.1101976,27.472829 21.1111976,27.482829 L21.1111976,29.792829 C21.1161976,30.107829 21.1991976,30.424829 21.3681976,30.710829 L23.1311976,33.705829 L18.6501976,34.865829 C18.1471976,34.995829 17.7371976,35.323829 17.4931976,35.751829 C17.4791976,35.776829 17.4661976,35.800829 17.4531976,35.826829 C17.4401976,35.851829 17.4281976,35.875829 17.4171976,35.901829 C17.3451976,36.059829 17.2941976,36.229829 17.2681976,36.406829 C17.2631976,36.438829 17.2591976,36.471829 17.2561976,36.503829 C17.2501976,36.561829 17.2471976,36.620829 17.2471976,36.680829 L17.2471976,43.334829 C17.2471976,44.188829 17.8241976,44.934829 18.6521976,45.148829 L23.1321976,46.308829 L21.3681976,49.303829 C21.1771976,49.628829 21.0931976,49.992829 21.1111976,50.349829 C21.1111976,50.354829 21.1111976,50.358829 21.1111976,50.363829 L21.1111976,52.578829 C21.0891976,53.090829 21.2771976,53.602829 21.6571976,53.983829 L24.6621976,56.988829 C25.2661976,57.592829 26.2021976,57.711829 26.9381976,57.278829 L31.6471976,54.506829 C31.8051976,54.575829 31.9661976,54.640829 32.1271976,54.704829 L33.4971976,59.996829 C33.7111976,60.823829 34.4571976,61.400829 35.3111976,61.400829 L39.5611976,61.400829 C40.4151976,61.400829 41.1611976,60.823829 41.3751976,59.996829 L42.7451976,54.704829 C42.9061976,54.641829 43.0671976,54.575829 43.2251976,54.506829 L47.9341976,57.278829 C48.6701976,57.711829 49.6061976,57.592829 50.2101976,56.988829 L53.2151976,53.983829 C53.5961976,53.602829 53.7831976,53.089829 53.7611976,52.578829 L53.7611976,50.363829 C53.7611976,50.358829 53.7611976,50.354829 53.7611976,50.349829 C53.7791976,49.992829 53.6961976,49.628829 53.5041976,49.303829 L51.7401976,46.308829 L56.2201976,45.148829 C57.0471976,44.934829 57.6251976,44.188829 57.6251976,43.334829 L57.6251976,36.680829 C57.6281976,36.621829 57.6251976,36.562829 57.6201976,36.503829 Z M30.7731976,38.806829 C30.7731976,35.126829 33.7571976,32.142829 37.4371976,32.142829 C41.1171976,32.142829 44.1011976,35.126829 44.1011976,38.806829 C44.1011976,42.486829 41.1171976,45.470829 37.4371976,45.470829 C33.7571976,45.469829 30.7731976,42.486829 30.7731976,38.806829 Z" id="Shape" fill="#0A385C"></path>
                                <g transform="translate(17.245198, 16.028829)">
                                    <path d="M36.519,8.869 C36.52,8.854 36.518,8.84 36.519,8.825 C36.52,8.801 36.518,8.777 36.518,8.753 C36.517,8.713 36.516,8.674 36.513,8.634 C36.487,8.187 36.307,7.751 35.973,7.416 L32.968,4.411 C32.362,3.808 31.427,3.687 30.692,4.123 L25.983,6.894 C25.824,6.824 25.663,6.759 25.502,6.697 L24.132,1.404 C23.918,0.577 23.17,0 22.317,0 L18.067,0 C17.214,0 16.466,0.577 16.252,1.404 L14.882,6.697 C14.721,6.76 14.56,6.824 14.401,6.894 L9.692,4.123 C8.956,3.688 8.021,3.808 7.416,4.411 L4.411,7.416 C4.077,7.751 3.897,8.187 3.871,8.634 C3.868,8.674 3.866,8.713 3.866,8.753 C3.866,8.777 3.864,8.801 3.865,8.825 C3.865,8.84 3.864,8.854 3.865,8.869 L3.865,11.179 C3.87,11.495 3.953,11.811 4.122,12.097 L5.885,15.092 L1.404,16.252 C0.577,16.466 0,17.214 0,18.067 L0,24.721 C0,25.575 0.578,26.321 1.405,26.535 L5.886,27.695 L4.122,30.691 C3.947,30.986 3.866,31.313 3.866,31.639 C3.866,31.645 3.865,31.65 3.865,31.656 C3.864,31.672 3.865,31.687 3.865,31.703 C3.864,31.719 3.865,31.734 3.865,31.75 L3.865,33.965 C3.843,34.477 4.031,34.989 4.411,35.37 L7.416,38.375 C8.02,38.979 8.956,39.098 9.692,38.665 L14.401,35.893 C14.559,35.962 14.72,36.027 14.881,36.091 L16.251,41.383 C16.465,42.21 17.211,42.788 18.065,42.788 L22.315,42.788 C23.169,42.788 23.915,42.21 24.129,41.383 L25.499,36.091 C25.66,36.028 25.821,35.962 25.979,35.893 L30.688,38.665 C31.424,39.098 32.36,38.979 32.964,38.375 L35.969,35.37 C36.35,34.989 36.537,34.476 36.515,33.965 L36.515,31.75 C36.515,31.734 36.516,31.719 36.515,31.703 C36.515,31.687 36.516,31.672 36.515,31.656 C36.515,31.65 36.514,31.644 36.514,31.639 C36.514,31.314 36.433,30.987 36.258,30.691 L34.495,27.695 L38.976,26.535 C39.803,26.321 40.381,25.575 40.381,24.721 L40.381,18.067 C40.381,17.214 39.804,16.466 38.977,16.252 L34.496,15.092 L36.259,12.097 C36.428,11.811 36.51,11.494 36.515,11.179 C36.516,11.163 36.515,11.148 36.515,11.132 L36.519,8.869 Z M20.192,26.883 C16.502,26.883 13.501,23.881 13.501,20.192 C13.501,16.502 16.503,13.501 20.192,13.501 C23.882,13.501 26.8830002,16.503 26.8830002,20.192 C26.884,23.881 23.882,26.883 20.192,26.883 Z" id="Shape" fill="#D7D7D7"></path>
                                    <g transform="translate(0.001000, 0.000000)" fill="#FFFFFF">
                                        <path d="M20.191,5.689 C12.181,5.689 5.689,12.182 5.689,20.191 C5.689,28.2 12.182,34.693 20.191,34.693 C28.2,34.693 34.693,28.2 34.693,20.191 C34.694,12.182 28.201,5.689 20.191,5.689 Z M20.191,26.856 C16.511,26.856 13.527,23.872 13.527,20.192 C13.527,16.512 16.511,13.528 20.191,13.528 C23.871,13.528 26.855,16.512 26.855,20.192 C26.855,23.872 23.872,26.856 20.191,26.856 Z" id="Shape"></path>
                                        <g id="Path">
                                            <g transform="translate(14.750937, 0.000000)">
                                                <path d="M9.00606258,9.313 L1.87506258,9.313 C0.649062583,9.313 -0.246937417,8.156 0.0610625831,6.969 L1.50106258,1.405 C1.71506258,0.578 2.46106258,0 3.31506258,0 L7.56506258,0 C8.41906258,0 9.16506258,0.578 9.37906258,1.405 L10.8190626,6.969 C11.1270626,8.156 10.2310626,9.313 9.00606258,9.313 Z"></path>
                                                <path d="M1.87506258,31.071 L9.00606258,31.071 C10.2320626,31.071 11.1280626,32.228 10.8200626,33.415 L9.38006258,38.979 C9.16606258,39.806 8.42006258,40.383 7.56606258,40.383 L3.31606258,40.383 C2.46206258,40.383 1.71606258,39.806 1.50206258,38.979 L0.0620625831,33.415 C-0.246937417,32.228 0.649062583,31.071 1.87506258,31.071 Z"></path>
                                            </g>
                                            <g transform="translate(0.000000, 14.750937)">
                                                <path d="M31.07,9.00606258 L31.07,1.87506258 C31.07,0.649062583 32.227,-0.246937417 33.414,0.0610625831 L38.978,1.50106258 C39.805,1.71506258 40.383,2.46106258 40.383,3.31506258 L40.383,7.56506258 C40.383,8.41906258 39.805,9.16506258 38.978,9.37906258 L33.414,10.8190626 C32.227,11.1280626 31.07,10.2320626 31.07,9.00606258 Z"></path>
                                                <path d="M9.313,1.87506258 L9.313,9.00606258 C9.313,10.2320626 8.156,11.1280626 6.969,10.8200626 L1.405,9.38006258 C0.578,9.16606258 0,8.42006258 0,7.56606258 L0,3.31606258 C0,2.46206258 0.578,1.71606258 1.405,1.50206258 L6.969,0.0620625831 C8.155,-0.245937417 9.313,0.650062583 9.313,1.87506258 Z"></path>
                                            </g>
                                            <g transform="translate(3.863066, 3.863066)">
                                                <path d="M26.5419344,11.1569344 L21.4999344,6.11493442 C20.6329344,5.24793442 20.8179344,3.79593442 21.8739344,3.17493442 L26.8269344,0.258934419 C27.5629344,-0.174065581 28.4989344,-0.0550655813 29.1029344,0.548934419 L32.1079344,3.55393442 C32.7119344,4.15793442 32.8309344,5.09393442 32.3979344,5.82993442 L29.4819344,10.7829344 C28.8599344,11.8389344 27.4089344,12.0239344 26.5419344,11.1569344 Z"></path>
                                                <path d="M6.11493442,21.4999344 L11.1569344,26.5419344 C12.0239344,27.4089344 11.8389344,28.8599344 10.7829344,29.4819344 L5.82993442,32.3979344 C5.09393442,32.8309344 4.15793442,32.7119344 3.55393442,32.1079344 L0.548934419,29.1029344 C-0.0550655813,28.4989344 -0.174065581,27.5629344 0.258934419,26.8269344 L3.17493442,21.8739344 C3.79593442,20.8179344 5.24793442,20.6329344 6.11493442,21.4999344 Z"></path>
                                            </g>
                                            <g transform="translate(3.863066, 3.863066)">
                                                <path d="M21.4999344,26.5419344 L26.5419344,21.4999344 C27.4089344,20.6329344 28.8609344,20.8179344 29.4819344,21.8739344 L32.3979344,26.8269344 C32.8309344,27.5629344 32.7119344,28.4989344 32.1079344,29.1029344 L29.1029344,32.1079344 C28.4989344,32.7119344 27.5629344,32.8309344 26.8269344,32.3979344 L21.8739344,29.4819344 C20.8179344,28.8609344 20.6329344,27.4089344 21.4999344,26.5419344 Z"></path>
                                                <path d="M11.1569344,6.11493442 L6.11493442,11.1569344 C5.24793442,12.0239344 3.79693442,11.8389344 3.17493442,10.7829344 L0.258934419,5.82993442 C-0.174065581,5.09393442 -0.0550655813,4.15793442 0.548934419,3.55393442 L3.55393442,0.548934419 C4.15793442,-0.0550655813 5.09393442,-0.174065581 5.82993442,0.258934419 L10.7829344,3.17493442 C11.8389344,3.79693442 12.0239344,5.24793442 11.1569344,6.11493442 Z"></path>
                                            </g>
                                        </g>
                                        <path d="M20.191,32.33 C13.498,32.33 8.052,26.885 8.052,20.191 C8.052,13.498 13.497,8.052 20.191,8.052 C26.884,8.052 32.33,13.497 32.33,20.191 C32.33,26.885 26.885,32.33 20.191,32.33 Z M20.191,9.952 C14.545,9.952 9.951,14.546 9.951,20.192 C9.951,25.838 14.544,30.432 20.191,30.432 C25.837,30.432 30.431,25.839 30.431,20.192 C30.431,14.545 25.838,9.952 20.191,9.952 Z" id="Shape"></path>
                                        <path d="M20.191,30.431 C14.545,30.431 9.951,25.838 9.951,20.191 C9.951,14.545 14.545,9.951 20.191,9.951 C25.837,9.951 30.431,14.545 30.431,20.191 C30.431,25.838 25.837,30.431 20.191,30.431 Z M20.191,13.5 C16.501,13.5 13.5,16.502 13.5,20.191 C13.5,23.881 16.502,26.882 20.191,26.882 C23.881,26.882 26.8820002,23.88 26.8820002,20.191 C26.883,16.502 23.881,13.5 20.191,13.5 Z" id="Shape"></path>
                                    </g>
                                </g>
                            </g>
                        </g>
                    </g>
                </g>
            </g>
            <ellipse id="Oval" fill="#FFFFFF" cx="130.391696" cy="92.3889" rx="9" ry="8.5"></ellipse>
            <ellipse id="Oval-Copy" fill="#FFFFFF" cx="33.3916955" cy="92.3889" rx="9" ry="8.5"></ellipse>
            <ellipse id="Oval-Copy-2" fill="#FFFFFF" cx="80.3916955" cy="30.3889" rx="9" ry="8.5"></ellipse>
        </g>
        <text id="RISK" font-family="Credmark-Regular, Credmark" font-size="54" font-weight="normal" line-spacing="54" letter-spacing="1.83473773" fill="#FFFFFF">
            <tspan x="32" y="170">RISK</tspan>
        </text>
        <text id="TERMINAL" font-family="Credmark-Regular, Credmark" font-size="23" font-weight="normal" letter-spacing="0.781462367" fill="#FFFFFF">
            <tspan x="34.2756505" y="195">TERMINAL</tspan>
        </text>
    </g>
</svg>