<svg width="22" height="21" viewBox="0 0 22 21" fill="none" xmlns="http://www.w3.org/2000/svg">
<path d="M18.7272 16.4564C19.1472 15.8084 19.3992 15.0284 19.3992 14.2004C19.3992 11.8844 17.5152 10.0004 15.1992 10.0004C12.8832 10.0004 10.9992 11.8844 10.9992 14.2004C10.9992 16.5164 12.8832 18.4004 15.1992 18.4004C16.0272 18.4004 16.8072 18.1484 17.4552 17.7284L20.5272 20.8004L21.7992 19.5284L18.7272 16.4564ZM15.1992 16.6004C13.8792 16.6004 12.7992 15.5204 12.7992 14.2004C12.7992 12.8804 13.8792 11.8004 15.1992 11.8004C16.5192 11.8004 17.5992 12.8804 17.5992 14.2004C17.5992 15.5204 16.5192 16.6004 15.1992 16.6004ZM20.3352 0.400391L21.7992 1.44439L17.1432 8.52439C16.5312 8.30839 15.8832 8.20039 15.1992 8.20039L20.3352 0.400391ZM15.1992 8.20039C14.5032 8.20039 13.8432 8.32039 13.2192 8.53639L12.2832 7.21639L8.19122 13.6484L5.21522 10.0844L1.66322 15.8564L0.199219 14.8004L4.99922 7.00039L7.99922 10.6004L12.1992 4.00039L15.1992 8.20039Z" fill="#3B0065"/>
</svg>
