<svg width="24" height="24" viewBox="0 0 24 24" fill="none" xmlns="http://www.w3.org/2000/svg">
<path d="M18.2308 13.2041L18.5948 16.1441C18.6788 16.7881 18.4548 17.4321 17.9928 17.8941L13.0228 22.8641L11.0488 16.9281L7.08678 12.9661L1.15078 10.9781L6.12078 6.0081C6.58278 5.5461 7.22678 5.3221 7.87078 5.4061L10.8108 5.7701C17.4888 -0.907902 22.9208 1.0801 22.9208 1.0801C22.9208 1.0801 24.9088 6.5121 18.2308 13.2041ZM12.2808 7.2681C10.8528 8.6961 9.71878 10.6841 9.06078 11.9581L12.0288 14.9261C13.3028 14.2821 15.3048 13.1481 16.7328 11.7061C20.6528 7.8001 21.1568 4.5381 21.1008 2.9001C19.4628 2.8441 16.2008 3.3481 12.2808 7.2681ZM17.6008 8.5001C17.6008 7.3521 16.6488 6.4001 15.5008 6.4001C14.3388 6.4001 13.4008 7.3521 13.4008 8.5001C13.4008 9.6481 14.3388 10.6001 15.5008 10.6001C16.6488 10.6001 17.6008 9.6621 17.6008 8.5001ZM9.18678 7.6881L7.60478 7.4921L5.02878 10.0541L7.29678 10.8101C7.75878 9.9281 8.40278 8.7941 9.18678 7.6881ZM13.1908 16.7041L13.9468 18.9721L16.5088 16.4101L16.3128 14.8141C15.2068 15.5981 14.0728 16.2421 13.1908 16.7041ZM5.35078 15.5001C4.48278 15.5001 3.69878 15.8501 3.12478 16.4241C1.41678 18.1321 0.800781 23.2001 0.800781 23.2001C0.800781 23.2001 5.86878 22.5841 7.57678 20.8761C8.15078 20.3021 8.50078 19.5181 8.50078 18.6501C8.50078 16.9141 7.08678 15.5001 5.35078 15.5001ZM6.09278 19.3921C5.47678 20.0081 3.47478 20.5261 3.47478 20.5261C3.47478 20.5261 3.99278 18.5241 4.60878 17.9081C5.01478 17.5021 5.68678 17.5021 6.09278 17.9081C6.49878 18.3141 6.49878 18.9861 6.09278 19.3921Z" fill="white"/>
</svg>
