<svg width="149" height="75" viewBox="0 0 149 75" fill="none" xmlns="http://www.w3.org/2000/svg">
<path d="M100.991 35.3848L100.887 35.2615V35.3848H100.991ZM100.887 34.1515L100.991 34.043H100.887V34.1515ZM90.3447 38.9455L90.3077 39.038L90.3632 39.1786L90.4211 39.038L90.3804 38.9393H90.3459L90.3447 38.9455ZM102.135 35.3725V35.2492L102.032 35.3725H102.135ZM102.135 34.1638V34.0553H102.032L102.135 34.1638ZM87.3884 43.4385L87.4192 43.4397L87.4476 43.3694L87.4599 43.3324L87.4069 43.1844L87.3477 43.3324L87.3884 43.4385ZM93.333 43.4385L93.3626 43.4373L93.37 43.4188L93.4021 43.3275L93.3404 43.1795L93.2886 43.3275L93.333 43.4385ZM126.491 39.2822L126.43 39.2045L126.422 39.3525L126.491 39.2822ZM123.511 42.368V42.31L123.481 42.3877L123.511 42.368ZM125.519 40.1319L125.512 40.1393L125.58 40.2232L125.654 40.1455L125.648 40.1381L125.519 40.1319ZM123.407 40.7067H123.439L123.513 40.6327V40.481L123.408 40.587L123.407 40.7067ZM100.991 35.3725V35.2492H100.887L100.991 35.3725Z" fill="#29B5E8"/>
<path d="M93.3512 43.4755L93.3636 43.4348L93.334 43.436L93.3512 43.4755ZM87.4312 43.4385L87.4004 43.4373L87.4127 43.478L87.4312 43.4385ZM102.149 34.1638L102.045 34.0553V34.1638H102.149ZM125.531 40.1332L125.658 40.1393L125.597 40.0653L125.531 40.1332ZM123.44 40.7313L123.408 40.719V40.7646L123.44 40.7313ZM102.033 35.3848L102.136 35.2615H102.033V35.3848ZM100.992 34.1515V34.043L100.888 34.1515H100.992Z" fill="#29B5E8"/>
<path d="M132.658 38.9107L132.663 38.8898C132.83 37.929 133.325 37.056 134.064 36.42C134.803 35.784 135.74 35.4245 136.715 35.4031C138.708 35.4599 140.378 36.9226 140.702 38.8898L140.707 38.9095L140.723 38.9983H132.642L132.659 38.912L132.658 38.9107ZM132.582 40.1638L132.576 40.0614H141.332C141.456 40.0676 141.601 40.017 141.7 39.9233C141.798 39.8296 141.854 39.7013 141.855 39.5632V39.4953C141.857 38.565 141.608 37.6514 141.134 36.8509C140.66 36.0504 139.978 35.3928 139.161 34.9475C138.344 34.5021 137.423 34.2855 136.493 34.3206C135.563 34.3556 134.66 34.641 133.879 35.1466C133.098 35.6511 132.467 36.3572 132.054 37.1903C131.64 38.0234 131.459 38.9527 131.53 39.8801C131.489 41.2918 132.006 42.6628 132.969 43.6956C133.932 44.7283 135.264 45.3396 136.675 45.3968H137.169C138.062 45.34 138.926 45.0575 139.68 44.5759C140.434 44.0942 141.054 43.4291 141.481 42.6428C141.552 42.5155 141.573 42.3669 141.54 42.2252C141.508 42.0835 141.425 41.9587 141.306 41.8744C141.19 41.8029 141.051 41.7819 140.919 41.8152C140.787 41.8485 140.675 41.9361 140.611 42.0545C139.932 43.3495 138.63 44.2042 137.157 44.3115H136.654C135.574 44.2688 134.55 43.8174 133.789 43.0486C133.028 42.2798 132.588 41.2509 132.557 40.17L132.556 40.1638M101.695 30.4205C101.159 31.1666 100.91 32.0805 100.992 32.9944V34.176H99.5827C99.5131 34.174 99.4438 34.1861 99.3789 34.2115C99.3141 34.2369 99.255 34.2752 99.2053 34.324C99.1041 34.4226 99.0474 34.5706 99.0474 34.6977C99.0438 34.8461 99.0973 34.9903 99.1969 35.1004C99.2965 35.2106 99.4346 35.2783 99.5827 35.2897H100.991V44.8899C100.984 44.9853 101.003 45.0808 101.047 45.1659C101.09 45.251 101.157 45.3223 101.239 45.372C101.32 45.4217 101.414 45.4478 101.51 45.4474C101.606 45.447 101.699 45.4201 101.78 45.3697C101.862 45.3204 101.929 45.2495 101.973 45.1649C102.017 45.0802 102.036 44.9851 102.03 44.8899V35.2897H103.537C103.686 35.2817 103.826 35.2152 103.926 35.1045C104.027 34.9939 104.08 34.8482 104.073 34.6989C104.076 34.5571 104.019 34.4214 103.918 34.3227C103.869 34.2747 103.811 34.2371 103.748 34.2121C103.684 34.1871 103.616 34.1752 103.548 34.1772H102.041V32.9957C101.983 32.3501 102.135 31.7032 102.476 31.1518C102.655 30.9871 102.868 30.8641 103.1 30.7918C103.332 30.7195 103.577 30.6996 103.818 30.7337C103.839 30.7337 103.86 30.7325 103.88 30.7288C103.904 30.7325 103.926 30.7337 103.95 30.7337H104.119C104.263 30.7289 104.4 30.6682 104.5 30.5643C104.6 30.4605 104.656 30.3217 104.655 30.1775C104.656 30.0332 104.6 29.8945 104.5 29.7907C104.4 29.6868 104.263 29.6261 104.119 29.6213H103.95C103.927 29.6213 103.905 29.6225 103.882 29.625C103.86 29.6225 103.838 29.6213 103.815 29.6213C103.426 29.59 103.035 29.6455 102.67 29.7837C102.305 29.9219 101.975 30.1394 101.704 30.4205M55.6538 39.0785C54.3958 38.6419 53.0391 38.3138 53.0391 37.247C53.0391 35.8952 54.6425 35.339 55.5009 35.339C57.6074 35.339 58.0613 37.0657 58.6508 36.5403C59.2403 36.0149 57.156 34.3301 55.6538 34.3301C54.7288 34.2907 53.8038 34.5398 53.0391 35.0405C52.6674 35.2721 52.3645 35.599 52.1617 35.9872C51.9589 36.3754 51.8637 36.8108 51.886 37.2482C51.8243 39.5138 54.5031 39.8962 55.6538 40.297C56.8045 40.6978 58.1414 41.1665 58.1538 42.2901C58.1686 43.8441 56.3235 44.3251 55.4959 44.3251C53.1353 44.3251 52.499 42.94 52.0426 43.3754C51.5863 43.8108 52.1709 44.3547 53.2587 44.8875C53.9578 45.2104 54.7151 45.3883 55.4849 45.4104C56.4373 45.4485 57.3744 45.1619 58.1427 44.5976C58.4991 44.3276 58.7886 43.9791 58.9886 43.5791C59.1886 43.1791 59.2937 42.7385 59.2959 42.2913C59.2959 40.2119 57.4976 39.726 55.6452 39.0809" fill="#29B5E8"/>
<path d="M114.879 44.3129C113.759 44.2491 112.709 43.7452 111.958 42.9108C111.207 42.0764 110.817 40.9792 110.871 39.8581C110.808 39.294 110.864 38.7228 111.036 38.182C111.209 37.6411 111.494 37.1428 111.872 36.7196C112.25 36.2963 112.714 35.9577 113.232 35.7259C113.75 35.494 114.311 35.3742 114.879 35.3742C115.446 35.3742 116.008 35.494 116.526 35.7259C117.044 35.9577 117.507 36.2963 117.886 36.7196C118.264 37.1428 118.549 37.6411 118.721 38.182C118.894 38.7228 118.95 39.294 118.887 39.8581C118.944 40.9798 118.555 42.0787 117.804 42.9138C117.053 43.7488 116.001 44.252 114.879 44.3129ZM118.888 36.4898L118.83 36.4084L118.793 36.3591C118.346 35.7369 117.759 35.2283 117.079 34.8742C116.4 34.5201 115.647 34.3304 114.881 34.3204C111.96 34.4635 109.703 36.9375 109.826 39.8704C109.703 42.7934 111.96 45.2662 114.881 45.4204C116.437 45.392 117.89 44.6286 118.793 43.3607L118.832 43.3077L118.889 43.2288V44.8777C118.882 45.0689 118.98 45.2477 119.144 45.3464C119.225 45.3949 119.317 45.4205 119.411 45.4205C119.505 45.4205 119.598 45.3949 119.678 45.3464C119.842 45.2477 119.941 45.0689 119.934 44.8777V34.8606C119.941 34.6694 119.842 34.4906 119.678 34.3919C119.598 34.3434 119.505 34.3178 119.411 34.3178C119.317 34.3178 119.225 34.3434 119.144 34.3919C118.98 34.4906 118.882 34.6694 118.889 34.8606L118.888 36.4898ZM123.451 40.7325L123.419 40.7646V30.116C123.422 30.0206 123.399 29.9262 123.353 29.8426C123.307 29.7591 123.239 29.6895 123.157 29.6413C123.075 29.593 122.981 29.5679 122.885 29.5685C122.79 29.5692 122.697 29.5955 122.615 29.6448C122.448 29.7435 122.347 29.9223 122.351 30.116V44.8568C122.348 44.9521 122.371 45.0466 122.417 45.1301C122.463 45.2137 122.531 45.2832 122.613 45.3315C122.695 45.3797 122.789 45.4048 122.884 45.4042C122.98 45.4036 123.073 45.3772 123.155 45.3279C123.322 45.2292 123.423 45.0504 123.419 44.8568V42.3099L125.598 40.0492L125.66 40.1257L125.666 40.1319L129.695 45.1811C129.785 45.3205 129.945 45.3994 130.11 45.3846C130.235 45.3882 130.358 45.3481 130.458 45.2712C130.677 45.059 130.696 44.7137 130.501 44.4794L126.363 39.2562L130.479 35.1221C130.531 35.0725 130.572 35.0129 130.6 34.9469C130.629 34.8808 130.643 34.8097 130.643 34.7379C130.643 34.666 130.629 34.5949 130.6 34.5289C130.572 34.4628 130.531 34.4032 130.479 34.3537C130.386 34.2464 130.25 34.1835 130.109 34.1835C129.967 34.1835 129.831 34.2452 129.739 34.3537L123.514 40.6536L123.451 40.7325ZM107.233 29.5708C107.092 29.5759 106.959 29.6354 106.862 29.7366C106.764 29.8378 106.71 29.9729 106.71 30.1135V44.8518C106.707 44.9472 106.729 45.0416 106.776 45.1252C106.822 45.2087 106.889 45.2783 106.972 45.3265C107.054 45.3748 107.148 45.3999 107.243 45.3993C107.339 45.3986 107.432 45.3723 107.514 45.323C107.68 45.2243 107.782 45.0442 107.778 44.8518V30.0999C107.777 29.8002 107.531 29.5573 107.233 29.5573M93.3701 43.4014L93.3627 43.4199L93.3504 43.4606L93.3356 43.4212L93.2924 43.3126L90.8911 37.3926C90.8453 37.2922 90.7717 37.2069 90.6791 37.1468C90.5864 37.0867 90.4786 37.0543 90.3682 37.0535C90.1499 37.0621 89.9562 37.1928 89.8662 37.3926L87.4057 43.473L87.3934 43.4323L84.2928 34.6756C84.2694 34.6106 84.233 34.5511 84.1858 34.5008C84.1386 34.4504 84.0816 34.4102 84.0183 34.3827C83.955 34.3552 83.8867 34.341 83.8176 34.3409C83.7486 34.3407 83.6803 34.3548 83.6169 34.3821C83.4943 34.4457 83.3998 34.5527 83.3519 34.6822C83.304 34.8118 83.3062 34.9545 83.3579 35.0826L86.9296 45.0541C86.9464 45.1085 86.9743 45.1588 87.0117 45.2017C87.0491 45.2446 87.0951 45.2792 87.1467 45.3032C87.1568 45.3167 87.1698 45.3277 87.1848 45.3354C87.1997 45.3431 87.2162 45.3473 87.233 45.3476C87.2955 45.3731 87.3618 45.3881 87.4291 45.392C87.6363 45.3797 87.8164 45.2477 87.8855 45.0541C87.8878 45.0371 87.8951 45.0213 87.9064 45.0085L90.3682 38.9035L92.8595 45.0085C92.8941 45.1015 92.9525 45.1839 93.0289 45.2473C93.1053 45.3107 93.197 45.353 93.2949 45.3698H93.3602C93.4836 45.3711 93.5822 45.3304 93.6661 45.2564C93.75 45.1824 93.8227 45.0923 93.8634 44.985L97.4154 35.0592C97.5227 34.7878 97.3969 34.4795 97.1318 34.3586C96.8641 34.2538 96.5644 34.3858 96.4571 34.6522L93.417 43.2855L93.3701 43.4014ZM62.4751 34.8717C62.4874 34.6818 62.3912 34.5017 62.2284 34.403C62.0656 34.3044 61.8621 34.3044 61.6981 34.403C61.6177 34.4507 61.552 34.5198 61.5085 34.6025C61.4649 34.6852 61.4452 34.7784 61.4514 34.8717V44.9776C61.4638 44.99 61.4712 45.0048 61.4736 45.022C61.4699 45.0467 61.4786 45.0714 61.4946 45.0911C61.5299 45.1611 61.579 45.2232 61.639 45.2736C61.699 45.3241 61.7686 45.3618 61.8436 45.3846H61.9731C62.0506 45.386 62.1272 45.3681 62.1961 45.3326C62.265 45.2971 62.324 45.245 62.3678 45.1811C62.4255 45.1092 62.463 45.0232 62.4763 44.932V38.827C62.4739 36.9807 63.9415 35.4674 65.7866 35.4131C66.6751 35.4303 67.5204 35.7993 68.1371 36.4391C68.7538 37.0789 69.0914 37.9373 69.0759 38.8258V44.8383C69.0685 45.0294 69.1672 45.2083 69.3312 45.3069C69.4118 45.3554 69.5041 45.3811 69.5982 45.3811C69.6923 45.3811 69.7846 45.3554 69.8652 45.3069C70.0293 45.2083 70.1279 45.0294 70.1205 44.8383V38.8258C70.1575 36.3887 68.2212 34.3796 65.7854 34.3266C65.1488 34.3304 64.5211 34.4765 63.9483 34.7544C63.3755 35.0322 62.8721 35.4347 62.4751 35.9324V34.8717ZM77.095 44.2981C75.976 44.2309 74.9284 43.726 74.1786 42.8927C73.4288 42.0593 73.037 40.9644 73.0879 39.8445C73.0245 39.2804 73.0808 38.7092 73.2533 38.1684C73.4257 37.6276 73.7104 37.1292 74.0887 36.706C74.467 36.2827 74.9304 35.9441 75.4485 35.7123C75.9667 35.4805 76.528 35.3606 77.0956 35.3606C77.6633 35.3606 78.2246 35.4805 78.7427 35.7123C79.2609 35.9441 79.7243 36.2827 80.1026 36.706C80.4809 37.1292 80.7656 37.6276 80.938 38.1684C81.1105 38.7092 81.1668 39.2804 81.1034 39.8445C81.1543 40.9644 80.7625 42.0593 80.0127 42.8927C79.2629 43.726 78.214 44.2309 77.095 44.2981ZM77.0963 34.3056C75.6962 34.3829 74.3824 35.0064 73.4372 36.0422C72.4921 37.078 71.9911 38.4432 72.0421 39.8445C71.8657 41.7611 72.7895 43.6111 74.4261 44.6237C76.0627 45.6362 78.131 45.635 79.7664 44.6237C81.4018 43.6123 82.3256 41.7599 82.1505 39.8445C82.2044 38.4414 81.7047 37.0732 80.7593 36.0351C79.8138 34.9969 78.4983 34.3718 77.0963 34.2945M12.4893 27.1103L20.58 31.9623C21.5025 32.5173 22.6865 32.3619 23.4352 31.5886C23.678 31.3541 23.8709 31.073 24.0023 30.762C24.1337 30.4511 24.2009 30.1168 24.1998 29.7793V20.0544C24.2167 19.6283 24.1182 19.2055 23.9147 18.8307C23.7112 18.4559 23.4102 18.143 23.0436 17.9251C22.677 17.7072 22.2584 17.5924 21.8319 17.5927C21.4054 17.593 20.987 17.7085 20.6207 17.9269C20.2542 18.1446 19.9533 18.4572 19.7497 18.8316C19.5461 19.2061 19.4473 19.6285 19.4638 20.0544V25.5884L14.8684 22.8331C14.5976 22.6718 14.2969 22.5672 13.9845 22.5254C13.672 22.4836 13.3544 22.5057 13.0507 22.5902C12.7471 22.6747 12.4637 22.8199 12.2177 23.017C11.9718 23.2142 11.7684 23.4592 11.6198 23.7372C10.9625 24.9138 11.3448 26.3987 12.4893 27.1103ZM31.9402 31.9499L40.0309 27.098C41.1779 26.3864 41.5602 24.9002 40.9016 23.7236C40.7529 23.4459 40.5495 23.2012 40.3036 23.0043C40.0577 22.8074 39.7745 22.6623 39.4709 22.578C39.1674 22.4936 38.85 22.4716 38.5377 22.5133C38.2255 22.5551 37.9249 22.6597 37.6543 22.8208L33.1193 25.5391V20.0409C33.1362 19.6147 33.0377 19.1919 32.8342 18.8171C32.6307 18.4424 32.3297 18.1295 31.9631 17.9116C31.5965 17.6936 31.1779 17.5788 30.7514 17.5791C30.3249 17.5794 29.9064 17.6949 29.5402 17.9134C29.1737 18.131 28.8728 18.4436 28.6692 18.818C28.4656 19.1925 28.3668 19.615 28.3833 20.0409V29.5745C28.334 30.0851 28.4413 30.5982 28.6916 31.0471C28.8402 31.3251 29.0436 31.5701 29.2895 31.7673C29.5355 31.9644 29.8189 32.1096 30.1225 32.1941C30.4262 32.2786 30.7438 32.3007 31.0563 32.2589C31.3687 32.2171 31.6694 32.1112 31.9402 31.9499ZM24.7376 37.4802C24.7454 37.3243 24.8048 37.1755 24.9065 37.0572L25.8525 36.073C25.9654 35.9702 26.1096 35.9085 26.262 35.8978H26.299C26.4513 35.9068 26.5957 35.9687 26.7072 36.073L27.6532 37.0572C27.7549 37.1755 27.8143 37.3243 27.8221 37.4802V37.5172C27.8149 37.6739 27.7554 37.8237 27.6532 37.9427L26.7072 38.9244C26.5951 39.0272 26.4518 39.0893 26.3002 39.1008H26.2632C26.1103 39.0918 25.9653 39.0294 25.8537 38.9244L24.9078 37.9427C24.8054 37.8231 24.7474 37.6738 24.7388 37.5172L24.7376 37.4802ZM21.8738 37.0757V37.9242C21.8844 38.1372 21.9655 38.3407 22.1044 38.5026L25.3148 41.8351C25.4666 41.9783 25.6639 42.0634 25.8722 42.0756H26.6887C26.897 42.0634 27.0944 41.9783 27.2462 41.8351L30.4565 38.5026C30.5959 38.3423 30.6785 38.1376 30.6872 37.923V37.0744C30.6768 36.861 30.5957 36.657 30.4565 36.4948L27.2462 33.1648C27.0944 33.0216 26.897 32.9364 26.6887 32.9243H25.8722C25.6639 32.9364 25.4666 33.0216 25.3148 33.1648L22.1044 36.4972C21.965 36.6576 21.8824 36.8611 21.8738 37.0757ZM8.30339 34.7866L12.8852 37.5345L8.30339 40.2811C7.15886 40.9927 6.77406 42.4789 7.43266 43.6555C7.58133 43.9334 7.78482 44.1783 8.03081 44.3753C8.2768 44.5723 8.56019 44.7174 8.86385 44.8018C9.16751 44.8862 9.48513 44.9081 9.7975 44.8662C10.1099 44.8244 10.4105 44.7196 10.6813 44.5583L18.7719 39.7064C19.1366 39.4733 19.4367 39.1522 19.6445 38.7726C19.8524 38.393 19.9614 37.9672 19.9614 37.5345C19.9614 37.1017 19.8524 36.6759 19.6445 36.2963C19.4367 35.9168 19.1366 35.5956 18.7719 35.3626L10.6813 30.5094C10.4104 30.3481 10.1097 30.2434 9.7973 30.2017C9.48488 30.1599 9.16723 30.1819 8.86356 30.2665C8.55989 30.351 8.27652 30.4962 8.03058 30.6933C7.78463 30.8905 7.58123 31.1354 7.43266 31.4134C6.77529 32.59 7.15886 34.075 8.30339 34.7866ZM32.5606 37.532C32.5538 37.9648 32.6598 38.3919 32.8683 38.7712C33.0768 39.1506 33.3805 39.469 33.7495 39.6953L41.8439 44.5472C42.1146 44.7083 42.4151 44.8129 42.7274 44.8547C43.0396 44.8964 43.3571 44.8744 43.6606 44.79C43.9641 44.7057 44.2473 44.5606 44.4932 44.3637C44.7391 44.1668 44.9426 43.9221 45.0913 43.6444C45.7499 42.4678 45.3663 40.9804 44.2205 40.27L39.6387 37.5234L44.2205 34.7755C45.3675 34.0651 45.7499 32.5802 45.0913 31.4023C44.9427 31.1245 44.7393 30.8797 44.4935 30.6826C44.2476 30.4856 43.9644 30.3405 43.6609 30.256C43.3574 30.1715 43.0399 30.1494 42.7276 30.191C42.4153 30.2327 42.1147 30.3372 41.8439 30.4983L33.7495 35.3515C33.3778 35.5793 33.0723 35.9007 32.8637 36.2836C32.655 36.6664 32.5505 37.0973 32.5606 37.5332M22.2055 42.8033C21.6468 42.6947 21.0684 42.7983 20.5812 43.0919L12.4906 47.945C11.346 48.6567 10.9612 50.1404 11.6198 51.3182C11.7685 51.5961 11.972 51.841 12.218 52.038C12.464 52.235 12.7474 52.3801 13.051 52.4645C13.3547 52.5489 13.6723 52.5708 13.9847 52.5289C14.297 52.4871 14.5977 52.3823 14.8684 52.221L19.4638 49.4657V54.9578C19.4469 55.3839 19.5455 55.8067 19.749 56.1815C19.9525 56.5563 20.2534 56.8692 20.62 57.0871C20.9866 57.305 21.4053 57.4198 21.8317 57.4195C22.2582 57.4192 22.6767 57.3037 23.043 57.0853C23.4094 56.8676 23.7103 56.555 23.9139 56.1806C24.1175 55.8061 24.2163 55.3837 24.1998 54.9578V45.2206C24.2089 44.6454 24.0135 44.0856 23.6486 43.6409C23.2836 43.1962 22.7727 42.8955 22.2068 42.7922M40.0346 47.9352L31.9439 43.0832C31.6732 42.9219 31.3725 42.8171 31.0602 42.7753C30.7478 42.7334 30.4302 42.7554 30.1265 42.8398C29.8229 42.9242 29.5395 43.0692 29.2935 43.2663C29.0475 43.4633 28.844 43.7081 28.6953 43.986C28.4464 44.435 28.3393 44.9488 28.3882 45.4599V54.9467C28.3713 55.3728 28.4698 55.7956 28.6734 56.1704C28.8769 56.5452 29.1778 56.8581 29.5444 57.076C29.911 57.2939 30.3297 57.4088 30.7561 57.4084C31.1826 57.4081 31.6011 57.2926 31.9674 57.0742C32.3338 56.8565 32.6347 56.5439 32.8383 56.1695C33.0419 55.795 33.1407 55.3726 33.1242 54.9467V49.4929L37.658 52.2111C37.9288 52.3724 38.2295 52.4771 38.5419 52.5189C38.8543 52.5606 39.172 52.5386 39.4757 52.4541C39.7793 52.3696 40.0627 52.2244 40.3086 52.0272C40.5546 51.8301 40.758 51.5851 40.9066 51.3071C41.5639 50.1305 41.1804 48.6456 40.0358 47.9339" fill="#29B5E8"/>
</svg>
