<svg width="26" height="26" viewBox="0 0 26 26" fill="none" xmlns="http://www.w3.org/2000/svg">
<path d="M21.1667 9.50008L22.625 6.29175L25.8333 4.83341L22.625 3.37508L21.1667 0.166748L19.7083 3.37508L16.5 4.83341L19.7083 6.29175L21.1667 9.50008Z" fill="white"/>
<path d="M21.1667 16.5L19.7083 19.7083L16.5 21.1667L19.7083 22.625L21.1667 25.8333L22.625 22.625L25.8333 21.1667L22.625 19.7083L21.1667 16.5Z" fill="white"/>
<path d="M12.416 10.0834L9.49935 3.66675L6.58268 10.0834L0.166016 13.0001L6.58268 15.9167L9.49935 22.3334L12.416 15.9167L18.8327 13.0001L12.416 10.0834ZM10.6543 14.1551L9.49935 16.6984L8.34435 14.1551L5.80102 13.0001L8.34435 11.8451L9.49935 9.30175L10.6543 11.8451L13.1977 13.0001L10.6543 14.1551Z" fill="white"/>
</svg>
