<svg width="120" height="120" viewBox="0 0 120 120" fill="none" xmlns="http://www.w3.org/2000/svg">
<circle cx="60" cy="60" r="50" fill="#3B0065"/>
<circle cx="60" cy="60" r="60" fill="#3B0065" fill-opacity="0.1"/>
<path d="M64.1658 80.389H56.5146V81.599H64.1658V80.389Z" fill="white"/>
<path d="M82.3955 77.8649H37.4685V79.0748H82.3955V77.8649Z" fill="white"/>
<path d="M67.0127 88.9283H53.6653C53.4606 88.9283 53.2702 88.8253 53.1588 88.6528C53.0475 88.4814 53.0307 88.2646 53.1134 88.0777L55.7172 82.2136C55.8142 81.9955 56.0309 81.8542 56.2692 81.8542H64.4077C64.6471 81.8542 64.8626 81.9944 64.9596 82.2136L67.5635 88.0777C67.6461 88.2646 67.6293 88.4814 67.518 88.6528C67.4066 88.8241 67.2163 88.9283 67.0116 88.9283H67.0127ZM54.5943 87.7183H66.0825L64.015 83.0642H56.6618L54.5943 87.7183Z" fill="white"/>
<path d="M69.0492 87.7195H50.8172V88.9294H69.0492V87.7195Z" fill="white"/>
<path d="M80.0705 83.0653H39.7946C38.1796 83.0653 36.8651 81.75 36.8651 80.1339V49.275C36.8651 47.6589 38.1796 46.3435 39.7946 46.3435H80.0705C81.6855 46.3435 83 47.6589 83 49.275V80.1339C83 81.75 81.6855 83.0653 80.0705 83.0653ZM39.7946 47.5523C38.8452 47.5523 38.0731 48.325 38.0731 49.275V80.1339C38.0731 81.0839 38.8452 81.8566 39.7946 81.8566H80.0705C81.0198 81.8566 81.7921 81.0839 81.7921 80.1339V49.275C81.7921 48.325 81.0198 47.5523 80.0705 47.5523H39.7946Z" fill="white"/>
<path d="M75.6972 72.4956H43.4508C43.1168 72.4956 42.8463 72.2248 42.8463 71.8906V56.3707H44.0554V71.2856H75.6972V72.4956Z" fill="white"/>
<path d="M50.8087 68.777H49.2679C48.4203 68.777 47.7308 68.087 47.7308 67.2388V61.0716C47.7308 60.2234 48.4203 59.5334 49.2679 59.5334H50.8087C51.6564 59.5334 52.346 60.2234 52.346 61.0716V67.2388C52.346 68.087 51.6564 68.777 50.8087 68.777ZM49.2679 60.7433C49.0896 60.7433 48.9399 60.8943 48.9399 61.0716V67.2388C48.9399 67.4173 49.0908 67.567 49.2679 67.567H50.8087C50.9871 67.567 51.1368 67.4161 51.1368 67.2388V61.0716C51.1368 60.8931 50.9859 60.7433 50.8087 60.7433H49.2679Z" fill="white"/>
<path d="M58.4121 63.1776H56.8713C56.0237 63.1776 55.3342 62.4875 55.3342 61.6394V55.4722C55.3342 54.624 56.0237 53.934 56.8713 53.934H58.4121C59.2597 53.934 59.9493 54.624 59.9493 55.4722V61.6394C59.9493 62.4875 59.2597 63.1776 58.4121 63.1776ZM56.8713 55.1439C56.6929 55.1439 56.5433 55.2949 56.5433 55.4722V61.6394C56.5433 61.8179 56.6941 61.9676 56.8713 61.9676H58.4121C58.5905 61.9676 58.7401 61.8167 58.7401 61.6394V55.4722C58.7401 55.2937 58.5893 55.1439 58.4121 55.1439H56.8713Z" fill="white"/>
<path d="M72.4623 63.1776H70.9215C70.0739 63.1776 69.3844 62.4875 69.3844 61.6394V55.4722C69.3844 54.624 70.0739 53.934 70.9215 53.934H72.4623C73.3099 53.934 73.9995 54.624 73.9995 55.4722V61.6394C73.9995 62.4875 73.3099 63.1776 72.4623 63.1776ZM70.9215 55.1439C70.7432 55.1439 70.5935 55.2949 70.5935 55.4722V61.6394C70.5935 61.8179 70.7444 61.9676 70.9215 61.9676H72.4623C72.6407 61.9676 72.7904 61.8167 72.7904 61.6394V55.4722C72.7904 55.2937 72.6395 55.1439 72.4623 55.1439H70.9215Z" fill="white"/>
<path d="M65.4372 68.777H63.8965C63.0488 68.777 62.3592 68.087 62.3592 67.2388V61.0716C62.3592 60.2234 63.0488 59.5334 63.8965 59.5334H65.4372C66.2848 59.5334 66.9744 60.2234 66.9744 61.0716V67.2388C66.9744 68.087 66.2848 68.777 65.4372 68.777ZM63.8965 60.7433C63.7181 60.7433 63.5684 60.8943 63.5684 61.0716V67.2388C63.5684 67.4173 63.7193 67.567 63.8965 67.567H65.4372C65.6156 67.567 65.7653 67.4161 65.7653 67.2388V61.0716C65.7653 60.8931 65.6144 60.7433 65.4372 60.7433H63.8965Z" fill="white"/>
<path d="M55.4728 58.2295L51.2755 63.8276L52.2427 64.5538L56.44 58.9556L55.4728 58.2295Z" fill="white"/>
<path d="M59.8546 58.2538L58.8393 58.9108L62.4578 64.51L63.4731 63.853L59.8546 58.2538Z" fill="white"/>
<path d="M69.4902 58.2438L65.8718 63.843L66.8871 64.5001L70.5056 58.9009L69.4902 58.2438Z" fill="white"/>
<path d="M63.748 44.3262C63.6391 44.0207 63.4834 43.7463 63.2919 43.5139C63.1003 43.2767 62.8764 43.0851 62.6214 42.9293C62.3664 42.7784 62.0923 42.6741 61.8002 42.619C62.042 42.5052 62.2468 42.3675 62.4251 42.2081C62.5987 42.044 62.7447 41.8655 62.8633 41.6654C62.9818 41.4642 63.068 41.2449 63.1278 41.0125C63.1865 40.7753 63.2141 40.5334 63.2141 40.2734C63.2141 39.8625 63.1506 39.4887 63.0273 39.1509C62.8992 38.813 62.7125 38.5255 62.4575 38.2883C62.2025 38.0511 61.8828 37.8678 61.4901 37.7408C61.3489 37.6905 61.1801 37.6582 61.0065 37.627V36.4087H59.9122V37.5504H59.4561V36.4087H58.3607V37.5504H56.3039V38.6417H57.1707V46.8036H58.1883V43.2384H60.1361C60.615 43.2384 61.016 43.2887 61.3405 43.3798C61.6649 43.4756 61.9379 43.617 62.1569 43.8003C62.376 43.9823 62.5448 44.2112 62.6586 44.4855C62.7723 44.7598 62.8322 45.0749 62.8322 45.4355C62.8322 45.7685 62.7687 46.0608 62.6502 46.316C62.564 46.5029 62.4538 46.6634 62.3221 46.8048H63.5816C63.6774 46.6263 63.7504 46.4394 63.8055 46.2346C63.8833 45.965 63.9192 45.6691 63.9192 45.3493C63.9192 44.9791 63.8641 44.6412 63.7504 44.331L63.748 44.3262ZM61.0292 42.1758C60.7778 42.2848 60.4498 42.3399 60.0439 42.3399H58.187V38.4548H59.8799C60.336 38.4548 60.7012 38.5004 60.9741 38.5914C61.2483 38.6777 61.4673 38.8059 61.6362 38.97C61.8097 39.1341 61.9331 39.3354 62.0097 39.563C62.0875 39.7954 62.1282 40.0565 62.1282 40.3393C62.1282 40.5992 62.0875 40.8556 62.0097 41.0976C61.9319 41.3396 61.8134 41.554 61.6494 41.7361C61.4901 41.9182 61.2794 42.0644 61.0292 42.1746V42.1758Z" fill="white"/>
<path d="M70.9754 47.1546L69.8405 46.7389C70.3206 45.4295 70.584 44.0877 70.584 42.9616C70.584 37.0831 65.806 32.3008 59.9338 32.3008C54.0615 32.3008 49.2799 37.0831 49.2799 42.9616C49.2799 44.1285 49.5361 45.469 50.0007 46.7389L48.8657 47.1546C48.3533 45.7553 48.0708 44.265 48.0708 42.9604C48.0708 36.4146 53.3923 31.0896 59.9338 31.0896C66.4752 31.0896 71.7919 36.4146 71.7919 42.9604C71.7919 44.2255 71.5022 45.7146 70.9742 47.1546H70.9754Z" fill="white"/>
</svg>
