<svg width="120" height="120" viewBox="0 0 120 120" fill="none" xmlns="http://www.w3.org/2000/svg">
<circle cx="60" cy="60" r="60" fill="#3B0065" fill-opacity="0.1"/>
<circle cx="60" cy="60" r="50" fill="#3B0065"/>
<path d="M84.3078 74.0242H36.1102C35.223 74.0242 34.5023 73.3018 34.5023 72.4151V56.1317C34.1893 55.8339 34.0097 55.4214 34.0097 54.9803V41.2565C34.0097 40.3687 34.7282 39.6475 35.611 39.6475H53.139C53.1599 39.6475 53.1797 39.6486 53.1996 39.6508H55.1063C55.1261 39.6486 55.1459 39.6475 55.1669 39.6475H65.249C65.2699 39.6475 65.2898 39.6486 65.3096 39.6508H67.2195C67.2394 39.6486 67.2592 39.6475 67.2802 39.6475H84.8092C85.6909 39.6475 86.4073 40.3698 86.4073 41.2565V54.9803C86.4073 55.4203 86.2288 55.8317 85.918 56.1306V72.4162C85.918 73.304 85.195 74.0253 84.3067 74.0253L84.3078 74.0242ZM35.611 40.7591C35.3454 40.7591 35.1217 40.9863 35.1217 41.2554V54.9792C35.1217 55.1457 35.2076 55.2979 35.352 55.3883C35.5151 55.4898 35.6143 55.6685 35.6143 55.8615V72.4151C35.6143 72.6886 35.8369 72.9114 36.1102 72.9114H84.3078C84.5778 72.9114 84.807 72.6842 84.807 72.4151V55.8615C84.807 55.6696 84.9052 55.492 85.0672 55.3905C85.2115 55.3001 85.2975 55.1468 85.2975 54.9803V41.2565C85.2975 40.9874 85.0748 40.7602 84.8114 40.7602H67.343C67.3231 40.7624 67.3033 40.7635 67.2824 40.7635H65.2512C65.2302 40.7635 65.2104 40.7624 65.1906 40.7602H55.2297C55.2098 40.7624 55.19 40.7635 55.1691 40.7635H53.1412C53.1202 40.7635 53.1004 40.7624 53.0805 40.7602H35.6132L35.611 40.7591Z" fill="white"/>
<path d="M55.168 40.7624H53.1401C52.8326 40.7624 52.5835 40.5132 52.5835 40.2055C52.5835 39.8978 52.8326 39.6453 53.1401 39.6453H55.168C55.4755 39.6453 55.7245 39.8945 55.7245 40.2022C55.7245 40.5099 55.4755 40.7624 55.168 40.7624Z" fill="white"/>
<path d="M67.2824 40.7624H65.2512C64.9437 40.7624 64.6946 40.5132 64.6946 40.2055C64.6946 39.8978 64.9437 39.6453 65.2512 39.6453H67.2824C67.5899 39.6453 67.8389 39.8945 67.8389 40.2022V40.2055C67.8389 40.5132 67.5899 40.7624 67.2824 40.7624Z" fill="white"/>
<path d="M67.2824 40.7624H65.2512C64.9437 40.7624 64.6946 40.5131 64.6946 40.2054V38.1442H55.7245V40.2054C55.7245 40.5131 55.4755 40.7624 55.168 40.7624H53.1401C52.8326 40.7624 52.5835 40.5131 52.5835 40.2054V37.2873C52.5835 36.0256 53.6085 35 54.8693 35H65.5498C66.8118 35 67.8389 36.0256 67.8389 37.2873V40.2054C67.8389 40.5131 67.5899 40.7624 67.2824 40.7624ZM65.8066 39.6485H66.7258V37.2873C66.7258 36.6399 66.1979 36.1139 65.5498 36.1139H54.8693C54.2224 36.1139 53.6967 36.6399 53.6967 37.2873V39.6485H54.6125V37.5873C54.6125 37.2796 54.8616 37.0303 55.1691 37.0303H65.2512C65.5587 37.0303 65.8078 37.2796 65.8078 37.5873V39.6485H65.8066Z" fill="white"/>
<path d="M48.1288 60.6588H45.2897C44.6273 60.6588 44.0884 60.1195 44.0884 59.4567V53.5168C44.0884 52.854 44.6273 52.3147 45.2897 52.3147H48.1288C48.7912 52.3147 49.3301 52.854 49.3301 53.5168V59.4567C49.3301 60.1195 48.7912 60.6588 48.1288 60.6588ZM45.2897 53.4275C45.2423 53.4275 45.2004 53.4694 45.2004 53.5168V59.4567C45.2004 59.5041 45.2423 59.546 45.2897 59.546H48.1288C48.1762 59.546 48.2181 59.5041 48.2181 59.4567V53.5168C48.2181 53.4694 48.1762 53.4275 48.1288 53.4275H45.2897Z" fill="white"/>
<path d="M75.1294 60.6588H72.2904C71.628 60.6588 71.0891 60.1195 71.0891 59.4567V53.5168C71.0891 52.854 71.628 52.3147 72.2904 52.3147H75.1294C75.7918 52.3147 76.3307 52.854 76.3307 53.5168V59.4567C76.3307 60.1195 75.7918 60.6588 75.1294 60.6588ZM72.2904 53.4275C72.243 53.4275 72.2011 53.4694 72.2011 53.5168V59.4567C72.2011 59.5041 72.243 59.546 72.2904 59.546H75.1294C75.1768 59.546 75.2187 59.5041 75.2187 59.4567V53.5168C75.2187 53.4694 75.1768 53.4275 75.1294 53.4275H72.2904Z" fill="white"/>
<path d="M67.3055 55.9298H53.1125V57.0437H67.3055V55.9298Z" fill="white"/>
<path d="M62.2512 87.2968H58.2109C57.9034 87.2968 57.6543 87.0476 57.6543 86.7399V83.7843C56.6811 83.5946 55.7322 83.0564 55.2143 82.7233L53.0949 84.8441C52.9902 84.9489 52.8491 85.0073 52.7014 85.0073C52.5537 85.0073 52.4127 84.9489 52.308 84.8441L48.8451 81.3757C48.628 81.1584 48.628 80.8055 48.8451 80.5882L50.9502 78.4818C50.6295 78.0021 50.1456 77.1374 49.9197 76.0291H46.9517C46.6442 76.0291 46.3952 75.7798 46.3952 75.4721V73.4672C46.3952 73.3117 46.4602 73.1639 46.5737 73.0591C46.6872 72.9544 46.8393 72.9014 46.9936 72.9124C47.0255 72.9147 47.0586 72.9147 47.0917 72.9147H73.3241C73.3572 72.9147 73.3924 72.9147 73.4255 72.9124C73.5798 72.9003 73.7319 72.9544 73.8454 73.0591C73.9589 73.165 74.024 73.3128 74.024 73.4672V75.5163C74.024 75.824 73.7749 76.0732 73.4674 76.0732H70.4256C70.365 76.7592 70.1434 77.9105 69.372 78.7421L71.4836 80.8551C71.7007 81.0724 71.7007 81.4253 71.4836 81.6426L68.3779 84.7548C68.2732 84.8595 68.1321 84.918 67.9844 84.918C67.8367 84.918 67.6956 84.8595 67.5909 84.7548L65.4793 82.6417C64.6472 83.4148 63.4955 83.6354 62.8089 83.6961V86.7399C62.8089 87.0476 62.5598 87.2968 62.2523 87.2968H62.2512ZM58.7674 86.183H61.6958V83.1601C61.6958 83.009 61.7575 82.8634 61.8666 82.7586C61.9757 82.6539 62.1212 82.5976 62.2744 82.6042C62.292 82.6042 64.2053 82.6594 64.9933 81.5113C65.087 81.3746 65.2368 81.2874 65.401 81.272C65.5675 81.2577 65.7284 81.3161 65.8452 81.433L67.9833 83.5725L70.3032 81.2477L68.1651 79.1071C68.0483 78.9902 67.9899 78.827 68.0042 78.6627C68.0197 78.4983 68.1067 78.3484 68.2434 78.2546C69.3907 77.4661 69.3356 75.5548 69.3345 75.5361C69.329 75.385 69.3852 75.2372 69.4899 75.1292C69.5946 75.02 69.7389 74.9582 69.8899 74.9582H72.9108V74.0263H47.5072V74.9152H50.3914C50.6724 74.9152 50.9094 75.1247 50.9436 75.4038C51.1431 77.0393 52.0931 78.1631 52.103 78.1741C52.2926 78.3947 52.2793 78.7244 52.0743 78.9307L50.0255 80.9809L52.7014 83.6608L54.7536 81.6073C54.9497 81.411 55.2594 81.39 55.481 81.5554C55.4953 81.5665 56.9986 82.6792 58.2362 82.7355C58.5338 82.7487 58.7674 82.9935 58.7674 83.2913V86.1807V86.183Z" fill="white"/>
<path d="M60.209 79.0046C58.7917 79.0046 57.3744 78.4653 56.2943 77.3867C55.2484 76.3401 54.6731 74.9494 54.6731 73.4705C54.6731 73.1628 54.9222 72.9136 55.2297 72.9136H65.185C65.4925 72.9136 65.7416 73.1628 65.7416 73.4705C65.7416 74.9538 65.1652 76.3445 64.1193 77.3867C63.0414 78.4653 61.6252 79.0046 60.209 79.0046ZM55.8204 74.0274C55.9417 74.9979 56.3781 75.8957 57.0812 76.5993C58.806 78.3219 61.612 78.323 63.3335 76.5993C64.0367 75.8979 64.4731 75.0002 64.5943 74.0274H55.8204Z" fill="white"/>
<path d="M81.4313 84.0115H80.3181V85.2081H81.4313V84.0115Z" fill="white"/>
<path d="M45.4319 76.3523H44.3188V79.5572H45.4319V76.3523Z" fill="white"/>
<path d="M76.9986 75.653H75.8855V80.4503H76.9986V75.653Z" fill="white"/>
<path d="M40.101 82.0959H38.9879V79.1679C38.9879 79.0201 39.0463 78.8789 39.151 78.7742L40.4515 77.4728V73.4717H41.5646V77.7033C41.5646 77.8511 41.5062 77.9922 41.4015 78.097L40.101 79.3984V82.0959Z" fill="white"/>
<path d="M81.4313 73.4717H80.3181V78.0441H81.4313V73.4717Z" fill="white"/>
<path d="M45.4319 83.4919H44.3188V84.6874H45.4319V83.4919Z" fill="white"/>
<path d="M43.7556 80.2452H42.6424V82.4388H43.7556V80.2452Z" fill="white"/>
<path d="M75.3961 83.4138H74.283V84.6093H75.3961V83.4138Z" fill="white"/>
<path d="M78.2957 82.119H77.1826V84.6092H78.2957V82.119Z" fill="white"/>
<path d="M80.8747 81.2566C79.8332 81.2566 78.9857 80.4085 78.9857 79.3663C78.9857 78.3242 79.8332 77.4761 80.8747 77.4761C81.9162 77.4761 82.7637 78.3242 82.7637 79.3663C82.7637 80.4085 81.9162 81.2566 80.8747 81.2566ZM80.8747 78.5899C80.4471 78.5899 80.0988 78.9384 80.0988 79.3663C80.0988 79.7943 80.4471 80.1427 80.8747 80.1427C81.3023 80.1427 81.6506 79.7943 81.6506 79.3663C81.6506 78.9384 81.3023 78.5899 80.8747 78.5899Z" fill="white"/>
<path d="M39.5444 85.3184C38.5029 85.3184 37.6554 84.4703 37.6554 83.4281C37.6554 82.3859 38.5029 81.5378 39.5444 81.5378C40.5859 81.5378 41.4335 82.3859 41.4335 83.4281C41.4335 84.4703 40.5859 85.3184 39.5444 85.3184ZM39.5444 82.6517C39.1168 82.6517 38.7685 83.0002 38.7685 83.4281C38.7685 83.856 39.1168 84.2045 39.5444 84.2045C39.972 84.2045 40.3203 83.856 40.3203 83.4281C40.3203 83.0002 39.972 82.6517 39.5444 82.6517Z" fill="white"/>
</svg>
