<svg width="120" height="120" viewBox="0 0 120 120" fill="none" xmlns="http://www.w3.org/2000/svg">
<circle cx="60" cy="60" r="50" fill="#3B0065"/>
<circle cx="60" cy="60" r="60" fill="#3B0065" fill-opacity="0.1"/>
<path d="M48.0801 53.407C48.0801 52.822 47.8457 52.324 47.377 51.913C46.9096 51.5019 46.1335 51.1174 45.0423 50.811C43.5569 50.3924 42.4242 49.8894 41.6632 49.2262C40.9022 48.5643 40.5242 47.683 40.5242 46.5798C40.5242 45.4766 40.8732 44.6357 41.5762 43.9637C42.2793 43.2879 43.2406 42.8819 44.4666 42.747V40.5986H46.2179V42.7558C47.4501 42.8996 48.4089 43.3434 49.0918 44.0885C49.7747 44.8336 50.1174 45.8334 50.1174 47.0854H47.9465C47.9465 46.2608 47.7134 45.5914 47.2473 45.0795C46.7849 44.5676 46.1423 44.3104 45.3195 44.3104C44.4502 44.3104 43.795 44.5121 43.3616 44.9093C42.9256 45.3064 42.7051 45.8536 42.7051 46.5496C42.7051 47.1787 42.9319 47.6868 43.3805 48.0751C43.8303 48.4634 44.6367 48.8404 45.8084 49.1833C47.3103 49.6233 48.4342 50.1441 49.1649 50.782C49.8957 51.4212 50.2598 52.2912 50.2598 53.3843C50.2598 54.4774 49.8806 55.3864 49.1183 56.0446C48.3586 56.7027 47.3141 57.0948 45.9848 57.2171V59.0856H44.2473V57.2284C42.976 57.1112 41.9328 56.7027 41.1214 56.0067C40.3087 55.3108 39.9194 54.287 39.9496 52.9367L39.9698 52.8901H42.0777C42.0777 53.8873 42.3637 54.6009 42.9395 55.0246C43.5153 55.4482 44.2183 55.6625 45.0436 55.6625C45.9961 55.6625 46.742 55.4633 47.2775 55.0637C47.8105 54.6665 48.0801 54.113 48.0801 53.4057V53.407Z" fill="white"/>
<path d="M45.1054 64.7037C36.917 64.7037 30.2543 58.0379 30.2543 49.8428C30.2543 41.6476 36.917 34.9819 45.1054 34.9819C53.2938 34.9819 59.9565 41.6476 59.9565 49.8428C59.9565 58.0379 53.2938 64.7037 45.1054 64.7037ZM45.1054 36.2553C37.6188 36.2553 31.5269 42.3512 31.5269 49.8428C31.5269 57.3344 37.6188 63.4303 45.1054 63.4303C52.592 63.4303 58.6839 57.3344 58.6839 49.8428C58.6839 42.3512 52.592 36.2553 45.1054 36.2553Z" fill="white"/>
<path d="M66.0307 63.458H64.7581V69.3497H66.0307V63.458Z" fill="white"/>
<path d="M67.9659 69.0912C67.6673 68.7836 67.5186 68.3524 67.5186 67.8014V64.9974C67.5186 64.4427 67.6686 64.0128 67.9685 63.7051C68.2683 63.3988 68.7043 63.2449 69.2788 63.2449C69.8533 63.2449 70.2931 63.3975 70.5904 63.7039C70.889 64.009 71.0377 64.4402 71.0377 64.9974V67.8014C71.0377 68.3562 70.8878 68.7861 70.5879 69.0938C70.288 69.4001 69.8521 69.5539 69.2775 69.5539C68.703 69.5539 68.2633 69.4001 67.9647 69.0912H67.9659ZM69.9541 68.4911C70.1003 68.331 70.1721 68.1015 70.1721 67.8014V64.9974C70.1721 64.6974 70.1003 64.4679 69.9554 64.3078C69.8118 64.1477 69.585 64.0682 69.2775 64.0682C68.9701 64.0682 68.7433 64.1477 68.5984 64.3078C68.4548 64.4679 68.3817 64.6974 68.3817 64.9974V67.8014C68.3817 68.1015 68.4548 68.331 68.5997 68.4911C68.7458 68.6512 68.9701 68.7306 69.2763 68.7306C69.5825 68.7306 69.8067 68.6512 69.9529 68.4911H69.9541Z" fill="white"/>
<path d="M72.9642 63.458H71.6917V69.3497H72.9642V63.458Z" fill="white"/>
<path d="M74.8995 69.0912C74.6009 68.7836 74.4522 68.3524 74.4522 67.8014V64.9974C74.4522 64.4427 74.6021 64.0128 74.902 63.7051C75.2019 63.3988 75.6378 63.2449 76.2124 63.2449C76.7869 63.2449 77.2266 63.3975 77.524 63.7039C77.8226 64.009 77.9712 64.4402 77.9712 64.9974V67.8014C77.9712 68.3562 77.8213 68.7861 77.5214 69.0938C77.2216 69.4001 76.7856 69.5539 76.2111 69.5539C75.6366 69.5539 75.1968 69.4001 74.8982 69.0912H74.8995ZM76.8877 68.4911C77.0338 68.331 77.1056 68.1015 77.1056 67.8014V64.9974C77.1056 64.6974 77.0338 64.4679 76.8889 64.3078C76.7453 64.1477 76.5185 64.0682 76.2111 64.0682C75.9037 64.0682 75.6769 64.1477 75.532 64.3078C75.3883 64.4679 75.3153 64.6974 75.3153 64.9974V67.8014C75.3153 68.1015 75.3883 68.331 75.5332 68.4911C75.6794 68.6512 75.9037 68.7306 76.2098 68.7306C76.516 68.7306 76.7403 68.6512 76.8864 68.4911H76.8877Z" fill="white"/>
<path d="M79.8977 63.458H78.6251V69.3497H79.8977V63.458Z" fill="white"/>
<path d="M81.833 69.0912C81.5344 68.7836 81.3857 68.3524 81.3857 67.8014V64.9974C81.3857 64.4427 81.5357 64.0128 81.8355 63.7051C82.1354 63.3988 82.5714 63.2449 83.1459 63.2449C83.7204 63.2449 84.1601 63.3975 84.4575 63.7039C84.7561 64.009 84.9048 64.4402 84.9048 64.9974V67.8014C84.9048 68.3562 84.7548 68.7861 84.455 69.0938C84.1551 69.4001 83.7192 69.5539 83.1446 69.5539C82.5701 69.5539 82.1303 69.4001 81.8317 69.0912H81.833ZM83.8212 68.4911C83.9674 68.331 84.0392 68.1015 84.0392 67.8014V64.9974C84.0392 64.6974 83.9674 64.4679 83.8225 64.3078C83.6788 64.1477 83.4521 64.0682 83.1446 64.0682C82.8372 64.0682 82.6104 64.1477 82.4655 64.3078C82.3219 64.4679 82.2488 64.6974 82.2488 64.9974V67.8014C82.2488 68.1015 82.3219 68.331 82.4668 68.4911C82.6129 68.6512 82.8372 68.7306 83.1434 68.7306C83.4495 68.7306 83.6738 68.6512 83.8199 68.4911H83.8212Z" fill="white"/>
<path d="M66.0307 70.9294H64.7581V76.8211H66.0307V70.9294Z" fill="white"/>
<path d="M67.9659 76.5614C67.6673 76.2538 67.5186 75.8226 67.5186 75.2717V72.4677C67.5186 71.9129 67.6686 71.483 67.9685 71.1754C68.2683 70.869 68.7043 70.7151 69.2788 70.7151C69.8533 70.7151 70.2931 70.8677 70.5904 71.1741C70.889 71.4792 71.0377 71.9104 71.0377 72.4677V75.2717C71.0377 75.8264 70.8878 76.2563 70.5879 76.564C70.288 76.8703 69.8521 77.0241 69.2775 77.0241C68.703 77.0241 68.2633 76.8703 67.9647 76.5614H67.9659ZM69.9541 75.9613C70.1003 75.8012 70.1721 75.5717 70.1721 75.2717V72.4677C70.1721 72.1676 70.1003 71.9381 69.9554 71.778C69.8118 71.6179 69.585 71.5384 69.2775 71.5384C68.9701 71.5384 68.7433 71.6179 68.5984 71.778C68.4548 71.9381 68.3817 72.1676 68.3817 72.4677V75.2717C68.3817 75.5717 68.4548 75.8012 68.5997 75.9613C68.7458 76.1214 68.9701 76.2008 69.2763 76.2008C69.5825 76.2008 69.8067 76.1214 69.9529 75.9613H69.9541Z" fill="white"/>
<path d="M72.9642 70.9294H71.6917V76.8211H72.9642V70.9294Z" fill="white"/>
<path d="M74.8995 76.5614C74.6009 76.2538 74.4522 75.8226 74.4522 75.2717V72.4677C74.4522 71.9129 74.6021 71.483 74.902 71.1754C75.2019 70.869 75.6378 70.7151 76.2124 70.7151C76.7869 70.7151 77.2266 70.8677 77.524 71.1741C77.8226 71.4792 77.9712 71.9104 77.9712 72.4677V75.2717C77.9712 75.8264 77.8213 76.2563 77.5214 76.564C77.2216 76.8703 76.7856 77.0241 76.2111 77.0241C75.6366 77.0241 75.1968 76.8703 74.8982 76.5614H74.8995ZM76.8877 75.9613C77.0338 75.8012 77.1056 75.5717 77.1056 75.2717V72.4677C77.1056 72.1676 77.0338 71.9381 76.8889 71.778C76.7453 71.6179 76.5185 71.5384 76.2111 71.5384C75.9037 71.5384 75.6769 71.6179 75.532 71.778C75.3883 71.9381 75.3153 72.1676 75.3153 72.4677V75.2717C75.3153 75.5717 75.3883 75.8012 75.5332 75.9613C75.6794 76.1214 75.9037 76.2008 76.2098 76.2008C76.516 76.2008 76.7403 76.1214 76.8864 75.9613H76.8877Z" fill="white"/>
<path d="M79.8977 70.9294H78.6251V76.8211H79.8977V70.9294Z" fill="white"/>
<path d="M81.833 76.5614C81.5344 76.2538 81.3857 75.8226 81.3857 75.2717V72.4677C81.3857 71.9129 81.5357 71.483 81.8355 71.1754C82.1354 70.869 82.5714 70.7151 83.1459 70.7151C83.7204 70.7151 84.1601 70.8677 84.4575 71.1741C84.7561 71.4792 84.9048 71.9104 84.9048 72.4677V75.2717C84.9048 75.8264 84.7548 76.2563 84.455 76.564C84.1551 76.8703 83.7192 77.0241 83.1446 77.0241C82.5701 77.0241 82.1303 76.8703 81.8317 76.5614H81.833ZM83.8212 75.9613C83.9674 75.8012 84.0392 75.5717 84.0392 75.2717V72.4677C84.0392 72.1676 83.9674 71.9381 83.8225 71.778C83.6788 71.6179 83.4521 71.5384 83.1446 71.5384C82.8372 71.5384 82.6104 71.6179 82.4655 71.778C82.3219 71.9381 82.2488 72.1676 82.2488 72.4677V75.2717C82.2488 75.5717 82.3219 75.8012 82.4668 75.9613C82.6129 76.1214 82.8372 76.2008 83.1434 76.2008C83.4495 76.2008 83.6738 76.1214 83.8199 75.9613H83.8212Z" fill="white"/>
<path d="M75.1489 84.9948C66.9605 84.9948 60.2979 78.329 60.2979 70.1339C60.2979 61.9388 66.9605 55.2729 75.1489 55.2729C83.3374 55.2729 90 61.9388 90 70.1339C90 78.329 83.3374 84.9948 75.1489 84.9948ZM75.1489 56.5464C67.6623 56.5464 61.5704 62.6423 61.5704 70.1339C61.5704 77.6255 67.6623 83.7214 75.1489 83.7214C82.6356 83.7214 88.7274 77.6255 88.7274 70.1339C88.7274 62.6423 82.6356 56.5464 75.1489 56.5464Z" fill="white"/>
<path d="M53.0443 80.2227C48.981 78.74 45.753 76.5437 43.4498 73.6969C41.0584 70.7416 39.7833 67.2278 39.6586 63.2512L40.9299 63.2109C41.1592 70.5398 45.6169 76.1554 53.4803 79.0262L53.0443 80.2215V80.2227Z" fill="white"/>
<path d="M55.214 83.057C54.9053 83.057 54.5916 83.004 54.2867 82.8918C53.605 82.6435 53.0607 82.1429 52.7546 81.4848C52.4484 80.8267 52.4169 80.0878 52.6651 79.4057C52.9133 78.7237 53.4135 78.179 54.0712 77.8726C54.7289 77.5663 55.4672 77.5347 56.1489 77.7831C57.5562 78.2963 58.2832 79.8596 57.7704 81.2679C57.3685 82.3699 56.3253 83.0545 55.2152 83.0545L55.214 83.057ZM55.2165 78.8926C55.0086 78.8926 54.802 78.938 54.6079 79.0288C54.2577 79.1914 53.9931 79.4814 53.8608 79.8433C53.7285 80.2064 53.7449 80.5985 53.9087 80.949C54.0712 81.2995 54.361 81.5642 54.7226 81.6966C55.471 81.9702 56.3013 81.5831 56.5747 80.8342C56.8481 80.0853 56.4613 79.2545 55.7129 78.9809C55.5516 78.9216 55.3841 78.8926 55.2177 78.8926H55.2165Z" fill="white"/>
<path d="M79.2085 56.7254C78.9792 49.3952 74.563 43.7935 66.774 40.9504L67.21 39.7552C75.5206 42.7886 80.2341 48.8014 80.481 56.6863L79.2098 56.7267L79.2085 56.7254Z" fill="white"/>
<path d="M65.0353 42.3574C64.7266 42.3574 64.4129 42.3045 64.1067 42.1923C62.6993 41.6791 61.9723 40.1158 62.4851 38.7075C62.9979 37.2992 64.5603 36.5717 65.9677 37.0848C66.6493 37.3332 67.1936 37.8337 67.4998 38.4919C67.8059 39.15 67.8374 39.8888 67.5892 40.5709C67.1873 41.6728 66.144 42.3574 65.034 42.3574H65.0353ZM63.6808 39.1437C63.4074 39.8926 63.7942 40.7234 64.5426 40.997C65.2911 41.2706 66.1214 40.8836 66.3948 40.1346C66.5271 39.7715 66.5107 39.3794 66.3469 39.0289C66.1844 38.6784 65.8946 38.4137 65.533 38.2813C64.7846 38.009 63.9543 38.3948 63.6808 39.1437Z" fill="white"/>
</svg>
