<svg width="120" height="120" viewBox="0 0 120 120" fill="none" xmlns="http://www.w3.org/2000/svg">
<circle cx="60" cy="60" r="50" fill="#3B0065"/>
<circle cx="60" cy="60" r="60" fill="#3B0065" fill-opacity="0.1"/>
<path d="M60.3279 72.7377H59.144V80.5915H60.3279V72.7377Z" fill="white"/>
<path d="M41.6559 69.4126H40.472V74.1535H41.6559V69.4126Z" fill="white"/>
<path d="M79 69.4126H77.8162V74.1535H79V69.4126Z" fill="white"/>
<path d="M41.6559 45.1813H40.472V49.9222H41.6559V45.1813Z" fill="white"/>
<path d="M79 45.1813H77.8162V49.9222H79V45.1813Z" fill="white"/>
<path d="M59.7348 87.9563C57.5429 87.9563 55.7589 86.1711 55.7589 83.9778C55.7589 81.7844 57.5429 79.9993 59.7348 79.9993C61.9267 79.9993 63.7106 81.7844 63.7106 83.9778C63.7106 86.1711 61.9267 87.9563 59.7348 87.9563ZM59.7348 81.1827C58.1946 81.1827 56.9416 82.4366 56.9416 83.9778C56.9416 85.519 58.1946 86.7728 59.7348 86.7728C61.275 86.7728 62.528 85.519 62.528 83.9778C62.528 82.4366 61.275 81.1827 59.7348 81.1827Z" fill="white"/>
<path d="M48.5421 78.9601L47.7052 78.1226L49.8068 76.0196V70.5854H50.9906V76.2647C50.9906 76.4219 50.9285 76.572 50.8172 76.6834L48.5421 78.9601Z" fill="white"/>
<path d="M45.7313 84.9148C43.5383 84.9148 41.7554 83.1296 41.7554 80.9363C41.7554 78.7429 43.5394 76.9578 45.7313 76.9578C47.9232 76.9578 49.7072 78.7429 49.7072 80.9363C49.7072 83.1296 47.9232 84.9148 45.7313 84.9148ZM45.7313 78.1412C44.1911 78.1412 42.9381 79.3951 42.9381 80.9363C42.9381 82.4775 44.1911 83.7313 45.7313 83.7313C47.2715 83.7313 48.5245 82.4775 48.5245 80.9363C48.5245 79.3951 47.2715 78.1412 45.7313 78.1412Z" fill="white"/>
<path d="M70.9287 78.9601L68.6536 76.6834C68.5422 76.572 68.4801 76.4219 68.4801 76.2647V70.5854H69.664V76.0196L71.7656 78.1226L70.9287 78.9601Z" fill="white"/>
<path d="M73.7394 84.9148C71.5464 84.9148 69.7636 83.1296 69.7636 80.9363C69.7636 78.7429 71.5476 76.9578 73.7394 76.9578C75.9313 76.9578 77.7153 78.7429 77.7153 80.9363C77.7153 83.1296 75.9313 84.9148 73.7394 84.9148ZM73.7394 78.1412C72.1993 78.1412 70.9462 79.3951 70.9462 80.9363C70.9462 82.4775 72.1993 83.7313 73.7394 83.7313C75.2796 83.7313 76.5327 82.4775 76.5327 80.9363C76.5327 79.3951 75.2796 78.1412 73.7394 78.1412Z" fill="white"/>
<path d="M73.9281 45.1672H71.4373V47.6597H73.9281V45.1672Z" fill="white"/>
<path d="M45.5415 47.6608H48.0323V45.1683H45.5415V47.6608Z" fill="white"/>
<path d="M50.3999 60.4901C50.298 60.4901 50.196 60.4631 50.1046 60.4104L40.7685 55.0161C40.5857 54.9106 40.4731 54.7147 40.4731 54.5036C40.4731 54.2925 40.5857 54.0966 40.7685 53.991L50.1046 48.598C50.2874 48.4924 50.5137 48.4924 50.6965 48.598L60.0326 53.9922C60.2154 54.0978 60.3279 54.2936 60.3279 54.5048C60.3279 54.7159 60.2154 54.9118 60.0326 55.0173L50.6965 60.4104C50.6051 60.4631 50.5031 60.4901 50.4011 60.4901H50.3999ZM42.2478 54.5048L50.3999 59.2152L58.5522 54.5048L50.3999 49.7943L42.2478 54.5048Z" fill="white"/>
<path d="M50.3999 71.2775C50.298 71.2775 50.196 71.2506 50.1046 71.1978L40.7685 65.8036C40.5857 65.698 40.4731 65.5021 40.4731 65.291V54.5037C40.4731 54.2926 40.5857 54.0967 40.7685 53.9912C40.9514 53.8856 41.1776 53.8856 41.3605 53.9912L50.6965 59.3854C50.8794 59.4909 50.9919 59.6868 50.9919 59.8979V70.6852C50.9919 70.8963 50.8794 71.0922 50.6965 71.1978C50.6051 71.2506 50.5031 71.2775 50.4011 71.2775H50.3999ZM41.6559 64.9497L49.808 69.6601V60.2404L41.6559 55.53V64.9497Z" fill="white"/>
<path d="M50.3999 71.2775C50.298 71.2775 50.196 71.2506 50.1046 71.1978C49.9217 71.0922 49.8092 70.8963 49.8092 70.6852V59.8979C49.8092 59.6868 49.9217 59.4909 50.1046 59.3854L59.4406 53.9912C59.6235 53.8856 59.8497 53.8856 60.0326 53.9912C60.2154 54.0967 60.3279 54.2926 60.3279 54.5037V65.291C60.3279 65.5021 60.2154 65.698 60.0326 65.8036L50.6965 71.1978C50.6051 71.2506 50.5031 71.2775 50.4011 71.2775H50.3999ZM50.9919 60.2404V69.6601L59.1441 64.9497V55.53L50.9919 60.2404Z" fill="white"/>
<path d="M69.0708 60.4901C68.9689 60.4901 68.8669 60.4631 68.7755 60.4104L59.4394 55.0161C59.2566 54.9106 59.144 54.7147 59.144 54.5036C59.144 54.2925 59.2566 54.0966 59.4394 53.991L68.7755 48.598C68.9583 48.4924 69.1846 48.4924 69.3674 48.598L78.7035 53.9922C78.8863 54.0978 78.9988 54.2936 78.9988 54.5048C78.9988 54.7159 78.8863 54.9118 78.7035 55.0173L69.3674 60.4104C69.276 60.4631 69.174 60.4901 69.072 60.4901H69.0708ZM60.9187 54.5048L69.0708 59.2152L77.2231 54.5048L69.0708 49.7943L60.9187 54.5048Z" fill="white"/>
<path d="M69.0708 71.2775C68.9689 71.2775 68.8669 71.2506 68.7755 71.1978L59.4394 65.8036C59.2566 65.698 59.144 65.5021 59.144 65.291V54.5037C59.144 54.2926 59.2566 54.0967 59.4394 53.9912C59.6223 53.8856 59.8485 53.8856 60.0314 53.9912L69.3674 59.3854C69.5503 59.4909 69.6628 59.6868 69.6628 59.8979V70.6852C69.6628 70.8963 69.5503 71.0922 69.3674 71.1978C69.276 71.2506 69.174 71.2775 69.072 71.2775H69.0708ZM60.3268 64.9497L68.4789 69.6601V60.2404L60.3268 55.53V64.9497Z" fill="white"/>
<path d="M69.0708 71.2775C68.9689 71.2775 68.8669 71.2506 68.7755 71.1978C68.5926 71.0922 68.4801 70.8963 68.4801 70.6852V59.8979C68.4801 59.6868 68.5926 59.4909 68.7755 59.3854L78.1115 53.9912C78.2944 53.8856 78.5206 53.8856 78.7034 53.9912C78.8863 54.0967 78.9988 54.2926 78.9988 54.5037V65.291C78.9988 65.5021 78.8863 65.698 78.7034 65.8036L69.3674 71.1978C69.276 71.2506 69.174 71.2775 69.072 71.2775H69.0708ZM69.6628 60.2404V69.6601L77.815 64.9497V55.53L69.6628 60.2404Z" fill="white"/>
<path d="M59.7348 44.3098C59.6328 44.3098 59.5308 44.2829 59.4394 44.2301L50.1034 38.8358C49.9205 38.7303 49.808 38.5344 49.808 38.3233C49.808 38.1122 49.9205 37.9163 50.1034 37.8107L59.4394 32.4177C59.6223 32.3121 59.8485 32.3121 60.0314 32.4177L69.3674 37.8119C69.5502 37.9175 69.6628 38.1133 69.6628 38.3245C69.6628 38.5356 69.5502 38.7315 69.3674 38.837L60.0314 44.2301C59.9399 44.2829 59.838 44.3098 59.736 44.3098H59.7348ZM51.5826 38.3245L59.7348 43.0349L67.887 38.3245L59.7348 33.614L51.5826 38.3245Z" fill="white"/>
<path d="M59.7348 55.0972C59.6328 55.0972 59.5308 55.0703 59.4394 55.0175L50.1034 49.6233C49.9205 49.5177 49.808 49.3218 49.808 49.1107V38.3234C49.808 38.1123 49.9205 37.9164 50.1034 37.8109C50.2862 37.7053 50.5124 37.7053 50.6953 37.8109L60.0314 43.2051C60.2142 43.3106 60.3267 43.5065 60.3267 43.7177V54.5049C60.3267 54.716 60.2142 54.9119 60.0314 55.0175C59.9399 55.0703 59.838 55.0972 59.736 55.0972H59.7348ZM50.9906 48.7694L59.1429 53.4798V44.0601L50.9906 39.3497V48.7694Z" fill="white"/>
<path d="M59.7348 55.0972C59.6328 55.0972 59.5308 55.0703 59.4394 55.0175C59.2566 54.9119 59.144 54.716 59.144 54.5049V43.7177C59.144 43.5065 59.2566 43.3106 59.4394 43.2051L68.7755 37.8109C68.9583 37.7053 69.1846 37.7053 69.3674 37.8109C69.5503 37.9164 69.6628 38.1123 69.6628 38.3234V49.1107C69.6628 49.3218 69.5503 49.5177 69.3674 49.6233L60.0314 55.0175C59.94 55.0703 59.838 55.0972 59.736 55.0972H59.7348ZM60.3268 44.0601V53.4798L68.4789 48.7694V39.3497L60.3268 44.0601Z" fill="white"/>
</svg>
