<svg width="24" height="24" viewBox="0 0 24 24" fill="none" xmlns="http://www.w3.org/2000/svg">
<path d="M12.0007 0.333252C5.56065 0.333252 0.333984 5.55992 0.333984 11.9999C0.333984 18.4399 5.56065 23.6666 12.0007 23.6666C18.4407 23.6666 23.6673 18.4399 23.6673 11.9999C23.6673 5.55992 18.4407 0.333252 12.0007 0.333252ZM2.66732 11.9999C2.66732 11.2883 2.76065 10.5883 2.91232 9.92325L8.48899 15.4999V16.6666C8.48899 17.9499 9.53898 18.9999 10.8223 18.9999V21.2516C6.23732 20.6683 2.66732 16.7483 2.66732 11.9999ZM18.8723 18.2999C18.569 17.3549 17.7057 16.6666 16.6557 16.6666H15.489V13.1666C15.489 12.5249 14.964 11.9999 14.3223 11.9999H7.32232V9.66659H9.65565C10.2973 9.66659 10.8223 9.14159 10.8223 8.49992V6.16659H13.1557C14.439 6.16659 15.489 5.11659 15.489 3.83325V3.35492C18.9073 4.73159 21.334 8.09159 21.334 11.9999C21.334 14.4266 20.389 16.6433 18.8723 18.2999Z" fill="white"/>
</svg>
