<svg width="1790" height="1768" viewBox="0 0 1790 1768" fill="none" xmlns="http://www.w3.org/2000/svg">
    <path fill-rule="evenodd" clip-rule="evenodd"
        d="M1789.28 0H0V1767.41H1789.28V0ZM1062.52 1417.61H708.805C588 1417.61 498.122 1393.74 439.17 1346.01C381.183 1298.28 352.19 1224.78 352.19 1125.5V680.166C352.19 580.886 381.183 507.38 439.17 459.649C498.122 410.964 588 386.621 708.805 386.621H1062.52C1080.88 386.621 1093.93 390.917 1101.66 399.508C1110.36 407.145 1114.71 420.033 1114.71 438.17V611.434C1114.71 629.572 1110.36 642.936 1101.66 651.528C1093.93 659.165 1080.88 662.983 1062.52 662.983H771.14C741.18 662.983 718.952 669.188 704.456 681.598C689.959 693.054 682.711 710.714 682.711 734.58V1075.38C682.711 1099.24 689.959 1116.91 704.456 1128.36C718.952 1138.86 741.18 1144.11 771.14 1144.11H1062.52C1080.88 1144.11 1093.93 1148.41 1101.66 1157C1110.36 1164.64 1114.71 1177.52 1114.71 1195.66V1366.06C1114.71 1384.2 1110.36 1397.56 1101.66 1406.15C1093.93 1413.79 1080.88 1417.61 1062.52 1417.61ZM1448.59 1116.9H1256.22C1244.15 1116.9 1235.27 1112.74 1229.55 1104.41C1224.47 1095.03 1221.93 1080.45 1221.93 1060.67V743.56C1221.93 723.774 1224.47 709.715 1229.55 701.384C1235.27 692.011 1244.15 687.325 1256.22 687.325H1448.59C1460.65 687.325 1469.22 692.011 1474.3 701.384C1480.01 709.715 1482.87 723.774 1482.87 743.56V1060.67C1482.87 1080.45 1480.01 1095.03 1474.3 1104.41C1469.22 1112.74 1460.65 1116.9 1448.59 1116.9Z"
        fill="#00FFB3" />
</svg>